<svg xmlns="http://www.w3.org/2000/svg" viewBox="0 0 52 1024"><path fill="none" stroke="#fff" stroke-width="3" stroke-linecap="round" stroke-linejoin="round" d="M 5.00 0.00 L 5.00 7.06 L 5.00 14.12 L 5.00 21.19 L 5.00 28.25 L 5.00 35.31 L 5.50 42.37 L 6.00 49.43 L 6.00 56.50 L 6.00 63.56 L 7.00 70.62 L 7.50 77.68 L 8.00 84.74 L 9.00 91.81 L 10.00 98.87 L 11.00 105.93 L 12.00 112.99 L 13.00 120.06 L 14.00 127.12 L 15.00 134.18 L 16.50 141.24 L 18.00 148.30 L 19.50 155.37 L 21.00 162.43 L 22.50 169.49 L 24.00 176.55 L 20.80 183.61 L 22.88 190.68 L 22.80 197.74 L 23.00 204.80 L 27.00 211.86 L 28.00 218.92 L 29.50 225.99 L 30.00 233.05 L 30.50 240.11 L 33.00 247.17 L 34.00 254.23 L 34.00 261.30 L 35.00 268.36 L 35.00 275.42 L 35.00 282.48 L 35.00 289.54 L 30.50 296.61 L 5.50 303.67 L 10.50 310.73 L 16.50 317.79 L 22.00 324.86 L 27.50 331.92 L 31.00 338.98 L 35.00 346.04 L 38.50 353.10 L 41.50 360.17 L 43.50 367.23 L 45.00 374.29 L 46.00 381.35 L 47.00 388.41 L 47.00 395.48 L 48.00 402.54 L 48.00 409.60 L 47.50 416.66 L 47.00 423.72 L 47.00 430.79 L 46.00 437.85 L 44.00 444.91 L 42.50 451.97 L 40.50 459.03 L 38.50 466.10 L 36.00 473.16 L 33.50 480.22 L 31.00 487.28 L 28.50 494.34 L 26.00 501.41 L 23.50 508.47 L 21.50 515.53 L 19.00 522.59 L 18.50 529.66 L 18.00 536.72 L 18.00 543.78 L 18.00 550.84 L 18.00 557.90 L 18.50 564.97 L 19.00 572.03 L 19.00 579.09 L 20.00 586.15 L 20.50 593.21 L 21.00 600.28 L 22.00 607.34 L 23.00 614.40 L 24.00 621.46 L 25.00 628.52 L 26.00 635.59 L 27.00 642.65 L 27.50 649.71 L 28.00 656.77 L 29.00 663.83 L 29.00 670.90 L 30.00 677.96 L 30.00 685.02 L 30.00 692.08 L 30.00 699.14 L 30.00 706.21 L 30.00 713.27 L 30.00 720.33 L 30.00 727.39 L 30.00 734.46 L 30.00 741.52 L 29.50 748.58 L 29.00 755.64 L 29.00 762.70 L 29.00 769.77 L 28.50 776.83 L 28.00 783.89 L 28.00 790.95 L 28.00 798.01 L 27.50 805.08 L 27.00 812.14 L 27.00 819.20 L 27.00 826.26 L 26.50 833.32 L 26.00 840.39 L 26.00 847.45 L 26.00 854.51 L 26.00 861.57 L 26.00 868.63 L 26.00 875.70 L 25.50 882.76 L 25.50 889.82 L 25.50 896.88 L 25.00 903.94 L 25.00 911.01 L 25.00 918.07 L 25.00 925.13 L 25.00 932.19 L 24.50 939.26 L 24.50 946.32 L 24.00 953.38 L 24.00 960.44 L 24.00 967.50 L 24.00 974.57 L 24.00 981.63 L 24.00 988.69 L 24.00 995.75 L 24.00 1002.81 L 24.00 1009.88 L 24.50 1016.94"/></svg>
