<svg width="50" height="290" viewBox="0 0 50 290" fill="none" xmlns="http://www.w3.org/2000/svg">
<path d="M5.7831 1.5C5.54571 3.8805 5.6694 7.69546 5.87118 11.1369C6.07297 14.5784 6.47703 17.5401 7.58474 21.2174C8.69246 24.8948 10.4916 29.1981 12.6209 33.1999C16.7665 40.9913 20.3113 45.0777 22.0373 47.0383C26.7753 52.4202 27.677 57.2012 29.0127 64.0341C30.2394 70.3101 27.1664 79.0258 25.6116 81.0985C25.3536 81.4424 24.8926 81.4816 24.1078 80.3393C21.7878 76.9626 20.5017 73.0474 19.7848 70.5151C19.0087 67.7738 18.88 63.3835 19.1008 58.3505C19.1964 56.1705 19.7631 54.7865 21.767 56.0848C28.2293 60.2717 31.4917 66.3696 32.5857 68.5513C36.3017 75.9625 35.8028 82.5368 35.4454 83.5645C35.0751 84.6296 32.0867 84.1327 29.509 84.3624C25.9072 84.6833 20.8791 78.1935 18.2878 73.8383C15.5682 69.2675 16.3258 65.0568 16.614 64.2216C17.7426 60.9511 22.5017 58.8192 22.957 57.671C23.5943 56.0638 22.7856 54.2669 22.1388 53.1287C21.64 52.251 20.874 51.7712 20.1064 51.2535C19.1694 50.6214 15.3237 54.099 9.57121 60.8879C5.03724 66.2387 2.99985 70.4031 2.13197 73.0224C0.837762 76.9282 1.73137 80.8944 3.01856 84.6749C3.41267 85.8324 5.14036 86.6477 8.20932 87.712C12.1945 89.094 17.5493 90.2427 24.4151 92.9961C28.4531 94.6155 33.3795 97.2466 36.582 99.0405C43.4707 102.899 45.0236 105.669 46.2565 107.834C49.0291 112.703 48.2404 118.117 47.6977 121.453C47.2878 123.972 45.2209 125.806 43.7952 127.732C41.4362 130.919 38.0274 133.198 35.1402 135.68C28.3404 141.523 24.5179 143.316 20.696 147.276C19.1296 148.899 18.7589 150.867 18.3946 152.555C17.8795 154.942 18.6913 160.277 20.3801 166.518C21.1215 169.258 23.4939 175.41 26.6914 181.33C28.154 184.038 29.0542 187.347 29.6892 189.873C30.003 191.121 30.2721 193.348 30.4221 197.57C30.8025 208.284 30.1172 210.698 29.9005 213.448C29.4966 218.572 28.8653 220.689 27.9738 227.957C27.5093 231.745 27.2074 233.71 26.8034 238.482C26.4444 242.72 26.0988 250.673 25.8201 255.114C25.4973 260.256 25.0768 265.15 24.6387 272.137C24.0283 279.453 23.9262 284.112 24.7007 287.776" stroke="#EDEDED" stroke-width="3" stroke-linecap="round"/>
</svg>
