<svg viewBox="0 0 383 110" fill="none" xmlns="http://www.w3.org/2000/svg">
<path d="M333.963 25.5862H313.438V2.08594H382.451V25.5862H361.628V108.283H333.963V25.5862Z" fill="currentColor"/>
<path d="M267.36 2.08594V78.6849C267.36 83.8411 268.104 87.3116 269.591 89.0964C271.079 90.7821 273.111 91.6249 275.689 91.6249C278.268 91.6249 280.3 90.7821 281.788 89.0964C283.275 87.3116 284.019 83.8411 284.019 78.6849V2.08594H311.683V71.6943C311.683 79.1311 310.89 85.3284 309.304 90.2863C307.717 95.2441 305.387 99.2104 302.313 102.185C299.338 105.16 295.62 107.193 291.158 108.283C286.696 109.374 281.54 109.919 275.689 109.919C269.938 109.919 264.782 109.374 260.221 108.283C255.759 107.193 251.991 105.16 248.917 102.185C245.942 99.2104 243.662 95.2441 242.075 90.2863C240.489 85.3284 239.695 79.1311 239.695 71.6943V2.08594H267.36Z" fill="currentColor"/>
<path d="M189.62 55.181C189.62 62.3203 189.719 68.2697 189.917 73.0293C190.116 77.6897 190.512 81.4081 191.107 84.1845C191.801 86.9609 192.743 88.8944 193.933 89.9852C195.222 91.0759 196.908 91.6213 198.99 91.6213C201.072 91.6213 202.709 91.0759 203.898 89.9852C205.187 88.8944 206.129 86.9609 206.724 84.1845C207.418 81.4081 207.865 77.6897 208.063 73.0293C208.261 68.2697 208.36 62.3203 208.36 55.181C208.36 48.0417 208.261 42.1418 208.063 37.4814C207.865 32.7219 207.418 28.9539 206.724 26.1775C206.129 23.4011 205.187 21.4675 203.898 20.3768C202.709 19.2861 201.072 18.7407 198.99 18.7407C196.908 18.7407 195.222 19.2861 193.933 20.3768C192.743 21.4675 191.801 23.4011 191.107 26.1775C190.512 28.9539 190.116 32.7219 189.917 37.4814C189.719 42.1418 189.62 48.0417 189.62 55.181ZM161.062 55.181C161.062 45.2653 161.707 36.8369 162.996 29.8959C164.285 22.8557 166.417 17.1542 169.392 12.7913C172.366 8.32921 176.283 5.1066 181.142 3.12346C186.001 1.04115 191.95 0 198.99 0C206.03 0 211.98 1.04115 216.839 3.12346C221.697 5.1066 225.614 8.32921 228.589 12.7913C231.563 17.1542 233.695 22.8557 234.984 29.8959C236.273 36.8369 236.918 45.2653 236.918 55.181C236.918 65.0967 236.273 73.5746 234.984 80.6148C233.695 87.5558 231.563 93.2574 228.589 97.7194C225.614 102.082 221.697 105.206 216.839 107.09C211.98 108.974 206.03 109.916 198.99 109.916C191.95 109.916 186.001 108.974 181.142 107.09C176.283 105.206 172.366 102.082 169.392 97.7194C166.417 93.2574 164.285 87.5558 162.996 80.6148C161.707 73.5746 161.062 65.0967 161.062 55.181Z" fill="currentColor"/>
<path d="M113.286 88.3527H121.02C123.598 88.3527 125.879 87.3116 127.862 85.2293C129.845 83.0478 130.837 79.726 130.837 75.264C130.837 71.0994 129.845 67.9263 127.862 65.7449C125.879 63.5634 123.598 62.4727 121.02 62.4727H113.286V88.3527ZM113.286 43.732H119.979C122.855 43.732 125.036 42.6908 126.523 40.6085C128.011 38.4271 128.754 35.8985 128.754 33.023C128.754 30.0483 128.011 27.4702 126.523 25.2887C125.036 23.1073 122.855 22.0165 119.979 22.0165H113.286V43.732ZM85.6211 2.08594H127.416C137.332 2.08594 144.62 4.51529 149.28 9.374C154.04 14.1335 156.419 20.5292 156.419 28.5609C156.419 31.3373 156.072 34.0641 155.378 36.7414C154.783 39.3195 153.792 41.6992 152.403 43.8807C151.114 45.963 149.429 47.7478 147.346 49.2352C145.264 50.7225 142.736 51.7637 139.761 52.3586V52.6561C143.231 52.9536 146.206 53.8956 148.685 55.4821C151.164 56.9695 153.197 58.8534 154.783 61.1341C156.37 63.4147 157.51 65.9432 158.204 68.7196C158.997 71.3968 159.394 74.1236 159.394 76.9C159.394 81.4613 158.799 85.6755 157.609 89.5426C156.419 93.4097 154.535 96.7315 151.957 99.5079C149.478 102.284 146.206 104.466 142.141 106.052C138.075 107.54 133.167 108.283 127.416 108.283H85.6211V2.08594Z" fill="currentColor"/>
<path d="M42.6871 23.8014L35.1016 68.8683H50.5702L42.9846 23.8014H42.6871ZM60.2379 2.08594L86.1181 108.283H56.6683L53.8424 89.6913H31.8294L29.0035 108.283H0L25.4338 2.08594H60.2379Z" fill="currentColor"/>
</svg>
