<svg viewBox="0 0 382 87" fill="none" xmlns="http://www.w3.org/2000/svg">
<path d="M322.602 1.64844H346.875L360.879 52.9958H361.112V1.64844H381.417V84.9711H357.611L343.14 33.5071H342.907V84.9711H322.602V1.64844Z" fill="currentColor"/>
<path d="M284.226 43.2951C284.226 48.8966 284.304 53.5646 284.46 57.2989C284.615 60.9555 284.927 63.8729 285.393 66.0513C285.938 68.2297 286.677 69.7468 287.611 70.6026C288.622 71.4583 289.945 71.8862 291.578 71.8862C293.212 71.8862 294.496 71.4583 295.429 70.6026C296.441 69.7468 297.18 68.2297 297.647 66.0513C298.191 63.8729 298.541 60.9555 298.697 57.2989C298.853 53.5646 298.93 48.8966 298.93 43.2951C298.93 37.6936 298.853 33.0646 298.697 29.408C298.541 25.6737 298.191 22.7173 297.647 20.5389C297.18 18.3606 296.441 16.8435 295.429 15.9877C294.496 15.1319 293.212 14.704 291.578 14.704C289.945 14.704 288.622 15.1319 287.611 15.9877C286.677 16.8435 285.938 18.3606 285.393 20.5389C284.927 22.7173 284.615 25.6737 284.46 29.408C284.304 33.0646 284.226 37.6936 284.226 43.2951ZM261.82 43.2951C261.82 35.5152 262.326 28.9023 263.337 23.4564C264.349 17.9327 266.021 13.4592 268.355 10.0361C270.689 6.53511 273.762 4.00665 277.575 2.45067C281.387 0.816889 286.055 0 291.578 0C297.102 0 301.77 0.816889 305.582 2.45067C309.394 4.00665 312.467 6.53511 314.801 10.0361C317.135 13.4592 318.808 17.9327 319.819 23.4564C320.831 28.9023 321.336 35.5152 321.336 43.2951C321.336 51.075 320.831 57.7268 319.819 63.2506C318.808 68.6965 317.135 73.1699 314.801 76.6709C312.467 80.094 309.394 82.5447 305.582 84.0229C301.77 85.5011 297.102 86.2401 291.578 86.2401C286.055 86.2401 281.387 85.5011 277.575 84.0229C273.762 82.5447 270.689 80.094 268.355 76.6709C266.021 73.1699 264.349 68.6965 263.337 63.2506C262.326 57.7268 261.82 51.075 261.82 43.2951Z" fill="currentColor"/>
<path d="M237.809 1.64844H259.515V84.9711H237.809V1.64844Z" fill="currentColor"/>
<path d="M198.014 20.0868H181.91V1.64844H236.058V20.0868H219.72V84.9711H198.014V20.0868Z" fill="currentColor"/>
<path d="M158.78 26.9573C158.78 22.2116 158.313 18.9829 157.38 17.2714C156.446 15.5598 154.929 14.704 152.828 14.704C151.195 14.704 149.872 15.1319 148.861 15.9877C147.927 16.8435 147.188 18.3606 146.643 20.5389C146.177 22.7173 145.865 25.6737 145.71 29.408C145.554 33.0646 145.476 37.6936 145.476 43.2951C145.476 48.8966 145.554 53.5646 145.71 57.2989C145.865 60.9555 146.177 63.8729 146.643 66.0513C147.188 68.2297 147.927 69.7468 148.861 70.6026C149.872 71.4583 151.195 71.8862 152.828 71.8862C154.151 71.8862 155.24 71.575 156.096 70.9527C156.952 70.2525 157.613 69.1244 158.08 67.5684C158.547 66.0124 158.858 63.9507 159.013 61.3834C159.247 58.7382 159.364 55.4318 159.364 51.464H180.369V57.649C180.369 63.4839 179.591 68.2686 178.035 72.0029C176.479 75.7373 174.418 78.6936 171.85 80.872C169.283 82.9726 166.326 84.373 162.981 85.0732C159.714 85.8512 156.329 86.2401 152.828 86.2401C146.76 86.2401 141.781 85.5011 137.891 84.0229C134.001 82.5447 130.967 80.094 128.789 76.6709C126.61 73.1699 125.093 68.6965 124.237 63.2506C123.459 57.7268 123.07 51.075 123.07 43.2951C123.07 35.3596 123.537 28.63 124.471 23.1063C125.482 17.5826 127.155 13.1091 129.489 9.68597C131.823 6.26282 134.896 3.81215 138.708 2.33397C142.52 0.777992 147.227 0 152.828 0C157.73 0 161.892 0.622392 165.315 1.86718C168.738 3.11196 171.5 4.90134 173.601 7.23531C175.779 9.49147 177.335 12.2533 178.269 15.5209C179.28 18.7106 179.786 22.3283 179.786 26.3738V31.6253H158.78V26.9573Z" fill="currentColor"/>
<path d="M86.1161 1.64844V61.7481C86.1161 65.7937 86.6995 68.5166 87.8665 69.917C89.0335 71.2396 90.6283 71.9009 92.6511 71.9009C94.6739 71.9009 96.2688 71.2396 97.4358 69.917C98.6028 68.5166 99.1862 65.7937 99.1862 61.7481V1.64844H120.892V56.2633C120.892 62.0982 120.27 66.9607 119.025 70.8506C117.78 74.7406 115.952 77.8525 113.54 80.1865C111.206 82.5205 108.289 84.1153 104.788 84.9711C101.287 85.8269 97.2413 86.2548 92.6511 86.2548C88.1388 86.2548 84.0932 85.8269 80.5145 84.9711C77.0135 84.1153 74.0572 82.5205 71.6454 80.1865C69.3115 77.8525 67.5221 74.7406 66.2773 70.8506C65.0325 66.9607 64.4102 62.0982 64.4102 56.2633V1.64844H86.1161Z" fill="currentColor"/>
<path d="M33.4925 18.6864L27.5409 54.046H39.6775L33.7259 18.6864H33.4925ZM47.2629 1.64844L67.5684 84.9711H44.4621L42.2449 70.3838H24.9735L22.7562 84.9711H0L19.9555 1.64844H47.2629Z" fill="currentColor"/>
</svg>
