<svg viewBox="0 0 453 87" fill="none" xmlns="http://www.w3.org/2000/svg">
<path d="M429.818 25.6737V23.6898C429.818 21.2002 429.312 19.0996 428.301 17.3881C427.29 15.5987 425.734 14.704 423.633 14.704C421.299 14.704 419.588 15.482 418.498 17.038C417.409 18.5162 416.865 20.1888 416.865 22.056C416.865 24.779 417.72 26.9573 419.432 28.5911C421.221 30.1471 423.439 31.5086 426.084 32.6756C428.729 33.8425 431.569 35.0484 434.603 36.2932C437.637 37.4602 440.477 39.0162 443.122 40.9611C445.767 42.9061 447.945 45.4735 449.657 48.6632C451.446 51.7752 452.341 55.8597 452.341 60.9166C452.341 69.7857 449.812 76.243 444.755 80.2885C439.699 84.2563 432.385 86.2401 422.816 86.2401C418.304 86.2401 414.297 85.8512 410.796 85.0732C407.373 84.373 404.456 83.1282 402.044 81.3388C399.71 79.4716 397.921 77.0599 396.676 74.1035C395.431 71.1471 394.809 67.4906 394.809 63.1339V60.2164H415.814V62.2003C415.814 65.779 416.476 68.3075 417.798 69.7857C419.121 71.186 420.832 71.8862 422.933 71.8862C425.189 71.8862 426.901 71.1082 428.068 69.5523C429.312 67.9963 429.935 66.0902 429.935 63.834C429.935 61.1111 429.079 58.9716 427.367 57.4156C425.734 55.7819 423.633 54.4204 421.066 53.3312C418.576 52.1642 415.853 50.9972 412.897 49.8302C409.94 48.6632 407.179 47.1462 404.611 45.279C402.122 43.4118 400.021 40.9612 398.31 37.927C396.676 34.8928 395.859 30.9251 395.859 26.0238C395.859 17.5437 398.115 11.0864 402.627 6.65181C407.14 2.21727 413.986 0 423.166 0C432.658 0 439.504 2.06167 443.705 6.18502C447.984 10.2306 450.124 16.7268 450.124 25.6737H429.818Z" fill="currentColor"/>
<path d="M342.523 1.64844H391.887V19.3866H364.229V33.6238H390.136V50.6618H364.229V67.233H392.937V84.9711H342.523V1.64844Z" fill="currentColor"/>
<path d="M318.406 1.64844H340.112V84.9711H318.406V1.64844Z" fill="currentColor"/>
<path d="M277.436 20.0868H261.332V1.64844H315.48V20.0868H299.142V84.9711H277.436V20.0868Z" fill="currentColor"/>
<path d="M238.549 25.6737V23.6898C238.549 21.2002 238.043 19.0996 237.031 17.3881C236.02 15.5987 234.464 14.704 232.364 14.704C230.03 14.704 228.318 15.482 227.229 17.038C226.14 18.5162 225.595 20.1888 225.595 22.056C225.595 24.779 226.451 26.9573 228.162 28.5911C229.952 30.1471 232.169 31.5086 234.814 32.6756C237.459 33.8425 240.299 35.0484 243.333 36.2932C246.367 37.4602 249.207 39.0162 251.852 40.9611C254.497 42.9061 256.676 45.4735 258.387 48.6632C260.177 51.7752 261.071 55.8597 261.071 60.9166C261.071 69.7857 258.543 76.243 253.486 80.2885C248.429 84.2563 241.116 86.2401 231.547 86.2401C227.034 86.2401 223.028 85.8512 219.527 85.0732C216.104 84.373 213.186 83.1282 210.774 81.3388C208.44 79.4716 206.651 77.0599 205.406 74.1035C204.161 71.1471 203.539 67.4906 203.539 63.1339V60.2164H224.545V62.2003C224.545 65.779 225.206 68.3075 226.529 69.7857C227.851 71.186 229.563 71.8862 231.663 71.8862C233.92 71.8862 235.631 71.1082 236.798 69.5523C238.043 67.9963 238.665 66.0902 238.665 63.834C238.665 61.1111 237.81 58.9716 236.098 57.4156C234.464 55.7819 232.364 54.4204 229.796 53.3312C227.307 52.1642 224.584 50.9972 221.627 49.8302C218.671 48.6632 215.909 47.1462 213.342 45.279C210.852 43.4118 208.752 40.9612 207.04 37.927C205.406 34.8928 204.589 30.9251 204.589 26.0238C204.589 17.5437 206.846 11.0864 211.358 6.65181C215.87 2.21727 222.716 0 231.897 0C241.388 0 248.235 2.06167 252.436 6.18502C256.715 10.2306 258.854 16.7268 258.854 25.6737H238.549Z" fill="currentColor"/>
<path d="M179.645 1.64844H201.35V84.9711H179.645V1.64844Z" fill="currentColor"/>
<path d="M139.831 36.8914H144.149C147.261 36.8914 149.556 35.9967 151.034 34.2073C152.512 32.3401 153.251 29.9284 153.251 26.972C153.251 23.471 152.512 20.9815 151.034 19.5033C149.634 18.0251 147.3 17.286 144.032 17.286H139.831V36.8914ZM118.125 1.64844H152.084C156.208 1.64844 159.709 2.19303 162.587 3.28221C165.543 4.3714 167.916 5.92738 169.706 7.95016C171.573 9.89513 172.895 12.2291 173.673 14.9521C174.529 17.675 174.957 20.6314 174.957 23.8211C174.957 29.4227 173.829 33.935 171.573 37.3582C169.317 40.7813 165.699 42.8819 160.72 43.6599V43.8933C165.932 44.3601 169.511 46.1883 171.456 49.3781C173.401 52.5679 174.374 56.9635 174.374 62.565V69.6836C174.374 70.7728 174.374 71.9009 174.374 73.0679C174.374 74.2349 174.413 75.3629 174.49 76.4521C174.568 77.4635 174.685 78.3971 174.84 79.2529C174.996 80.1087 175.191 80.77 175.424 81.2368C175.735 81.7036 176.046 82.1704 176.357 82.6372C176.669 83.0261 177.174 83.4151 177.875 83.8041V84.9711H154.768C154.224 83.8819 153.796 82.5983 153.485 81.1201C153.251 79.6419 153.057 78.1637 152.901 76.6855C152.823 75.2073 152.746 73.807 152.668 72.4844C152.668 71.084 152.668 69.9559 152.668 69.1001V63.4986C152.668 61.1646 152.551 59.2197 152.318 57.6637C152.084 56.1077 151.656 54.9018 151.034 54.046C150.489 53.1124 149.75 52.4901 148.817 52.1789C147.961 51.7899 146.872 51.5954 145.549 51.5954H139.831V84.9711H118.125V1.64844Z" fill="currentColor"/>
<path d="M59.2969 1.64844H81.0028V32.2234H94.3064V1.64844H116.012V84.9711H94.3064V50.6618H81.0028V84.9711H59.2969V1.64844Z" fill="currentColor"/>
<path d="M35.7097 26.9573C35.7097 22.2116 35.2429 18.9829 34.3093 17.2714C33.3758 15.5598 31.8587 14.704 29.7581 14.704C28.1243 14.704 26.8018 15.1319 25.7904 15.9877C24.8568 16.8435 24.1177 18.3606 23.5731 20.5389C23.1063 22.7173 22.7951 25.6737 22.6395 29.408C22.4839 33.0646 22.4061 37.6936 22.4061 43.2951C22.4061 48.8966 22.4839 53.5646 22.6395 57.2989C22.7951 60.9555 23.1063 63.8729 23.5731 66.0513C24.1177 68.2297 24.8568 69.7468 25.7904 70.6026C26.8018 71.4583 28.1243 71.8862 29.7581 71.8862C31.0807 71.8862 32.1699 71.575 33.0257 70.9527C33.8815 70.2525 34.5428 69.1244 35.0096 67.5684C35.4764 66.0124 35.7875 63.9507 35.9431 61.3834C36.1765 58.7382 36.2932 55.4318 36.2932 51.464H57.2989V57.649C57.2989 63.4839 56.5209 68.2686 54.965 72.0029C53.409 75.7373 51.3473 78.6936 48.78 80.872C46.2126 82.9726 43.2562 84.373 39.9108 85.0732C36.6433 85.8512 33.2591 86.2401 29.7581 86.2401C23.6898 86.2401 18.7107 85.5011 14.8207 84.0229C10.9308 82.5447 7.8966 80.094 5.71823 76.6709C3.53986 73.1699 2.02279 68.6965 1.16701 63.2506C0.389017 57.7268 0 51.075 0 43.2951C0 35.3596 0.466806 28.63 1.40039 23.1063C2.41178 17.5826 4.08446 13.1091 6.41843 9.68597C8.75239 6.26282 11.8255 3.81215 15.6376 2.33397C19.4497 0.777992 24.1566 0 29.7581 0C34.6594 0 38.8217 0.622392 42.2448 1.86718C45.668 3.11196 48.4298 4.90134 50.5304 7.23531C52.7088 9.49147 54.2648 12.2533 55.1984 15.5209C56.2097 18.7106 56.7155 22.3283 56.7155 26.3738V31.6253H35.7097V26.9573Z" fill="currentColor"/>
</svg>
