<svg viewBox="0 0 70 42" fill="none" xmlns="http://www.w3.org/2000/svg">
<path d="M50.6445 41.4954L68.7536 0H69.8646L51.7 41.4954H50.6445Z" fill="currentColor"/>
<path d="M25.7266 0.945312H36.5587L40.7249 30.8309H40.836L45.0022 0.945312H56.001L47.4464 40.6076H34.1145L25.7266 0.945312Z" fill="currentColor"/>
<path d="M16.9982 12.996C16.9982 10.737 16.7759 9.20011 16.3316 8.38538C15.8872 7.57065 15.165 7.16329 14.1651 7.16329C13.3874 7.16329 12.7579 7.36697 12.2764 7.77434C11.8321 8.1817 11.4802 8.90384 11.221 9.94077C10.9988 10.9777 10.8507 12.3849 10.7766 14.1625C10.7025 15.9031 10.6655 18.1065 10.6655 20.7729C10.6655 23.4393 10.7025 25.6613 10.7766 27.4388C10.8507 29.1794 10.9988 30.5681 11.221 31.6051C11.4802 32.642 11.8321 33.3641 12.2764 33.7715C12.7579 34.1788 13.3874 34.3825 14.1651 34.3825C14.7947 34.3825 15.3131 34.2344 15.7205 33.9381C16.1279 33.6048 16.4426 33.0679 16.6648 32.3272C16.887 31.5865 17.0352 30.6052 17.1093 29.3831C17.2203 28.124 17.2759 26.55 17.2759 24.6614H27.2748V27.6055C27.2748 30.383 26.9045 32.6605 26.1638 34.4381C25.4231 36.2157 24.4418 37.6229 23.2197 38.6598C21.9976 39.6597 20.5904 40.3263 18.9979 40.6596C17.4426 41.0299 15.8316 41.2151 14.1651 41.2151C11.2766 41.2151 8.90642 40.8633 7.05477 40.1597C5.20313 39.456 3.75885 38.2895 2.72193 36.66C1.68501 34.9936 0.962873 32.8642 0.55551 30.2719C0.185181 27.6425 0 24.4762 0 20.7729C0 16.9955 0.22221 13.7922 0.666605 11.1629C1.14803 8.53351 1.94423 6.40412 3.05522 4.77467C4.1662 3.14522 5.62903 1.97868 7.44364 1.27505C9.25826 0.534393 11.4988 0.164062 14.1651 0.164062C16.4982 0.164062 18.4795 0.460327 20.1089 1.05286C21.7384 1.64538 23.053 2.49714 24.0529 3.60813C25.0899 4.68209 25.8305 5.99676 26.2749 7.55214C26.7563 9.07049 26.9971 10.7925 26.9971 12.7182V15.218H16.9982V12.996Z" fill="currentColor"/>
</svg>
