<svg viewBox="0 0 594 112" fill="none" xmlns="http://www.w3.org/2000/svg">
<path d="M541.699 111.106L590.187 0H593.162L544.525 111.106H541.699Z" fill="currentColor"/>
<path d="M494.946 47.4416H500.449C504.416 47.4416 507.341 46.3013 509.225 44.0207C511.109 41.641 512.051 38.5671 512.051 34.7991C512.051 30.337 511.109 27.164 509.225 25.28C507.44 23.396 504.465 22.454 500.301 22.454H494.946V47.4416ZM467.281 2.52344H510.563C515.819 2.52344 520.281 3.21754 523.95 4.60574C527.718 5.99394 530.742 7.97708 533.022 10.5552C535.402 13.0341 537.088 16.0088 538.079 19.4793C539.17 22.9498 539.716 26.7178 539.716 30.7832C539.716 37.9226 538.278 43.6737 535.402 48.0366C532.527 52.3995 527.916 55.0768 521.57 56.0683V56.3658C528.213 56.9607 532.775 59.2909 535.254 63.3564C537.732 67.4218 538.972 73.0242 538.972 80.1635V89.2364C538.972 90.6246 538.972 92.0624 538.972 93.5498C538.972 95.0371 539.022 96.4749 539.121 97.8631C539.22 99.1521 539.369 100.342 539.567 101.433C539.765 102.523 540.013 103.366 540.311 103.961C540.707 104.556 541.104 105.151 541.5 105.746C541.897 106.242 542.542 106.738 543.434 107.233V108.721H513.984C513.29 107.333 512.745 105.697 512.348 103.813C512.051 101.929 511.803 100.045 511.605 98.1606C511.505 96.2766 511.406 94.4917 511.307 92.8061C511.307 91.0212 511.307 89.5835 511.307 88.4927V81.3534C511.307 78.3787 511.158 75.8998 510.861 73.9166C510.563 71.9335 510.018 70.3965 509.225 69.3058C508.531 68.1159 507.589 67.3227 506.399 66.926C505.308 66.4303 503.92 66.1824 502.234 66.1824H494.946V108.721H467.281V2.52344Z" fill="currentColor"/>
<path d="M401.258 2.52344H464.173V25.1313H428.923V43.277H461.942V64.9925H428.923V86.113H465.512V108.721H401.258V2.52344Z" fill="currentColor"/>
<path d="M323.992 2.52344H354.929L372.778 67.9672H373.075V2.52344H398.955V108.721H368.613L350.17 43.1283H349.872V108.721H323.992V2.52344Z" fill="currentColor"/>
<path d="M285.392 51.0155H321.088V108.725H302.347L301.753 99.3546H301.455C300.563 101.635 299.274 103.519 297.588 105.007C296.001 106.494 294.167 107.634 292.085 108.428C290.102 109.122 287.92 109.617 285.54 109.915C283.26 110.212 280.93 110.361 278.55 110.361C271.51 110.361 265.957 109.221 261.891 106.94C257.826 104.56 254.752 101.04 252.67 96.3799C250.587 91.7195 249.249 85.9684 248.654 79.1266C248.158 72.2847 247.91 64.4513 247.91 55.6263C247.91 46.7021 248.406 38.8191 249.398 31.9773C250.488 25.1355 252.471 19.3843 255.347 14.724C258.322 10.0636 262.387 6.54348 267.543 4.16371C272.699 1.68478 279.343 0.445312 287.474 0.445312C292.333 0.445312 296.795 1.08983 300.86 2.37888C305.025 3.66792 308.594 5.75023 311.569 8.62578C314.544 11.5013 316.874 15.2197 318.56 19.781C320.245 24.243 321.088 29.6967 321.088 36.1419H294.316C294.316 30.4899 293.82 26.3749 292.828 23.7968C291.837 20.723 289.705 19.186 286.433 19.186C284.152 19.186 282.318 19.7314 280.93 20.8221C279.64 21.9128 278.649 23.8464 277.955 26.6228C277.36 29.3992 276.963 33.1672 276.765 37.9267C276.567 42.5871 276.467 48.487 276.467 55.6263C276.467 62.7656 276.567 68.7151 276.765 73.4746C276.963 78.135 277.36 81.8534 277.955 84.6298C278.649 87.4062 279.591 89.3398 280.781 90.4305C282.07 91.5212 283.755 92.0666 285.838 92.0666C287.325 92.0666 288.614 91.7691 289.705 91.1742C290.895 90.5792 291.886 89.4885 292.68 87.902C293.473 86.2163 294.068 83.9357 294.464 81.0601C294.96 78.0854 295.208 74.3174 295.208 69.7562H285.392V51.0155Z" fill="currentColor"/>
<path d="M218.371 2.52344H246.036V108.721H218.371V2.52344Z" fill="currentColor"/>
<path d="M186.824 33.1672V30.6387C186.824 27.4656 186.179 24.7884 184.89 22.6069C183.601 20.3263 181.618 19.186 178.941 19.186C175.966 19.186 173.785 20.1776 172.396 22.1607C171.008 24.0447 170.314 26.1766 170.314 28.5564C170.314 32.0269 171.405 34.8033 173.586 36.8856C175.867 38.8687 178.693 40.604 182.064 42.0913C185.436 43.5787 189.055 45.1156 192.922 46.7022C196.789 48.1895 200.408 50.1727 203.78 52.6516C207.151 55.1305 209.927 58.4027 212.109 62.4681C214.39 66.4344 215.53 71.6402 215.53 78.0854C215.53 89.3893 212.307 97.6194 205.862 102.776C199.417 107.833 190.096 110.361 177.9 110.361C172.149 110.361 167.042 109.865 162.58 108.874C158.217 107.981 154.499 106.395 151.425 104.114C148.45 101.734 146.169 98.6605 144.583 94.8926C142.996 91.1246 142.203 86.4642 142.203 80.9114V77.193H168.976V79.7215C168.976 84.2827 169.818 87.5053 171.504 89.3893C173.19 91.1742 175.371 92.0666 178.048 92.0666C180.924 92.0666 183.105 91.075 184.593 89.0919C186.179 87.1087 186.973 84.6794 186.973 81.8038C186.973 78.3333 185.882 75.6065 183.7 73.6233C181.618 71.541 178.941 69.8058 175.669 68.4176C172.496 66.9302 169.025 65.4429 165.257 63.9555C161.489 62.4681 157.969 60.5346 154.697 58.1548C151.524 55.775 148.847 52.6516 146.665 48.7845C144.583 44.9173 143.542 39.8603 143.542 33.6134C143.542 22.8053 146.417 14.5752 152.168 8.92326C157.92 3.27129 166.645 0.445312 178.346 0.445312C190.443 0.445312 199.169 3.07298 204.523 8.32831C209.977 13.4845 212.704 21.7641 212.704 33.1672H186.824Z" fill="currentColor"/>
<path d="M75.8516 2.52344H138.767V25.1313H103.516V43.277H136.536V64.9925H103.516V86.113H140.105V108.721H75.8516V2.52344Z" fill="currentColor"/>
<path d="M0 2.52344H40.1587C48.1904 2.52344 54.4373 4.0108 58.8994 6.98552C63.3614 9.86107 66.6832 13.7778 68.8647 18.7356C71.1453 23.5943 72.5335 29.2463 73.0293 35.6915C73.5251 42.0376 73.773 48.6811 73.773 55.6221C73.773 62.5631 73.5251 69.2562 73.0293 75.7015C72.5335 82.0475 71.1453 87.6995 68.8647 92.6573C66.6832 97.516 63.3614 101.433 58.8994 104.407C54.4373 107.283 48.1904 108.721 40.1587 108.721H0V2.52344ZM27.6649 88.7902H33.1681C35.8453 88.7902 37.9772 88.4432 39.5637 87.7491C41.1502 86.9558 42.3401 85.3693 43.1334 82.9895C44.0258 80.6097 44.5712 77.2384 44.7695 72.8755C45.0669 68.5126 45.2157 62.7614 45.2157 55.6221C45.2157 48.4828 45.0669 42.7317 44.7695 38.3688C44.5712 34.0059 44.0258 30.6345 43.1334 28.2547C42.3401 25.875 41.1502 24.338 39.5637 23.6439C37.9772 22.8507 35.8453 22.454 33.1681 22.454H27.6649V88.7902Z" fill="currentColor"/>
</svg>
