<svg viewBox="0 0 235 42" fill="none" xmlns="http://www.w3.org/2000/svg">
<path d="M206.762 0.78125H221.76C224.76 0.78125 227.093 1.33674 228.759 2.44773C230.426 3.52169 231.666 4.98449 232.481 6.83614C233.333 8.65076 233.851 10.7616 234.036 13.1688C234.222 15.5389 234.314 18.0201 234.314 20.6124C234.314 23.2047 234.222 25.7044 234.036 28.1116C233.851 30.4817 233.333 32.5926 232.481 34.4442C231.666 36.2588 230.426 37.7216 228.759 38.8326C227.093 39.9066 224.76 40.4436 221.76 40.4436H206.762V0.78125ZM217.094 32.9999H219.149C220.149 32.9999 220.945 32.8703 221.538 32.6111C222.13 32.3148 222.575 31.7223 222.871 30.8335C223.204 29.9447 223.408 28.6856 223.482 27.0561C223.593 25.4267 223.649 23.2788 223.649 20.6124C223.649 17.946 223.593 15.7981 223.482 14.1687C223.408 12.5392 223.204 11.2801 222.871 10.3913C222.575 9.50252 222.13 8.9285 221.538 8.66927C220.945 8.37301 220.149 8.22488 219.149 8.22488H217.094V32.9999Z" fill="currentColor"/>
<path d="M191.064 8.89147L188.231 25.723H194.008L191.175 8.89147H191.064ZM197.619 0.78125L207.284 40.4436H196.285L195.23 33.4999H187.009L185.953 40.4436H175.121L184.62 0.78125H197.619Z" fill="currentColor"/>
<path d="M159.974 20.6088C159.974 23.2752 160.011 25.4972 160.085 27.2748C160.159 29.0153 160.307 30.4041 160.53 31.441C160.789 32.4779 161.141 33.2001 161.585 33.6074C162.066 34.0148 162.696 34.2185 163.474 34.2185C164.251 34.2185 164.862 34.0148 165.307 33.6074C165.788 33.2001 166.14 32.4779 166.362 31.441C166.621 30.4041 166.788 29.0153 166.862 27.2748C166.936 25.4972 166.973 23.2752 166.973 20.6088C166.973 17.9425 166.936 15.739 166.862 13.9985C166.788 12.2209 166.621 10.8136 166.362 9.7767C166.14 8.73978 165.788 8.01764 165.307 7.61028C164.862 7.20291 164.251 6.99923 163.474 6.99923C162.696 6.99923 162.066 7.20291 161.585 7.61028C161.141 8.01764 160.789 8.73978 160.53 9.7767C160.307 10.8136 160.159 12.2209 160.085 13.9985C160.011 15.739 159.974 17.9425 159.974 20.6088ZM149.309 20.6088C149.309 16.9055 149.549 13.7577 150.031 11.1654C150.512 8.5361 151.308 6.4067 152.419 4.77725C153.53 3.11077 154.993 1.9072 156.808 1.16654C158.622 0.388846 160.844 0 163.474 0C166.103 0 168.325 0.388846 170.14 1.16654C171.954 1.9072 173.417 3.11077 174.528 4.77725C175.639 6.4067 176.435 8.5361 176.917 11.1654C177.398 13.7577 177.639 16.9055 177.639 20.6088C177.639 24.3121 177.398 27.4785 176.917 30.1078C176.435 32.7001 175.639 34.8295 174.528 36.496C173.417 38.1254 171.954 39.292 170.14 39.9956C168.325 40.6992 166.103 41.051 163.474 41.051C160.844 41.051 158.622 40.6992 156.808 39.9956C154.993 39.292 153.53 38.1254 152.419 36.496C151.308 34.8295 150.512 32.7001 150.031 30.1078C149.549 27.4785 149.309 24.3121 149.309 20.6088Z" fill="currentColor"/>
<path d="M126.984 0.78125H137.317V32H150.037V40.4436H126.984V0.78125Z" fill="currentColor"/>
<path d="M98.332 0.78125H109.886L116.552 25.223H116.663V0.78125H126.329V40.4436H114.997L108.109 15.9462H107.998V40.4436H98.332V0.78125Z" fill="currentColor"/>
<path d="M71.8176 0.78125H81.1499L85.205 28.2227H85.3161L88.0936 0.78125H98.0925L91.3154 40.4436H79.9834L76.5393 13.7798H76.4282L72.9841 40.4436H61.652L54.875 0.78125H64.8739L67.9847 28.2227H68.0958L71.8176 0.78125Z" fill="currentColor"/>
<path d="M39.1694 20.6088C39.1694 23.2752 39.2064 25.4972 39.2805 27.2748C39.3546 29.0153 39.5027 30.4041 39.7249 31.441C39.9841 32.4779 40.3359 33.2001 40.7803 33.6074C41.2618 34.0148 41.8913 34.2185 42.669 34.2185C43.4467 34.2185 44.0577 34.0148 44.5021 33.6074C44.9836 33.2001 45.3354 32.4779 45.5576 31.441C45.8168 30.4041 45.9835 29.0153 46.0575 27.2748C46.1316 25.4972 46.1686 23.2752 46.1686 20.6088C46.1686 17.9425 46.1316 15.739 46.0575 13.9985C45.9835 12.2209 45.8168 10.8136 45.5576 9.7767C45.3354 8.73978 44.9836 8.01764 44.5021 7.61028C44.0577 7.20291 43.4467 6.99923 42.669 6.99923C41.8913 6.99923 41.2618 7.20291 40.7803 7.61028C40.3359 8.01764 39.9841 8.73978 39.7249 9.7767C39.5027 10.8136 39.3546 12.2209 39.2805 13.9985C39.2064 15.739 39.1694 17.9425 39.1694 20.6088ZM28.5039 20.6088C28.5039 16.9055 28.7446 13.7577 29.226 11.1654C29.7075 8.5361 30.5037 6.4067 31.6147 4.77725C32.7257 3.11077 34.1885 1.9072 36.0031 1.16654C37.8177 0.388846 40.0397 0 42.669 0C45.2984 0 47.5203 0.388846 49.3349 1.16654C51.1496 1.9072 52.6124 3.11077 53.7234 4.77725C54.8343 6.4067 55.6306 8.5361 56.112 11.1654C56.5934 13.7577 56.8341 16.9055 56.8341 20.6088C56.8341 24.3121 56.5934 27.4785 56.112 30.1078C55.6306 32.7001 54.8343 34.8295 53.7234 36.496C52.6124 38.1254 51.1496 39.292 49.3349 39.9956C47.5203 40.6992 45.2984 41.051 42.669 41.051C40.0397 41.051 37.8177 40.6992 36.0031 39.9956C34.1885 39.292 32.7257 38.1254 31.6147 36.496C30.5037 34.8295 29.7075 32.7001 29.226 30.1078C28.7446 27.4785 28.5039 24.3121 28.5039 20.6088Z" fill="currentColor"/>
<path d="M0 0.78125H14.9984C17.998 0.78125 20.3311 1.33674 21.9976 2.44773C23.6641 3.52169 24.9047 4.98449 25.7194 6.83614C26.5711 8.65076 27.0896 10.7616 27.2748 13.1688C27.4599 15.5389 27.5525 18.0201 27.5525 20.6124C27.5525 23.2047 27.4599 25.7044 27.2748 28.1116C27.0896 30.4817 26.5711 32.5926 25.7194 34.4442C24.9047 36.2588 23.6641 37.7216 21.9976 38.8326C20.3311 39.9066 17.998 40.4436 14.9984 40.4436H0V0.78125ZM10.3322 32.9999H12.3875C13.3874 32.9999 14.1836 32.8703 14.7762 32.6111C15.3687 32.3148 15.8131 31.7223 16.1093 30.8335C16.4426 29.9447 16.6463 28.6856 16.7204 27.0561C16.8315 25.4267 16.887 23.2788 16.887 20.6124C16.887 17.946 16.8315 15.7981 16.7204 14.1687C16.6463 12.5392 16.4426 11.2801 16.1093 10.3913C15.8131 9.50252 15.3687 8.9285 14.7762 8.66927C14.1836 8.37301 13.3874 8.22488 12.3875 8.22488H10.3322V32.9999Z" fill="currentColor"/>
</svg>
