<svg viewBox="0 0 129 40" fill="none" xmlns="http://www.w3.org/2000/svg">
<path d="M105.281 0H115.613V31.2188H128.334V39.6623H105.281V0Z" fill="currentColor"/>
<path d="M93.6836 0H104.016V39.6623H93.6836V0Z" fill="currentColor"/>
<path d="M78.3685 8.11022L75.5354 24.9417H81.3125L78.4796 8.11022H78.3685ZM84.9233 0L94.5889 39.6623H83.5901L82.5347 32.7186H74.3134L73.2579 39.6623H62.4258L71.9247 0H84.9233Z" fill="currentColor"/>
<path d="M24.1641 0H38.9403L43.1065 23.4974H43.2175L47.3837 0H62.1599V39.6623H52.4943V10.11H52.3832L46.8838 39.6623H39.4402L33.9408 10.11H33.8297V39.6623H24.1641V0Z" fill="currentColor"/>
<path d="M0 0H23.4974V8.44352H10.3322V15.2205H22.6642V23.3308H10.3322V31.2188H23.9973V39.6623H0V0Z" fill="currentColor"/>
</svg>
