<svg viewBox="0 0 328 60" fill="none" xmlns="http://www.w3.org/2000/svg">
<path d="M300.234 59.2672L326.099 0H327.686L301.742 59.2672H300.234Z" fill="currentColor"/>
<path d="M262.816 1.35156H277.574V22.1387H286.619V1.35156H301.376V58.0006H286.619V34.6745H277.574V58.0006H262.816V1.35156Z" fill="currentColor"/>
<path d="M246.985 18.5698C246.985 15.3433 246.668 13.1482 246.033 11.9846C245.398 10.8209 244.367 10.2391 242.939 10.2391C241.828 10.2391 240.929 10.53 240.241 11.1118C239.607 11.6936 239.104 12.7251 238.734 14.2061C238.416 15.6871 238.205 17.6971 238.099 20.236C237.993 22.722 237.94 25.8691 237.94 29.6775C237.94 33.4858 237.993 36.6594 238.099 39.1983C238.205 41.6843 238.416 43.6678 238.734 45.1488C239.104 46.6298 239.607 47.6613 240.241 48.2431C240.929 48.8249 241.828 49.1158 242.939 49.1158C243.838 49.1158 244.579 48.9043 245.16 48.4811C245.742 48.0051 246.192 47.2381 246.509 46.1803C246.827 45.1224 247.038 43.7207 247.144 41.9752C247.303 40.1768 247.382 37.9289 247.382 35.2313H261.663V39.4363C261.663 43.4033 261.134 46.6563 260.076 49.1952C259.018 51.7341 257.617 53.744 255.871 55.2251C254.126 56.6532 252.116 57.6053 249.841 58.0813C247.62 58.6102 245.319 58.8747 242.939 58.8747C238.813 58.8747 235.428 58.3722 232.783 57.3672C230.139 56.3623 228.076 54.6961 226.595 52.3688C225.114 49.9886 224.082 46.9472 223.5 43.2447C222.971 39.4892 222.707 34.9668 222.707 29.6775C222.707 24.2823 223.024 19.707 223.659 15.9516C224.347 12.1961 225.484 9.15475 227.071 6.82744C228.658 4.50012 230.747 2.83397 233.339 1.829C235.93 0.771124 239.131 0.242188 242.939 0.242188C246.271 0.242188 249.101 0.665337 251.428 1.51164C253.756 2.35793 255.633 3.57448 257.061 5.16129C258.542 6.6952 259.6 8.57293 260.235 10.7945C260.923 12.9631 261.266 15.4226 261.266 18.1731V21.7434H246.985V18.5698Z" fill="currentColor"/>
<path d="M196.359 13.8873H185.41V1.35156H222.224V13.8873H211.116V58.0006H196.359V13.8873Z" fill="currentColor"/>
<path d="M150.402 1.35156H183.963V13.4113H165.16V23.0908H182.773V34.6745H165.16V45.9408H184.677V58.0006H150.402V1.35156Z" fill="currentColor"/>
<path d="M115.379 1.35156H148.94V13.4113H130.136V23.0908H147.75V34.6745H130.136V58.0006H115.379V1.35156Z" fill="currentColor"/>
<path d="M87.7495 25.3123H90.6851C92.8009 25.3123 94.3612 24.7041 95.3661 23.4875C96.3711 22.2181 96.8737 20.5784 96.8737 18.5684C96.8737 16.1882 96.3711 14.4956 95.3661 13.4906C94.4141 12.4857 92.8273 11.9832 90.6058 11.9832H87.7495V25.3123ZM72.9922 1.35156H96.0803C98.8836 1.35156 101.264 1.72182 103.221 2.46233C105.231 3.20284 106.844 4.26071 108.061 5.63594C109.33 6.95828 110.229 8.54509 110.758 10.3964C111.34 12.2476 111.631 14.2576 111.631 16.4262C111.631 20.2346 110.864 23.3024 109.33 25.6297C107.796 27.957 105.337 29.3852 101.951 29.9141V30.0728C105.495 30.3901 107.928 31.6331 109.251 33.8018C110.573 35.9704 111.234 38.9589 111.234 42.7672V47.607C111.234 48.3475 111.234 49.1145 111.234 49.9079C111.234 50.7013 111.261 51.4682 111.314 52.2087C111.366 52.8963 111.446 53.5311 111.552 54.1129C111.657 54.6947 111.79 55.1443 111.948 55.4617C112.16 55.779 112.371 56.0964 112.583 56.4138C112.795 56.6782 113.138 56.9427 113.614 57.2072V58.0006H97.9051C97.5348 57.2601 97.2439 56.3873 97.0323 55.3823C96.8737 54.3774 96.7414 53.3724 96.6356 52.3674C96.5827 51.3624 96.5298 50.4103 96.4769 49.5112C96.4769 48.5591 96.4769 47.7921 96.4769 47.2103V43.4019C96.4769 41.8151 96.3976 40.4928 96.2389 39.4349C96.0802 38.3771 95.7893 37.5572 95.3661 36.9754C94.9959 36.3407 94.4934 35.9175 93.8587 35.7059C93.2769 35.4415 92.5364 35.3092 91.6372 35.3092H87.7495V58.0006H72.9922V1.35156Z" fill="currentColor"/>
<path d="M50.5676 12.9353L46.5212 36.9754H54.7726L50.7263 12.9353H50.5676ZM59.9297 1.35156L73.7349 58.0006H58.0255L56.5181 48.083H44.7757L43.2682 58.0006H27.7969L41.3641 1.35156H59.9297Z" fill="currentColor"/>
<path d="M0 1.35156H33.561V13.4113H14.7573V23.0908H32.3708V34.6745H14.7573V58.0006H0V1.35156Z" fill="currentColor"/>
</svg>
