<svg viewBox="0 0 301 59" fill="none" xmlns="http://www.w3.org/2000/svg">
<path d="M271.21 35.4637L257.008 1.10938H272.955L278.509 20.8651H278.668L284.221 1.10938H300.407L285.967 35.4637V57.7584H271.21V35.4637Z" fill="currentColor"/>
<path d="M219.062 1.10938H233.82V21.8965H242.865V1.10938H257.622V57.7584H242.865V34.4323H233.82V57.7584H219.062V1.10938Z" fill="currentColor"/>
<path d="M202.235 18.3276C202.235 15.1011 201.918 12.906 201.283 11.7424C200.648 10.5787 199.617 9.99688 198.189 9.99688C197.078 9.99688 196.179 10.2878 195.491 10.8696C194.856 11.4515 194.354 12.4829 193.984 13.9639C193.666 15.4449 193.455 17.4549 193.349 19.9938C193.243 22.4798 193.19 25.6269 193.19 29.4353C193.19 33.2436 193.243 36.4172 193.349 38.9561C193.455 41.4421 193.666 43.4256 193.984 44.9066C194.354 46.3877 194.856 47.4191 195.491 48.0009C196.179 48.5827 197.078 48.8737 198.189 48.8737C199.088 48.8737 199.829 48.6621 200.41 48.2389C200.992 47.7629 201.442 46.9959 201.759 45.9381C202.077 44.8802 202.288 43.4785 202.394 41.733C202.552 39.9346 202.632 37.6867 202.632 34.9891H216.913V39.1941C216.913 43.1612 216.384 46.4141 215.326 48.953C214.268 51.4919 212.867 53.5018 211.121 54.9829C209.376 56.411 207.366 57.3631 205.091 57.8391C202.87 58.3681 200.569 58.6325 198.189 58.6325C194.063 58.6325 190.678 58.13 188.033 57.1251C185.389 56.1201 183.326 54.4539 181.845 52.1266C180.364 49.7464 179.332 46.705 178.75 43.0025C178.222 39.247 177.957 34.7246 177.957 29.4353C177.957 24.0401 178.274 19.4648 178.909 15.7094C179.597 11.9539 180.734 8.91257 182.321 6.58525C183.908 4.25793 185.997 2.59179 188.589 1.58681C191.18 0.528937 194.381 0 198.189 0C201.521 0 204.351 0.42315 206.678 1.26945C209.006 2.11574 210.883 3.3323 212.311 4.9191C213.792 6.45302 214.85 8.33074 215.485 10.5523C216.173 12.7209 216.516 15.1805 216.516 17.9309V21.5012H202.235V18.3276Z" fill="currentColor"/>
<path d="M135.844 1.10938H152.347L161.867 36.0191H162.026V1.10938H175.831V57.7584H159.646L149.808 22.7693H149.649V57.7584H135.844V1.10938Z" fill="currentColor"/>
<path d="M100.348 1.10938H133.909V13.1691H115.105V22.8486H132.719V34.4323H115.105V45.6987H134.623V57.7584H100.348V1.10938Z" fill="currentColor"/>
<path d="M55.9375 1.10938H71.4089L77.3595 43.7945H77.5182L83.4686 1.10938H99.1781L86.9596 57.7584H67.918L55.9375 1.10938Z" fill="currentColor"/>
<path d="M40.3086 1.10938H55.0659V57.7584H40.3086V1.10938Z" fill="currentColor"/>
<path d="M19.9938 26.9757H39.0354V57.7598H29.0386L28.7212 52.7613H28.5625C28.0865 53.9779 27.3988 54.9829 26.4996 55.7763C25.6533 56.5697 24.6749 57.1779 23.5641 57.6011C22.5062 57.9713 21.3426 58.2358 20.0731 58.3945C18.8566 58.5532 17.6136 58.6325 16.3441 58.6325C12.5887 58.6325 9.62652 58.0242 7.45789 56.8077C5.28925 55.5382 3.64958 53.6605 2.53882 51.1745C1.42805 48.6885 0.713968 45.6207 0.396606 41.971C0.132139 38.3214 0 34.1428 0 29.4353C0 24.6749 0.264399 20.4698 0.793335 16.8202C1.37516 13.1705 2.43301 10.1027 3.96692 7.61667C5.55373 5.13068 7.72243 3.25296 10.4729 1.98351C13.2234 0.66117 16.7672 0 21.1045 0C23.6963 0 26.0765 0.343809 28.2451 1.03143C30.4666 1.71904 32.3708 2.82981 33.9576 4.36372C35.5444 5.89763 36.7875 7.88114 37.6866 10.3142C38.5858 12.6945 39.0354 15.6036 39.0354 19.0417H24.7542C24.7542 16.0268 24.4896 13.8317 23.9607 12.4564C23.4318 10.8167 22.2946 9.99688 20.5491 9.99688C19.3325 9.99688 18.354 10.2878 17.6135 10.8696C16.9259 11.4515 16.397 12.4829 16.0267 13.9639C15.7094 15.4449 15.4978 17.4549 15.392 19.9938C15.2862 22.4798 15.2333 25.6269 15.2333 29.4353C15.2333 33.2436 15.2862 36.4172 15.392 38.9561C15.4978 41.4421 15.7094 43.4256 16.0267 44.9066C16.397 46.3877 16.8995 47.4191 17.5342 48.0009C18.2218 48.5827 19.1209 48.8737 20.2317 48.8737C21.0251 48.8737 21.7127 48.715 22.2946 48.3976C22.9293 48.0803 23.4582 47.4984 23.8813 46.6521C24.3045 45.7529 24.6219 44.5364 24.8335 43.0025C25.098 41.4157 25.2302 39.4057 25.2302 36.9726H19.9938V26.9757Z" fill="currentColor"/>
</svg>
