<svg viewBox="0 0 444 124" fill="none" xmlns="http://www.w3.org/2000/svg">
<path d="M379.725 74.8335L348.789 0H383.527L395.625 43.0336H395.971L408.068 0H443.325L411.87 74.8335V123.398H379.725V74.8335Z" fill="currentColor"/>
<path d="M273.777 0H320.44C329.773 0 337.032 1.72826 342.216 5.18478C347.401 8.52607 351.261 13.0771 353.796 18.838C356.446 24.4836 358.059 31.051 358.635 38.5401C359.211 45.914 359.499 53.6336 359.499 61.6988C359.499 69.764 359.211 77.5411 358.635 85.0302C358.059 92.4041 356.446 98.9715 353.796 104.732C351.261 110.378 347.401 114.929 342.216 118.386C337.032 121.727 329.773 123.398 320.44 123.398H273.777V0ZM305.923 100.239H312.317C315.428 100.239 317.905 99.8356 319.749 99.0291C321.592 98.1074 322.975 96.2639 323.897 93.4987C324.934 90.7335 325.567 86.8161 325.798 81.7465C326.144 76.677 326.316 69.9944 326.316 61.6988C326.316 53.4031 326.144 46.7205 325.798 41.651C325.567 36.5814 324.934 32.6641 323.897 29.8988C322.975 27.1336 321.592 25.3478 319.749 24.5412C317.905 23.6195 315.428 23.1586 312.317 23.1586H305.923V100.239Z" fill="currentColor"/>
<path d="M214.794 52.1934H221.189C225.797 52.1934 229.196 50.8684 231.385 48.2184C233.574 45.4532 234.669 41.8814 234.669 37.5032C234.669 32.3184 233.574 28.6315 231.385 26.4423C229.311 24.2532 225.855 23.1586 221.016 23.1586H214.794V52.1934ZM182.648 0H232.941C239.047 0 244.232 0.806519 248.495 2.41956C252.873 4.0326 256.387 6.33694 259.037 9.33259C261.803 12.213 263.761 15.6695 264.913 19.7021C266.181 23.7347 266.815 28.113 266.815 32.8369C266.815 41.1325 265.144 47.8151 261.803 52.8847C258.461 57.9542 253.104 61.0651 245.73 62.2173V62.5629C253.449 63.2542 258.749 65.9618 261.63 70.6857C264.51 75.4096 265.95 81.9194 265.95 90.215V100.757C265.95 102.37 265.95 104.041 265.95 105.769C265.95 107.498 266.008 109.168 266.123 110.781C266.238 112.279 266.411 113.662 266.642 114.929C266.872 116.196 267.16 117.176 267.506 117.867C267.967 118.558 268.428 119.25 268.888 119.941C269.349 120.517 270.098 121.093 271.135 121.669V123.398H236.916C236.109 121.784 235.475 119.883 235.015 117.694C234.669 115.505 234.381 113.316 234.15 111.127C234.035 108.938 233.92 106.864 233.805 104.905C233.805 102.831 233.805 101.161 233.805 99.8932V91.5976C233.805 88.1411 233.632 85.2607 233.286 82.9563C232.941 80.652 232.307 78.8661 231.385 77.5987C230.579 76.2161 229.484 75.2944 228.102 74.8335C226.834 74.2574 225.221 73.9694 223.262 73.9694H214.794V123.398H182.648V0Z" fill="currentColor"/>
<path d="M132.593 25.2326L123.779 77.5987H141.753L132.939 25.2326H132.593ZM152.987 0L183.058 123.398H148.839L145.555 101.794H119.977L116.693 123.398H82.9922L112.545 0H152.987Z" fill="currentColor"/>
<path d="M0 0H32.1456V45.2803H51.8477V0H83.9933V123.398H51.8477V72.5868H32.1456V123.398H0V0Z" fill="currentColor"/>
</svg>
