<svg viewBox="0 0 248 107" fill="none" xmlns="http://www.w3.org/2000/svg">
<path d="M183.195 0H246.11V22.6078H210.86V40.7536H243.879V62.469H210.86V83.5895H247.449V106.197H183.195V0Z" fill="currentColor"/>
<path d="M132.602 44.9182H138.106C142.072 44.9182 144.997 43.7779 146.881 41.4973C148.765 39.1175 149.707 36.0436 149.707 32.2757C149.707 27.8136 148.765 24.6406 146.881 22.7566C145.096 20.8726 142.121 19.9306 137.957 19.9306H132.602V44.9182ZM104.938 0H148.22C153.475 0 157.937 0.6941 161.606 2.0823C165.374 3.4705 168.398 5.45365 170.679 8.03174C173.058 10.5107 174.744 13.4854 175.736 16.9559C176.826 20.4264 177.372 24.1944 177.372 28.2598C177.372 35.3991 175.934 41.1502 173.059 45.5132C170.183 49.8761 165.572 52.5533 159.226 53.5449V53.8424C165.87 54.4373 170.431 56.7675 172.91 60.8329C175.389 64.8984 176.628 70.5008 176.628 77.6401V86.713C176.628 88.1012 176.628 89.539 176.628 91.0263C176.628 92.5137 176.678 93.9515 176.777 95.3397C176.876 96.6287 177.025 97.8186 177.223 98.9093C177.421 100 177.669 100.843 177.967 101.438C178.363 102.033 178.76 102.628 179.157 103.223C179.553 103.718 180.198 104.214 181.09 104.71V106.197H151.641C150.946 104.809 150.401 103.173 150.004 101.289C149.707 99.4051 149.459 97.5211 149.261 95.6371C149.162 93.7531 149.062 91.9683 148.963 90.2826C148.963 88.4978 148.963 87.06 148.963 85.9693V78.83C148.963 75.8553 148.815 73.3763 148.517 71.3932C148.22 69.41 147.674 67.8731 146.881 66.7824C146.187 65.5925 145.245 64.7992 144.055 64.4026C142.964 63.9068 141.576 63.6589 139.89 63.6589H132.602V106.197H104.938V0Z" fill="currentColor"/>
<path d="M74.8125 0H102.477V106.197H74.8125V0Z" fill="currentColor"/>
<path d="M0 0H27.6648V38.9688H44.6207V0H72.2856V106.197H44.6207V62.469H27.6648V106.197H0V0Z" fill="currentColor"/>
</svg>
