<svg viewBox="0 0 287 87" fill="none" xmlns="http://www.w3.org/2000/svg">
<path d="M235.695 1.64844H285.059V19.3866H257.401V33.6238H283.308V50.6618H257.401V67.233H286.109V84.9711H235.695V1.64844Z" fill="currentColor"/>
<path d="M211.127 25.6737V23.6898C211.127 21.2002 210.621 19.0996 209.61 17.3881C208.598 15.5987 207.042 14.704 204.942 14.704C202.608 14.704 200.896 15.482 199.807 17.038C198.718 18.5162 198.173 20.1888 198.173 22.056C198.173 24.779 199.029 26.9573 200.741 28.5911C202.53 30.1471 204.747 31.5086 207.392 32.6756C210.038 33.8425 212.877 35.0484 215.911 36.2932C218.946 37.4602 221.785 39.0162 224.43 40.9611C227.076 42.9061 229.254 45.4735 230.965 48.6632C232.755 51.7752 233.65 55.8597 233.65 60.9166C233.65 69.7857 231.121 76.243 226.064 80.2885C221.007 84.2563 213.694 86.2401 204.125 86.2401C199.613 86.2401 195.606 85.8512 192.105 85.0732C188.682 84.373 185.764 83.1282 183.353 81.3388C181.019 79.4716 179.229 77.0599 177.984 74.1035C176.74 71.1471 176.117 67.4906 176.117 63.1339V60.2164H197.123V62.2003C197.123 65.779 197.784 68.3075 199.107 69.7857C200.429 71.186 202.141 71.8862 204.241 71.8862C206.498 71.8862 208.209 71.1082 209.376 69.5523C210.621 67.9963 211.244 66.0902 211.244 63.834C211.244 61.1111 210.388 58.9716 208.676 57.4156C207.042 55.7819 204.942 54.4204 202.374 53.3312C199.885 52.1642 197.162 50.9972 194.205 49.8302C191.249 48.6632 188.487 47.1462 185.92 45.279C183.43 43.4118 181.33 40.9612 179.618 37.927C177.984 34.8928 177.167 30.9251 177.167 26.0238C177.167 17.5437 179.424 11.0864 183.936 6.65181C188.448 2.21727 195.295 0 204.475 0C213.966 0 220.813 2.06167 225.014 6.18502C229.293 10.2306 231.432 16.7268 231.432 25.6737H211.127Z" fill="currentColor"/>
<path d="M140.284 1.64844V61.7481C140.284 65.7937 140.868 68.5166 142.035 69.917C143.202 71.2396 144.796 71.9009 146.819 71.9009C148.842 71.9009 150.437 71.2396 151.604 69.917C152.771 68.5166 153.354 65.7937 153.354 61.7481V1.64844H175.06V56.2633C175.06 62.0982 174.438 66.9607 173.193 70.8506C171.948 74.7406 170.12 77.8525 167.708 80.1865C165.374 82.5205 162.457 84.1153 158.956 84.9711C155.455 85.8269 151.409 86.2548 146.819 86.2548C142.307 86.2548 138.261 85.8269 134.683 84.9711C131.182 84.1153 128.225 82.5205 125.813 80.1865C123.48 77.8525 121.69 74.7406 120.445 70.8506C119.201 66.9607 118.578 62.0982 118.578 56.2633V1.64844H140.284Z" fill="currentColor"/>
<path d="M80.2968 43.2951C80.2968 48.8966 80.3745 53.5646 80.5301 57.2989C80.6857 60.9555 80.997 63.8729 81.4638 66.0513C82.0084 68.2297 82.7475 69.7468 83.6811 70.6026C84.6924 71.4583 86.0149 71.8862 87.6487 71.8862C89.2825 71.8862 90.5662 71.4583 91.4998 70.6026C92.5112 69.7468 93.2503 68.2297 93.717 66.0513C94.2616 63.8729 94.6117 60.9555 94.7673 57.2989C94.9229 53.5646 95.0008 48.8966 95.0008 43.2951C95.0008 37.6936 94.9229 33.0646 94.7673 29.408C94.6117 25.6737 94.2616 22.7173 93.717 20.5389C93.2503 18.3606 92.5112 16.8435 91.4998 15.9877C90.5662 15.1319 89.2825 14.704 87.6487 14.704C86.0149 14.704 84.6924 15.1319 83.6811 15.9877C82.7475 16.8435 82.0084 18.3606 81.4638 20.5389C80.997 22.7173 80.6857 25.6737 80.5301 29.408C80.3745 33.0646 80.2968 37.6936 80.2968 43.2951ZM57.8906 43.2951C57.8906 35.5152 58.3963 28.9023 59.4077 23.4564C60.4191 17.9327 62.0918 13.4592 64.4257 10.0361C66.7597 6.53511 69.8328 4.00665 73.6449 2.45067C77.4571 0.816889 82.125 0 87.6487 0C93.1724 0 97.8403 0.816889 101.652 2.45067C105.465 4.00665 108.538 6.53511 110.872 10.0361C113.206 13.4592 114.878 17.9327 115.89 23.4564C116.901 28.9023 117.407 35.5152 117.407 43.2951C117.407 51.075 116.901 57.7268 115.89 63.2506C114.878 68.6965 113.206 73.1699 110.872 76.6709C108.538 80.094 105.465 82.5447 101.652 84.0229C97.8403 85.5011 93.1724 86.2401 87.6487 86.2401C82.125 86.2401 77.4571 85.5011 73.6449 84.0229C69.8328 82.5447 66.7597 80.094 64.4257 76.6709C62.0918 73.1699 60.4191 68.6965 59.4077 63.2506C58.3963 57.7268 57.8906 51.075 57.8906 43.2951Z" fill="currentColor"/>
<path d="M0 1.64844H21.7059V32.2234H35.0095V1.64844H56.7154V84.9711H35.0095V50.6618H21.7059V84.9711H0V1.64844Z" fill="currentColor"/>
</svg>
