<svg viewBox="0 0 329 124" fill="none" xmlns="http://www.w3.org/2000/svg">
<path d="M242.906 0H289.569C298.902 0 306.16 1.72826 311.345 5.18478C316.53 8.52607 320.39 13.0771 322.925 18.838C325.575 24.4836 327.188 31.051 327.764 38.5401C328.34 45.914 328.628 53.6336 328.628 61.6988C328.628 69.764 328.34 77.5411 327.764 85.0302C327.188 92.4041 325.575 98.9715 322.925 104.732C320.39 110.378 316.53 114.929 311.345 118.386C306.16 121.727 298.902 123.398 289.569 123.398H242.906V0ZM275.052 100.239H281.446C284.557 100.239 287.034 99.8356 288.878 99.0291C290.721 98.1074 292.104 96.2639 293.026 93.4987C294.063 90.7335 294.696 86.8161 294.927 81.7465C295.272 76.677 295.445 69.9944 295.445 61.6988C295.445 53.4031 295.272 46.7205 294.927 41.651C294.696 36.5814 294.063 32.6641 293.026 29.8988C292.104 27.1336 290.721 25.3478 288.878 24.5412C287.034 23.6195 284.557 23.1586 281.446 23.1586H275.052V100.239Z" fill="currentColor"/>
<path d="M192.855 25.2326L184.041 77.5987H202.015L193.201 25.2326H192.855ZM213.248 0L243.32 123.398H209.101L205.817 101.794H180.239L176.955 123.398H143.254L172.807 0H213.248Z" fill="currentColor"/>
<path d="M74.2891 0H147.394V26.2695H106.435V47.3542H144.802V72.5868H106.435V97.128H148.95V123.398H74.2891V0Z" fill="currentColor"/>
<path d="M0 0H32.1456V97.128H71.7227V123.398H0V0Z" fill="currentColor"/>
</svg>
