<svg viewBox="0 0 558 88" fill="none" xmlns="http://www.w3.org/2000/svg">
<path d="M516.973 87.1737L555.016 0H557.35L519.19 87.1737H516.973Z" fill="currentColor"/>
<path d="M488.441 43.6389C488.441 49.2404 488.519 53.9083 488.675 57.6427C488.83 61.2992 489.141 64.2167 489.608 66.3951C490.153 68.5734 490.892 70.0905 491.826 70.9463C492.837 71.8021 494.159 72.23 495.793 72.23C497.427 72.23 498.711 71.8021 499.644 70.9463C500.656 70.0905 501.395 68.5734 501.862 66.3951C502.406 64.2167 502.756 61.2992 502.912 57.6427C503.067 53.9083 503.145 49.2404 503.145 43.6389C503.145 38.0373 503.067 33.4083 502.912 29.7518C502.756 26.0174 502.406 23.061 501.862 20.8827C501.395 18.7043 500.656 17.1872 499.644 16.3314C498.711 15.4756 497.427 15.0477 495.793 15.0477C494.159 15.0477 492.837 15.4756 491.826 16.3314C490.892 17.1872 490.153 18.7043 489.608 20.8827C489.141 23.061 488.83 26.0174 488.675 29.7518C488.519 33.4083 488.441 38.0373 488.441 43.6389ZM466.035 43.6389C466.035 35.859 466.541 29.2461 467.552 23.8001C468.564 18.2764 470.236 13.803 472.57 10.3798C474.904 6.87886 477.977 4.3504 481.789 2.79442C485.602 1.16064 490.27 0.34375 495.793 0.34375C501.317 0.34375 505.985 1.16064 509.797 2.79442C513.609 4.3504 516.682 6.87886 519.016 10.3798C521.35 13.803 523.023 18.2764 524.034 23.8001C525.046 29.2461 525.551 35.859 525.551 43.6389C525.551 51.4188 525.046 58.0706 524.034 63.5943C523.023 69.0402 521.35 73.5137 519.016 77.0146C516.682 80.4378 513.609 82.8884 509.797 84.3666C505.985 85.8448 501.317 86.5839 495.793 86.5839C490.27 86.5839 485.602 85.8448 481.789 84.3666C477.977 82.8884 474.904 80.4378 472.57 77.0146C470.236 73.5137 468.564 69.0402 467.552 63.5943C466.541 58.0706 466.035 51.4188 466.035 43.6389Z" fill="currentColor"/>
<path d="M441.748 26.0174V24.0335C441.748 21.544 441.242 19.4434 440.231 17.7318C439.219 15.9424 437.663 15.0477 435.563 15.0477C433.229 15.0477 431.517 15.8257 430.428 17.3817C429.339 18.8599 428.794 20.5326 428.794 22.3998C428.794 25.1227 429.65 27.3011 431.362 28.9349C433.151 30.4908 435.368 31.8523 438.013 33.0193C440.659 34.1863 443.498 35.3922 446.532 36.637C449.567 37.8039 452.406 39.3599 455.051 41.3049C457.697 43.2499 459.875 45.8172 461.587 49.007C463.376 52.119 464.271 56.2034 464.271 61.2603C464.271 70.1294 461.742 76.5867 456.685 80.6323C451.628 84.6 444.315 86.5839 434.746 86.5839C430.234 86.5839 426.227 86.1949 422.726 85.4169C419.303 84.7167 416.385 83.4719 413.974 81.6826C411.64 79.8154 409.85 77.4036 408.605 74.4473C407.361 71.4909 406.738 67.8344 406.738 63.4776V60.5601H427.744V62.544C427.744 66.1228 428.405 68.6512 429.728 70.1294C431.05 71.5298 432.762 72.23 434.863 72.23C437.119 72.23 438.83 71.452 439.997 69.896C441.242 68.34 441.865 66.434 441.865 64.1778C441.865 61.4548 441.009 59.3154 439.297 57.7594C437.663 56.1256 435.563 54.7641 432.995 53.6749C430.506 52.5079 427.783 51.341 424.827 50.174C421.87 49.007 419.108 47.4899 416.541 45.6227C414.051 43.7556 411.951 41.3049 410.239 38.2707C408.605 35.2366 407.789 31.2688 407.789 26.3675C407.789 17.8874 410.045 11.4301 414.557 6.99556C419.069 2.56102 425.916 0.34375 435.096 0.34375C444.587 0.34375 451.434 2.40542 455.635 6.52877C459.914 10.5743 462.053 17.0705 462.053 26.0174H441.748Z" fill="currentColor"/>
<path d="M381.396 26.0174V24.0335C381.396 21.544 380.891 19.4434 379.879 17.7318C378.868 15.9424 377.312 15.0477 375.211 15.0477C372.877 15.0477 371.166 15.8257 370.076 17.3817C368.987 18.8599 368.443 20.5326 368.443 22.3998C368.443 25.1227 369.299 27.3011 371.01 28.9349C372.799 30.4908 375.017 31.8523 377.662 33.0193C380.307 34.1863 383.147 35.3922 386.181 36.637C389.215 37.8039 392.055 39.3599 394.7 41.3049C397.345 43.2499 399.523 45.8172 401.235 49.007C403.024 52.119 403.919 56.2034 403.919 61.2603C403.919 70.1294 401.391 76.5867 396.334 80.6323C391.277 84.6 383.964 86.5839 374.394 86.5839C369.882 86.5839 365.875 86.1949 362.374 85.4169C358.951 84.7167 356.034 83.4719 353.622 81.6826C351.288 79.8154 349.499 77.4036 348.254 74.4473C347.009 71.4909 346.387 67.8344 346.387 63.4776V60.5601H367.392V62.544C367.392 66.1228 368.054 68.6512 369.376 70.1294C370.699 71.5298 372.41 72.23 374.511 72.23C376.767 72.23 378.479 71.452 379.646 69.896C380.891 68.34 381.513 66.434 381.513 64.1778C381.513 61.4548 380.657 59.3154 378.946 57.7594C377.312 56.1256 375.211 54.7641 372.644 53.6749C370.154 52.5079 367.431 51.341 364.475 50.174C361.519 49.007 358.757 47.4899 356.189 45.6227C353.7 43.7556 351.599 41.3049 349.888 38.2707C348.254 35.2366 347.437 31.2688 347.437 26.3675C347.437 17.8874 349.693 11.4301 354.206 6.99556C358.718 2.56102 365.564 0.34375 374.744 0.34375C384.236 0.34375 391.082 2.40542 395.283 6.52877C399.562 10.5743 401.702 17.0705 401.702 26.0174H381.396Z" fill="currentColor"/>
<path d="M294.098 1.99219H343.461V19.7304H315.804V33.9676H341.711V51.0055H315.804V67.5767H344.511V85.3149H294.098V1.99219Z" fill="currentColor"/>
<path d="M253.46 37.2351H257.778C260.89 37.2351 263.185 36.3404 264.663 34.5511C266.141 32.6839 266.88 30.2721 266.88 27.3158C266.88 23.8148 266.141 21.3252 264.663 19.847C263.262 18.3689 260.929 17.6298 257.661 17.6298H253.46V37.2351ZM231.754 1.99219H265.713C269.837 1.99219 273.337 2.53678 276.216 3.62596C279.172 4.71515 281.545 6.27113 283.335 8.29391C285.202 10.2389 286.524 12.5728 287.302 15.2958C288.158 18.0188 288.586 20.9751 288.586 24.1649C288.586 29.7664 287.458 34.2788 285.202 37.7019C282.946 41.1251 279.328 43.2256 274.349 44.0036V44.237C279.561 44.7038 283.14 46.5321 285.085 49.7218C287.03 52.9116 288.003 57.3072 288.003 62.9088V70.0274C288.003 71.1166 288.003 72.2446 288.003 73.4116C288.003 74.5786 288.041 75.7067 288.119 76.7959C288.197 77.8073 288.314 78.7409 288.469 79.5967C288.625 80.4524 288.819 81.1137 289.053 81.5805C289.364 82.0473 289.675 82.5141 289.986 82.9809C290.298 83.3699 290.803 83.7589 291.504 84.1479V85.3149H268.397C267.853 84.2257 267.425 82.942 267.114 81.4638C266.88 79.9856 266.686 78.5075 266.53 77.0293C266.452 75.5511 266.374 74.1507 266.297 72.8281C266.297 71.4278 266.297 70.2997 266.297 69.4439V63.8424C266.297 61.5084 266.18 59.5634 265.947 58.0074C265.713 56.4515 265.285 55.2456 264.663 54.3898C264.118 53.4562 263.379 52.8338 262.446 52.5226C261.59 52.1336 260.501 51.9391 259.178 51.9391H253.46V85.3149H231.754V1.99219Z" fill="currentColor"/>
<path d="M194.628 37.9353H198.712C201.435 37.9353 203.497 37.1184 204.897 35.4846C206.375 33.8509 207.115 31.2835 207.115 27.7825C207.115 21.014 204.314 17.6298 198.712 17.6298H194.628V37.9353ZM172.922 1.99219H205.481C209.604 1.99219 213.183 2.65348 216.217 3.97606C219.251 5.29865 221.741 7.12692 223.686 9.46089C225.708 11.7171 227.187 14.4011 228.12 17.5131C229.054 20.625 229.521 24.0093 229.521 27.6658C229.521 36.3015 227.187 42.7977 222.519 47.1545C217.929 51.4334 211.16 53.5729 202.213 53.5729H194.628V85.3149H172.922V1.99219Z" fill="currentColor"/>
<path d="M148.174 26.0174V24.0335C148.174 21.544 147.668 19.4434 146.657 17.7318C145.645 15.9424 144.089 15.0477 141.989 15.0477C139.655 15.0477 137.943 15.8257 136.854 17.3817C135.765 18.8599 135.22 20.5326 135.22 22.3998C135.22 25.1227 136.076 27.3011 137.787 28.9349C139.577 30.4908 141.794 31.8523 144.439 33.0193C147.084 34.1863 149.924 35.3922 152.958 36.637C155.992 37.8039 158.832 39.3599 161.477 41.3049C164.122 43.2499 166.301 45.8172 168.012 49.007C169.802 52.119 170.696 56.2034 170.696 61.2603C170.696 70.1294 168.168 76.5867 163.111 80.6323C158.054 84.6 150.741 86.5839 141.172 86.5839C136.659 86.5839 132.653 86.1949 129.152 85.4169C125.729 84.7167 122.811 83.4719 120.399 81.6826C118.065 79.8154 116.276 77.4036 115.031 74.4473C113.786 71.4909 113.164 67.8344 113.164 63.4776V60.5601H134.17V62.544C134.17 66.1228 134.831 68.6512 136.154 70.1294C137.476 71.5298 139.188 72.23 141.288 72.23C143.545 72.23 145.256 71.452 146.423 69.896C147.668 68.34 148.29 66.434 148.29 64.1778C148.29 61.4548 147.435 59.3154 145.723 57.7594C144.089 56.1256 141.989 54.7641 139.421 53.6749C136.932 52.5079 134.209 51.341 131.252 50.174C128.296 49.007 125.534 47.4899 122.967 45.6227C120.477 43.7556 118.377 41.3049 116.665 38.2707C115.031 35.2366 114.214 31.2688 114.214 26.3675C114.214 17.8874 116.471 11.4301 120.983 6.99556C125.495 2.56102 132.342 0.34375 141.522 0.34375C151.013 0.34375 157.86 2.40542 162.061 6.52877C166.34 10.5743 168.479 17.0705 168.479 26.0174H148.174Z" fill="currentColor"/>
<path d="M60.8789 1.99219H110.242V19.7304H82.5848V33.9676H108.492V51.0055H82.5848V67.5767H111.293V85.3149H60.8789V1.99219Z" fill="currentColor"/>
<path d="M0 1.99219H24.2733L38.2771 53.3395H38.5105V1.99219H58.816V85.3149H35.0095L20.5389 33.8509H20.3055V85.3149H0V1.99219Z" fill="currentColor"/>
</svg>
