<svg viewBox="0 0 462 60" fill="none" xmlns="http://www.w3.org/2000/svg">
<path d="M434.211 59.2672L460.076 0H461.663L435.718 59.2672H434.211Z" fill="currentColor"/>
<path d="M410.55 25.3123H413.486C415.602 25.3123 417.162 24.7041 418.167 23.4875C419.172 22.2181 419.674 20.5784 419.674 18.5684C419.674 16.1882 419.172 14.4956 418.167 13.4906C417.215 12.4857 415.628 11.9832 413.406 11.9832H410.55V25.3123ZM395.793 1.35156H418.881C421.684 1.35156 424.065 1.72182 426.022 2.46233C428.032 3.20284 429.645 4.26071 430.861 5.63594C432.131 6.95828 433.03 8.54509 433.559 10.3964C434.141 12.2476 434.432 14.2576 434.432 16.4262C434.432 20.2346 433.665 23.3024 432.131 25.6297C430.597 27.957 428.137 29.3852 424.752 29.9141V30.0728C428.296 30.3901 430.729 31.6331 432.052 33.8018C433.374 35.9704 434.035 38.9589 434.035 42.7672V47.607C434.035 48.3475 434.035 49.1145 434.035 49.9079C434.035 50.7013 434.061 51.4682 434.114 52.2087C434.167 52.8963 434.247 53.5311 434.352 54.1129C434.458 54.6947 434.59 55.1443 434.749 55.4617C434.961 55.779 435.172 56.0964 435.384 56.4138C435.595 56.6782 435.939 56.9427 436.415 57.2072V58.0006H420.706C420.336 57.2601 420.045 56.3873 419.833 55.3823C419.674 54.3774 419.542 53.3724 419.436 52.3674C419.384 51.3624 419.331 50.4103 419.278 49.5112C419.278 48.5591 419.278 47.7921 419.278 47.2103V43.4019C419.278 41.8151 419.198 40.4928 419.04 39.4349C418.881 38.3771 418.59 37.5572 418.167 36.9754C417.797 36.3407 417.294 35.9175 416.66 35.7059C416.078 35.4415 415.337 35.3092 414.438 35.3092H410.55V58.0006H395.793V1.35156Z" fill="currentColor"/>
<path d="M360.297 1.35156H393.858V13.4113H375.054V23.0908H392.668V34.6745H375.054V45.9408H394.572V58.0006H360.297V1.35156Z" fill="currentColor"/>
<path d="M333.281 13.8873H322.332V1.35156H359.146V13.8873H348.038V58.0006H333.281V13.8873Z" fill="currentColor"/>
<path d="M296.589 25.3123H299.525C301.641 25.3123 303.201 24.7041 304.206 23.4875C305.211 22.2181 305.714 20.5784 305.714 18.5684C305.714 16.1882 305.211 14.4956 304.206 13.4906C303.254 12.4857 301.667 11.9832 299.446 11.9832H296.589V25.3123ZM281.832 1.35156H304.92C307.723 1.35156 310.104 1.72182 312.061 2.46233C314.071 3.20284 315.684 4.26071 316.901 5.63594C318.17 6.95828 319.069 8.54509 319.598 10.3964C320.18 12.2476 320.471 14.2576 320.471 16.4262C320.471 20.2346 319.704 23.3024 318.17 25.6297C316.636 27.957 314.176 29.3852 310.791 29.9141V30.0728C314.335 30.3901 316.768 31.6331 318.091 33.8018C319.413 35.9704 320.074 38.9589 320.074 42.7672V47.607C320.074 48.3475 320.074 49.1145 320.074 49.9079C320.074 50.7013 320.101 51.4682 320.153 52.2087C320.206 52.8963 320.286 53.5311 320.391 54.1129C320.497 54.6947 320.63 55.1443 320.788 55.4617C321 55.779 321.211 56.0964 321.423 56.4138C321.634 56.6782 321.978 56.9427 322.454 57.2072V58.0006H306.745C306.375 57.2601 306.084 56.3873 305.872 55.3823C305.714 54.3774 305.581 53.3724 305.475 52.3674C305.423 51.3624 305.37 50.4103 305.317 49.5112C305.317 48.5591 305.317 47.7921 305.317 47.2103V43.4019C305.317 41.8151 305.237 40.4928 305.079 39.4349C304.92 38.3771 304.629 37.5572 304.206 36.9754C303.836 36.3407 303.333 35.9175 302.699 35.7059C302.117 35.4415 301.376 35.3092 300.477 35.3092H296.589V58.0006H281.832V1.35156Z" fill="currentColor"/>
<path d="M254.483 29.6775C254.483 33.4858 254.536 36.6594 254.642 39.1983C254.748 41.6843 254.959 43.6678 255.277 45.1488C255.647 46.6298 256.149 47.6613 256.784 48.2431C257.472 48.8249 258.371 49.1158 259.482 49.1158C260.593 49.1158 261.465 48.8249 262.1 48.2431C262.788 47.6613 263.29 46.6298 263.608 45.1488C263.978 43.6678 264.216 41.6843 264.322 39.1983C264.427 36.6594 264.48 33.4858 264.48 29.6775C264.48 25.8691 264.427 22.722 264.322 20.236C264.216 17.6971 263.978 15.6871 263.608 14.2061C263.29 12.7251 262.788 11.6936 262.1 11.1118C261.465 10.53 260.593 10.2391 259.482 10.2391C258.371 10.2391 257.472 10.53 256.784 11.1118C256.149 11.6936 255.647 12.7251 255.277 14.2061C254.959 15.6871 254.748 17.6971 254.642 20.236C254.536 22.722 254.483 25.8691 254.483 29.6775ZM239.25 29.6775C239.25 24.3881 239.594 19.8921 240.281 16.1896C240.969 12.4342 242.106 9.39277 243.693 7.06546C245.28 4.68525 247.369 2.96621 249.961 1.90834C252.553 0.79757 255.726 0.242188 259.482 0.242188C263.237 0.242188 266.411 0.79757 269.003 1.90834C271.594 2.96621 273.684 4.68525 275.271 7.06546C276.857 9.39277 277.995 12.4342 278.682 16.1896C279.37 19.8921 279.714 24.3881 279.714 29.6775C279.714 34.9668 279.37 39.4892 278.682 43.2447C277.995 46.9472 276.857 49.9886 275.271 52.3688C273.684 54.6961 271.594 56.3623 269.003 57.3672C266.411 58.3722 263.237 58.8747 259.482 58.8747C255.726 58.8747 252.553 58.3722 249.961 57.3672C247.369 56.3623 245.28 54.6961 243.693 52.3688C242.106 49.9886 240.969 46.9472 240.281 43.2447C239.594 39.4892 239.25 34.9668 239.25 29.6775Z" fill="currentColor"/>
<path d="M214.679 25.7884H217.456C219.307 25.7884 220.709 25.233 221.661 24.1222C222.666 23.0115 223.169 21.266 223.169 18.8858C223.169 14.284 221.265 11.9832 217.456 11.9832H214.679V25.7884ZM199.922 1.35156H222.058C224.861 1.35156 227.294 1.80116 229.357 2.70035C231.42 3.59954 233.113 4.84254 234.435 6.42935C235.81 7.96326 236.815 9.78809 237.45 11.9038C238.085 14.0196 238.402 16.3204 238.402 18.8064C238.402 24.6776 236.815 29.0942 233.642 32.0563C230.521 34.9654 225.919 36.42 219.836 36.42H214.679V58.0006H199.922V1.35156Z" fill="currentColor"/>
<path d="M174.172 29.0391H198.926V41.0988H174.172V29.0391Z" fill="currentColor"/>
<path d="M154.013 12.9353L149.967 36.9754H158.218L154.172 12.9353H154.013ZM163.375 1.35156L177.18 58.0006H161.471L159.964 48.083H148.221L146.714 58.0006H131.242L144.809 1.35156H163.375Z" fill="currentColor"/>
<path d="M108.223 29.0391H132.977V41.0988H108.223V29.0391Z" fill="currentColor"/>
<path d="M87.7341 13.8873H76.7852V1.35156H113.599V13.8873H102.491V58.0006H87.7341V13.8873Z" fill="currentColor"/>
<path d="M41.7812 1.35156H75.3423V13.4113H56.5386V23.0908H74.1521V34.6745H56.5386V45.9408H76.0563V58.0006H41.7812V1.35156Z" fill="currentColor"/>
<path d="M0 1.35156H16.5027L26.0236 36.2613H26.1823V1.35156H39.9875V58.0006H23.8021L13.9639 23.0115H13.8052V58.0006H0V1.35156Z" fill="currentColor"/>
</svg>
