<svg viewBox="0 0 228 60" fill="none" xmlns="http://www.w3.org/2000/svg">
<path d="M200.211 59.2672L226.076 0H227.663L201.718 59.2672H200.211Z" fill="currentColor"/>
<path d="M180.831 29.6775C180.831 33.4858 180.884 36.6594 180.99 39.1983C181.095 41.6843 181.307 43.6678 181.624 45.1488C181.995 46.6298 182.497 47.6613 183.132 48.2431C183.82 48.8249 184.719 49.1158 185.829 49.1158C186.94 49.1158 187.813 48.8249 188.448 48.2431C189.135 47.6613 189.638 46.6298 189.955 45.1488C190.325 43.6678 190.563 41.6843 190.669 39.1983C190.775 36.6594 190.828 33.4858 190.828 29.6775C190.828 25.8691 190.775 22.722 190.669 20.236C190.563 17.6971 190.325 15.6871 189.955 14.2061C189.638 12.7251 189.135 11.6936 188.448 11.1118C187.813 10.53 186.94 10.2391 185.829 10.2391C184.719 10.2391 183.82 10.53 183.132 11.1118C182.497 11.6936 181.995 12.7251 181.624 14.2061C181.307 15.6871 181.095 17.6971 180.99 20.236C180.884 22.722 180.831 25.8691 180.831 29.6775ZM165.598 29.6775C165.598 24.3881 165.941 19.8921 166.629 16.1896C167.317 12.4342 168.454 9.39277 170.041 7.06546C171.628 4.68525 173.717 2.96621 176.309 1.90834C178.9 0.79757 182.074 0.242188 185.829 0.242188C189.585 0.242188 192.758 0.79757 195.35 1.90834C197.942 2.96621 200.031 4.68525 201.618 7.06546C203.205 9.39277 204.342 12.4342 205.03 16.1896C205.717 19.8921 206.061 24.3881 206.061 29.6775C206.061 34.9668 205.717 39.4892 205.03 43.2447C204.342 46.9472 203.205 49.9886 201.618 52.3688C200.031 54.6961 197.942 56.3623 195.35 57.3672C192.758 58.3722 189.585 58.8747 185.829 58.8747C182.074 58.8747 178.9 58.3722 176.309 57.3672C173.717 56.3623 171.628 54.6961 170.041 52.3688C168.454 49.9886 167.317 46.9472 166.629 43.2447C165.941 39.4892 165.598 34.9668 165.598 29.6775Z" fill="currentColor"/>
<path d="M124.879 1.35156H146.301C150.585 1.35156 153.917 2.14497 156.298 3.73178C158.678 5.26569 160.45 7.35498 161.614 9.99966C162.83 12.5914 163.571 15.6064 163.835 19.0445C164.099 22.4297 164.232 25.9735 164.232 29.6761C164.232 33.3786 164.099 36.9489 163.835 40.387C163.571 43.7722 162.83 46.7871 161.614 49.4318C160.45 52.0236 158.678 54.1129 156.298 55.6997C153.917 57.2336 150.585 58.0006 146.301 58.0006H124.879V1.35156ZM139.636 47.369H142.572C144 47.369 145.137 47.1838 145.983 46.8136C146.83 46.3904 147.464 45.5441 147.888 44.2747C148.364 43.0053 148.655 41.2069 148.76 38.8795C148.919 36.5522 148.998 33.4844 148.998 29.6761C148.998 25.8677 148.919 22.7999 148.76 20.4726C148.655 18.1453 148.364 16.3469 147.888 15.0774C147.464 13.808 146.83 12.9881 145.983 12.6179C145.137 12.1947 144 11.9832 142.572 11.9832H139.636V47.369Z" fill="currentColor"/>
<path d="M97.5341 29.6775C97.5341 33.4858 97.587 36.6594 97.6928 39.1983C97.7986 41.6843 98.0102 43.6678 98.3275 45.1488C98.6978 46.6298 99.2003 47.6613 99.835 48.2431C100.523 48.8249 101.422 49.1158 102.533 49.1158C103.643 49.1158 104.516 48.8249 105.151 48.2431C105.838 47.6613 106.341 46.6298 106.658 45.1488C107.029 43.6678 107.267 41.6843 107.372 39.1983C107.478 36.6594 107.531 33.4858 107.531 29.6775C107.531 25.8691 107.478 22.722 107.372 20.236C107.267 17.6971 107.029 15.6871 106.658 14.2061C106.341 12.7251 105.838 11.6936 105.151 11.1118C104.516 10.53 103.643 10.2391 102.533 10.2391C101.422 10.2391 100.523 10.53 99.835 11.1118C99.2003 11.6936 98.6978 12.7251 98.3275 14.2061C98.0102 15.6871 97.7986 17.6971 97.6928 20.236C97.587 22.722 97.5341 25.8691 97.5341 29.6775ZM82.3008 29.6775C82.3008 24.3881 82.6446 19.8921 83.3322 16.1896C84.0198 12.4342 85.157 9.39277 86.7438 7.06546C88.3306 4.68525 90.4199 2.96621 93.0117 1.90834C95.6035 0.79757 98.7771 0.242188 102.533 0.242188C106.288 0.242188 109.462 0.79757 112.053 1.90834C114.645 2.96621 116.735 4.68525 118.321 7.06546C119.908 9.39277 121.045 12.4342 121.733 16.1896C122.421 19.8921 122.764 24.3881 122.764 29.6775C122.764 34.9668 122.421 39.4892 121.733 43.2447C121.045 46.9472 119.908 49.9886 118.321 52.3688C116.735 54.6961 114.645 56.3623 112.053 57.3672C109.462 58.3722 106.288 58.8747 102.533 58.8747C98.7771 58.8747 95.6035 58.3722 93.0117 57.3672C90.4199 56.3623 88.3306 54.6961 86.7438 52.3688C85.157 49.9886 84.0198 46.9472 83.3322 43.2447C82.6446 39.4892 82.3008 34.9668 82.3008 29.6775Z" fill="currentColor"/>
<path d="M56.812 47.369H60.9377C62.3129 47.369 63.5295 46.8136 64.5873 45.7028C65.6452 44.5392 66.1742 42.7672 66.1742 40.387C66.1742 38.1655 65.6452 36.4729 64.5873 35.3092C63.5295 34.1456 62.3129 33.5637 60.9377 33.5637H56.812V47.369ZM56.812 23.5669H60.3823C61.9162 23.5669 63.0799 23.0115 63.8733 21.9007C64.6667 20.7371 65.0634 19.3883 65.0634 17.8544C65.0634 16.2675 64.6667 14.8923 63.8733 13.7287C63.0799 12.565 61.9162 11.9832 60.3823 11.9832H56.812V23.5669ZM42.0547 1.35156H64.3493C69.6387 1.35156 73.5264 2.64745 76.0124 5.23924C78.5513 7.77813 79.8207 11.1898 79.8207 15.4741C79.8207 16.9552 79.6356 18.4097 79.2653 19.8379C78.948 21.2131 78.419 22.4825 77.6785 23.6462C76.9909 24.757 76.0917 25.7091 74.9809 26.5025C73.8702 27.2959 72.5214 27.8512 70.9346 28.1686V28.3273C72.7858 28.486 74.3727 28.9885 75.695 29.8347C77.0173 30.6282 78.1017 31.6331 78.948 32.8497C79.7943 34.0662 80.4025 35.415 80.7728 36.896C81.1959 38.3242 81.4075 39.7787 81.4075 41.2598C81.4075 43.6929 81.0901 45.9408 80.4554 48.0037C79.8207 50.0665 78.8157 51.8385 77.4405 53.3195C76.1182 54.8005 74.3727 55.9642 72.204 56.8105C70.0354 57.6039 67.4172 58.0006 64.3493 58.0006H42.0547V1.35156Z" fill="currentColor"/>
<path d="M15.2333 29.6775C15.2333 33.4858 15.2862 36.6594 15.392 39.1983C15.4978 41.6843 15.7094 43.6678 16.0268 45.1488C16.397 46.6298 16.8995 47.6613 17.5342 48.2431C18.2218 48.8249 19.121 49.1158 20.2318 49.1158C21.3425 49.1158 22.2153 48.8249 22.85 48.2431C23.5376 47.6613 24.0401 46.6298 24.3575 45.1488C24.7277 43.6678 24.9658 41.6843 25.0716 39.1983C25.1774 36.6594 25.2302 33.4858 25.2302 29.6775C25.2302 25.8691 25.1774 22.722 25.0716 20.236C24.9658 17.6971 24.7277 15.6871 24.3575 14.2061C24.0401 12.7251 23.5376 11.6936 22.85 11.1118C22.2153 10.53 21.3425 10.2391 20.2318 10.2391C19.121 10.2391 18.2218 10.53 17.5342 11.1118C16.8995 11.6936 16.397 12.7251 16.0268 14.2061C15.7094 15.6871 15.4978 17.6971 15.392 20.236C15.2862 22.722 15.2333 25.8691 15.2333 29.6775ZM0 29.6775C0 24.3881 0.343817 19.8921 1.03143 16.1896C1.71905 12.4342 2.85625 9.39277 4.44305 7.06546C6.02986 4.68525 8.11915 2.96621 10.7109 1.90834C13.3027 0.79757 16.4763 0.242188 20.2318 0.242188C23.9872 0.242188 27.1608 0.79757 29.7526 1.90834C32.3444 2.96621 34.4337 4.68525 36.0205 7.06546C37.6073 9.39277 38.7445 12.4342 39.4322 16.1896C40.1198 19.8921 40.4636 24.3881 40.4636 29.6775C40.4636 34.9668 40.1198 39.4892 39.4322 43.2447C38.7445 46.9472 37.6073 49.9886 36.0205 52.3688C34.4337 54.6961 32.3444 56.3623 29.7526 57.3672C27.1608 58.3722 23.9872 58.8747 20.2318 58.8747C16.4763 58.8747 13.3027 58.3722 10.7109 57.3672C8.11915 56.3623 6.02986 54.6961 4.44305 52.3688C2.85625 49.9886 1.71905 46.9472 1.03143 43.2447C0.343817 39.4892 0 34.9668 0 29.6775Z" fill="currentColor"/>
</svg>
