<svg viewBox="0 0 602 128" fill="none" xmlns="http://www.w3.org/2000/svg">
<path d="M544.971 29.7205H521.121V2.41406H601.312V29.7205H577.117V125.812H544.971V29.7205Z" fill="currentColor"/>
<path d="M487.267 39.9227C487.267 32.8945 486.576 28.113 485.194 25.5782C483.811 23.0434 481.564 21.776 478.453 21.776C476.034 21.776 474.075 22.4097 472.577 23.6771C471.195 24.9445 470.1 27.1912 469.294 30.4173C468.602 33.6434 468.141 38.0216 467.911 43.5521C467.68 48.9673 467.565 55.8227 467.565 64.1183C467.565 72.414 467.68 79.327 467.911 84.8574C468.141 90.2726 468.602 94.5933 469.294 97.8193C470.1 101.045 471.195 103.292 472.577 104.56C474.075 105.827 476.034 106.461 478.453 106.461C480.412 106.461 482.025 106 483.293 105.078C484.56 104.041 485.539 102.37 486.231 100.066C486.922 97.7617 487.383 94.7085 487.613 90.9063C487.959 86.9889 488.132 82.0922 488.132 76.2161H519.24V85.3759C519.24 94.0172 518.088 101.103 515.784 106.633C513.479 112.164 510.426 116.542 506.624 119.768C502.822 122.879 498.444 124.953 493.489 125.99C488.65 127.142 483.638 127.718 478.453 127.718C469.466 127.718 462.092 126.624 456.332 124.434C450.571 122.245 446.077 118.616 442.851 113.546C439.625 108.362 437.378 101.737 436.111 93.6715C434.959 85.4911 434.383 75.64 434.383 64.1183C434.383 52.3662 435.074 42.3999 436.457 34.2195C437.954 26.0391 440.432 19.4141 443.888 14.3445C447.345 9.27498 451.896 5.64564 457.541 3.45652C463.187 1.15217 470.158 0 478.453 0C485.712 0 491.876 0.921739 496.946 2.76522C502.015 4.60869 506.105 7.25868 509.216 10.7152C512.442 14.0565 514.747 18.1467 516.129 22.9858C517.627 27.7097 518.376 33.0673 518.376 39.0586V46.8358H487.267V39.9227Z" fill="currentColor"/>
<path d="M380.857 2.41406V91.4193C380.857 97.4106 381.721 101.443 383.449 103.517C385.177 105.476 387.539 106.455 390.535 106.455C393.53 106.455 395.892 105.476 397.62 103.517C399.349 101.443 400.213 97.4106 400.213 91.4193V2.41406H432.359V83.2965C432.359 91.9378 431.437 99.1388 429.593 104.9C427.75 110.661 425.042 115.269 421.47 118.726C418.014 122.182 413.693 124.544 408.509 125.812C403.324 127.079 397.332 127.713 390.535 127.713C383.852 127.713 377.861 127.079 372.561 125.812C367.376 124.544 362.998 122.182 359.426 118.726C355.97 115.269 353.32 110.661 351.476 104.9C349.633 99.1388 348.711 91.9378 348.711 83.2965V2.41406H380.857Z" fill="currentColor"/>
<path d="M261.371 2.41406H308.034C317.367 2.41406 324.625 4.14232 329.81 7.59884C334.995 10.9401 338.855 15.4912 341.389 21.2521C344.039 26.8977 345.652 33.4651 346.228 40.9542C346.805 48.3281 347.093 56.0476 347.093 64.1128C347.093 72.178 346.805 79.9552 346.228 87.4443C345.652 94.8182 344.039 101.386 341.389 107.146C338.855 112.792 334.995 117.343 329.81 120.8C324.625 124.141 317.367 125.812 308.034 125.812H261.371V2.41406ZM293.517 102.653H299.911C303.022 102.653 305.499 102.25 307.343 101.443C309.186 100.521 310.569 98.678 311.491 95.9128C312.528 93.1475 313.161 89.2302 313.392 84.1606C313.737 79.091 313.91 72.4085 313.91 64.1128C313.91 55.8172 313.737 49.1346 313.392 44.0651C313.161 38.9955 312.528 35.0781 311.491 32.3129C310.569 29.5477 309.186 27.7618 307.343 26.9553C305.499 26.0336 303.022 25.5727 299.911 25.5727H293.517V102.653Z" fill="currentColor"/>
<path d="M204.202 64.1183C204.202 72.414 204.317 79.327 204.548 84.8574C204.778 90.2726 205.239 94.5933 205.93 97.8193C206.737 101.045 207.831 103.292 209.214 104.56C210.712 105.827 212.67 106.461 215.09 106.461C217.51 106.461 219.411 105.827 220.793 104.56C222.291 103.292 223.386 101.045 224.077 97.8193C224.884 94.5933 225.402 90.2726 225.632 84.8574C225.863 79.327 225.978 72.414 225.978 64.1183C225.978 55.8227 225.863 48.9673 225.632 43.5521C225.402 38.0216 224.884 33.6434 224.077 30.4173C223.386 27.1912 222.291 24.9445 220.793 23.6771C219.411 22.4097 217.51 21.776 215.09 21.776C212.67 21.776 210.712 22.4097 209.214 23.6771C207.831 24.9445 206.737 27.1912 205.93 30.4173C205.239 33.6434 204.778 38.0216 204.548 43.5521C204.317 48.9673 204.202 55.8227 204.202 64.1183ZM171.02 64.1183C171.02 52.5966 171.768 42.8032 173.266 34.738C174.764 26.5575 177.241 19.9326 180.698 14.863C184.154 9.67824 188.705 5.93368 194.351 3.62934C199.997 1.20978 206.91 0 215.09 0C223.27 0 230.184 1.20978 235.829 3.62934C241.475 5.93368 246.026 9.67824 249.482 14.863C252.939 19.9326 255.416 26.5575 256.914 34.738C258.412 42.8032 259.161 52.5966 259.161 64.1183C259.161 75.64 258.412 85.4911 256.914 93.6715C255.416 101.737 252.939 108.362 249.482 113.546C246.026 118.616 241.475 122.245 235.829 124.434C230.184 126.624 223.27 127.718 215.09 127.718C206.91 127.718 199.997 126.624 194.351 124.434C188.705 122.245 184.154 118.616 180.698 113.546C177.241 108.362 174.764 101.737 173.266 93.6715C171.768 85.4911 171.02 75.64 171.02 64.1183Z" fill="currentColor"/>
<path d="M118.067 54.6074H124.462C129.071 54.6074 132.47 53.2824 134.659 50.6324C136.848 47.8672 137.942 44.2955 137.942 39.9172C137.942 34.7325 136.848 31.0455 134.659 28.8564C132.585 26.6673 129.128 25.5727 124.289 25.5727H118.067V54.6074ZM85.9219 2.41406H136.214C142.321 2.41406 147.505 3.22058 151.768 4.83362C156.147 6.44666 159.661 8.751 162.311 11.7467C165.076 14.6271 167.035 18.0836 168.187 22.1162C169.454 26.1488 170.088 30.527 170.088 35.2509C170.088 43.5466 168.417 50.2292 165.076 55.2987C161.735 60.3683 156.377 63.4791 149.003 64.6313V64.977C156.723 65.6683 162.023 68.3759 164.903 73.0998C167.784 77.8237 169.224 84.3334 169.224 92.6291V103.171C169.224 104.784 169.224 106.455 169.224 108.183C169.224 109.912 169.281 111.582 169.397 113.195C169.512 114.693 169.685 116.076 169.915 117.343C170.146 118.611 170.434 119.59 170.779 120.281C171.24 120.972 171.701 121.664 172.162 122.355C172.623 122.931 173.372 123.507 174.409 124.083V125.812H140.189C139.383 124.199 138.749 122.297 138.288 120.108C137.942 117.919 137.654 115.73 137.424 113.541C137.309 111.352 137.194 109.278 137.078 107.319C137.078 105.245 137.078 103.575 137.078 102.307V94.0117C137.078 90.5552 136.905 87.6747 136.56 85.3704C136.214 83.066 135.581 81.2802 134.659 80.0128C133.852 78.6302 132.758 77.7085 131.375 77.2476C130.108 76.6715 128.495 76.3835 126.536 76.3835H118.067V125.812H85.9219V2.41406Z" fill="currentColor"/>
<path d="M32.1456 55.6444H38.1945C42.2271 55.6444 45.2804 54.4346 47.3543 52.015C49.5434 49.5955 50.6379 45.7933 50.6379 40.6085C50.6379 30.5846 46.4901 25.5727 38.1945 25.5727H32.1456V55.6444ZM0 2.41406H48.2184C54.3249 2.41406 59.6248 3.39341 64.1183 5.3521C68.6118 7.3108 72.2987 10.0184 75.1791 13.4749C78.1748 16.8162 80.364 20.7912 81.7466 25.3999C83.1292 30.0086 83.8204 35.0205 83.8204 40.4357C83.8204 53.2248 80.3639 62.8454 73.4509 69.2976C66.6531 75.6345 56.6292 78.803 43.3793 78.803H32.1456V125.812H0V2.41406Z" fill="currentColor"/>
</svg>
