<svg viewBox="0 0 112 40" fill="none" xmlns="http://www.w3.org/2000/svg">
<path d="M83.875 0H98.8734C101.873 0 104.206 0.555495 105.873 1.66648C107.539 2.74044 108.78 4.20324 109.594 6.05489C110.446 7.86951 110.965 9.98038 111.15 12.3875C111.335 14.7576 111.428 17.2388 111.428 19.8312C111.428 22.4235 111.335 24.9232 111.15 27.3303C110.965 29.7004 110.446 31.8113 109.594 33.663C108.78 35.4776 107.539 36.9404 105.873 38.0514C104.206 39.1253 101.873 39.6623 98.8734 39.6623H83.875V0ZM94.2072 32.2187H96.2625C97.2624 32.2187 98.0586 32.0891 98.6512 31.8298C99.2437 31.5336 99.6881 30.941 99.9844 30.0523C100.318 29.1635 100.521 27.9043 100.595 26.2749C100.706 24.6454 100.762 22.4975 100.762 19.8312C100.762 17.1648 100.706 15.0169 100.595 13.3874C100.521 11.758 100.318 10.4988 99.9844 9.61006C99.6881 8.72127 99.2437 8.14725 98.6512 7.88802C98.0586 7.59176 97.2624 7.44363 96.2625 7.44363H94.2072V32.2187Z" fill="currentColor"/>
<path d="M68.1693 8.11022L65.3363 24.9417H71.1134L68.2804 8.11022H68.1693ZM74.7241 0L84.3897 39.6623H73.3909L72.3355 32.7186H64.1142L63.0587 39.6623H52.2266L61.7255 0H74.7241Z" fill="currentColor"/>
<path d="M28.6758 0H52.1732V8.44352H39.008V15.2205H51.34V23.3308H39.008V31.2188H52.6732V39.6623H28.6758V0Z" fill="currentColor"/>
<path d="M10.3322 16.7759H12.3875C13.8689 16.7759 14.9613 16.3501 15.6649 15.4983C16.3686 14.6095 16.7204 13.4615 16.7204 12.0542C16.7204 10.3877 16.3686 9.20269 15.6649 8.49907C14.9984 7.79544 13.8874 7.44363 12.332 7.44363H10.3322V16.7759ZM0 0H16.1649C18.1277 0 19.7941 0.259231 21.1644 0.777692C22.5716 1.29615 23.7011 2.03681 24.5529 2.99967C25.4416 3.92549 26.0712 5.03648 26.4415 6.33264C26.8489 7.62879 27.0526 9.03604 27.0526 10.5544C27.0526 13.2208 26.5156 15.3687 25.4417 16.9981C24.3677 18.6276 22.6457 19.6275 20.2756 19.9978V20.1089C22.7568 20.3311 24.4603 21.2014 25.3861 22.7197C26.3119 24.2381 26.7749 26.3304 26.7749 28.9968V32.3853C26.7749 32.9038 26.7749 33.4408 26.7749 33.9963C26.7749 34.5518 26.7934 35.0887 26.8304 35.6072C26.8674 36.0886 26.923 36.533 26.9971 36.9404C27.0711 37.3477 27.1637 37.6625 27.2748 37.8847C27.4229 38.1069 27.5711 38.3291 27.7192 38.5513C27.8673 38.7365 28.108 38.9216 28.4413 39.1068V39.6623H17.4425C17.1833 39.1438 16.9796 38.5328 16.8315 37.8292C16.7204 37.1255 16.6278 36.4219 16.5537 35.7183C16.5167 35.0147 16.4797 34.3481 16.4426 33.7185C16.4426 33.0519 16.4426 32.5149 16.4426 32.1076V29.4412C16.4426 28.3302 16.3871 27.4044 16.276 26.6637C16.1649 25.9231 15.9612 25.3491 15.6649 24.9417C15.4057 24.4973 15.0539 24.201 14.6095 24.0529C14.2021 23.8677 13.6837 23.7752 13.0541 23.7752H10.3322V39.6623H0V0Z" fill="currentColor"/>
</svg>
