<svg viewBox="0 0 1795 128" fill="none" xmlns="http://www.w3.org/2000/svg">
<path d="M1738.37 29.7127H1714.52V2.40625H1794.71V29.7127H1770.52V125.804H1738.37V29.7127Z" fill="currentColor"/>
<path d="M1680.67 39.9227C1680.67 32.8945 1679.97 28.113 1678.59 25.5782C1677.21 23.0434 1674.96 21.776 1671.85 21.776C1669.43 21.776 1667.47 22.4097 1665.98 23.6771C1664.59 24.9445 1663.5 27.1912 1662.69 30.4173C1662 33.6434 1661.54 38.0216 1661.31 43.5521C1661.08 48.9673 1660.96 55.8227 1660.96 64.1183C1660.96 72.414 1661.08 79.327 1661.31 84.8574C1661.54 90.2726 1662 94.5933 1662.69 97.8193C1663.5 101.045 1664.59 103.292 1665.98 104.56C1667.47 105.827 1669.43 106.461 1671.85 106.461C1673.81 106.461 1675.42 106 1676.69 105.078C1677.96 104.041 1678.94 102.37 1679.63 100.066C1680.32 97.7617 1680.78 94.7085 1681.01 90.9063C1681.36 86.9889 1681.53 82.0922 1681.53 76.2161H1712.64V85.3759C1712.64 94.0172 1711.49 101.103 1709.18 106.633C1706.88 112.164 1703.82 116.542 1700.02 119.768C1696.22 122.879 1691.84 124.953 1686.89 125.99C1682.05 127.142 1677.04 127.718 1671.85 127.718C1662.86 127.718 1655.49 126.624 1649.73 124.434C1643.97 122.245 1639.48 118.616 1636.25 113.546C1633.02 108.362 1630.78 101.737 1629.51 93.6715C1628.36 85.4911 1627.78 75.64 1627.78 64.1183C1627.78 52.3662 1628.47 42.3999 1629.86 34.2195C1631.35 26.0391 1633.83 19.4141 1637.29 14.3445C1640.74 9.27498 1645.29 5.64564 1650.94 3.45652C1656.59 1.15217 1663.56 0 1671.85 0C1679.11 0 1685.27 0.921739 1690.34 2.76522C1695.41 4.60869 1699.5 7.25868 1702.61 10.7152C1705.84 14.0565 1708.15 18.1467 1709.53 22.9858C1711.03 27.7097 1711.77 33.0673 1711.77 39.0586V46.8358H1680.67V39.9227Z" fill="currentColor"/>
<path d="M1574.25 2.40625V91.4115C1574.25 97.4028 1575.12 101.435 1576.85 103.509C1578.58 105.468 1580.94 106.447 1583.93 106.447C1586.93 106.447 1589.29 105.468 1591.02 103.509C1592.75 101.435 1593.61 97.4028 1593.61 91.4115V2.40625H1625.76V83.2887C1625.76 91.93 1624.84 99.131 1622.99 104.892C1621.15 110.653 1618.44 115.261 1614.87 118.718C1611.41 122.174 1607.09 124.536 1601.91 125.804C1596.72 127.071 1590.73 127.705 1583.93 127.705C1577.25 127.705 1571.26 127.071 1565.96 125.804C1560.77 124.536 1556.4 122.174 1552.82 118.718C1549.37 115.261 1546.72 110.653 1544.87 104.892C1543.03 99.131 1542.11 91.93 1542.11 83.2887V2.40625H1574.25Z" fill="currentColor"/>
<path d="M1454.77 2.40625H1501.43C1510.77 2.40625 1518.02 4.13451 1523.21 7.59103C1528.39 10.9323 1532.25 15.4834 1534.79 21.2443C1537.44 26.8899 1539.05 33.4573 1539.63 40.9464C1540.2 48.3203 1540.49 56.0398 1540.49 64.105C1540.49 72.1702 1540.2 79.9474 1539.63 87.4365C1539.05 94.8104 1537.44 101.378 1534.79 107.139C1532.25 112.784 1528.39 117.335 1523.21 120.792C1518.02 124.133 1510.77 125.804 1501.43 125.804H1454.77V2.40625ZM1486.92 102.645H1493.31C1496.42 102.645 1498.9 102.242 1500.74 101.435C1502.58 100.514 1503.97 98.6702 1504.89 95.9049C1505.93 93.1397 1506.56 89.2223 1506.79 84.1528C1507.14 79.0832 1507.31 72.4007 1507.31 64.105C1507.31 55.8094 1507.14 49.1268 1506.79 44.0572C1506.56 38.9877 1505.93 35.0703 1504.89 32.3051C1503.97 29.5399 1502.58 27.754 1500.74 26.9475C1498.9 26.0258 1496.42 25.5649 1493.31 25.5649H1486.92V102.645Z" fill="currentColor"/>
<path d="M1397.6 64.1183C1397.6 72.414 1397.72 79.327 1397.95 84.8574C1398.18 90.2726 1398.64 94.5933 1399.33 97.8193C1400.14 101.045 1401.23 103.292 1402.61 104.56C1404.11 105.827 1406.07 106.461 1408.49 106.461C1410.91 106.461 1412.81 105.827 1414.19 104.56C1415.69 103.292 1416.78 101.045 1417.48 97.8193C1418.28 94.5933 1418.8 90.2726 1419.03 84.8574C1419.26 79.327 1419.38 72.414 1419.38 64.1183C1419.38 55.8227 1419.26 48.9673 1419.03 43.5521C1418.8 38.0216 1418.28 33.6434 1417.48 30.4173C1416.78 27.1912 1415.69 24.9445 1414.19 23.6771C1412.81 22.4097 1410.91 21.776 1408.49 21.776C1406.07 21.776 1404.11 22.4097 1402.61 23.6771C1401.23 24.9445 1400.14 27.1912 1399.33 30.4173C1398.64 33.6434 1398.18 38.0216 1397.95 43.5521C1397.72 48.9673 1397.6 55.8227 1397.6 64.1183ZM1364.42 64.1183C1364.42 52.5966 1365.17 42.8032 1366.66 34.738C1368.16 26.5575 1370.64 19.9326 1374.1 14.863C1377.55 9.67824 1382.1 5.93368 1387.75 3.62934C1393.4 1.20978 1400.31 0 1408.49 0C1416.67 0 1423.58 1.20978 1429.23 3.62934C1434.87 5.93368 1439.42 9.67824 1442.88 14.863C1446.34 19.9326 1448.81 26.5575 1450.31 34.738C1451.81 42.8032 1452.56 52.5966 1452.56 64.1183C1452.56 75.64 1451.81 85.4911 1450.31 93.6715C1448.81 101.737 1446.34 108.362 1442.88 113.546C1439.42 118.616 1434.87 122.245 1429.23 124.434C1423.58 126.624 1416.67 127.718 1408.49 127.718C1400.31 127.718 1393.4 126.624 1387.75 124.434C1382.1 122.245 1377.55 118.616 1374.1 113.546C1370.64 108.362 1368.16 101.737 1366.66 93.6715C1365.17 85.4911 1364.42 75.64 1364.42 64.1183Z" fill="currentColor"/>
<path d="M1311.47 54.5996H1317.86C1322.47 54.5996 1325.87 53.2746 1328.06 50.6246C1330.25 47.8594 1331.34 44.2877 1331.34 39.9094C1331.34 34.7247 1330.25 31.0377 1328.06 28.8486C1325.98 26.6595 1322.53 25.5649 1317.69 25.5649H1311.47V54.5996ZM1279.32 2.40625H1329.61C1335.72 2.40625 1340.9 3.21277 1345.17 4.82581C1349.55 6.43885 1353.06 8.74319 1355.71 11.7388C1358.47 14.6193 1360.43 18.0758 1361.59 22.1084C1362.85 26.141 1363.49 30.5192 1363.49 35.2431C1363.49 43.5388 1361.82 50.2214 1358.47 55.2909C1355.13 60.3605 1349.78 63.4713 1342.4 64.6235V64.9691C1350.12 65.6605 1355.42 68.3681 1358.3 73.092C1361.18 77.8159 1362.62 84.3256 1362.62 92.6213V103.164C1362.62 104.777 1362.62 106.447 1362.62 108.176C1362.62 109.904 1362.68 111.574 1362.8 113.188C1362.91 114.685 1363.08 116.068 1363.31 117.335C1363.54 118.603 1363.83 119.582 1364.18 120.273C1364.64 120.965 1365.1 121.656 1365.56 122.347C1366.02 122.923 1366.77 123.499 1367.81 124.076V125.804H1333.59C1332.78 124.191 1332.15 122.29 1331.69 120.101C1331.34 117.911 1331.05 115.722 1330.82 113.533C1330.71 111.344 1330.59 109.27 1330.48 107.311C1330.48 105.238 1330.48 103.567 1330.48 102.299V94.0039C1330.48 90.5473 1330.3 87.6669 1329.96 85.3626C1329.61 83.0582 1328.98 81.2724 1328.06 80.005C1327.25 78.6224 1326.16 77.7006 1324.77 77.2398C1323.51 76.6637 1321.89 76.3756 1319.93 76.3756H1311.47V125.804H1279.32V2.40625Z" fill="currentColor"/>
<path d="M1225.54 55.6366H1231.59C1235.63 55.6366 1238.68 54.4268 1240.75 52.0072C1242.94 49.5877 1244.04 45.7855 1244.04 40.6007C1244.04 30.5768 1239.89 25.5649 1231.59 25.5649H1225.54V55.6366ZM1193.4 2.40625H1241.62C1247.72 2.40625 1253.02 3.3856 1257.52 5.34429C1262.01 7.30298 1265.7 10.0106 1268.58 13.4671C1271.57 16.8084 1273.76 20.7834 1275.15 25.3921C1276.53 30.0008 1277.22 35.0127 1277.22 40.4279C1277.22 53.217 1273.76 62.8376 1266.85 69.2898C1260.05 75.6267 1250.03 78.7952 1236.78 78.7952H1225.54V125.804H1193.4V2.40625Z" fill="currentColor"/>
<path d="M1065.5 2.40625H1112.17C1121.5 2.40625 1128.76 4.13451 1133.94 7.59103C1139.13 10.9323 1142.99 15.4834 1145.52 21.2443C1148.17 26.8899 1149.79 33.4573 1150.36 40.9464C1150.94 48.3203 1151.23 56.0398 1151.23 64.105C1151.23 72.1702 1150.94 79.9474 1150.36 87.4365C1149.79 94.8104 1148.17 101.378 1145.52 107.139C1142.99 112.784 1139.13 117.335 1133.94 120.792C1128.76 124.133 1121.5 125.804 1112.17 125.804H1065.5V2.40625ZM1097.65 102.645H1104.04C1107.15 102.645 1109.63 102.242 1111.48 101.435C1113.32 100.514 1114.7 98.6702 1115.62 95.9049C1116.66 93.1397 1117.29 89.2223 1117.52 84.1528C1117.87 79.0832 1118.04 72.4007 1118.04 64.105C1118.04 55.8094 1117.87 49.1268 1117.52 44.0572C1117.29 38.9877 1116.66 35.0703 1115.62 32.3051C1114.7 29.5399 1113.32 27.754 1111.48 26.9475C1109.63 26.0258 1107.15 25.5649 1104.04 25.5649H1097.65V102.645Z" fill="currentColor"/>
<path d="M1015.45 27.6388L1006.64 80.005H1024.61L1015.8 27.6388H1015.45ZM1035.85 2.40625L1065.92 125.804H1031.7L1028.41 104.201H1002.84L999.553 125.804H965.852L995.405 2.40625H1035.85Z" fill="currentColor"/>
<path d="M896.887 2.40625H969.992V28.6758H929.032V49.7605H967.4V74.993H929.032V99.5343H971.547V125.804H896.887V2.40625Z" fill="currentColor"/>
<path d="M822.598 2.40625H854.743V99.5343H894.32V125.804H822.598V2.40625Z" fill="currentColor"/>
<path d="M720.596 77.2398L689.66 2.40625H724.398L736.496 45.4398H736.842L748.939 2.40625H784.196L752.742 77.2398V125.804H720.596V77.2398Z" fill="currentColor"/>
<path d="M614.648 2.40625H661.311C670.644 2.40625 677.903 4.13451 683.087 7.59103C688.272 10.9323 692.132 15.4834 694.667 21.2443C697.317 26.8899 698.93 33.4573 699.506 40.9464C700.082 48.3203 700.37 56.0398 700.37 64.105C700.37 72.1702 700.082 79.9474 699.506 87.4365C698.93 94.8104 697.317 101.378 694.667 107.139C692.132 112.784 688.272 117.335 683.087 120.792C677.903 124.133 670.644 125.804 661.311 125.804H614.648V2.40625ZM646.794 102.645H653.189C656.299 102.645 658.777 102.242 660.62 101.435C662.464 100.514 663.846 98.6702 664.768 95.9049C665.805 93.1397 666.439 89.2223 666.669 84.1528C667.015 79.0832 667.187 72.4007 667.187 64.105C667.187 55.8094 667.015 49.1268 666.669 44.0572C666.439 38.9877 665.805 35.0703 664.768 32.3051C663.846 29.5399 662.464 27.754 660.62 26.9475C658.777 26.0258 656.299 25.5649 653.189 25.5649H646.794V102.645Z" fill="currentColor"/>
<path d="M555.665 54.5996H562.06C566.668 54.5996 570.067 53.2746 572.256 50.6246C574.446 47.8594 575.54 44.2877 575.54 39.9094C575.54 34.7247 574.446 31.0377 572.256 28.8486C570.182 26.6595 566.726 25.5649 561.887 25.5649H555.665V54.5996ZM523.52 2.40625H573.812C579.918 2.40625 585.103 3.21277 589.366 4.82581C593.744 6.43885 597.259 8.74319 599.909 11.7388C602.674 14.6193 604.632 18.0758 605.785 22.1084C607.052 26.141 607.686 30.5192 607.686 35.2431C607.686 43.5388 606.015 50.2214 602.674 55.2909C599.332 60.3605 593.975 63.4713 586.601 64.6235V64.9691C594.32 65.6605 599.62 68.3681 602.501 73.092C605.381 77.8159 606.822 84.3256 606.822 92.6213V103.164C606.822 104.777 606.822 106.447 606.822 108.176C606.822 109.904 606.879 111.574 606.994 113.188C607.11 114.685 607.282 116.068 607.513 117.335C607.743 118.603 608.031 119.582 608.377 120.273C608.838 120.965 609.299 121.656 609.76 122.347C610.22 122.923 610.969 123.499 612.006 124.076V125.804H577.787C576.98 124.191 576.347 122.29 575.886 120.101C575.54 117.911 575.252 115.722 575.022 113.533C574.906 111.344 574.791 109.27 574.676 107.311C574.676 105.238 574.676 103.567 574.676 102.299V94.0039C574.676 90.5473 574.503 87.6669 574.157 85.3626C573.812 83.0582 573.178 81.2724 572.256 80.005C571.45 78.6224 570.355 77.7006 568.973 77.2398C567.705 76.6637 566.092 76.3756 564.134 76.3756H555.665V125.804H523.52V2.40625Z" fill="currentColor"/>
<path d="M473.464 27.6388L464.65 80.005H482.624L473.81 27.6388H473.464ZM493.858 2.40625L523.929 125.804H489.71L486.426 104.201H460.848L457.564 125.804H423.863L453.416 2.40625H493.858Z" fill="currentColor"/>
<path d="M340.871 2.40625H373.017V47.6866H392.719V2.40625H424.864V125.804H392.719V74.993H373.017V125.804H340.871V2.40625Z" fill="currentColor"/>
<path d="M179.879 2.40625H225.851L238.812 75.5115H239.158L252.12 2.40625H298.092V125.804H268.02V33.8605H267.674L250.565 125.804H227.406L210.296 33.8605H209.951V125.804H179.879V2.40625Z" fill="currentColor"/>
<path d="M129.98 27.6388L121.166 80.005H139.14L130.326 27.6388H129.98ZM150.373 2.40625L180.445 125.804H146.225L142.942 104.201H117.364L114.08 125.804H80.3789L109.932 2.40625H150.373Z" fill="currentColor"/>
<path d="M51.8477 38.0217V35.0836C51.8477 31.3967 51.0988 28.2858 49.601 25.751C48.1032 23.101 45.7988 21.776 42.688 21.776C39.2314 21.776 36.6967 22.9282 35.0836 25.2326C33.4706 27.4217 32.6641 29.8988 32.6641 32.6641C32.6641 36.6967 33.9314 39.9227 36.4662 42.3423C39.1162 44.6466 42.3999 46.6629 46.3173 48.3912C50.2347 50.1194 54.4401 51.9053 58.9336 53.7488C63.427 55.477 67.6325 57.7814 71.5498 60.6618C75.4672 63.5422 78.6933 67.3444 81.2281 72.0683C83.8781 76.677 85.2031 82.7259 85.2031 90.215C85.2031 103.35 81.4585 112.913 73.9694 118.904C66.4803 124.78 55.6499 127.718 41.4782 127.718C34.7956 127.718 28.8619 127.142 23.6771 125.99C18.6076 124.953 14.2869 123.109 10.7152 120.46C7.25868 117.694 4.60868 114.123 2.76521 109.744C0.921737 105.366 0 99.9509 0 93.4987V89.1781H31.1086V92.1161C31.1086 97.4161 32.088 101.161 34.0467 103.35C36.0054 105.424 38.5401 106.461 41.651 106.461C44.9923 106.461 47.5271 105.308 49.2553 103.004C51.0988 100.7 52.0205 97.877 52.0205 94.5357C52.0205 90.5031 50.7531 87.3346 48.2184 85.0302C45.7988 82.6107 42.6879 80.5944 38.8858 78.9813C35.1988 77.2531 31.1662 75.5248 26.788 73.7966C22.4097 72.0683 18.3195 69.8216 14.5174 67.0564C10.8304 64.2912 7.71955 60.6618 5.18477 56.1683C2.76521 51.6749 1.55543 45.7988 1.55543 38.5401C1.55543 25.9815 4.89673 16.4184 11.5793 9.85107C18.2619 3.28369 28.401 0 41.9966 0C56.0531 0 66.1922 3.05326 72.414 9.15977C78.7509 15.1511 81.9194 24.7717 81.9194 38.0217H51.8477Z" fill="currentColor"/>
</svg>
