<svg viewBox="0 0 299 128" fill="none" xmlns="http://www.w3.org/2000/svg">
<path d="M179.879 2.41406H225.851L238.812 75.5193H239.158L252.12 2.41406H298.092V125.812H268.02V33.8683H267.674L250.565 125.812H227.406L210.296 33.8683H209.951V125.812H179.879V2.41406Z" fill="currentColor"/>
<path d="M129.98 27.6466L121.166 80.0128H139.14L130.326 27.6466H129.98ZM150.373 2.41406L180.445 125.812H146.225L142.942 104.208H117.364L114.08 125.812H80.3789L109.932 2.41406H150.373Z" fill="currentColor"/>
<path d="M51.8477 38.0217V35.0836C51.8477 31.3967 51.0988 28.2858 49.601 25.751C48.1032 23.101 45.7988 21.776 42.688 21.776C39.2314 21.776 36.6967 22.9282 35.0836 25.2326C33.4706 27.4217 32.6641 29.8988 32.6641 32.6641C32.6641 36.6967 33.9314 39.9227 36.4662 42.3423C39.1162 44.6466 42.3999 46.6629 46.3173 48.3912C50.2347 50.1194 54.4401 51.9053 58.9336 53.7488C63.427 55.477 67.6325 57.7814 71.5498 60.6618C75.4672 63.5422 78.6933 67.3444 81.2281 72.0683C83.8781 76.677 85.2031 82.7259 85.2031 90.215C85.2031 103.35 81.4585 112.913 73.9694 118.904C66.4803 124.78 55.6499 127.718 41.4782 127.718C34.7956 127.718 28.8619 127.142 23.6771 125.99C18.6076 124.953 14.2869 123.109 10.7152 120.46C7.25868 117.694 4.60868 114.123 2.76521 109.744C0.921737 105.366 0 99.9509 0 93.4987V89.1781H31.1086V92.1161C31.1086 97.4161 32.088 101.161 34.0467 103.35C36.0054 105.424 38.5401 106.461 41.651 106.461C44.9923 106.461 47.5271 105.308 49.2553 103.004C51.0988 100.7 52.0205 97.877 52.0205 94.5357C52.0205 90.5031 50.7531 87.3346 48.2184 85.0302C45.7988 82.6107 42.6879 80.5944 38.8858 78.9813C35.1988 77.2531 31.1662 75.5248 26.788 73.7966C22.4097 72.0683 18.3195 69.8216 14.5174 67.0564C10.8304 64.2912 7.71955 60.6618 5.18477 56.1683C2.76521 51.6749 1.55543 45.7988 1.55543 38.5401C1.55543 25.9815 4.89673 16.4184 11.5793 9.85107C18.2619 3.28369 28.401 0 41.9966 0C56.0531 0 66.1922 3.05326 72.414 9.15977C78.7509 15.1511 81.9194 24.7717 81.9194 38.0217H51.8477Z" fill="currentColor"/>
</svg>
