<svg viewBox="0 0 677 42" fill="none" xmlns="http://www.w3.org/2000/svg">
<path d="M638.746 0.78125H653.522L657.688 24.2787H657.799L661.966 0.78125H676.742V40.4436H667.076V10.8913H666.965L661.466 40.4436H654.022L648.523 10.8913H648.412V40.4436H638.746V0.78125Z" fill="currentColor"/>
<path d="M619.986 20.6088C619.986 23.2752 620.023 25.4972 620.097 27.2748C620.171 29.0153 620.319 30.4041 620.541 31.441C620.801 32.4779 621.152 33.2001 621.597 33.6074C622.078 34.0148 622.708 34.2185 623.485 34.2185C624.263 34.2185 624.874 34.0148 625.319 33.6074C625.8 33.2001 626.152 32.4779 626.374 31.441C626.633 30.4041 626.8 29.0153 626.874 27.2748C626.948 25.4972 626.985 23.2752 626.985 20.6088C626.985 17.9425 626.948 15.739 626.874 13.9985C626.8 12.2209 626.633 10.8136 626.374 9.7767C626.152 8.73978 625.8 8.01764 625.319 7.61028C624.874 7.20291 624.263 6.99923 623.485 6.99923C622.708 6.99923 622.078 7.20291 621.597 7.61028C621.152 8.01764 620.801 8.73978 620.541 9.7767C620.319 10.8136 620.171 12.2209 620.097 13.9985C620.023 15.739 619.986 17.9425 619.986 20.6088ZM609.32 20.6088C609.32 16.9055 609.561 13.7577 610.043 11.1654C610.524 8.5361 611.32 6.4067 612.431 4.77725C613.542 3.11077 615.005 1.9072 616.82 1.16654C618.634 0.388846 620.856 0 623.485 0C626.115 0 628.337 0.388846 630.151 1.16654C631.966 1.9072 633.429 3.11077 634.54 4.77725C635.651 6.4067 636.447 8.5361 636.928 11.1654C637.41 13.7577 637.651 16.9055 637.651 20.6088C637.651 24.3121 637.41 27.4785 636.928 30.1078C636.447 32.7001 635.651 34.8295 634.54 36.496C633.429 38.1254 631.966 39.292 630.151 39.9956C628.337 40.6992 626.115 41.051 623.485 41.051C620.856 41.051 618.634 40.6992 616.82 39.9956C615.005 39.292 613.542 38.1254 612.431 36.496C611.32 34.8295 610.524 32.7001 610.043 30.1078C609.561 27.4785 609.32 24.3121 609.32 20.6088Z" fill="currentColor"/>
<path d="M598.705 12.8319C598.705 10.5729 598.483 9.03604 598.039 8.22132C597.594 7.40659 596.872 6.99923 595.872 6.99923C595.095 6.99923 594.465 7.20291 593.983 7.61028C593.539 8.01764 593.187 8.73978 592.928 9.7767C592.706 10.8136 592.558 12.2209 592.484 13.9985C592.41 15.739 592.373 17.9425 592.373 20.6088C592.373 23.2752 592.41 25.4972 592.484 27.2748C592.558 29.0153 592.706 30.4041 592.928 31.441C593.187 32.4779 593.539 33.2001 593.983 33.6074C594.465 34.0148 595.095 34.2185 595.872 34.2185C596.502 34.2185 597.02 34.0703 597.428 33.7741C597.835 33.4408 598.15 32.9038 598.372 32.1631C598.594 31.4225 598.742 30.4411 598.816 29.219C598.927 27.9599 598.983 26.386 598.983 24.4973H608.982V27.4414C608.982 30.2189 608.612 32.4964 607.871 34.274C607.13 36.0516 606.149 37.4588 604.927 38.4958C603.705 39.4957 602.297 40.1622 600.705 40.4955C599.15 40.8659 597.539 41.051 595.872 41.051C592.984 41.051 590.613 40.6992 588.762 39.9956C586.91 39.292 585.466 38.1254 584.429 36.496C583.392 34.8295 582.67 32.7001 582.263 30.1078C581.892 27.4785 581.707 24.3121 581.707 20.6088C581.707 16.8315 581.929 13.6281 582.374 10.9988C582.855 8.36945 583.651 6.24006 584.762 4.6106C585.873 2.98115 587.336 1.81462 589.151 1.11099C590.965 0.37033 593.206 0 595.872 0C598.205 0 600.186 0.296264 601.816 0.888793C603.445 1.48132 604.76 2.33308 605.76 3.44407C606.797 4.51802 607.538 5.83269 607.982 7.38808C608.463 8.90643 608.704 10.6285 608.704 12.5542V15.0539H598.705V12.8319Z" fill="currentColor"/>
<path d="M571.777 29.4453H581.11V40.4441H571.777V29.4453Z" fill="currentColor"/>
<path d="M548.176 0.78125H558.508V32H571.229V40.4436H548.176V0.78125Z" fill="currentColor"/>
<path d="M536.578 0.78125H546.91V40.4436H536.578V0.78125Z" fill="currentColor"/>
<path d="M521.263 8.89147L518.43 25.723H524.207L521.374 8.89147H521.263ZM527.818 0.78125L537.483 40.4436H526.485L525.429 33.4999H517.208L516.152 40.4436H505.32L514.819 0.78125H527.818Z" fill="currentColor"/>
<path d="M468.059 0.78125H482.835L487.001 24.2787H487.112L491.278 0.78125H506.054V40.4436H496.389V10.8913H496.278L490.778 40.4436H483.335L477.835 10.8913H477.724V40.4436H468.059V0.78125Z" fill="currentColor"/>
<path d="M454.135 18.8868H467.467V40.44H460.468L460.246 36.9404H460.135C459.801 37.7921 459.32 38.4958 458.69 39.0513C458.098 39.6068 457.413 40.0326 456.635 40.3289C455.894 40.5881 455.08 40.7733 454.191 40.8844C453.339 40.9955 452.469 41.051 451.58 41.051C448.951 41.051 446.877 40.6252 445.358 39.7734C443.84 38.8846 442.692 37.5699 441.914 35.8294C441.137 34.0888 440.637 31.9409 440.415 29.3857C440.229 26.8304 440.137 23.9048 440.137 20.6088C440.137 17.2759 440.322 14.3318 440.692 11.7765C441.1 9.22121 441.84 7.0733 442.914 5.33275C444.025 3.5922 445.544 2.27753 447.469 1.38874C449.395 0.462912 451.876 0 454.913 0C456.728 0 458.394 0.240714 459.912 0.722143C461.468 1.20357 462.801 1.98126 463.912 3.05522C465.023 4.12917 465.893 5.51791 466.523 7.22143C467.152 8.88791 467.467 10.9247 467.467 13.3319H457.468C457.468 11.221 457.283 9.68412 456.913 8.72126C456.542 7.57324 455.746 6.99923 454.524 6.99923C453.672 6.99923 452.987 7.20291 452.469 7.61028C451.987 8.01764 451.617 8.73978 451.358 9.7767C451.136 10.8136 450.987 12.2209 450.913 13.9985C450.839 15.739 450.802 17.9425 450.802 20.6088C450.802 23.2752 450.839 25.4972 450.913 27.2748C450.987 29.0153 451.136 30.4041 451.358 31.441C451.617 32.4779 451.969 33.2001 452.413 33.6074C452.895 34.0148 453.524 34.2185 454.302 34.2185C454.857 34.2185 455.339 34.1074 455.746 33.8852C456.191 33.663 456.561 33.2556 456.857 32.6631C457.153 32.0335 457.376 31.1818 457.524 30.1078C457.709 28.9968 457.802 27.5896 457.802 25.886H454.135V18.8868Z" fill="currentColor"/>
<path d="M430.647 10.7766L428.425 22.4975C428.351 22.9049 428.258 23.3678 428.147 23.8863C428.073 24.4047 428.036 24.7936 428.036 25.0528C428.036 25.8675 428.351 26.2749 428.981 26.2749C429.462 26.2749 429.98 26.1082 430.536 25.7749C431.091 25.4416 431.61 24.9417 432.091 24.2751C432.61 23.5715 433.036 22.6642 433.369 21.5532C433.702 20.4422 433.869 19.109 433.869 17.5536C433.869 15.5538 433.499 13.7948 432.758 12.2764C432.054 10.721 431.036 9.42489 429.703 8.38797C428.407 7.31401 426.851 6.49929 425.037 5.94379C423.259 5.3883 421.315 5.11055 419.204 5.11055C416.871 5.11055 414.76 5.4994 412.871 6.27709C410.983 7.01775 409.372 8.0917 408.038 9.49895C406.705 10.8692 405.668 12.4986 404.928 14.3873C404.224 16.276 403.872 18.3684 403.872 20.6644C403.872 23.0715 404.261 25.238 405.039 27.1637C405.853 29.0524 406.983 30.6633 408.427 31.9965C409.872 33.3297 411.594 34.3481 413.593 35.0517C415.593 35.7553 417.778 36.1071 420.148 36.1071C422.259 36.1071 424.203 35.8294 425.981 35.2739C427.796 34.6814 429.406 33.8666 430.814 32.8297H436.924C434.924 35.6072 432.443 37.681 429.48 39.0513C426.555 40.3844 422.852 41.051 418.371 41.051C415.519 41.051 412.834 40.5326 410.316 39.4957C407.835 38.4587 405.65 37.0144 403.761 35.1628C401.909 33.3112 400.447 31.1447 399.373 28.6635C398.299 26.1453 397.762 23.4604 397.762 20.6088C397.762 17.7573 398.299 15.0909 399.373 12.6097C400.447 10.0915 401.909 7.90654 403.761 6.05489C405.65 4.16621 407.835 2.68489 410.316 1.61093C412.834 0.536978 415.519 0 418.371 0C421.111 0 423.722 0.388846 426.203 1.16654C428.684 1.94423 430.869 3.05522 432.758 4.49951C434.647 5.94379 436.146 7.70286 437.257 9.7767C438.405 11.8505 438.979 14.1651 438.979 16.7204C438.979 19.0535 438.517 21.1643 437.591 23.053C436.665 24.9047 435.498 26.4786 434.091 27.7747C432.721 29.0338 431.202 30.0152 429.536 30.7188C427.87 31.3854 426.296 31.7187 424.814 31.7187C423.963 31.7187 423.24 31.5151 422.648 31.1077C422.055 30.6633 421.704 30.0523 421.592 29.2746H421.37C420.741 30.0152 419.908 30.6077 418.871 31.0521C417.871 31.4965 416.741 31.7187 415.482 31.7187C414.334 31.7187 413.223 31.4965 412.149 31.0521C411.112 30.5707 410.186 29.9041 409.372 29.0524C408.594 28.2006 407.964 27.2007 407.483 26.0527C407.039 24.8676 406.816 23.553 406.816 22.1087C406.816 20.4792 407.076 18.9053 407.594 17.387C408.15 15.8686 408.909 14.5169 409.871 13.3319C410.871 12.1468 412.056 11.2025 413.427 10.4988C414.834 9.79522 416.389 9.44341 418.093 9.44341C419.5 9.44341 420.778 9.72115 421.926 10.2766C423.111 10.7951 424.166 11.6469 425.092 12.8319L425.536 10.7766H430.647ZM413.593 21.2199C413.593 22.4049 413.945 23.4419 414.649 24.3307C415.39 25.1824 416.371 25.6083 417.593 25.6083C418.445 25.6083 419.204 25.4602 419.87 25.1639C420.574 24.8306 421.167 24.4047 421.648 23.8863C422.166 23.3678 422.555 22.7753 422.815 22.1087C423.111 21.4051 423.259 20.6829 423.259 19.9423C423.259 18.6461 422.852 17.5907 422.037 16.7759C421.259 15.9612 420.204 15.5538 418.871 15.5538C418.13 15.5538 417.426 15.7205 416.76 16.0538C416.13 16.3871 415.575 16.8315 415.093 17.387C414.649 17.9054 414.279 18.5165 413.982 19.2201C413.723 19.8867 413.593 20.5533 413.593 21.2199Z" fill="currentColor"/>
<path d="M379.791 24.8342L369.848 0.78125H381.013L384.902 14.6131H385.013L388.901 0.78125H400.233L390.123 24.8342V40.4436H379.791V24.8342Z" fill="currentColor"/>
<path d="M344.965 0.78125H359.963C362.963 0.78125 365.296 1.33674 366.962 2.44773C368.629 3.52169 369.869 4.98449 370.684 6.83614C371.536 8.65076 372.054 10.7616 372.24 13.1688C372.425 15.5389 372.517 18.0201 372.517 20.6124C372.517 23.2047 372.425 25.7044 372.24 28.1116C372.054 30.4817 371.536 32.5926 370.684 34.4442C369.869 36.2588 368.629 37.7216 366.962 38.8326C365.296 39.9066 362.963 40.4436 359.963 40.4436H344.965V0.78125ZM355.297 32.9999H357.352C358.352 32.9999 359.148 32.8703 359.741 32.6111C360.333 32.3148 360.778 31.7223 361.074 30.8335C361.407 29.9447 361.611 28.6856 361.685 27.0561C361.796 25.4267 361.852 23.2788 361.852 20.6124C361.852 17.946 361.796 15.7981 361.685 14.1687C361.611 12.5392 361.407 11.2801 361.074 10.3913C360.778 9.50252 360.333 8.9285 359.741 8.66927C359.148 8.37301 358.352 8.22488 357.352 8.22488H355.297V32.9999Z" fill="currentColor"/>
<path d="M325.621 17.5572H327.677C329.158 17.5572 330.25 17.1313 330.954 16.2795C331.658 15.3908 332.009 14.2427 332.009 12.8355C332.009 11.169 331.658 9.98394 330.954 9.28032C330.287 8.57669 329.176 8.22488 327.621 8.22488H325.621V17.5572ZM315.289 0.78125H331.454C333.417 0.78125 335.083 1.04048 336.453 1.55894C337.861 2.0774 338.99 2.81806 339.842 3.78092C340.731 4.70674 341.36 5.81773 341.73 7.11389C342.138 8.41004 342.342 9.81729 342.342 11.3356C342.342 14.002 341.805 16.1499 340.731 17.7794C339.657 19.4088 337.935 20.4087 335.565 20.7791V20.8902C338.046 21.1123 339.749 21.9826 340.675 23.501C341.601 25.0193 342.064 27.1117 342.064 29.7781V33.1666C342.064 33.685 342.064 34.222 342.064 34.7775C342.064 35.333 342.082 35.87 342.119 36.3884C342.156 36.8699 342.212 37.3143 342.286 37.7216C342.36 38.129 342.453 38.4438 342.564 38.666C342.712 38.8882 342.86 39.1104 343.008 39.3326C343.156 39.5177 343.397 39.7029 343.73 39.8881V40.4436H332.732C332.472 39.9251 332.269 39.3141 332.121 38.6104C332.009 37.9068 331.917 37.2032 331.843 36.4995C331.806 35.7959 331.769 35.1293 331.732 34.4998C331.732 33.8332 331.732 33.2962 331.732 32.8888V30.2225C331.732 29.1115 331.676 28.1856 331.565 27.445C331.454 26.7043 331.25 26.1303 330.954 25.723C330.695 25.2786 330.343 24.9823 329.898 24.8342C329.491 24.649 328.973 24.5564 328.343 24.5564H325.621V40.4436H315.289V0.78125Z" fill="currentColor"/>
<path d="M299.587 8.89147L296.754 25.723H302.531L299.698 8.89147H299.587ZM306.142 0.78125L315.808 40.4436H304.809L303.753 33.4999H295.532L294.477 40.4436H283.645L293.143 0.78125H306.142Z" fill="currentColor"/>
<path d="M256.969 0.78125H267.301V15.3352H273.634V0.78125H283.966V40.4436H273.634V24.112H267.301V40.4436H256.969V0.78125Z" fill="currentColor"/>
<path d="M237.162 24.8342L227.219 0.78125H238.384L242.273 14.6131H242.384L246.272 0.78125H257.604L247.494 24.8342V40.4436H237.162V24.8342Z" fill="currentColor"/>
<path d="M190.07 0.78125H204.846L209.013 24.2787H209.124L213.29 0.78125H228.066V40.4436H218.401V10.8913H218.289L212.79 40.4436H205.346L199.847 10.8913H199.736V40.4436H190.07V0.78125Z" fill="currentColor"/>
<path d="M151.195 0.78125H165.971L170.138 24.2787H170.249L174.415 0.78125H189.191V40.4436H179.526V10.8913H179.414L173.915 40.4436H166.471L160.972 10.8913H160.861V40.4436H151.195V0.78125Z" fill="currentColor"/>
<path d="M126.031 0.78125H149.529V9.22477H136.363V16.0018H148.695V24.112H136.363V32H150.029V40.4436H126.031V0.78125Z" fill="currentColor"/>
<path d="M97.3555 0.78125H112.354C115.354 0.78125 117.687 1.33674 119.353 2.44773C121.02 3.52169 122.26 4.98449 123.075 6.83614C123.927 8.65076 124.445 10.7616 124.63 13.1688C124.815 15.5389 124.908 18.0201 124.908 20.6124C124.908 23.2047 124.815 25.7044 124.63 28.1116C124.445 30.4817 123.927 32.5926 123.075 34.4442C122.26 36.2588 121.02 37.7216 119.353 38.8326C117.687 39.9066 115.354 40.4436 112.354 40.4436H97.3555V0.78125ZM107.688 32.9999H109.743C110.743 32.9999 111.539 32.8703 112.132 32.6111C112.724 32.3148 113.169 31.7223 113.465 30.8335C113.798 29.9447 114.002 28.6856 114.076 27.0561C114.187 25.4267 114.243 23.2788 114.243 20.6124C114.243 17.946 114.187 15.7981 114.076 14.1687C114.002 12.5392 113.798 11.2801 113.465 10.3913C113.169 9.50252 112.724 8.9285 112.132 8.66927C111.539 8.37301 110.743 8.22488 109.743 8.22488H107.688V32.9999Z" fill="currentColor"/>
<path d="M58.0938 0.78125H72.8699L77.0361 24.2787H77.1472L81.3134 0.78125H96.0896V40.4436H86.4239V10.8913H86.3128L80.8135 40.4436H73.3699L67.8705 10.8913H67.7594V40.4436H58.0938V0.78125Z" fill="currentColor"/>
<path d="M41.7786 8.89147L38.9456 25.723H44.7227L41.8897 8.89147H41.7786ZM48.3334 0.78125L57.999 40.4436H47.0002L45.9448 33.4999H37.7235L36.668 40.4436H25.8359L35.3349 0.78125H48.3334Z" fill="currentColor"/>
<path d="M16.6648 12.2209V11.2765C16.6648 10.0915 16.4241 9.09159 15.9427 8.27687C15.4613 7.42511 14.7206 6.99923 13.7207 6.99923C12.6097 6.99923 11.7949 7.36956 11.2765 8.11022C10.758 8.81385 10.4988 9.61006 10.4988 10.4988C10.4988 11.795 10.9062 12.8319 11.7209 13.6096C12.5727 14.3503 13.6281 14.9984 14.8872 15.5538C16.1463 16.1093 17.498 16.6834 18.9423 17.2759C20.3866 17.8314 21.7383 18.572 22.9974 19.4979C24.2565 20.4237 25.2935 21.6458 26.1082 23.1641C26.96 24.6454 27.3859 26.5897 27.3859 28.9968C27.3859 33.2186 26.1823 36.2923 23.7752 38.218C21.368 40.1067 17.8869 41.051 13.3318 41.051C11.1839 41.051 9.27669 40.8659 7.61021 40.4955C5.98076 40.1622 4.59203 39.5697 3.44401 38.718C2.33302 37.8292 1.48129 36.6812 0.888758 35.2739C0.296231 33.8666 0 32.1261 0 30.0523V28.6635H9.99889V29.6079C9.99889 31.3114 10.3136 32.5149 10.9432 33.2186C11.5728 33.8852 12.3875 34.2185 13.3874 34.2185C14.4613 34.2185 15.2761 33.8481 15.8316 33.1075C16.4241 32.3668 16.7203 31.4595 16.7203 30.3855C16.7203 29.0894 16.313 28.071 15.4983 27.3303C14.7206 26.5526 13.7207 25.9046 12.4986 25.3861C11.3135 24.8306 10.0174 24.2751 8.61014 23.7196C7.20288 23.1641 5.88821 22.442 4.66613 21.5532C3.48107 20.6644 2.48115 19.4979 1.66642 18.0536C0.88873 16.6093 0.499927 14.7206 0.499927 12.3875C0.499927 8.35094 1.57391 5.2772 3.72182 3.16632C5.86973 1.05544 9.12856 0 13.4985 0C18.0165 0 21.2754 0.981375 23.2752 2.94412C25.312 4.86984 26.3304 7.96209 26.3304 12.2209H16.6648Z" fill="currentColor"/>
</svg>
