<svg viewBox="0 0 321 42" fill="none" xmlns="http://www.w3.org/2000/svg">
<path d="M301.043 41.4954L319.152 0H320.263L302.098 41.4954H301.043Z" fill="currentColor"/>
<path d="M293.649 12.3849V11.4406C293.649 10.2555 293.408 9.25566 292.927 8.44093C292.446 7.58917 291.705 7.16329 290.705 7.16329C289.594 7.16329 288.779 7.53362 288.261 8.27428C287.742 8.97791 287.483 9.77412 287.483 10.6629C287.483 11.9591 287.891 12.996 288.705 13.7737C289.557 14.5143 290.612 15.1624 291.872 15.7179C293.131 16.2734 294.482 16.8474 295.927 17.4399C297.371 17.9954 298.723 18.7361 299.982 19.6619C301.241 20.5877 302.278 21.8098 303.093 23.3282C303.944 24.8095 304.37 26.7537 304.37 29.1609C304.37 33.3826 303.167 36.4564 300.76 38.3821C298.352 40.2708 294.871 41.2151 290.316 41.2151C288.168 41.2151 286.261 41.0299 284.595 40.6596C282.965 40.3263 281.576 39.7338 280.428 38.882C279.317 37.9932 278.466 36.8452 277.873 35.438C277.281 34.0307 276.984 32.2902 276.984 30.2163V28.8276H286.983V29.7719C286.983 31.4754 287.298 32.679 287.928 33.3826C288.557 34.0492 289.372 34.3825 290.372 34.3825C291.446 34.3825 292.26 34.0122 292.816 33.2715C293.408 32.5309 293.705 31.6236 293.705 30.5496C293.705 29.2535 293.297 28.2351 292.483 27.4944C291.705 26.7167 290.705 26.0686 289.483 25.5502C288.298 24.9947 287.002 24.4392 285.595 23.8837C284.187 23.3282 282.873 22.606 281.651 21.7172C280.465 20.8285 279.466 19.6619 278.651 18.2176C277.873 16.7733 277.484 14.8847 277.484 12.5516C277.484 8.515 278.558 5.44126 280.706 3.33038C282.854 1.2195 286.113 0.164062 290.483 0.164062C295.001 0.164062 298.26 1.14544 300.26 3.10819C302.296 5.0339 303.315 8.12615 303.315 12.3849H293.649Z" fill="currentColor"/>
<path d="M254.715 0.945312H265.047V32.1641H277.768V40.6076H254.715V0.945312Z" fill="currentColor"/>
<path d="M239.017 9.05553L236.184 25.887H241.961L239.128 9.05553H239.017ZM245.572 0.945312L255.237 40.6076H244.239L243.183 33.6639H234.962L233.906 40.6076H223.074L232.573 0.945312H245.572Z" fill="currentColor"/>
<path d="M213.477 0.945312H223.809V40.6076H213.477V0.945312Z" fill="currentColor"/>
<path d="M184.211 0.945312H195.765L202.431 25.3871H202.542V0.945312H212.208V40.6076H200.876L193.988 16.1103H193.877V40.6076H184.211V0.945312Z" fill="currentColor"/>
<path d="M166.068 20.7729C166.068 23.4393 166.105 25.6613 166.179 27.4388C166.253 29.1794 166.401 30.5681 166.623 31.6051C166.883 32.642 167.234 33.3641 167.679 33.7715C168.16 34.1788 168.79 34.3825 169.567 34.3825C170.345 34.3825 170.956 34.1788 171.401 33.7715C171.882 33.3641 172.234 32.642 172.456 31.6051C172.715 30.5681 172.882 29.1794 172.956 27.4388C173.03 25.6613 173.067 23.4393 173.067 20.7729C173.067 18.1065 173.03 15.9031 172.956 14.1625C172.882 12.3849 172.715 10.9777 172.456 9.94077C172.234 8.90384 171.882 8.1817 171.401 7.77434C170.956 7.36697 170.345 7.16329 169.567 7.16329C168.79 7.16329 168.16 7.36697 167.679 7.77434C167.234 8.1817 166.883 8.90384 166.623 9.94077C166.401 10.9777 166.253 12.3849 166.179 14.1625C166.105 15.9031 166.068 18.1065 166.068 20.7729ZM155.402 20.7729C155.402 17.0696 155.643 13.9218 156.124 11.3295C156.606 8.70016 157.402 6.57077 158.513 4.94132C159.624 3.27483 161.087 2.07126 162.901 1.3306C164.716 0.552909 166.938 0.164062 169.567 0.164062C172.197 0.164062 174.419 0.552909 176.233 1.3306C178.048 2.07126 179.511 3.27483 180.622 4.94132C181.733 6.57077 182.529 8.70016 183.01 11.3295C183.492 13.9218 183.733 17.0696 183.733 20.7729C183.733 24.4762 183.492 27.6425 183.01 30.2719C182.529 32.8642 181.733 34.9936 180.622 36.66C179.511 38.2895 178.048 39.456 176.233 40.1597C174.419 40.8633 172.197 41.2151 169.567 41.2151C166.938 41.2151 164.716 40.8633 162.901 40.1597C161.087 39.456 159.624 38.2895 158.513 36.66C157.402 34.9936 156.606 32.8642 156.124 30.2719C155.643 27.6425 155.402 24.4762 155.402 20.7729Z" fill="currentColor"/>
<path d="M116.305 0.945312H131.081L135.247 24.4427H135.358L139.524 0.945312H154.3V40.6076H144.635V11.0553H144.524L139.024 40.6076H131.581L126.081 11.0553H125.97V40.6076H116.305V0.945312Z" fill="currentColor"/>
<path d="M105.094 0.945312H115.426V40.6076H105.094V0.945312Z" fill="currentColor"/>
<path d="M86.2674 9.72212H78.6016V0.945312H104.376V9.72212H96.5996V40.6076H86.2674V9.72212Z" fill="currentColor"/>
<path d="M67.8797 12.3849V11.4406C67.8797 10.2555 67.639 9.25566 67.1575 8.44093C66.6761 7.58917 65.9354 7.16329 64.9356 7.16329C63.8246 7.16329 63.0099 7.53362 62.4914 8.27428C61.9729 8.97791 61.7137 9.77412 61.7137 10.6629C61.7137 11.9591 62.1211 12.996 62.9358 13.7737C63.7875 14.5143 64.843 15.1624 66.1021 15.7179C67.3612 16.2734 68.7129 16.8474 70.1572 17.4399C71.6015 17.9954 72.9532 18.7361 74.2123 19.6619C75.4714 20.5877 76.5084 21.8098 77.3231 23.3282C78.1749 24.8095 78.6008 26.7537 78.6008 29.1609C78.6008 33.3826 77.3972 36.4564 74.99 38.3821C72.5829 40.2708 69.1018 41.2151 64.5467 41.2151C62.3988 41.2151 60.4916 41.0299 58.8251 40.6596C57.1957 40.3263 55.8069 39.7338 54.6589 38.882C53.5479 37.9932 52.6962 36.8452 52.1036 35.438C51.5111 34.0307 51.2148 32.2902 51.2148 30.2163V28.8276H61.2137V29.7719C61.2137 31.4754 61.5285 32.679 62.1581 33.3826C62.7876 34.0492 63.6024 34.3825 64.6023 34.3825C65.6762 34.3825 66.4909 34.0122 67.0464 33.2715C67.639 32.5309 67.9352 31.6236 67.9352 30.5496C67.9352 29.2535 67.5279 28.2351 66.7131 27.4944C65.9355 26.7167 64.9356 26.0686 63.7135 25.5502C62.5284 24.9947 61.2323 24.4392 59.825 23.8837C58.4178 23.3282 57.1031 22.606 55.881 21.7172C54.696 20.8285 53.6961 19.6619 52.8813 18.2176C52.1036 16.7733 51.7148 14.8847 51.7148 12.5516C51.7148 8.515 52.7888 5.44126 54.9367 3.33038C57.0846 1.2195 60.3435 0.164062 64.7134 0.164062C69.2314 0.164062 72.4903 1.14544 74.49 3.10819C76.5269 5.0339 77.5453 8.12615 77.5453 12.3849H67.8797Z" fill="currentColor"/>
<path d="M26.8789 0.945312H50.3763V9.38883H37.2111V16.1659H49.5431V24.2761H37.2111V32.1641H50.8763V40.6076H26.8789V0.945312Z" fill="currentColor"/>
<path d="M7.66583 9.72212H0V0.945312H25.7749V9.72212H17.998V40.6076H7.66583V9.72212Z" fill="currentColor"/>
</svg>
