<svg viewBox="0 0 408 60" fill="none" xmlns="http://www.w3.org/2000/svg">
<path d="M380.555 59.2672L406.42 0H408.006L382.062 59.2672H380.555Z" fill="currentColor"/>
<path d="M358.095 12.9353L354.049 36.9754H362.3L358.254 12.9353H358.095ZM367.457 1.35156L381.262 58.0006H365.553L364.045 48.083H352.303L350.796 58.0006H335.324L348.891 1.35156H367.457Z" fill="currentColor"/>
<path d="M282.102 1.35156H303.206L309.157 34.9125H309.315L315.266 1.35156H336.37V58.0006H322.565V15.7915H322.406L314.552 58.0006H303.92L296.065 15.7915H295.907V58.0006H282.102V1.35156Z" fill="currentColor"/>
<path d="M259.232 12.9353L255.185 36.9754H263.437L259.39 12.9353H259.232ZM268.594 1.35156L282.399 58.0006H266.69L265.182 48.083H253.44L251.932 58.0006H236.461L250.028 1.35156H268.594Z" fill="currentColor"/>
<path d="M182.238 1.35156H203.343L209.293 34.9125H209.452L215.403 1.35156H236.507V58.0006H222.702V15.7915H222.543L214.688 58.0006H204.057L196.202 15.7915H196.044V58.0006H182.238V1.35156Z" fill="currentColor"/>
<path d="M159.368 12.9353L155.322 36.9754H163.573L159.527 12.9353H159.368ZM168.73 1.35156L182.536 58.0006H166.826L165.319 48.083H153.576L152.069 58.0006H136.598L150.165 1.35156H168.73Z" fill="currentColor"/>
<path d="M118.009 27.2179H137.051V58.002H127.054L126.737 53.0035H126.578C126.102 54.2201 125.414 55.2251 124.515 56.0185C123.669 56.8119 122.69 57.4201 121.58 57.8433C120.522 58.2135 119.358 58.478 118.089 58.6367C116.872 58.7954 115.629 58.8747 114.36 58.8747C110.604 58.8747 107.642 58.2664 105.474 57.0499C103.305 55.7804 101.665 53.9027 100.555 51.4167C99.4437 48.9307 98.7297 45.8629 98.4123 42.2132C98.1479 38.5636 98.0156 34.385 98.0156 29.6775C98.0156 24.917 98.2801 20.712 98.809 17.0623C99.3909 13.4127 100.449 10.3449 101.983 7.85886C103.569 5.37286 105.738 3.49514 108.489 2.2257C111.239 0.903358 114.783 0.242188 119.12 0.242188C121.712 0.242188 124.092 0.585996 126.261 1.27361C128.482 1.96123 130.386 3.07199 131.973 4.60591C133.56 6.13982 134.803 8.12333 135.702 10.5564C136.601 12.9366 137.051 15.8458 137.051 19.2839H122.77C122.77 16.2689 122.505 14.0739 121.976 12.6986C121.447 11.0589 120.31 10.2391 118.565 10.2391C117.348 10.2391 116.37 10.53 115.629 11.1118C114.942 11.6936 114.413 12.7251 114.042 14.2061C113.725 15.6871 113.513 17.6971 113.408 20.236C113.302 22.722 113.249 25.8691 113.249 29.6775C113.249 33.4858 113.302 36.6594 113.408 39.1983C113.513 41.6843 113.725 43.6678 114.042 45.1488C114.413 46.6298 114.915 47.6613 115.55 48.2431C116.237 48.8249 117.137 49.1158 118.247 49.1158C119.041 49.1158 119.728 48.9572 120.31 48.6398C120.945 48.3224 121.474 47.7406 121.897 46.8943C122.32 45.9951 122.638 44.7786 122.849 43.2447C123.114 41.6579 123.246 39.6479 123.246 37.2148H118.009V27.2179Z" fill="currentColor"/>
<path d="M76.5402 12.9353L72.4939 36.9754H80.7452L76.6989 12.9353H76.5402ZM85.9024 1.35156L99.7076 58.0006H83.9982L82.4907 48.083H70.7484L69.2409 58.0006H53.7695L67.3367 1.35156H85.9024Z" fill="currentColor"/>
<path d="M24.1988 1.35156H37.528L43.3198 40.5457H43.4785L47.4455 1.35156H61.7268L52.0473 58.0006H35.8618L30.9427 19.9172H30.7841L25.865 58.0006H9.67952L0 1.35156H14.2813L18.7243 40.5457H18.883L24.1988 1.35156Z" fill="currentColor"/>
</svg>
