<svg width="364" height="169" viewBox="0 0 364 169" fill="none" xmlns="http://www.w3.org/2000/svg">
<path d="M335.047 0.757812H349.72C352.654 0.757812 354.937 1.30125 356.567 2.38814C358.197 3.43879 359.411 4.86985 360.208 6.68133C361.041 8.45657 361.549 10.5216 361.73 12.8766C361.911 15.1952 362.002 17.6226 362.002 20.1587C362.002 22.6947 361.911 25.1402 361.73 27.4951C361.549 29.8138 361.041 31.8789 360.208 33.6904C359.411 35.4656 358.197 36.8967 356.567 37.9836C354.937 39.0342 352.654 39.5595 349.72 39.5595H335.047V0.757812ZM345.155 32.2774H347.166C348.144 32.2774 348.923 32.1506 349.502 31.897C350.082 31.6072 350.517 31.0275 350.807 30.158C351.133 29.2885 351.332 28.0567 351.404 26.4626C351.513 24.8685 351.567 22.7672 351.567 20.1587C351.567 17.5502 351.513 15.4488 351.404 13.8548C351.332 12.2607 351.133 11.0289 350.807 10.1594C350.517 9.28985 350.082 8.72829 349.502 8.47468C348.923 8.18485 348.144 8.03993 347.166 8.03993H345.155V32.2774Z" fill="currentColor"/>
<path d="M319.308 8.69206L316.536 25.1583H322.188L319.416 8.69206H319.308ZM325.72 0.757812L335.176 39.5595H324.416L323.384 32.7665H315.341L314.308 39.5595H303.711L313.004 0.757812H325.72Z" fill="currentColor"/>
<path d="M282.023 0.757812H305.011V9.01812H292.131V15.6481H304.196V23.5824H292.131V31.2992H305.5V39.5595H282.023V0.757812Z" fill="currentColor"/>
<path d="M258.664 0.757812H268.772V31.2992H281.217V39.5595H258.664V0.757812Z" fill="currentColor"/>
<path d="M226.591 24.2888L216.863 0.757812H227.786L231.591 14.2895H231.699L235.503 0.757812H246.59L236.699 24.2888V39.5595H226.591V24.2888Z" fill="currentColor"/>
<path d="M193.277 0.757812H207.95C210.885 0.757812 213.167 1.30125 214.798 2.38814C216.428 3.43879 217.642 4.86985 218.439 6.68133C219.272 8.45657 219.779 10.5216 219.96 12.8766C220.141 15.1952 220.232 17.6226 220.232 20.1587C220.232 22.6947 220.141 25.1402 219.96 27.4951C219.779 29.8138 219.272 31.8789 218.439 33.6904C217.642 35.4656 216.428 36.8967 214.798 37.9836C213.167 39.0342 210.885 39.5595 207.95 39.5595H193.277V0.757812ZM203.385 32.2774H205.396C206.374 32.2774 207.153 32.1506 207.733 31.897C208.313 31.6072 208.747 31.0275 209.037 30.158C209.363 29.2885 209.562 28.0567 209.635 26.4626C209.744 24.8685 209.798 22.7672 209.798 20.1587C209.798 17.5502 209.744 15.4488 209.635 13.8548C209.562 12.2607 209.363 11.0289 209.037 10.1594C208.747 9.28985 208.313 8.72829 207.733 8.47468C207.153 8.18485 206.374 8.03993 205.396 8.03993H203.385V32.2774Z" fill="currentColor"/>
<path d="M174.725 17.1697H176.736C178.185 17.1697 179.254 16.7531 179.942 15.9198C180.631 15.0503 180.975 13.9272 180.975 12.5505C180.975 10.9202 180.631 9.76083 179.942 9.07247C179.29 8.38411 178.203 8.03993 176.682 8.03993H174.725V17.1697ZM164.617 0.757812H180.431C182.351 0.757812 183.982 1.01142 185.322 1.51863C186.699 2.02584 187.804 2.75043 188.637 3.6924C189.507 4.59813 190.123 5.68502 190.485 6.95305C190.884 8.22108 191.083 9.5978 191.083 11.0832C191.083 13.6917 190.557 15.793 189.507 17.3871C188.456 18.9812 186.771 19.9594 184.453 20.3217V20.4304C186.88 20.6478 188.547 21.4992 189.452 22.9846C190.358 24.47 190.811 26.5169 190.811 29.1255V32.4405C190.811 32.9477 190.811 33.473 190.811 34.0164C190.811 34.5599 190.829 35.0852 190.865 35.5924C190.902 36.0634 190.956 36.4981 191.028 36.8967C191.101 37.2952 191.191 37.6031 191.3 37.8205C191.445 38.0379 191.59 38.2553 191.735 38.4727C191.88 38.6538 192.115 38.8349 192.441 39.0161V39.5595H181.681C181.428 39.0523 181.228 38.4545 181.083 37.7662C180.975 37.0778 180.884 36.3895 180.812 35.7011C180.776 35.0127 180.739 34.3606 180.703 33.7447C180.703 33.0926 180.703 32.5673 180.703 32.1687V29.5602C180.703 28.4733 180.649 27.5676 180.54 26.843C180.431 26.1184 180.232 25.5569 179.942 25.1583C179.689 24.7236 179.344 24.4337 178.91 24.2888C178.511 24.1077 178.004 24.0171 177.388 24.0171H174.725V39.5595H164.617V0.757812Z" fill="currentColor"/>
<path d="M148.878 8.69206L146.106 25.1583H151.758L148.987 8.69206H148.878ZM155.291 0.757812L164.747 39.5595H153.986L152.954 32.7665H144.911L143.878 39.5595H133.281L142.574 0.757812H155.291Z" fill="currentColor"/>
<path d="M107.188 0.757812H117.296V14.996H123.491V0.757812H133.599V39.5595H123.491V23.5824H117.296V39.5595H107.188V0.757812Z" fill="currentColor"/>
<path d="M57.5664 0.757812H72.022L76.0978 23.7454H76.2065L80.2823 0.757812H94.7378V39.5595H85.2819V10.6485H85.1732L79.7932 39.5595H72.511L67.131 10.6485H67.0223V39.5595H57.5664V0.757812Z" fill="currentColor"/>
<path d="M41.8702 8.69206L39.0987 25.1583H44.7504L41.9789 8.69206H41.8702ZM48.2828 0.757812L57.7387 39.5595H46.9786L45.946 32.7665H37.9031L36.8705 39.5595H26.2734L35.5663 0.757812H48.2828Z" fill="currentColor"/>
<path d="M17.3032 11.9557V11.0319C17.3032 9.87252 17.0678 8.89433 16.5968 8.09728C16.1258 7.264 15.4012 6.84736 14.423 6.84736C13.3361 6.84736 12.5391 7.20966 12.0319 7.93425C11.5247 8.62261 11.271 9.40154 11.271 10.271C11.271 11.5391 11.6696 12.5535 12.4666 13.3143C13.2999 14.0389 14.3324 14.6729 15.5642 15.2164C16.796 15.7598 18.1184 16.3214 19.5314 16.901C20.9443 17.4445 22.2667 18.1691 23.4985 19.0748C24.7303 19.9805 25.7447 21.1761 26.5418 22.6615C27.375 24.1107 27.7917 26.0127 27.7917 28.3676C27.7917 32.4978 26.6142 35.5048 24.2593 37.3888C21.9044 39.2365 18.4988 40.1603 14.0426 40.1603C11.9413 40.1603 10.0755 39.9792 8.44515 39.6169C6.85105 39.2908 5.49245 38.7112 4.36934 37.8779C3.28245 37.0084 2.44918 35.8853 1.86951 34.5085C1.28984 33.1318 1 31.429 1 29.4002V28.0416H10.7819V28.9654C10.7819 30.632 11.0899 31.8094 11.7058 32.4978C12.3217 33.1499 13.1187 33.476 14.0969 33.476C15.1476 33.476 15.9446 33.1137 16.4881 32.3891C17.0678 31.6645 17.3576 30.7769 17.3576 29.7263C17.3576 28.4582 16.9591 27.4619 16.162 26.7373C15.4012 25.9765 14.423 25.3425 13.2274 24.8353C12.0681 24.2918 10.8001 23.7484 9.42334 23.205C8.04663 22.6615 6.76048 21.955 5.56491 21.0855C4.40557 20.216 3.42737 19.0748 2.63032 17.6618C1.86951 16.2489 1.4891 14.4012 1.4891 12.1187C1.4891 8.16974 2.53975 5.1627 4.64106 3.09762C6.74237 1.03254 9.93056 0 14.2056 0C18.6256 0 21.8138 0.960081 23.7702 2.88024C25.7628 4.76417 26.7591 7.78933 26.7591 11.9557H17.3032Z" fill="currentColor"/>
<path d="M155.99 51.4614H149.207V43.6953H172.014V51.4614H165.132V78.7901H155.99V51.4614Z" fill="currentColor"/>
<path d="M139.58 54.3542C139.58 52.3553 139.383 50.9955 138.99 50.2746C138.597 49.5536 137.958 49.1932 137.073 49.1932C136.385 49.1932 135.828 49.3734 135.402 49.7339C135.008 50.0943 134.697 50.7333 134.468 51.6508C134.271 52.5683 134.14 53.8135 134.075 55.3864C134.009 56.9265 133.976 58.8762 133.976 61.2355C133.976 63.5948 134.009 65.5609 134.075 67.1338C134.14 68.6739 134.271 69.9027 134.468 70.8202C134.697 71.7378 135.008 72.3767 135.402 72.7372C135.828 73.0976 136.385 73.2779 137.073 73.2779C137.63 73.2779 138.089 73.1468 138.449 72.8846C138.81 72.5897 139.088 72.1146 139.285 71.4592C139.481 70.8039 139.612 69.9355 139.678 68.8541C139.776 67.74 139.825 66.3474 139.825 64.6762H148.673V67.2813C148.673 69.7389 148.345 71.7541 147.69 73.327C147.034 74.8999 146.166 76.1451 145.085 77.0626C144.003 77.9473 142.758 78.5372 141.349 78.8321C139.973 79.1598 138.547 79.3236 137.073 79.3236C134.517 79.3236 132.42 79.0123 130.781 78.3897C129.143 77.7671 127.865 76.7349 126.948 75.2931C126.03 73.8185 125.391 71.9344 125.031 69.6406C124.703 67.314 124.539 64.5124 124.539 61.2355C124.539 57.8932 124.736 55.0587 125.129 52.7322C125.555 50.4056 126.259 48.5215 127.242 47.0796C128.225 45.6378 129.52 44.6056 131.125 43.983C132.731 43.3277 134.714 43 137.073 43C139.137 43 140.89 43.2621 142.332 43.7864C143.774 44.3107 144.937 45.0644 145.822 46.0474C146.74 46.9977 147.395 48.161 147.788 49.5373C148.214 50.8808 148.427 52.4045 148.427 54.1084V56.3203H139.58V54.3542Z" fill="currentColor"/>
<path d="M109.314 43.6953V69.0088C109.314 70.7127 109.56 71.8596 110.051 72.4494C110.543 73.0065 111.215 73.285 112.067 73.285C112.919 73.285 113.59 73.0065 114.082 72.4494C114.573 71.8596 114.819 70.7127 114.819 69.0088V43.6953H123.962V66.6986C123.962 69.1562 123.699 71.2043 123.175 72.8427C122.651 74.4811 121.881 75.7918 120.865 76.7749C119.882 77.7579 118.653 78.4296 117.179 78.7901C115.704 79.1506 114 79.3308 112.067 79.3308C110.166 79.3308 108.462 79.1506 106.955 78.7901C105.48 78.4296 104.235 77.7579 103.219 76.7749C102.236 75.7918 101.483 74.4811 100.958 72.8427C100.434 71.2043 100.172 69.1562 100.172 66.6986V43.6953H109.314Z" fill="currentColor"/>
<path d="M75.332 43.6953H88.6032C91.2574 43.6953 93.3218 44.1868 94.7964 45.1699C96.2709 46.1202 97.3687 47.4145 98.0896 49.0529C98.8432 50.6586 99.302 52.5264 99.4658 54.6563C99.6297 56.7535 99.7116 58.9489 99.7116 61.2427C99.7116 63.5365 99.6297 65.7483 99.4658 67.8783C99.302 69.9754 98.8432 71.8432 98.0896 73.4816C97.3687 75.0873 96.2709 76.3816 94.7964 77.3647C93.3218 78.315 91.2574 78.7901 88.6032 78.7901H75.332V43.6953ZM84.4744 72.2037H86.293C87.1778 72.2037 87.8823 72.089 88.4066 71.8596C88.9309 71.5975 89.3241 71.0732 89.5862 70.2867C89.8811 69.5003 90.0614 68.3862 90.1269 66.9444C90.2252 65.5026 90.2744 63.602 90.2744 61.2427C90.2744 58.8834 90.2252 56.9828 90.1269 55.541C90.0614 54.0992 89.8811 52.9851 89.5862 52.1987C89.3241 51.4122 88.9309 50.9043 88.4066 50.6749C87.8823 50.4128 87.1778 50.2817 86.293 50.2817H84.4744V72.2037Z" fill="currentColor"/>
<path d="M59.074 61.2355C59.074 63.5948 59.1067 65.5609 59.1723 67.1338C59.2378 68.6739 59.3689 69.9027 59.5655 70.8202C59.7949 71.7378 60.1062 72.3767 60.4994 72.7372C60.9254 73.0976 61.4824 73.2779 62.1706 73.2779C62.8587 73.2779 63.3994 73.0976 63.7926 72.7372C64.2186 72.3767 64.5299 71.7378 64.7265 70.8202C64.9559 69.9027 65.1033 68.6739 65.1688 67.1338C65.2344 65.5609 65.2672 63.5948 65.2672 61.2355C65.2672 58.8762 65.2344 56.9265 65.1688 55.3864C65.1033 53.8135 64.9559 52.5683 64.7265 51.6508C64.5299 50.7333 64.2186 50.0943 63.7926 49.7339C63.3994 49.3734 62.8587 49.1932 62.1706 49.1932C61.4824 49.1932 60.9254 49.3734 60.4994 49.7339C60.1062 50.0943 59.7949 50.7333 59.5655 51.6508C59.3689 52.5683 59.2378 53.8135 59.1723 55.3864C59.1067 56.9265 59.074 58.8762 59.074 61.2355ZM49.6367 61.2355C49.6367 57.9587 49.8497 55.1734 50.2757 52.8796C50.7017 50.5531 51.4062 48.6689 52.3892 47.2271C53.3723 45.7525 54.6666 44.6876 56.2723 44.0322C57.8779 43.3441 59.844 43 62.1706 43C64.4971 43 66.4632 43.3441 68.0689 44.0322C69.6745 44.6876 70.9688 45.7525 71.9519 47.2271C72.9349 48.6689 73.6395 50.5531 74.0654 52.8796C74.4914 55.1734 74.7044 57.9587 74.7044 61.2355C74.7044 64.5124 74.4914 67.314 74.0654 69.6406C73.6395 71.9344 72.9349 73.8185 71.9519 75.2931C70.9688 76.7349 69.6745 77.7671 68.0689 78.3897C66.4632 79.0123 64.4971 79.3236 62.1706 79.3236C59.844 79.3236 57.8779 79.0123 56.2723 78.3897C54.6666 77.7671 53.3723 76.7349 52.3892 75.2931C51.4062 73.8185 50.7017 71.9344 50.2757 69.6406C49.8497 67.314 49.6367 64.5124 49.6367 61.2355Z" fill="currentColor"/>
<path d="M34.5759 58.5393H36.3946C37.7053 58.5393 38.672 58.1625 39.2946 57.4088C39.9172 56.6224 40.2285 55.6066 40.2285 54.3614C40.2285 52.8868 39.9172 51.8382 39.2946 51.2156C38.7048 50.593 37.7217 50.2817 36.3454 50.2817H34.5759V58.5393ZM25.4336 43.6953H39.7369C41.4736 43.6953 42.9482 43.9247 44.1607 44.3834C45.4058 44.8422 46.4053 45.4976 47.1589 46.3495C47.9454 47.1687 48.5024 48.1518 48.8301 49.2987C49.1906 50.4456 49.3708 51.6908 49.3708 53.0343C49.3708 55.3936 48.8957 57.2941 47.9454 58.7359C46.9951 60.1777 45.4714 61.0625 43.3742 61.3902V61.4885C45.5697 61.6851 47.077 62.4551 47.8962 63.7986C48.7154 65.1421 49.125 66.9935 49.125 69.3528V72.3511C49.125 72.8099 49.125 73.285 49.125 73.7766C49.125 74.2681 49.1414 74.7432 49.1742 75.202C49.207 75.628 49.2561 76.0212 49.3216 76.3816C49.3872 76.7421 49.4691 77.0206 49.5674 77.2172C49.6985 77.4138 49.8296 77.6104 49.9606 77.8071C50.0917 77.9709 50.3047 78.1347 50.5996 78.2986V78.7901H40.8674C40.6381 78.3313 40.4578 77.7907 40.3268 77.1681C40.2285 76.5455 40.1465 75.9229 40.081 75.3003C40.0482 74.6777 40.0155 74.0879 39.9827 73.5308C39.9827 72.941 39.9827 72.4658 39.9827 72.1054V69.7461C39.9827 68.763 39.9336 67.9438 39.8352 67.2884C39.7369 66.6331 39.5567 66.1252 39.2946 65.7647C39.0652 65.3715 38.7539 65.1094 38.3607 64.9783C38.0002 64.8144 37.5415 64.7325 36.9844 64.7325H34.5759V78.7901H25.4336V43.6953Z" fill="currentColor"/>
<path d="M10.1424 58.8342H11.8627C13.0096 58.8342 13.8779 58.4902 14.4678 57.802C15.0904 57.1139 15.4016 56.0326 15.4016 54.558C15.4016 51.7071 14.222 50.2817 11.8627 50.2817H10.1424V58.8342ZM1 43.6953H14.7135C16.4502 43.6953 17.9576 43.9738 19.2355 44.5309C20.5135 45.088 21.5621 45.858 22.3813 46.8411C23.2332 47.7913 23.8559 48.9218 24.2491 50.2326C24.6423 51.5433 24.8389 52.9687 24.8389 54.5088C24.8389 58.1461 23.8558 60.8823 21.8897 62.7173C19.9564 64.5195 17.1056 65.4207 13.3373 65.4207H10.1424V78.7901H1V43.6953Z" fill="currentColor"/>
<path d="M347.687 58.6132H349.498C350.803 58.6132 351.765 58.2381 352.385 57.4878C353.004 56.7049 353.314 55.6937 353.314 54.4541C353.314 52.9861 353.004 51.9423 352.385 51.3225C351.797 50.7027 350.819 50.3928 349.449 50.3928H347.687V58.6132ZM338.586 43.8359H352.825C354.554 43.8359 356.022 44.0643 357.229 44.521C358.468 44.9777 359.463 45.6301 360.214 46.4782C360.997 47.2938 361.551 48.2724 361.877 49.4141C362.236 50.5559 362.416 51.7955 362.416 53.1329C362.416 55.4816 361.943 57.3737 360.997 58.809C360.051 60.2443 358.534 61.1251 356.446 61.4513V61.5491C358.632 61.7449 360.132 62.5115 360.948 63.8489C361.763 65.1864 362.171 67.0295 362.171 69.3782V72.363C362.171 72.8197 362.171 73.2927 362.171 73.782C362.171 74.2713 362.187 74.7443 362.22 75.201C362.252 75.6251 362.301 76.0166 362.367 76.3754C362.432 76.7342 362.513 77.0115 362.611 77.2072C362.742 77.4029 362.872 77.5987 363.003 77.7944C363.133 77.9575 363.345 78.1206 363.639 78.2837V78.773H353.95C353.722 78.3163 353.543 77.7781 353.412 77.1583C353.314 76.5385 353.233 75.9187 353.168 75.2989C353.135 74.6791 353.102 74.0919 353.07 73.5374C353.07 72.9502 353.07 72.4772 353.07 72.1183V69.7696C353.07 68.791 353.021 67.9755 352.923 67.3231C352.825 66.6706 352.646 66.165 352.385 65.8062C352.156 65.4147 351.846 65.1538 351.455 65.0233C351.096 64.8602 350.639 64.7786 350.085 64.7786H347.687V78.773H338.586V43.8359Z" fill="currentColor"/>
<path d="M316.867 43.8359H337.565V51.2735H325.968V57.2432H336.831V64.3872H325.968V71.3354H338.006V78.773H316.867V43.8359Z" fill="currentColor"/>
<path d="M291.441 43.8359H301.619L307.491 65.3658H307.589V43.8359H316.103V78.773H306.121L300.053 57.1942H299.955V78.773H291.441V43.8359Z" fill="currentColor"/>
<path d="M278.745 59.7851H290.488V78.7706H284.323L284.127 75.6879H284.029C283.736 76.4382 283.312 77.058 282.757 77.5473C282.235 78.0366 281.632 78.4117 280.947 78.6727C280.294 78.9011 279.577 79.0642 278.794 79.162C278.043 79.2599 277.277 79.3088 276.494 79.3088C274.178 79.3088 272.351 78.9337 271.014 78.1834C269.676 77.4005 268.665 76.2424 267.98 74.7093C267.295 73.1761 266.854 71.284 266.659 69.0332C266.496 66.7824 266.414 64.2053 266.414 61.302C266.414 58.3661 266.577 55.7728 266.903 53.5219C267.262 51.2711 267.915 49.379 268.861 47.8459C269.839 46.3127 271.177 45.1546 272.873 44.3717C274.569 43.5562 276.755 43.1484 279.43 43.1484C281.028 43.1484 282.496 43.3605 283.834 43.7845C285.204 44.2086 286.378 44.8937 287.357 45.8397C288.335 46.7857 289.102 48.009 289.657 49.5095C290.211 50.9775 290.488 52.7716 290.488 54.892H281.681C281.681 53.0326 281.518 51.6788 281.191 50.8307C280.865 49.8194 280.164 49.3138 279.087 49.3138C278.337 49.3138 277.734 49.4932 277.277 49.8521C276.853 50.2109 276.527 50.847 276.298 51.7604C276.103 52.6738 275.972 53.9134 275.907 55.4792C275.842 57.0124 275.809 58.9533 275.809 61.302C275.809 63.6507 275.842 65.608 275.907 67.1738C275.972 68.707 276.103 69.9303 276.298 70.8437C276.527 71.7571 276.836 72.3932 277.228 72.752C277.652 73.1108 278.207 73.2902 278.892 73.2902C279.381 73.2902 279.805 73.1924 280.164 72.9967C280.555 72.8009 280.881 72.4421 281.142 71.9202C281.403 71.3656 281.599 70.6153 281.73 69.6693C281.893 68.6907 281.974 67.4511 281.974 65.9505H278.745V59.7851Z" fill="currentColor"/>
<path d="M256.699 43.8359H265.8V78.773H256.699V43.8359Z" fill="currentColor"/>
<path d="M246.32 53.9134V53.0815C246.32 52.0377 246.108 51.1569 245.684 50.4392C245.26 49.6889 244.607 49.3138 243.727 49.3138C242.748 49.3138 242.03 49.64 241.574 50.2924C241.117 50.9122 240.889 51.6136 240.889 52.3965C240.889 53.5382 241.248 54.4516 241.965 55.1367C242.715 55.7891 243.645 56.3599 244.754 56.8493C245.863 57.3386 247.054 57.8442 248.326 58.3661C249.598 58.8554 250.789 59.5079 251.898 60.3234C253.007 61.1389 253.921 62.2154 254.638 63.5529C255.389 64.8577 255.764 66.5703 255.764 68.6907C255.764 72.4095 254.704 75.117 252.583 76.8133C250.463 78.477 247.397 79.3088 243.384 79.3088C241.492 79.3088 239.812 79.1457 238.344 78.8195C236.909 78.5259 235.686 78.004 234.674 77.2537C233.696 76.4708 232.945 75.4595 232.424 74.2199C231.902 72.9803 231.641 71.4472 231.641 69.6204V68.3971H240.448V69.2289C240.448 70.7295 240.726 71.7897 241.28 72.4095C241.835 72.9967 242.552 73.2902 243.433 73.2902C244.379 73.2902 245.097 72.964 245.586 72.3116C246.108 71.6592 246.369 70.86 246.369 69.914C246.369 68.7722 246.01 67.8752 245.293 67.2227C244.607 66.5377 243.727 65.9668 242.65 65.5101C241.606 65.0208 240.465 64.5315 239.225 64.0422C237.985 63.5529 236.827 62.9168 235.751 62.1339C234.707 61.351 233.826 60.3234 233.109 59.0512C232.424 57.779 232.081 56.1153 232.081 54.0602C232.081 50.5045 233.027 47.7969 234.919 45.9375C236.811 44.0781 239.682 43.1484 243.531 43.1484C247.511 43.1484 250.381 44.0129 252.143 45.7418C253.937 47.4381 254.834 50.162 254.834 53.9134H246.32Z" fill="currentColor"/>
<path d="M209.812 43.8359H230.511V51.2735H218.914V57.2432H229.777V64.3872H218.914V71.3354H230.951V78.773H209.812V43.8359Z" fill="currentColor"/>
<path d="M184.859 43.8359H198.071C200.713 43.8359 202.768 44.3253 204.236 45.3039C205.704 46.2499 206.797 47.5384 207.515 49.1695C208.265 50.7679 208.722 52.6273 208.885 54.7477C209.048 56.8354 209.129 59.021 209.129 61.3045C209.129 63.5879 209.048 65.7899 208.885 67.9102C208.722 69.998 208.265 71.8574 207.515 73.4884C206.797 75.0869 205.704 76.3754 204.236 77.354C202.768 78.3 200.713 78.773 198.071 78.773H184.859V43.8359ZM193.961 72.2162H195.771C196.652 72.2162 197.353 72.102 197.875 71.8737C198.397 71.6127 198.789 71.0908 199.05 70.3079C199.343 69.525 199.523 68.4159 199.588 66.9805C199.686 65.5452 199.735 63.6532 199.735 61.3045C199.735 58.9558 199.686 57.0638 199.588 55.6284C199.523 54.1931 199.343 53.084 199.05 52.3011C198.789 51.5182 198.397 51.0126 197.875 50.7842C197.353 50.5232 196.652 50.3928 195.771 50.3928H193.961V72.2162Z" fill="currentColor"/>
<path d="M194.227 115.583L208.446 83H209.318L195.055 115.583H194.227Z" fill="currentColor"/>
<path d="M183.566 99.2994C183.566 101.393 183.595 103.138 183.653 104.534C183.711 105.9 183.828 106.991 184.002 107.805C184.206 108.619 184.482 109.186 184.831 109.506C185.209 109.826 185.703 109.986 186.314 109.986C186.925 109.986 187.404 109.826 187.753 109.506C188.131 109.186 188.408 108.619 188.582 107.805C188.786 106.991 188.917 105.9 188.975 104.534C189.033 103.138 189.062 101.393 189.062 99.2994C189.062 97.2058 189.033 95.4756 188.975 94.1089C188.917 92.7131 188.786 91.6081 188.582 90.7939C188.408 89.9797 188.131 89.4127 187.753 89.0928C187.404 88.773 186.925 88.613 186.314 88.613C185.703 88.613 185.209 88.773 184.831 89.0928C184.482 89.4127 184.206 89.9797 184.002 90.7939C183.828 91.6081 183.711 92.7131 183.653 94.1089C183.595 95.4756 183.566 97.2058 183.566 99.2994ZM175.191 99.2994C175.191 96.3916 175.38 93.9199 175.758 91.8844C176.136 89.8198 176.762 88.1478 177.634 86.8683C178.506 85.5598 179.655 84.6147 181.08 84.0332C182.505 83.4225 184.249 83.1172 186.314 83.1172C188.379 83.1172 190.123 83.4225 191.548 84.0332C192.973 84.6147 194.122 85.5598 194.994 86.8683C195.866 88.1478 196.492 89.8198 196.87 91.8844C197.248 93.9199 197.437 96.3916 197.437 99.2994C197.437 102.207 197.248 104.694 196.87 106.758C196.492 108.794 195.866 110.466 194.994 111.774C194.122 113.054 192.973 113.97 191.548 114.522C190.123 115.075 188.379 115.351 186.314 115.351C184.249 115.351 182.505 115.075 181.08 114.522C179.655 113.97 178.506 113.054 177.634 111.774C176.762 110.466 176.136 108.794 175.758 106.758C175.38 104.694 175.191 102.207 175.191 99.2994Z" fill="currentColor"/>
<path d="M166.113 92.7131V91.9716C166.113 91.0411 165.924 90.256 165.546 89.6163C165.168 88.9475 164.586 88.613 163.801 88.613C162.929 88.613 162.289 88.9038 161.882 89.4854C161.475 90.0379 161.271 90.6631 161.271 91.361C161.271 92.3787 161.591 93.1929 162.231 93.8036C162.9 94.3852 163.728 94.894 164.717 95.3302C165.706 95.7664 166.767 96.2171 167.901 96.6824C169.035 97.1185 170.096 97.7001 171.085 98.4271C172.074 99.154 172.888 100.114 173.528 101.306C174.197 102.469 174.531 103.996 174.531 105.886C174.531 109.201 173.586 111.614 171.696 113.126C169.806 114.609 167.072 115.351 163.496 115.351C161.809 115.351 160.312 115.205 159.003 114.915C157.724 114.653 156.633 114.188 155.732 113.519C154.859 112.821 154.19 111.92 153.725 110.815C153.26 109.71 153.027 108.343 153.027 106.714V105.624H160.879V106.366C160.879 107.703 161.126 108.648 161.62 109.201C162.114 109.724 162.754 109.986 163.539 109.986C164.383 109.986 165.022 109.695 165.458 109.113C165.924 108.532 166.156 107.819 166.156 106.976C166.156 105.958 165.836 105.159 165.197 104.577C164.586 103.967 163.801 103.458 162.841 103.051C161.911 102.614 160.893 102.178 159.788 101.742C158.683 101.306 157.651 100.739 156.691 100.041C155.761 99.3431 154.976 98.4271 154.336 97.293C153.725 96.159 153.42 94.6759 153.42 92.844C153.42 89.6744 154.263 87.2609 155.95 85.6034C157.636 83.9459 160.195 83.1172 163.627 83.1172C167.174 83.1172 169.733 83.8878 171.303 85.4289C172.903 86.941 173.702 89.3691 173.702 92.7131H166.113Z" fill="currentColor"/>
<path d="M143.55 92.7131V91.9716C143.55 91.0411 143.361 90.256 142.983 89.6163C142.605 88.9475 142.024 88.613 141.238 88.613C140.366 88.613 139.726 88.9038 139.319 89.4854C138.912 90.0379 138.709 90.6631 138.709 91.361C138.709 92.3787 139.029 93.1929 139.668 93.8036C140.337 94.3852 141.166 94.894 142.154 95.3302C143.143 95.7664 144.204 96.2171 145.339 96.6824C146.473 97.1185 147.534 97.7001 148.523 98.4271C149.511 99.154 150.326 100.114 150.965 101.306C151.634 102.469 151.968 103.996 151.968 105.886C151.968 109.201 151.023 111.614 149.133 113.126C147.243 114.609 144.51 115.351 140.933 115.351C139.247 115.351 137.749 115.205 136.44 114.915C135.161 114.653 134.071 114.188 133.169 113.519C132.297 112.821 131.628 111.92 131.163 110.815C130.697 109.71 130.465 108.343 130.465 106.714V105.624H138.316V106.366C138.316 107.703 138.563 108.648 139.058 109.201C139.552 109.724 140.192 109.986 140.977 109.986C141.82 109.986 142.46 109.695 142.896 109.113C143.361 108.532 143.594 107.819 143.594 106.976C143.594 105.958 143.274 105.159 142.634 104.577C142.024 103.967 141.238 103.458 140.279 103.051C139.348 102.614 138.331 102.178 137.226 101.742C136.121 101.306 135.088 100.739 134.129 100.041C133.198 99.3431 132.413 98.4271 131.773 97.293C131.163 96.159 130.857 94.6759 130.857 92.844C130.857 89.6744 131.701 87.2609 133.387 85.6034C135.074 83.9459 137.633 83.1172 141.064 83.1172C144.612 83.1172 147.171 83.8878 148.741 85.4289C150.34 86.941 151.14 89.3691 151.14 92.7131H143.55Z" fill="currentColor"/>
<path d="M110.926 83.7422H129.376V90.3721H119.039V95.6935H128.722V102.062H119.039V108.255H129.769V114.885H110.926V83.7422Z" fill="currentColor"/>
<path d="M95.7379 96.9148H97.3518C98.515 96.9148 99.3728 96.5804 99.9253 95.9116C100.478 95.2137 100.754 94.3123 100.754 93.2073C100.754 91.8987 100.478 90.9682 99.9253 90.4157C99.4018 89.8632 98.5295 89.587 97.3082 89.587H95.7379V96.9148ZM87.625 83.7422H100.318C101.859 83.7422 103.168 83.9457 104.243 84.3528C105.348 84.7599 106.235 85.3415 106.904 86.0976C107.602 86.8245 108.096 87.6969 108.387 88.7146C108.707 89.7324 108.867 90.8374 108.867 92.0296C108.867 94.1233 108.445 95.8098 107.602 97.0893C106.759 98.3687 105.407 99.1539 103.546 99.4446V99.5319C105.494 99.7064 106.831 100.39 107.558 101.582C108.285 102.774 108.649 104.417 108.649 106.511V109.171C108.649 109.579 108.649 110 108.649 110.436C108.649 110.873 108.663 111.294 108.692 111.701C108.722 112.079 108.765 112.428 108.823 112.748C108.881 113.068 108.954 113.315 109.041 113.49C109.158 113.664 109.274 113.839 109.39 114.013C109.507 114.158 109.696 114.304 109.957 114.449V114.885H101.321C101.117 114.478 100.958 113.999 100.841 113.446C100.754 112.894 100.681 112.341 100.623 111.789C100.594 111.236 100.565 110.713 100.536 110.218C100.536 109.695 100.536 109.273 100.536 108.953V106.86C100.536 105.987 100.492 105.26 100.405 104.679C100.318 104.097 100.158 103.647 99.9253 103.327C99.7217 102.978 99.4455 102.745 99.0965 102.629C98.7767 102.483 98.3696 102.411 97.8752 102.411H95.7379V114.885H87.625V83.7422Z" fill="currentColor"/>
<path d="M73.7418 97.1765H75.2685C76.2862 97.1765 77.0568 96.8712 77.5802 96.2605C78.1327 95.6499 78.409 94.6903 78.409 93.3818C78.409 90.8519 77.3621 89.587 75.2685 89.587H73.7418V97.1765ZM65.6289 83.7422H77.7983C79.3395 83.7422 80.6771 83.9894 81.8112 84.4837C82.9452 84.978 83.8757 85.6614 84.6027 86.5337C85.3588 87.377 85.9113 88.3802 86.2602 89.5434C86.6091 90.7065 86.7836 91.9714 86.7836 93.3381C86.7836 96.5659 85.9112 98.9939 84.1665 100.622C82.4509 102.222 79.9211 103.021 76.577 103.021H73.7418V114.885H65.6289V83.7422Z" fill="currentColor"/>
<path d="M56.3784 92.7131V91.9716C56.3784 91.0411 56.1893 90.256 55.8113 89.6163C55.4333 88.9475 54.8517 88.613 54.0666 88.613C53.1942 88.613 52.5545 88.9038 52.1474 89.4854C51.7403 90.0379 51.5368 90.6631 51.5368 91.361C51.5368 92.3787 51.8566 93.1929 52.4964 93.8036C53.1652 94.3852 53.9939 94.894 54.9826 95.3302C55.9713 95.7664 57.0326 96.2171 58.1667 96.6824C59.3008 97.1185 60.3621 97.7001 61.3508 98.4271C62.3395 99.154 63.1537 100.114 63.7934 101.306C64.4622 102.469 64.7966 103.996 64.7966 105.886C64.7966 109.201 63.8516 111.614 61.9614 113.126C60.0713 114.609 57.3379 115.351 53.7613 115.351C52.0747 115.351 50.5772 115.205 49.2686 114.915C47.9892 114.653 46.8987 114.188 45.9973 113.519C45.1249 112.821 44.4561 111.92 43.9909 110.815C43.5256 109.71 43.293 108.343 43.293 106.714V105.624H51.1442V106.366C51.1442 107.703 51.3914 108.648 51.8857 109.201C52.38 109.724 53.0198 109.986 53.8049 109.986C54.6482 109.986 55.2879 109.695 55.7241 109.113C56.1893 108.532 56.422 107.819 56.422 106.976C56.422 105.958 56.1021 105.159 55.4624 104.577C54.8517 103.967 54.0666 103.458 53.107 103.051C52.1765 102.614 51.1587 102.178 50.0538 101.742C48.9488 101.306 47.9165 100.739 46.9569 100.041C46.0264 99.3431 45.2412 98.4271 44.6015 97.293C43.9909 96.159 43.6855 94.6759 43.6855 92.844C43.6855 89.6744 44.5288 87.2609 46.2154 85.6034C47.9019 83.9459 50.4609 83.1172 53.8921 83.1172C57.4397 83.1172 59.9986 83.8878 61.5689 85.4289C63.1682 86.941 63.9679 89.3691 63.9679 92.7131H56.3784Z" fill="currentColor"/>
<path d="M23.75 83.7422H42.2004V90.3721H31.8629V95.6935H41.5461V102.062H31.8629V108.255H42.5929V114.885H23.75V83.7422Z" fill="currentColor"/>
<path d="M1 83.7422H10.0725L15.3067 102.934H15.3939V83.7422H22.9834V114.885H14.0854L8.67676 95.6499H8.58952V114.885H1V83.7422Z" fill="currentColor"/>
<path d="M350.281 150.336H354.766V156.653H357.515V150.336H361.999V167.551H357.515V160.463H354.766V167.551H350.281V150.336Z" fill="currentColor"/>
<path d="M345.48 155.57C345.48 154.589 345.383 153.922 345.19 153.568C344.997 153.215 344.684 153.038 344.25 153.038C343.912 153.038 343.639 153.126 343.43 153.303C343.237 153.48 343.085 153.794 342.972 154.244C342.876 154.694 342.811 155.305 342.779 156.076C342.747 156.832 342.731 157.788 342.731 158.945C342.731 160.103 342.747 161.067 342.779 161.839C342.811 162.594 342.876 163.197 342.972 163.647C343.085 164.097 343.237 164.411 343.43 164.587C343.639 164.764 343.912 164.853 344.25 164.853C344.523 164.853 344.748 164.788 344.925 164.66C345.102 164.515 345.239 164.282 345.335 163.96C345.431 163.639 345.496 163.213 345.528 162.683C345.576 162.136 345.6 161.453 345.6 160.633H349.94V161.911C349.94 163.117 349.78 164.105 349.458 164.877C349.137 165.648 348.711 166.259 348.18 166.709C347.65 167.143 347.039 167.433 346.348 167.577C345.673 167.738 344.973 167.818 344.25 167.818C342.996 167.818 341.967 167.666 341.164 167.36C340.36 167.055 339.733 166.548 339.283 165.841C338.833 165.118 338.519 164.194 338.343 163.068C338.182 161.927 338.102 160.553 338.102 158.945C338.102 157.306 338.198 155.915 338.391 154.774C338.6 153.633 338.945 152.709 339.428 152.001C339.91 151.294 340.545 150.788 341.332 150.482C342.12 150.161 343.093 150 344.25 150C345.263 150 346.123 150.129 346.83 150.386C347.537 150.643 348.108 151.013 348.542 151.495C348.992 151.961 349.313 152.532 349.506 153.207C349.715 153.866 349.82 154.613 349.82 155.449V156.534H345.48V155.57Z" fill="currentColor"/>
<path d="M330.085 154.146H326.758V150.336H337.945V154.146H334.57V167.551H330.085V154.146Z" fill="currentColor"/>
<path d="M316.125 150.336H326.324V154.001H320.61V156.942H325.962V160.463H320.61V163.887H326.541V167.551H316.125V150.336Z" fill="currentColor"/>
<path d="M305.477 150.336H315.676V154.001H309.961V156.942H315.314V160.463H309.961V167.551H305.477V150.336Z" fill="currentColor"/>
<path d="M297.082 157.618H297.975C298.617 157.618 299.092 157.433 299.397 157.063C299.702 156.677 299.855 156.179 299.855 155.568C299.855 154.845 299.702 154.33 299.397 154.025C299.108 153.72 298.626 153.567 297.95 153.567H297.082V157.618ZM292.598 150.336H299.614C300.466 150.336 301.189 150.448 301.784 150.673C302.395 150.899 302.885 151.22 303.255 151.638C303.641 152.04 303.914 152.522 304.075 153.085C304.251 153.647 304.34 154.258 304.34 154.917C304.34 156.074 304.107 157.007 303.641 157.714C303.175 158.421 302.427 158.855 301.398 159.016V159.064C302.475 159.161 303.215 159.538 303.617 160.197C304.018 160.857 304.219 161.765 304.219 162.922V164.393C304.219 164.618 304.219 164.851 304.219 165.092C304.219 165.333 304.227 165.566 304.243 165.791C304.26 166 304.284 166.193 304.316 166.37C304.348 166.547 304.388 166.683 304.436 166.78C304.501 166.876 304.565 166.973 304.629 167.069C304.694 167.15 304.798 167.23 304.943 167.31V167.551H300.169C300.056 167.326 299.968 167.061 299.903 166.756C299.855 166.45 299.815 166.145 299.783 165.84C299.767 165.534 299.751 165.245 299.735 164.972C299.735 164.682 299.735 164.449 299.735 164.272V163.115C299.735 162.633 299.711 162.231 299.662 161.909C299.614 161.588 299.526 161.339 299.397 161.162C299.285 160.969 299.132 160.84 298.939 160.776C298.762 160.696 298.537 160.656 298.264 160.656H297.082V167.551H292.598V150.336Z" fill="currentColor"/>
<path d="M285.779 153.856L284.55 161.162H287.057L285.828 153.856H285.779ZM288.624 150.336L292.82 167.551H288.046L287.588 164.538H284.019L283.561 167.551H278.859L282.982 150.336H288.624Z" fill="currentColor"/>
<path d="M270.418 150.336H280.617V154.001H274.903V156.942H280.255V160.463H274.903V167.551H270.418V150.336Z" fill="currentColor"/>
<path d="M116.336 168.118L124.243 150H124.728L116.797 168.118H116.336Z" fill="currentColor"/>
<path d="M109.473 153.955L108.236 161.304H110.758L109.521 153.955H109.473ZM112.335 150.414L116.555 167.732H111.753L111.292 164.7H107.702L107.241 167.732H102.512L106.659 150.414H112.335Z" fill="currentColor"/>
<path d="M86.2383 150.414H92.6899L94.509 160.674H94.5575L96.3766 150.414H102.828V167.732H98.608V154.828H98.5594L96.1583 167.732H92.9082L90.507 154.828H90.4585V167.732H86.2383V150.414Z" fill="currentColor"/>
<path d="M79.25 153.955L78.0131 161.304H80.5355L79.2986 153.955H79.25ZM82.112 150.414L86.3323 167.732H81.5299L81.0691 164.7H77.4795L77.0186 167.732H72.2891L76.4365 150.414H82.112Z" fill="currentColor"/>
<path d="M55.7109 150.414H62.1626L63.9816 160.674H64.0302L65.8492 150.414H72.3009V167.732H68.0806V154.828H68.0321L65.6309 167.732H62.3809L59.9797 154.828H59.9312V167.732H55.7109V150.414Z" fill="currentColor"/>
<path d="M48.7149 153.955L47.4779 161.304H50.0004L48.7634 153.955H48.7149ZM51.5769 150.414L55.7971 167.732H50.9948L50.534 164.7H46.9443L46.4835 167.732H41.7539L45.9014 150.414H51.5769Z" fill="currentColor"/>
<path d="M36.0769 158.309H41.8979V167.72H38.8419L38.7449 166.192H38.6964C38.5509 166.563 38.3407 166.871 38.0658 167.113C37.8071 167.356 37.5079 167.542 37.1684 167.671C36.845 167.784 36.4892 167.865 36.1012 167.914C35.7293 167.962 35.3493 167.986 34.9612 167.986C33.8132 167.986 32.9077 167.8 32.2447 167.429C31.5818 167.04 31.0805 166.466 30.741 165.707C30.4014 164.947 30.1831 164.009 30.0861 162.893C30.0053 161.777 29.9648 160.5 29.9648 159.061C29.9648 157.606 30.0457 156.32 30.2074 155.204C30.3853 154.089 30.7086 153.151 31.1776 152.391C31.6626 151.631 32.3256 151.057 33.1664 150.669C34.0072 150.265 35.0906 150.062 36.4165 150.062C37.2088 150.062 37.9364 150.168 38.5994 150.378C39.2785 150.588 39.8606 150.928 40.3457 151.396C40.8308 151.865 41.2107 152.472 41.4856 153.216C41.7605 153.943 41.8979 154.833 41.8979 155.884H37.5322C37.5322 154.962 37.4513 154.291 37.2896 153.87C37.1279 153.369 36.7803 153.119 36.2467 153.119C35.8748 153.119 35.5757 153.207 35.3493 153.385C35.1391 153.563 34.9774 153.879 34.8642 154.331C34.7672 154.784 34.7025 155.398 34.6702 156.175C34.6378 156.935 34.6217 157.897 34.6217 159.061C34.6217 160.225 34.6378 161.195 34.6702 161.971C34.7025 162.731 34.7672 163.338 34.8642 163.79C34.9774 164.243 35.131 164.558 35.325 164.736C35.5352 164.914 35.8101 165.003 36.1497 165.003C36.3922 165.003 36.6024 164.955 36.7803 164.858C36.9743 164.761 37.136 164.583 37.2654 164.324C37.3947 164.049 37.4918 163.677 37.5564 163.208C37.6373 162.723 37.6777 162.109 37.6777 161.365H36.0769V158.309Z" fill="currentColor"/>
<path d="M23.3946 153.955L22.1576 161.304H24.68L23.4431 153.955H23.3946ZM26.2566 150.414L30.4768 167.732H25.6745L25.2136 164.7H21.624L21.1632 167.732H16.4336L20.5811 150.414H26.2566Z" fill="currentColor"/>
<path d="M7.39755 150.414H11.4723L13.2428 162.396H13.2913L14.5041 150.414H18.8698L15.9108 167.732H10.9629L9.45917 156.09H9.41066L7.90689 167.732H2.95902L0 150.414H4.36577L5.72401 162.396H5.77252L7.39755 150.414Z" fill="currentColor"/>
<path d="M135.678 127.045V126.423C135.678 125.643 135.519 124.985 135.202 124.449C134.885 123.888 134.398 123.608 133.739 123.608C133.008 123.608 132.472 123.851 132.13 124.339C131.789 124.802 131.618 125.326 131.618 125.911C131.618 126.765 131.887 127.447 132.423 127.959C132.984 128.447 133.679 128.874 134.507 129.239C135.336 129.605 136.226 129.983 137.177 130.373C138.128 130.739 139.018 131.226 139.846 131.836C140.675 132.445 141.358 133.25 141.894 134.249C142.455 135.224 142.735 136.504 142.735 138.089C142.735 140.868 141.943 142.892 140.358 144.159C138.774 145.403 136.482 146.024 133.483 146.024C132.069 146.024 130.814 145.902 129.717 145.659C128.644 145.439 127.73 145.049 126.974 144.488C126.243 143.903 125.682 143.147 125.292 142.221C124.902 141.295 124.707 140.149 124.707 138.784V137.869H131.289V138.491C131.289 139.613 131.497 140.405 131.911 140.868C132.325 141.307 132.862 141.526 133.52 141.526C134.227 141.526 134.763 141.282 135.129 140.795C135.519 140.307 135.714 139.71 135.714 139.003C135.714 138.15 135.446 137.479 134.91 136.992C134.398 136.48 133.739 136.053 132.935 135.712C132.155 135.346 131.302 134.98 130.375 134.615C129.449 134.249 128.583 133.774 127.779 133.189C126.999 132.604 126.34 131.836 125.804 130.885C125.292 129.934 125.036 128.691 125.036 127.155C125.036 124.497 125.743 122.474 127.157 121.084C128.571 119.695 130.716 119 133.593 119C136.567 119 138.713 119.646 140.029 120.938C141.37 122.206 142.041 124.242 142.041 127.045H135.678Z" fill="currentColor"/>
<path d="M108.328 119.516H123.797V125.074H115.13V129.535H123.248V134.874H115.13V140.067H124.126V145.626H108.328V119.516Z" fill="currentColor"/>
<path d="M100.781 119.516H107.583V145.626H100.781V119.516Z" fill="currentColor"/>
<path d="M87.9332 125.293H82.8867V119.516H99.8546V125.293H94.735V145.626H87.9332V125.293Z" fill="currentColor"/>
<path d="M75.7479 127.045V126.423C75.7479 125.643 75.5895 124.985 75.2725 124.449C74.9556 123.888 74.468 123.608 73.8098 123.608C73.0784 123.608 72.5421 123.851 72.2008 124.339C71.8595 124.802 71.6888 125.326 71.6888 125.911C71.6888 126.765 71.957 127.447 72.4933 127.959C73.054 128.447 73.7488 128.874 74.5777 129.239C75.4066 129.605 76.2965 129.983 77.2472 130.373C78.198 130.739 79.0879 131.226 79.9167 131.836C80.7456 132.445 81.4282 133.25 81.9646 134.249C82.5253 135.224 82.8057 136.504 82.8057 138.089C82.8057 140.868 82.0133 142.892 80.4287 144.159C78.8441 145.403 76.5524 146.024 73.5538 146.024C72.1398 146.024 70.8843 145.902 69.7872 145.659C68.7146 145.439 67.8003 145.049 67.0446 144.488C66.3132 143.903 65.7525 143.147 65.3624 142.221C64.9724 141.295 64.7773 140.149 64.7773 138.784V137.869H71.3597V138.491C71.3597 139.613 71.5669 140.405 71.9814 140.868C72.3958 141.307 72.9321 141.526 73.5904 141.526C74.2974 141.526 74.8337 141.282 75.1994 140.795C75.5895 140.307 75.7845 139.71 75.7845 139.003C75.7845 138.15 75.5163 137.479 74.98 136.992C74.468 136.48 73.8098 136.053 73.0053 135.712C72.2252 135.346 71.3719 134.98 70.4455 134.615C69.5191 134.249 68.6536 133.774 67.8491 133.189C67.069 132.604 66.4107 131.836 65.8744 130.885C65.3624 129.934 65.1065 128.691 65.1065 127.155C65.1065 124.497 65.8135 122.474 67.2274 121.084C68.6414 119.695 70.7868 119 73.6635 119C76.6378 119 78.7831 119.646 80.0996 120.938C81.4404 122.206 82.1109 124.242 82.1109 127.045H75.7479Z" fill="currentColor"/>
<path d="M57.2891 119.516H64.0908V145.626H57.2891V119.516Z" fill="currentColor"/>
<path d="M44.8213 130.559H46.1743C47.1495 130.559 47.8687 130.279 48.3319 129.718C48.7951 129.133 49.0267 128.377 49.0267 127.451C49.0267 126.354 48.7951 125.574 48.3319 125.111C47.8931 124.647 47.1617 124.416 46.1378 124.416H44.8213V130.559ZM38.0195 119.516H48.661C49.9531 119.516 51.0502 119.686 51.9522 120.028C52.8786 120.369 53.6222 120.856 54.1829 121.49C54.768 122.1 55.1824 122.831 55.4262 123.684C55.6944 124.538 55.8285 125.464 55.8285 126.464C55.8285 128.219 55.475 129.633 54.768 130.706C54.061 131.778 52.9273 132.437 51.3671 132.68V132.753C53.0005 132.9 54.1219 133.473 54.7314 134.472C55.3409 135.472 55.6456 136.849 55.6456 138.604V140.835C55.6456 141.176 55.6456 141.53 55.6456 141.896C55.6456 142.261 55.6578 142.615 55.6822 142.956C55.7066 143.273 55.7431 143.566 55.7919 143.834C55.8407 144.102 55.9016 144.309 55.9747 144.455C56.0723 144.602 56.1698 144.748 56.2673 144.894C56.3648 145.016 56.5233 145.138 56.7427 145.26V145.626H49.5021C49.3314 145.284 49.1974 144.882 49.0998 144.419C49.0267 143.956 48.9657 143.492 48.917 143.029C48.8926 142.566 48.8682 142.127 48.8439 141.713C48.8439 141.274 48.8439 140.92 48.8439 140.652V138.897C48.8439 138.166 48.8073 137.556 48.7341 137.069C48.661 136.581 48.5269 136.203 48.3319 135.935C48.1612 135.642 47.9296 135.447 47.6371 135.35C47.3689 135.228 47.0276 135.167 46.6132 135.167H44.8213V145.626H38.0195V119.516Z" fill="currentColor"/>
<path d="M19.582 119.516H26.3838V129.097H30.5526V119.516H37.3544V145.626H30.5526V134.874H26.3838V145.626H19.582V119.516Z" fill="currentColor"/>
<path d="M12.19 127.447C12.19 125.96 12.0437 124.948 11.7512 124.412C11.4586 123.876 10.9832 123.608 10.325 123.608C9.81305 123.608 9.39861 123.742 9.08168 124.01C8.78913 124.278 8.55753 124.753 8.38687 125.436C8.2406 126.119 8.14307 127.045 8.09432 128.215C8.04556 129.361 8.02118 130.812 8.02118 132.567C8.02118 134.322 8.04556 135.785 8.09432 136.955C8.14307 138.101 8.2406 139.015 8.38687 139.698C8.55753 140.38 8.78913 140.856 9.08168 141.124C9.39861 141.392 9.81305 141.526 10.325 141.526C10.7395 141.526 11.0808 141.429 11.3489 141.234C11.6171 141.014 11.8243 140.661 11.9706 140.173C12.1169 139.686 12.2144 139.04 12.2631 138.235C12.3363 137.406 12.3729 136.37 12.3729 135.127H18.9552V137.065C18.9552 138.893 18.7114 140.393 18.2238 141.563C17.7362 142.733 17.0902 143.659 16.2857 144.342C15.4812 145 14.5548 145.439 13.5065 145.659C12.4825 145.902 11.4221 146.024 10.325 146.024C8.42344 146.024 6.86317 145.793 5.64422 145.329C4.42527 144.866 3.47448 144.098 2.79186 143.026C2.10925 141.929 1.63386 140.527 1.36569 138.82C1.1219 137.089 1 135.005 1 132.567C1 130.08 1.14628 127.972 1.43883 126.241C1.75576 124.51 2.27991 123.108 3.01128 122.035C3.74265 120.963 4.70563 120.195 5.9002 119.731C7.09478 119.244 8.56971 119 10.325 119C11.8609 119 13.1652 119.195 14.2379 119.585C15.3105 119.975 16.176 120.536 16.8342 121.267C17.5168 121.974 18.0044 122.84 18.297 123.864C18.6139 124.863 18.7724 125.997 18.7724 127.265V128.91H12.19V127.447Z" fill="currentColor"/>
<path d="M259.922 168.031L267.791 150H268.273L260.38 168.031H259.922Z" fill="currentColor"/>
<path d="M252.728 157.696H253.621C254.265 157.696 254.739 157.511 255.045 157.141C255.351 156.754 255.504 156.256 255.504 155.644C255.504 154.92 255.351 154.405 255.045 154.099C254.755 153.794 254.273 153.641 253.597 153.641H252.728V157.696ZM248.238 150.406H255.262C256.115 150.406 256.839 150.519 257.435 150.744C258.046 150.969 258.537 151.291 258.907 151.71C259.293 152.112 259.567 152.595 259.728 153.158C259.905 153.721 259.993 154.333 259.993 154.992C259.993 156.151 259.76 157.084 259.293 157.792C258.827 158.5 258.078 158.935 257.048 159.096V159.144C258.127 159.241 258.867 159.619 259.269 160.279C259.671 160.938 259.873 161.847 259.873 163.006V164.478C259.873 164.704 259.873 164.937 259.873 165.178C259.873 165.42 259.881 165.653 259.897 165.878C259.913 166.088 259.937 166.281 259.969 166.458C260.001 166.635 260.042 166.772 260.09 166.868C260.154 166.965 260.219 167.061 260.283 167.158C260.347 167.238 260.452 167.319 260.597 167.399V167.64H255.817C255.705 167.415 255.616 167.15 255.552 166.844C255.504 166.538 255.463 166.232 255.431 165.927C255.415 165.621 255.399 165.331 255.383 165.058C255.383 164.768 255.383 164.535 255.383 164.358V163.199C255.383 162.716 255.359 162.314 255.311 161.992C255.262 161.67 255.174 161.421 255.045 161.244C254.932 161.051 254.78 160.922 254.586 160.858C254.409 160.777 254.184 160.737 253.911 160.737H252.728V167.64H248.238V150.406Z" fill="currentColor"/>
<path d="M237.438 150.406H247.648V154.075H241.927V157.02H247.286V160.544H241.927V163.972H247.865V167.64H237.438V150.406Z" fill="currentColor"/>
<path d="M229.222 154.22H225.891V150.406H237.09V154.22H233.711V167.64H229.222V154.22Z" fill="currentColor"/>
<path d="M218.052 157.696H218.945C219.589 157.696 220.064 157.511 220.369 157.141C220.675 156.754 220.828 156.256 220.828 155.644C220.828 154.92 220.675 154.405 220.369 154.099C220.08 153.794 219.597 153.641 218.921 153.641H218.052V157.696ZM213.562 150.406H220.587C221.439 150.406 222.164 150.519 222.759 150.744C223.37 150.969 223.861 151.291 224.231 151.71C224.618 152.112 224.891 152.595 225.052 153.158C225.229 153.721 225.317 154.333 225.317 154.992C225.317 156.151 225.084 157.084 224.617 157.792C224.151 158.5 223.403 158.935 222.373 159.096V159.144C223.451 159.241 224.191 159.619 224.593 160.279C224.996 160.938 225.197 161.847 225.197 163.006V164.478C225.197 164.704 225.197 164.937 225.197 165.178C225.197 165.42 225.205 165.653 225.221 165.878C225.237 166.088 225.261 166.281 225.293 166.458C225.326 166.635 225.366 166.772 225.414 166.868C225.478 166.965 225.543 167.061 225.607 167.158C225.671 167.238 225.776 167.319 225.921 167.399V167.64H221.142C221.029 167.415 220.941 167.15 220.876 166.844C220.828 166.538 220.788 166.232 220.755 165.927C220.739 165.621 220.723 165.331 220.707 165.058C220.707 164.768 220.707 164.535 220.707 164.358V163.199C220.707 162.716 220.683 162.314 220.635 161.992C220.587 161.67 220.498 161.421 220.369 161.244C220.257 161.051 220.104 160.922 219.911 160.858C219.734 160.777 219.508 160.737 219.235 160.737H218.052V167.64H213.562V150.406Z" fill="currentColor"/>
<path d="M205.248 159.018C205.248 160.176 205.264 161.142 205.296 161.914C205.328 162.67 205.393 163.274 205.489 163.724C205.602 164.175 205.755 164.489 205.948 164.666C206.157 164.843 206.43 164.931 206.768 164.931C207.106 164.931 207.372 164.843 207.565 164.666C207.774 164.489 207.927 164.175 208.024 163.724C208.136 163.274 208.209 162.67 208.241 161.914C208.273 161.142 208.289 160.176 208.289 159.018C208.289 157.859 208.273 156.901 208.241 156.145C208.209 155.373 208.136 154.761 208.024 154.311C207.927 153.86 207.774 153.546 207.565 153.369C207.372 153.192 207.106 153.104 206.768 153.104C206.43 153.104 206.157 153.192 205.948 153.369C205.755 153.546 205.602 153.86 205.489 154.311C205.393 154.761 205.328 155.373 205.296 156.145C205.264 156.901 205.248 157.859 205.248 159.018ZM200.613 159.018C200.613 157.408 200.718 156.041 200.927 154.914C201.136 153.772 201.482 152.846 201.965 152.138C202.448 151.414 203.083 150.891 203.872 150.569C204.66 150.231 205.626 150.062 206.768 150.062C207.911 150.062 208.876 150.231 209.665 150.569C210.453 150.891 211.089 151.414 211.572 152.138C212.054 152.846 212.4 153.772 212.61 154.914C212.819 156.041 212.923 157.408 212.923 159.018C212.923 160.627 212.819 162.003 212.61 163.145C212.4 164.271 212.054 165.197 211.572 165.921C211.089 166.629 210.453 167.136 209.665 167.442C208.876 167.747 207.911 167.9 206.768 167.9C205.626 167.9 204.66 167.747 203.872 167.442C203.083 167.136 202.448 166.629 201.965 165.921C201.482 165.197 201.136 164.271 200.927 163.145C200.718 162.003 200.613 160.627 200.613 159.018Z" fill="currentColor"/>
<path d="M193.134 157.841H193.979C194.542 157.841 194.969 157.672 195.258 157.334C195.564 156.996 195.717 156.465 195.717 155.741C195.717 154.341 195.138 153.641 193.979 153.641H193.134V157.841ZM188.645 150.406H195.379C196.232 150.406 196.972 150.543 197.6 150.817C198.227 151.09 198.742 151.468 199.144 151.951C199.563 152.418 199.869 152.973 200.062 153.617C200.255 154.26 200.351 154.96 200.351 155.717C200.351 157.503 199.869 158.846 198.903 159.747C197.954 160.633 196.554 161.075 194.703 161.075H193.134V167.64H188.645V150.406Z" fill="currentColor"/>
<path d="M180.812 158.828H188.343V162.497H180.812V158.828Z" fill="currentColor"/>
<path d="M174.681 153.93L173.45 161.244H175.961L174.73 153.93H174.681ZM177.53 150.406L181.73 167.64H176.95L176.492 164.623H172.919L172.461 167.64H167.754L171.881 150.406H177.53Z" fill="currentColor"/>
<path d="M160.75 158.828H168.281V162.497H160.75V158.828Z" fill="currentColor"/>
<path d="M154.518 154.22H151.188V150.406H162.387V154.22H159.008V167.64H154.518V154.22Z" fill="currentColor"/>
<path d="M140.535 150.406H150.745V154.075H145.025V157.02H150.383V160.544H145.025V163.972H150.963V167.64H140.535V150.406Z" fill="currentColor"/>
<path d="M127.824 150.406H132.845L135.741 161.027H135.79V150.406H139.99V167.64H135.065L132.072 156.996H132.024V167.64H127.824V150.406Z" fill="currentColor"/>
<path d="M310.214 99.1489C310.214 101.22 310.243 102.946 310.301 104.327C310.358 105.679 310.473 106.757 310.646 107.563C310.847 108.368 311.12 108.929 311.466 109.246C311.84 109.562 312.329 109.72 312.933 109.72C313.537 109.72 314.011 109.562 314.357 109.246C314.731 108.929 315.004 108.368 315.176 107.563C315.378 106.757 315.507 105.679 315.565 104.327C315.622 102.946 315.651 101.22 315.651 99.1489C315.651 97.0777 315.622 95.3662 315.565 94.0142C315.507 92.6334 315.378 91.5403 315.176 90.7348C315.004 89.9294 314.731 89.3685 314.357 89.052C314.011 88.7356 313.537 88.5774 312.933 88.5774C312.329 88.5774 311.84 88.7356 311.466 89.052C311.12 89.3685 310.847 89.9294 310.646 90.7348C310.473 91.5403 310.358 92.6334 310.301 94.0142C310.243 95.3662 310.214 97.0777 310.214 99.1489ZM301.93 99.1489C301.93 96.2723 302.117 93.8272 302.491 91.8136C302.865 89.7712 303.483 88.1171 304.346 86.8514C305.209 85.557 306.345 84.6221 307.755 84.0468C309.164 83.4427 310.89 83.1406 312.933 83.1406C314.975 83.1406 316.701 83.4427 318.111 84.0468C319.52 84.6221 320.656 85.557 321.519 86.8514C322.382 88.1171 323.001 89.7712 323.375 91.8136C323.749 93.8272 323.936 96.2723 323.936 99.1489C323.936 102.025 323.749 104.485 323.375 106.527C323.001 108.541 322.382 110.195 321.519 111.489C320.656 112.755 319.52 113.661 318.111 114.208C316.701 114.754 314.975 115.028 312.933 115.028C310.89 115.028 309.164 114.754 307.755 114.208C306.345 113.661 305.209 112.755 304.346 111.489C303.483 110.195 302.865 108.541 302.491 106.527C302.117 104.485 301.93 102.025 301.93 99.1489Z" fill="currentColor"/>
<path d="M349.277 99.1489C349.277 101.22 349.306 102.946 349.363 104.327C349.421 105.679 349.536 106.757 349.708 107.563C349.91 108.368 350.183 108.929 350.528 109.246C350.902 109.562 351.391 109.72 351.995 109.72C352.599 109.72 353.074 109.562 353.419 109.246C353.793 108.929 354.066 108.368 354.239 107.563C354.44 106.757 354.57 105.679 354.627 104.327C354.685 102.946 354.714 101.22 354.714 99.1489C354.714 97.0777 354.685 95.3662 354.627 94.0142C354.57 92.6334 354.44 91.5403 354.239 90.7348C354.066 89.9294 353.793 89.3685 353.419 89.052C353.074 88.7356 352.599 88.5774 351.995 88.5774C351.391 88.5774 350.902 88.7356 350.528 89.052C350.183 89.3685 349.91 89.9294 349.708 90.7348C349.536 91.5403 349.421 92.6334 349.363 94.0142C349.306 95.3662 349.277 97.0777 349.277 99.1489ZM340.992 99.1489C340.992 96.2723 341.179 93.8272 341.553 91.8136C341.927 89.7712 342.546 88.1171 343.409 86.8514C344.272 85.557 345.408 84.6221 346.817 84.0468C348.227 83.4427 349.953 83.1406 351.995 83.1406C354.038 83.1406 355.763 83.4427 357.173 84.0468C358.583 84.6221 359.719 85.557 360.582 86.8514C361.445 88.1171 362.063 89.7712 362.437 91.8136C362.811 93.8272 362.998 96.2723 362.998 99.1489C362.998 102.025 362.811 104.485 362.437 106.527C362.063 108.541 361.445 110.195 360.582 111.489C359.719 112.755 358.583 113.661 357.173 114.208C355.763 114.754 354.038 115.028 351.995 115.028C349.953 115.028 348.227 114.754 346.817 114.208C345.408 113.661 344.272 112.755 343.409 111.489C342.546 110.195 341.927 108.541 341.553 106.527C341.179 104.485 340.992 102.025 340.992 99.1489Z" fill="currentColor"/>
<path d="M279.793 83.7344H291.443C293.773 83.7344 295.585 84.1659 296.88 85.0288C298.174 85.8631 299.138 86.9993 299.771 88.4376C300.433 89.8471 300.835 91.4868 300.979 93.3566C301.123 95.1976 301.195 97.1249 301.195 99.1385C301.195 101.152 301.123 103.094 300.979 104.964C300.835 106.805 300.433 108.444 299.771 109.883C299.138 111.292 298.174 112.428 296.88 113.291C295.585 114.126 293.773 114.543 291.443 114.543H279.793V83.7344ZM287.819 108.761H289.415C290.192 108.761 290.81 108.66 291.271 108.459C291.731 108.229 292.076 107.768 292.306 107.078C292.565 106.388 292.723 105.41 292.781 104.144C292.867 102.878 292.91 101.21 292.91 99.1385C292.91 97.0674 292.867 95.399 292.781 94.1333C292.723 92.8676 292.565 91.8895 292.306 91.1991C292.076 90.5088 291.731 90.0629 291.271 89.8615C290.81 89.6314 290.192 89.5163 289.415 89.5163H287.819V108.761Z" fill="currentColor"/>
<path d="M264.917 99.1489C264.917 101.22 264.946 102.946 265.004 104.327C265.061 105.679 265.176 106.757 265.349 107.563C265.55 108.368 265.824 108.929 266.169 109.246C266.543 109.562 267.032 109.72 267.636 109.72C268.24 109.72 268.715 109.562 269.06 109.246C269.434 108.929 269.707 108.368 269.88 107.563C270.081 106.757 270.21 105.679 270.268 104.327C270.325 102.946 270.354 101.22 270.354 99.1489C270.354 97.0777 270.325 95.3662 270.268 94.0142C270.21 92.6334 270.081 91.5403 269.88 90.7348C269.707 89.9294 269.434 89.3685 269.06 89.052C268.715 88.7356 268.24 88.5774 267.636 88.5774C267.032 88.5774 266.543 88.7356 266.169 89.052C265.824 89.3685 265.55 89.9294 265.349 90.7348C265.176 91.5403 265.061 92.6334 265.004 94.0142C264.946 95.3662 264.917 97.0777 264.917 99.1489ZM256.633 99.1489C256.633 96.2723 256.82 93.8272 257.194 91.8136C257.568 89.7712 258.186 88.1171 259.049 86.8514C259.912 85.557 261.048 84.6221 262.458 84.0468C263.867 83.4427 265.593 83.1406 267.636 83.1406C269.678 83.1406 271.404 83.4427 272.814 84.0468C274.223 84.6221 275.359 85.557 276.222 86.8514C277.085 88.1171 277.704 89.7712 278.078 91.8136C278.452 93.8272 278.639 96.2723 278.639 99.1489C278.639 102.025 278.452 104.485 278.078 106.527C277.704 108.541 277.085 110.195 276.222 111.489C275.359 112.755 274.223 113.661 272.814 114.208C271.404 114.754 269.678 115.028 267.636 115.028C265.593 115.028 263.867 114.754 262.458 114.208C261.048 113.661 259.912 112.755 259.049 111.489C258.186 110.195 257.568 108.541 257.194 106.527C256.82 104.485 256.633 102.025 256.633 99.1489Z" fill="currentColor"/>
<path d="M242.768 108.761H245.012C245.76 108.761 246.421 108.459 246.996 107.855C247.572 107.222 247.859 106.258 247.859 104.964C247.859 103.755 247.572 102.835 246.996 102.202C246.421 101.569 245.76 101.253 245.012 101.253H242.768V108.761ZM242.768 95.8161H244.71C245.544 95.8161 246.177 95.514 246.608 94.91C247.04 94.2771 247.255 93.5436 247.255 92.7094C247.255 91.8464 247.04 91.0985 246.608 90.4656C246.177 89.8328 245.544 89.5163 244.71 89.5163H242.768V95.8161ZM234.742 83.7344H246.867C249.744 83.7344 251.858 84.4391 253.21 85.8487C254.591 87.2294 255.281 89.0848 255.281 91.4149C255.281 92.2203 255.18 93.0114 254.979 93.7881C254.806 94.536 254.519 95.2264 254.116 95.8592C253.742 96.4633 253.253 96.9811 252.649 97.4126C252.045 97.8441 251.311 98.1461 250.448 98.3187V98.405C251.455 98.4913 252.318 98.7646 253.037 99.2248C253.756 99.6563 254.346 100.203 254.806 100.865C255.267 101.526 255.598 102.26 255.799 103.065C256.029 103.842 256.144 104.633 256.144 105.438C256.144 106.762 255.971 107.984 255.626 109.106C255.281 110.228 254.735 111.191 253.987 111.997C253.267 112.802 252.318 113.435 251.139 113.895C249.959 114.327 248.535 114.543 246.867 114.543H234.742V83.7344Z" fill="currentColor"/>
<path d="M220.152 99.1489C220.152 101.22 220.181 102.946 220.238 104.327C220.296 105.679 220.411 106.757 220.583 107.563C220.785 108.368 221.058 108.929 221.403 109.246C221.777 109.562 222.266 109.72 222.87 109.72C223.474 109.72 223.949 109.562 224.294 109.246C224.668 108.929 224.941 108.368 225.114 107.563C225.315 106.757 225.445 105.679 225.502 104.327C225.56 102.946 225.589 101.22 225.589 99.1489C225.589 97.0777 225.56 95.3662 225.502 94.0142C225.445 92.6334 225.315 91.5403 225.114 90.7348C224.941 89.9294 224.668 89.3685 224.294 89.052C223.949 88.7356 223.474 88.5774 222.87 88.5774C222.266 88.5774 221.777 88.7356 221.403 89.052C221.058 89.3685 220.785 89.9294 220.583 90.7348C220.411 91.5403 220.296 92.6334 220.238 94.0142C220.181 95.3662 220.152 97.0777 220.152 99.1489ZM211.867 99.1489C211.867 96.2723 212.054 93.8272 212.428 91.8136C212.802 89.7712 213.421 88.1171 214.284 86.8514C215.147 85.557 216.283 84.6221 217.692 84.0468C219.102 83.4427 220.828 83.1406 222.87 83.1406C224.913 83.1406 226.639 83.4427 228.048 84.0468C229.458 84.6221 230.594 85.557 231.457 86.8514C232.32 88.1171 232.938 89.7712 233.312 91.8136C233.686 93.8272 233.873 96.2723 233.873 99.1489C233.873 102.025 233.686 104.485 233.312 106.527C232.938 108.541 232.32 110.195 231.457 111.489C230.594 112.755 229.458 113.661 228.048 114.208C226.639 114.754 224.913 115.028 222.87 115.028C220.828 115.028 219.102 114.754 217.692 114.208C216.283 113.661 215.147 112.755 214.284 111.489C213.421 110.195 212.802 108.541 212.428 106.527C212.054 104.485 211.867 102.025 211.867 99.1489Z" fill="currentColor"/>
<path d="M324.508 108.539H329.62V114.564H324.508V108.539Z" fill="currentColor"/>
<path d="M331.375 83.8047H339.393V114.583H331.375V83.8047Z" fill="currentColor"/>
<path d="M346.32 119.516H361.672V125.032H353.071V129.46H361.128V134.759H353.071V139.913H361.999V145.429H346.32V119.516Z" fill="currentColor"/>
<path d="M338.681 126.985V126.368C338.681 125.593 338.524 124.94 338.209 124.408C337.895 123.851 337.411 123.573 336.757 123.573C336.032 123.573 335.499 123.815 335.161 124.299C334.822 124.759 334.652 125.279 334.652 125.859C334.652 126.706 334.919 127.384 335.451 127.892C336.007 128.376 336.697 128.799 337.52 129.162C338.342 129.525 339.225 129.9 340.169 130.287C341.113 130.65 341.996 131.134 342.818 131.739C343.641 132.344 344.319 133.142 344.851 134.134C345.407 135.102 345.686 136.372 345.686 137.945C345.686 140.704 344.899 142.712 343.327 143.97C341.754 145.204 339.48 145.821 336.503 145.821C335.1 145.821 333.854 145.7 332.765 145.458C331.701 145.24 330.793 144.853 330.043 144.297C329.317 143.716 328.761 142.966 328.374 142.046C327.987 141.127 327.793 139.99 327.793 138.635V137.727H334.326V138.344C334.326 139.457 334.531 140.244 334.943 140.704C335.354 141.139 335.886 141.357 336.54 141.357C337.241 141.357 337.774 141.115 338.137 140.631C338.524 140.147 338.717 139.554 338.717 138.853C338.717 138.006 338.451 137.34 337.919 136.856C337.411 136.348 336.757 135.925 335.959 135.586C335.185 135.223 334.338 134.86 333.418 134.497C332.499 134.134 331.64 133.663 330.842 133.082C330.067 132.501 329.414 131.739 328.882 130.795C328.374 129.852 328.12 128.618 328.12 127.093C328.12 124.456 328.821 122.448 330.225 121.069C331.628 119.69 333.757 119 336.612 119C339.564 119 341.693 119.641 343 120.924C344.331 122.182 344.996 124.202 344.996 126.985H338.681Z" fill="currentColor"/>
<path d="M316.645 119.516V138.207C316.645 139.465 316.827 140.312 317.19 140.747C317.552 141.159 318.048 141.364 318.678 141.364C319.307 141.364 319.803 141.159 320.166 140.747C320.529 140.312 320.71 139.465 320.71 138.207V119.516H327.461V136.501C327.461 138.316 327.267 139.828 326.88 141.038C326.493 142.247 325.924 143.215 325.174 143.941C324.448 144.667 323.541 145.163 322.452 145.429C321.363 145.695 320.105 145.828 318.678 145.828C317.274 145.828 316.016 145.695 314.903 145.429C313.814 145.163 312.895 144.667 312.145 143.941C311.419 143.215 310.862 142.247 310.475 141.038C310.088 139.828 309.895 138.316 309.895 136.501V119.516H316.645Z" fill="currentColor"/>
<path d="M297.996 132.465C297.996 134.207 298.02 135.659 298.068 136.82C298.117 137.957 298.213 138.865 298.359 139.542C298.528 140.22 298.758 140.691 299.048 140.958C299.363 141.224 299.774 141.357 300.282 141.357C300.79 141.357 301.19 141.224 301.48 140.958C301.794 140.691 302.024 140.22 302.169 139.542C302.339 138.865 302.448 137.957 302.496 136.82C302.544 135.659 302.569 134.207 302.569 132.465C302.569 130.723 302.544 129.283 302.496 128.146C302.448 126.985 302.339 126.065 302.169 125.388C302.024 124.71 301.794 124.238 301.48 123.972C301.19 123.706 300.79 123.573 300.282 123.573C299.774 123.573 299.363 123.706 299.048 123.972C298.758 124.238 298.528 124.71 298.359 125.388C298.213 126.065 298.117 126.985 298.068 128.146C298.02 129.283 297.996 130.723 297.996 132.465ZM291.027 132.465C291.027 130.045 291.185 127.989 291.499 126.295C291.814 124.577 292.334 123.186 293.06 122.121C293.786 121.032 294.741 120.246 295.927 119.762C297.113 119.254 298.564 119 300.282 119C302 119 303.452 119.254 304.637 119.762C305.823 120.246 306.779 121.032 307.505 122.121C308.23 123.186 308.751 124.577 309.065 126.295C309.38 127.989 309.537 130.045 309.537 132.465C309.537 134.884 309.38 136.953 309.065 138.671C308.751 140.365 308.23 141.756 307.505 142.845C306.779 143.909 305.823 144.672 304.637 145.131C303.452 145.591 302 145.821 300.282 145.821C298.564 145.821 297.113 145.591 295.927 145.131C294.741 144.672 293.786 143.909 293.06 142.845C292.334 141.756 291.814 140.365 291.499 138.671C291.185 136.953 291.027 134.884 291.027 132.465Z" fill="currentColor"/>
<path d="M273.016 119.516H279.766V129.025H283.904V119.516H290.654V145.429H283.904V134.759H279.766V145.429H273.016V119.516Z" fill="currentColor"/>
<path d="M247.863 119.508H255.32L259.622 135.282H259.694V119.508H265.932V145.105H258.618L254.173 129.295H254.101V145.105H247.863V119.508Z" fill="currentColor"/>
<path d="M236.071 132.3C236.071 134.021 236.095 135.455 236.142 136.602C236.19 137.726 236.286 138.622 236.429 139.291C236.596 139.96 236.824 140.426 237.11 140.689C237.421 140.952 237.827 141.083 238.329 141.083C238.831 141.083 239.225 140.952 239.512 140.689C239.823 140.426 240.05 139.96 240.193 139.291C240.361 138.622 240.468 137.726 240.516 136.602C240.564 135.455 240.588 134.021 240.588 132.3C240.588 130.579 240.564 129.157 240.516 128.034C240.468 126.887 240.361 125.979 240.193 125.31C240.05 124.64 239.823 124.174 239.512 123.911C239.225 123.649 238.831 123.517 238.329 123.517C237.827 123.517 237.421 123.649 237.11 123.911C236.824 124.174 236.596 124.64 236.429 125.31C236.286 125.979 236.19 126.887 236.142 128.034C236.095 129.157 236.071 130.579 236.071 132.3ZM229.188 132.3C229.188 129.91 229.343 127.879 229.654 126.206C229.964 124.509 230.478 123.135 231.195 122.083C231.912 121.008 232.856 120.231 234.027 119.753C235.198 119.251 236.632 119 238.329 119C240.026 119 241.46 119.251 242.631 119.753C243.802 120.231 244.746 121.008 245.463 122.083C246.18 123.135 246.694 124.509 247.005 126.206C247.316 127.879 247.471 129.91 247.471 132.3C247.471 134.69 247.316 136.734 247.005 138.431C246.694 140.104 246.18 141.478 245.463 142.553C244.746 143.605 243.802 144.358 242.631 144.812C241.46 145.266 240.026 145.493 238.329 145.493C236.632 145.493 235.198 145.266 234.027 144.812C232.856 144.358 231.912 143.605 231.195 142.553C230.478 141.478 229.964 140.104 229.654 138.431C229.343 136.734 229.188 134.69 229.188 132.3Z" fill="currentColor"/>
<path d="M221.812 119.508H228.481V145.105H221.812V119.508Z" fill="currentColor"/>
<path d="M209.588 125.172H204.641V119.508H221.275V125.172H216.256V145.105H209.588V125.172Z" fill="currentColor"/>
<path d="M197.536 127.281C197.536 125.823 197.393 124.832 197.106 124.306C196.819 123.78 196.353 123.517 195.708 123.517C195.206 123.517 194.8 123.649 194.489 123.911C194.202 124.174 193.975 124.64 193.808 125.31C193.665 125.979 193.569 126.887 193.521 128.034C193.473 129.157 193.45 130.579 193.45 132.3C193.45 134.021 193.473 135.455 193.521 136.602C193.569 137.726 193.665 138.622 193.808 139.291C193.975 139.96 194.202 140.426 194.489 140.689C194.8 140.952 195.206 141.083 195.708 141.083C196.114 141.083 196.449 140.988 196.712 140.797C196.975 140.582 197.178 140.235 197.321 139.757C197.465 139.279 197.56 138.646 197.608 137.857C197.68 137.044 197.716 136.029 197.716 134.81H204.169V136.71C204.169 138.502 203.93 139.972 203.452 141.119C202.974 142.266 202.34 143.175 201.552 143.844C200.763 144.489 199.855 144.919 198.827 145.134C197.823 145.373 196.784 145.493 195.708 145.493C193.844 145.493 192.314 145.266 191.119 144.812C189.924 144.358 188.992 143.605 188.323 142.553C187.654 141.478 187.188 140.104 186.925 138.431C186.686 136.734 186.566 134.69 186.566 132.3C186.566 129.862 186.71 127.795 186.997 126.098C187.307 124.401 187.821 123.027 188.538 121.976C189.255 120.924 190.199 120.171 191.37 119.717C192.541 119.239 193.987 119 195.708 119C197.214 119 198.492 119.191 199.544 119.574C200.596 119.956 201.444 120.506 202.089 121.223C202.759 121.916 203.237 122.764 203.523 123.768C203.834 124.748 203.989 125.859 203.989 127.102V128.715H197.536V127.281Z" fill="currentColor"/>
<path d="M175.215 119.508V137.97C175.215 139.213 175.394 140.05 175.753 140.48C176.111 140.886 176.601 141.089 177.222 141.089C177.844 141.089 178.334 140.886 178.692 140.48C179.051 140.05 179.23 139.213 179.23 137.97V119.508H185.898V136.285C185.898 138.078 185.707 139.572 185.325 140.767C184.942 141.962 184.38 142.918 183.64 143.635C182.923 144.352 182.026 144.842 180.951 145.105C179.875 145.367 178.633 145.499 177.222 145.499C175.836 145.499 174.594 145.367 173.494 145.105C172.419 144.842 171.51 144.352 170.77 143.635C170.053 142.918 169.503 141.962 169.12 140.767C168.738 139.572 168.547 138.078 168.547 136.285V119.508H175.215Z" fill="currentColor"/>
<path d="M159.047 124.742L157.218 135.604H160.947L159.118 124.742H159.047ZM163.277 119.508L169.515 145.105H162.417L161.735 140.623H156.43L155.749 145.105H148.758L154.888 119.508H163.277Z" fill="currentColor"/>
</svg>