<svg width="74" height="326" viewBox="0 0 74 326" fill="none" xmlns="http://www.w3.org/2000/svg">
<path fill="none" d="M38.2931 1.5C33.3875 5.128 29.3227 10.5926 26.4652 18.3492C23.3216 26.8823 22.6027 42.5905 22.3095 59.6818C22.0347 75.7038 28.1961 89.8006 30.1733 95.1283C32.6809 101.885 33.6374 107.962 35.4783 115.686C37.4784 124.079 38.7108 141.382 37.5822 150.143C37.4432 151.222 36.3049 151.91 35.3064 152.414C33.2011 153.475 30.1791 152.918 27.2654 152.207C22.1166 150.949 19.2096 145.382 17.2304 139.961C15.8077 136.064 16.9474 131.943 18.9946 129.092C22.8298 123.751 32.4794 124.21 38.7091 124.939C41.2632 125.237 43.3092 127.09 45.3523 129.446C47.8413 132.317 49.4332 137.191 50.4191 142.663C52.0905 151.941 44.933 159.814 41.0602 164.554C39.6482 166.283 37.016 167.365 34.442 168.738C33.2667 169.366 32.0648 169.204 31.041 167.857C22.448 156.557 24.2036 136.372 28.4556 128.635C29.4305 126.861 30.8935 126.11 32.0318 125.53C33.1701 124.95 34.2914 124.809 35.2524 125.255C40.903 127.881 42.4626 140.183 43.17 147.785C43.6385 152.818 43.9494 157.451 38.1022 178.416C35.8577 186.464 37.3293 191.711 38.5021 202.156C39.9677 215.208 41.2728 229.523 42.7574 236.746C44.766 246.519 38.6031 259.207 35.5199 265.871C32.8518 271.637 34.5642 277.623 34.9967 284.893C35.2669 289.433 34.4583 294.417 34.405 298.52C34.3839 300.15 36.4016 300.57 37.6725 300.611C38.9435 300.652 39.9246 300.227 40.6402 299.346C41.3559 298.464 41.7764 297.138 41.4 296.345C41.0236 295.553 39.8377 295.335 37.625 296.719C25.5723 304.258 23.5964 313.991 22.3018 315.968C21.0714 317.846 28.3808 307.061 33.0742 301.059C35.7979 297.576 35.623 311.958 36.7459 314.992C37.1122 315.981 38.2355 315.195 39.207 313.388C40.1785 311.58 41.2634 308.607 41.544 308.045C41.8245 307.482 41.2679 309.42 39.7993 308.657C34.6973 306.006 33.4787 299.426 33.6652 296.468C33.7697 294.812 34.4367 292.896 34.6752 294.591C36.8948 310.365 36.2233 318.681 37.2567 320.15C38.3398 321.689 39.7384 312.653 40.2803 306.462C40.4219 304.845 39.5378 306.299 38.9666 306.247C38.3954 306.195 37.9709 304.587 37.2307 304.034C36.4904 303.482 35.4473 304.033 35.259 303.613C34.4824 301.883 37.2347 298.464 36.9502 296.191C36.8128 295.094 33.0875 296.922 31.2758 297.925C29.464 298.928 28.7578 299.769 29.4688 300.178C31.9672 301.618 37.0319 299.205 40.9746 298.083C43.4384 297.382 43.7593 302.791 44.8489 303.781C46.2779 305.079 45.7396 298.766 45.0312 296.072C44.716 294.873 43.4765 294.405 42.2722 294.7C39.3771 295.408 37.5474 299.31 35.9971 301.486C31.1861 308.237 13.5343 281.629 4.1983 277.623C3.02634 277.12 2.07778 279.809 1.67198 281.252C0.944335 283.839 2.64977 287.202 4.45818 290.746C5.25939 292.316 5.99435 293.333 8.08097 293.738C13.5273 294.796 29.4717 290.781 46.9271 288.214C52.0541 287.46 49.8005 291.935 47.9105 295.094C46.0205 298.252 44.6122 301.011 43.3847 301.397C35.9751 303.723 33.9862 290.019 31.3468 288.694C30.0195 288.028 28.4258 288.056 27.3974 288.642C26.3689 289.229 25.8797 290.549 25.7679 291.789C25.1774 298.336 29.8127 305.323 31.9003 306.709C43.6596 314.517 53.3722 282.511 51.7418 285.003C49.4009 288.582 44.6235 297.256 42.1128 299.052C39.6021 300.848 39.6654 295.604 36.6678 296.584C24.9622 300.413 20.81 313.414 20.1749 314.226C11.2302 325.665 41.1717 279.499 41.736 278.333C44.5298 272.559 41.6297 289.972 42.1203 291.689C42.2937 292.295 43.5919 291.519 44.0266 291.957C44.4613 292.396 44.3198 293.855 43.0185 294.643C41.7171 295.43 39.2603 295.502 38.5135 295.922C37.7667 296.342 38.8044 297.109 40.1389 297.644C49.3077 301.321 63.3514 299.421 66.4667 299.972C73.1695 301.156 52.162 292.517 46.0379 291.362C43.091 290.807 40.3565 292.162 38.6325 293.7C36.7119 295.414 37.3783 299.821 37.7988 303.641C37.9724 305.218 39.0603 305.872 40.358 306.069C47.1881 307.107 53.2247 300.759 56.3183 299.741C57.3189 299.412 56.6585 303.152 56.0715 305.606C55.4846 308.059 54.8619 310.055 51.9833 309.67C43.444 308.528 36.8446 303.078 32.6525 302.368C30.3539 301.978 27.6262 302.126 26.1276 303.784C24.6291 305.441 24.4215 308.757 24.1023 309.971C23.7832 311.185 23.3586 310.197 23.5604 310.108C24.6032 310.858 27.9575 312.863 31.0537 313.366C31.6622 312.729 30.3158 310.281 27.2216 306.475" stroke="currentColor" stroke-width="3" stroke-linecap="round"/>
</svg>
