<svg width="29" height="461" viewBox="0 0 29 461" fill="none" xmlns="http://www.w3.org/2000/svg">
<path fill="none" d="M3.64844 5.39844L3.62716 9.134C4.98333 14.6154 7.26362 18.4175 9.34784 20.2343C10.3989 21.1506 11.9722 21.331 13.3444 21.2439C16.0464 21.0722 18.5358 18.777 20.7155 16.1219C22.7398 13.6561 22.7315 10.3324 22.1862 7.4928C21.9054 6.03065 20.5502 4.83493 19.2612 4.08853C16.755 2.63731 12.7725 3.23795 8.7323 3.90936C5.56902 4.43505 3.45042 6.67291 2.07329 9.30273C-0.427869 14.079 5.77349 19.391 11.6715 24.3123C14.8523 26.9664 19.4136 24.3272 22.2262 22.7711C23.629 21.9949 24.8588 21.0331 25.6881 19.8378C27.3437 17.4515 27.0667 14.0556 26.5186 10.8522C25.9861 7.73972 23.9544 5.23995 21.4856 3.31473C18.8739 1.27812 14.975 1.37299 11.5863 1.64306C8.64232 1.87769 6.16811 3.91005 3.87919 5.90423C2.7524 6.88594 2.13388 8.25852 1.93935 9.62799C1.09423 15.5775 8.45577 20.0872 14.0946 23.3663C16.6504 24.8526 17.5674 28.0913 18.203 31.3567C18.4785 33.0017 18.6586 34.6222 18.7513 105.206C18.8441 175.789 18.8441 315.286 18.8441 459.01" stroke="#463448" stroke-width="3" stroke-linecap="round"/>
</svg>
