<svg width="36" height="500" viewBox="0 0 36 500" fill="none" xmlns="http://www.w3.org/2000/svg">
<path fill="none" d="M17.5 1.5L18 465.5C8.88728 465.5 1.49998 472.887 1.49998 482C1.49998 491.113 8.88728 498.5 18 498.5C27.1127 498.5 34.5 491.113 34.5 482C34.5 473.16 27.5483 465.944 18.8135 465.52C-4 474.5 3.49996 495.5 18 495.5C32.5 495.5 40 473 18.8135 468C13.3757 470.667 3 475 7.5 485.5C12 496 30 496 29 480.5C28.709 477.667 26.2643 471.8 18.8135 471C11.3627 470.2 9.16667 477.333 9 481C8.83333 483.5 9.8 488.7 15 489.5C21.5 490.5 24 490 25.5 486C27 482 26.5 479 25.5 477.5C24.5 476 20 473.5 17.5 473.5C15 473.5 13 476.5 12.5 477C12 477.5 11.5 481.5 12 483C12.5 484.5 12.5 486 15 486.5C17.5 487 19 488.5 21 487C23 485.5 23.5 486.5 24 483C24.4 480.2 23.8333 478.5 23.5 478L18 476C17.1667 476.333 15.4 477.1 15 477.5C14.5 478 13.5 481 14 482C14.5 483 15 485 18 485C21 485 20.5 485 21 483C21.5 481 22 481.5 21 480C20 478.5 18.5 478.5 17.5 479C16.5 479.5 16.5 480 16.5 481C16.5 482 17.1865 483.5 18 483C18.6508 482.6 18.8135 481.5 18.8135 481" stroke="#463448" stroke-width="3" stroke-linecap="round"/>
</svg>
