<svg width="43" height="489" viewBox="0 0 43 489" fill="none" xmlns="http://www.w3.org/2000/svg">
<path fill="none" d="M20.0093 43.581C14.7095 40.8377 9.5756 35.3547 7.35567 28.7571C6.28135 25.5643 6.24846 20.7019 6.741 15.0849C7.14787 10.4448 10.8436 6.84155 14.0033 3.71494C16.4798 1.26436 20.638 1.36472 24.5418 1.6348C27.6453 1.8495 30.1042 3.72174 32.2839 5.62317C38.6855 11.2075 32.8457 26.2334 29.8132 32.898C27.2428 38.5472 23.1176 43.169 19.0744 50.5292C14.728 58.4414 14.1057 66.6192 13.7366 107.36C13.6044 121.963 12.0896 129.191 11.8474 145.486C11.7279 153.529 13.4234 160.381 13.6989 168.647C14.2001 183.684 15.0602 189.844 16.0448 196.961C17.7554 209.326 19.1556 217.991 19.26 259.014C19.3057 276.957 16.4455 285.229 15.6192 292.06C14.7811 298.989 14.2421 304.921 13.9639 335.995C13.8654 347.002 13.1404 353.158 12.405 360.167C11.7257 366.641 11.3005 377.121 10.9334 413.726C10.8078 426.248 12.201 432.042 12.0299 449.954C11.9543 457.862 6.74369 462.822 5.82101 471.456C5.42285 475.182 5.44746 478.295 6.35043 480.838C6.79155 482.08 8.33372 482.66 9.70319 483.211C12.4436 484.314 18.4983 481.96 25.8586 477.668C29.9686 475.272 31.6311 472.609 32.7223 468.952C33.3611 466.811 33.0933 463.84 32.548 461.705C32.0026 459.571 30.9119 458.298 29.532 457.461C24.0591 454.14 17.1551 455.695 11.4191 457.822C7.85927 459.141 4.63524 462.668 2.06103 465.844C0.972106 467.187 1.66474 468.839 2.48042 469.941C5.89277 474.552 9.66331 478.846 14.11 482.046C18.8467 485.454 29.3861 480.326 36.939 477.667C39.7873 476.664 40.3574 472.398 40.6303 468.918C40.8787 465.752 38.1635 463.039 35.5084 460.838C30.7353 456.882 23.8579 457.525 17.2647 458.629C13.7445 459.219 10.9934 461.401 8.61182 463.122C3.74969 466.637 4.55917 473.388 5.09932 477.564C5.54755 481.03 9.45325 482.86 12.5386 484.584C15.273 486.112 20.2379 487.05 26.527 486.959C30.7016 486.899 32.9653 483.939 34.7794 481.284C38.5289 475.797 38.0667 468.361 36.0589 461.924C35.134 458.959 29.0438 458.787 22.8117 459.057C18.2121 459.256 14.525 461.229 11.3534 463.386C8.2499 465.497 8.0605 469.985 4.55063 472.745" stroke="#463448" stroke-width="3" stroke-linecap="round"/>
</svg>
