<svg width="36" height="515" viewBox="0 0 36 515" fill="none" xmlns="http://www.w3.org/2000/svg">
<path fill="none" d="M21.8475 2.2169C20.6048 2.14419 18.1176 2.42869 15.5144 3.90781C13.4344 5.08961 12.5966 7.57558 11.4926 9.65116C10.3803 11.7424 10.609 14.2672 10.6421 19.3154C10.6649 22.7902 14.8162 24.9659 17.0369 26.3867C19.7473 28.1208 24.7772 26.8649 27.0776 25.7268C29.4033 24.5761 31.1153 22.0216 32.2458 19.8919C33.7627 17.0344 34.0311 14.4592 34.0326 10.8277C34.0337 8.06188 32.0561 5.64934 29.6726 3.112C27.6488 0.957618 24.5748 1.59929 22.2097 1.56038C19.7669 1.5202 17.4439 2.46722 14.7646 3.48428C13.5707 3.93747 12.7392 4.79379 12.0792 5.73664C10.7039 7.7015 10.9742 10.3156 10.9713 14.458C10.9692 17.4332 12.4227 19.9929 13.5139 22.0324C14.7986 24.4335 16.9317 26.7587 18.0612 29.0154C19.3023 31.4952 19.5551 34.6011 19.6653 39.6987C19.8558 48.5063 20.0658 55.929 19.8466 60.8931C19.7321 63.4853 19.3343 66.0908 17.9885 71.7059C16.996 75.8469 16.5474 78.639 16.1783 81.151C15.8314 83.5119 15.591 85.9853 15.4798 91.1437C15.3951 95.0686 15.4398 104.948 15.1482 111.423C15.112 112.228 15.0733 112.759 15.02 113.409C14.9667 114.059 14.86 114.809 14.8051 175.548C14.7501 236.286 14.7501 356.99 15.0542 419.171C15.3582 481.351 15.9662 481.351 16.2795 481.712C17.8738 483.545 16.3747 486.288 15.4558 488.328C14.5104 490.426 12.9284 491.967 10.8328 493.35C8.60027 494.823 6.82906 496.402 5.43094 498.186C4.0217 499.985 3.73975 502.583 3.76997 505.385C3.79557 507.76 7.21289 509.855 9.29393 511.647C11.4007 513.461 16.7287 513.435 19.9861 512.704C23.35 511.95 25.4806 508.155 27.2277 505.111C28.8439 502.295 28.2524 498.772 27.5583 495.358C26.9558 492.394 24.5902 490.682 22.3117 489.611C20.1239 488.583 17.618 489.055 14.9087 489.816C11.4826 490.78 9.18661 491.962 7.12812 493.234C5.123 494.474 3.24134 496.248 1.94898 498.324C0.728674 500.284 2.26554 502.796 3.3568 504.835C4.46501 506.907 6.11551 508.907 8.22709 510.367C10.7032 511.753 12.4492 512.189 13.6103 512.444C14.1952 512.554 14.7714 512.626 15.365 512.7" stroke="#463448" stroke-width="3" stroke-linecap="round"/>
</svg>
