<svg width="61" height="545" viewBox="0 0 61 545" fill="none" xmlns="http://www.w3.org/2000/svg">
<path fill="none" d="M19.9309 1.5C8.66841 21.9245 7.77948 29.4128 9.81305 44.739C10.8213 52.3375 17.6275 63.7629 23.7715 80.2749C33.331 105.966 34.4141 110.723 36.5791 120.775C39.46 134.152 35.4955 144.624 32.4788 159.538C29.4821 174.353 21.0104 189.371 17.8738 196.633C15.0207 203.239 11.6494 208.125 10.6809 213.195C9.4025 219.886 12.498 224.952 13.0865 229.702C13.4001 232.234 12.0634 235.18 10.5234 237.951C9.82739 239.203 8.83887 239.854 7.78806 239.376C1.42764 236.481 1.51534 224.578 1.5 216.945C1.49727 215.582 3.01781 214.95 4.21946 214.646C9.21466 213.384 14.001 218.123 18.1801 222.928C23.9769 229.593 18.2074 243.764 13.2521 256.103C10.5132 262.923 11.8984 271.035 14.01 276.687C16.5414 283.463 22.8066 288.142 27.2215 295.316C30.7673 301.079 32.6894 306.433 33.4496 320.488C34.1276 333.022 33.7081 356.586 32.9423 380.035C32.1764 403.485 30.6447 426.123 29.7827 439.477C28.3865 461.106 32.6981 466.107 35.1139 471C37.4119 475.655 36.9471 494.407 32.5919 508.964C30.9653 514.4 22.6959 510.846 20.4217 510.116C14.5437 508.23 14.2421 499.906 14.2378 496.883C14.2358 495.512 14.8131 494.502 15.7592 493.687C16.7054 492.872 18.1509 492.291 19.6184 492.137C25.6087 491.505 29.1239 496.502 30.3635 498.467C33.7617 503.852 26.003 514.866 18.6475 525.4C16.6482 528.264 14.9019 531.442 13.3873 532.984C11.8726 534.525 10.7092 534.379 9.35447 533.8C6.3421 532.511 4.20528 530.3 2.99684 528.194C1.55845 525.688 19.391 515.587 46.7272 502.872C56.703 498.232 58.97 497.712 59.2128 496.521C59.8744 493.278 51.8078 489.877 45.143 486.762C42.5003 485.526 41.2539 485.223 37.2894 489.58C25.7533 502.258 17.8653 517.144 14.759 525.709C12.475 532.007 12.7285 537.347 13.7279 541.272C14.1877 543.078 16.726 543.568 19.1052 543.265C29.8325 541.898 39.9625 526.278 43.0544 516.105C46.5388 504.64 21.0266 505.715 13.5019 504.502C10.0113 503.939 13.6791 491.564 17.6121 479.44C22.1985 465.303 53.0111 491.802 55.2335 493.886C56.3675 494.949 56.7582 496.709 56.6196 498.034C55.775 506.111 42.6851 511.287 39.7918 513.468C33.7238 518.042 28.3629 501.735 27.109 495.292C24.8587 483.73 52.5687 491.357 55.8694 492.695C58.2895 493.676 57.9199 499.53 56.9723 506.042C55.6683 515.003 41.8489 521.125 36.9443 522.463C35.8168 522.771 34.7817 521.336 34.0755 519.242C29.0418 504.324 32.9274 487.372 35.375 481.842C36.0391 480.342 37.2483 479.229 38.3435 478.671C39.4387 478.113 40.5951 478.257 42.0881 479.194C45.6716 481.442 48.7365 487.84 51.0277 496.138C53.1537 503.838 51.1771 510.566 49.3933 514.725C47.9418 518.109 40.4372 517.989 31.9707 517.679C24.2903 517.398 19.0058 512.553 16.3172 508.046C14.5618 505.103 16.3225 501.833 17.9213 498.83C22.5621 490.114 31.356 486.282 34.1499 486.556C38.3564 486.969 41.174 491.198 43.2876 493.89C45.6377 496.883 45.7121 501.698 44.8796 506.68C43.9521 512.229 39.5029 515.038 37.13 516.418C34.7769 517.786 32.2766 518.377 29.9266 518.378C27.5061 518.378 25.2118 516.473 23.0842 514.639C18.3682 510.572 18.9664 501.882 20.4314 497.232C22.2984 491.307 31.837 488.558 38.5358 485.51C41.1443 484.323 42.5437 484.858 44.2557 485.798C45.9677 486.738 48.0512 488.319 48.4316 490.465C44.6948 499.316 41.3194 502.969 39.5654 505.472C38.5397 506.962 37.2387 508.901 35.4561 512.213" stroke="#463448" stroke-width="3" stroke-linecap="round"/>
</svg>
