<svg width="39" height="433" viewBox="0 0 39 433" fill="none" xmlns="http://www.w3.org/2000/svg">
<path fill="none" d="M34.6211 21.1797C40.7802 11.3553 32.0548 4.31258 26.9222 2.0193C21.8062 1.28667 13.9988 0.917587 5.93861 3.81202C2.71669 4.96903 2.15329 9.08533 1.60244 12.3508C0.492255 18.9319 8.66079 24.7169 13.7649 28.367C16.0605 30.0086 17.9525 32.0117 20.1321 33.4603C24.69 36.4894 21.0575 45.7991 19.9475 52.7256C18.8958 59.2888 16.6507 65.0917 15.0835 70.8233C13.4121 76.936 13.1583 83.2713 12.2356 89.8268C10.6676 100.967 11.3184 116.739 11.0402 129.359C10.9773 132.213 10.7676 133.653 10.6739 162.496C10.5803 191.34 10.5803 247.543 11.6969 276.496C12.9719 309.555 17.708 319.373 17.8026 330.182C17.8628 337.059 16.0647 343.195 14.1367 349.66C12.3869 355.528 11.107 361.385 9.63622 367.302C8.07972 373.564 7.95863 379.642 5.78026 385.67C4.00748 393.173 0.993764 412.68 3.12109 430.68" stroke="#463448" stroke-width="3" stroke-linecap="round"/>
</svg>
