<svg width="62" height="526" viewBox="0 0 62 526" fill="none" xmlns="http://www.w3.org/2000/svg">
<path fill="none" d="M30.4557 4.52271C29.365 5.41226 25.3327 10.4973 22.4766 16.1334C20.8931 19.2582 21.8221 22.8716 22.7251 25.8643C24.8401 32.8739 32.7069 35.9553 38.534 37.9777C45.0762 40.2484 52.5342 32.3146 57.2728 29.0966C62.1031 25.8162 59.6489 17.6255 58.2846 10.6585C57.4753 6.52545 53.4295 4.4094 50.3778 2.9926C42.8844 -0.4863 29.737 2.76859 21.9718 6.10917C18.5752 7.57035 16.4593 11.8298 14.7159 15.8237C13.3643 18.9199 13.0915 32.4837 12.5682 53.0157C11.8505 81.1776 20.888 103.519 23.6296 114.522C25.9937 124.009 26.9806 136.386 30.6162 155.235C32.5811 165.423 33.3462 175.753 34.7382 184.46C36.4027 194.874 36.2998 206.947 36.7052 216.554C37.1057 226.047 39.016 234.211 39.6571 243.408C39.8325 245.924 40.2856 248.397 40.5014 266.355C40.7172 284.314 40.7172 317.68 40.6263 335.769C40.4942 362.066 39.0823 375.184 38.1686 382.746C36.9657 392.701 35.6898 399.209 33.7738 413.069C32.6772 421.001 31.9545 427.936 30.8528 434.587C29.8226 440.806 29.2002 447.403 28.374 453.32C27.465 459.829 26.0824 466.314 25.1597 472.506C24.1608 479.21 24.0553 494.412 25.051 506.058C25.6086 512.58 27.6836 516.711 29.7678 518.711C30.775 519.677 32.3921 519.63 33.8544 519.813C35.3166 519.996 36.757 520.176 38.2616 518.33C45.983 508.861 43.9541 496.096 41.8563 487.445C40.0495 479.995 28.8781 478.313 20.0919 476.344C13.351 474.834 7.74719 477.057 5.27386 479.321C-0.179839 484.314 1.66783 491.587 2.39621 497.414C3.17542 503.647 5.66166 509.777 8.92984 515.146C11.2932 519.028 15.117 521.251 17.8368 522.795C20.654 524.394 24.0267 523.988 26.8393 523.349C32.3975 522.087 36.3793 515.202 41.8462 506.584C44.5757 502.281 44.4106 497.394 44.1379 493.552C43.655 486.747 37.4623 482.368 32.053 479.361C29.4851 477.933 26.0601 478.352 22.772 478.706C15.3499 479.507 13.0477 488.142 11.8829 494.181C10.3276 502.244 14.5311 508.915 17.7147 514.742C19.4789 517.971 22.7152 519.669 25.6178 520.577C28.4369 521.459 32.3451 521.311 36.5217 520.856C39.8851 520.49 41.8168 517.466 43.4509 514.998C47.1119 509.469 45.827 499.561 41.4107 487.557C39.9049 483.464 36.7674 481.716 34.2094 480.158C31.2793 478.372 27.4311 478.769 24.1395 479.22C16.8019 480.223 14.4117 490.38 11.8337 498.561C10.735 502.048 12.3594 506.028 14.4436 510.112C16.4481 514.039 19.9924 516.045 22.9851 517.226C25.9958 518.415 29.2677 517.871 31.9903 517.141C37.883 515.562 40.3653 507.805 41.4647 501.658C42.5168 495.775 38.9062 489.825 34.0486 484.22C31.4385 481.209 25.2782 481.172 19.4001 481.622C17.0061 481.806 15.9509 482.973 15.0255 484.247C10.9993 489.789 10.2441 496.602 10.5925 502.429C10.95 508.409 16.5696 513.156 21.8538 516.988C24.3936 518.262 26.9524 519.539 31.6615 520.191C35.1102 520.124 34.8954 514.555 40.6639 514.742" stroke="#463448" stroke-width="3" stroke-linecap="round"/>
</svg>
