<svg width="52" height="507" viewBox="0 0 52 507" fill="none" xmlns="http://www.w3.org/2000/svg">
<path fill="none" d="M33.4351 29.4179C31.5303 25.9015 27.9996 21.4919 24.8264 16.1949C23.2147 13.5045 23.1215 10.4522 23.1172 7.8123C23.115 6.47424 23.6925 5.16965 24.8854 4.09481C30.3637 -0.841421 39.4385 2.40368 45.0719 4.51731C47.7956 5.5392 49.0275 8.45749 49.6115 10.9324C50.2464 13.6226 49.0278 16.3422 47.7077 18.7449C43.005 27.3038 28.8043 30.0938 23.8502 38.1478C21.8099 41.4647 20.3032 44.2484 18.5108 49.7732C14.9846 60.6414 14.1023 77.7496 13.9953 95.4501C13.8557 118.529 17.428 129.391 19.8943 135.802C23.4579 145.066 26.4539 159.551 29.1307 171.573C32.6203 187.246 34.0643 204.47 35.707 222.225C38.3454 250.743 36.0514 269.436 35.5812 272.343C33.9723 282.287 31.1738 292.264 27.6042 301.023C20.9876 317.259 15.4086 330.089 10.6264 343.247C6.96166 353.33 6.17587 359.211 5.11343 364.697C3.9761 370.569 3.76353 376.306 3.0689 381.584C2.32684 387.222 2.00985 394.313 1.64278 402.333C0.923227 418.056 3.0219 426.357 5.72381 439.576C7.23068 446.949 8.31056 453.265 10.0649 458.815C11.8767 464.546 14.0051 469.472 16.9947 474.806C19.899 479.986 23.3441 485.391 26.3403 489.776C27.0779 490.855 28.0136 491.672 29.1832 492.118C30.3528 492.564 31.7983 492.563 33.2956 491.984C36.5303 490.733 39.1501 486.726 41.1213 482.612C41.9446 480.893 41.7915 479.662 41.5726 478.551C41.1416 476.366 38.6023 474.148 35.0971 472.113C32.305 470.492 27.0708 470.571 21.0234 471.613C16.3296 472.422 15.9459 478.041 15.7927 480.516C15.7108 481.839 16.5097 483.28 17.3135 484.242C20.1604 487.647 27.992 485.619 33.4765 486.707C34.6635 486.942 35.8069 487.29 36.8363 487.074C37.8657 486.858 38.733 486.128 39.0339 483.673C40.5289 471.472 35.6578 463.309 32.5132 458.078C30.0687 454.011 21.2182 456.29 15.1716 457.676C11.8108 458.447 9.1313 460.521 6.98368 463.726C0.295445 473.708 2.09982 481.166 2.16839 487.81C2.20295 491.16 4.92409 494.478 7.6054 497.558C12.1426 502.771 20.2239 501.766 25.1278 500.739C30.0814 499.701 33.8119 494.556 38.8516 488.75C42.9796 483.995 43.0283 477.935 42.9583 468.903C42.93 465.24 40.6857 462.493 38.4115 460.145C34.7569 456.37 29.3759 455.713 22.8375 455.629C17.4077 455.56 13.1738 459.842 8.82897 463.852C4.65798 467.702 4.7674 474.866 4.83387 481.511C4.89354 487.478 8.60809 493.337 16.5066 501.118C19.4191 503.987 22.1115 504.842 24.3995 505.207C28.745 505.901 33.0975 502.901 38.3433 498.497C44.1763 493.6 44.1276 479.928 42.8883 472.123C42.3303 468.608 40.6265 465.8 39.2312 463.892C36.3412 459.94 30.8104 459.463 25.9723 458.407C20.2347 457.155 16.3145 462.147 12.6315 465.364C10.6849 467.065 9.38241 469.309 8.49791 471.781C5.88933 479.074 11.2547 486.817 14.0253 491.351C16.9059 496.064 23.1926 497.033 27.809 498.604C29.0903 499.04 30.6627 498.506 31.8718 497.813C34.2898 496.426 35.2755 493.732 36.0048 491.604C37.8946 486.092 35.4265 478.169 31.0849 471.04C29.3936 468.262 27.6159 466.398 25.0085 465.548C23.0778 464.919 19.5393 467.106 17.2354 470.206C8.17102 482.401 11.4686 492.869 13.0594 498.96C13.9058 502.2 17.5866 503.281 20.0836 504.082C23.393 505.145 27.2176 505.037 30.7131 504.527C37.6952 503.506 39.7806 496.966 42.2665 491.572C44.8828 485.896 42.1289 476.607 40.4075 471.369C38.6498 466.02 32.355 462.13 27.7564 460.27C22.6863 458.22 17.6807 459.895 15.6135 460.62C12.7012 464.411 11.0205 468.698 8.3399 472.142C7.04366 473.647 5.8775 474.659 4.676 475.701" stroke="#463448" stroke-width="3" stroke-linecap="round"/>
</svg>
