<svg width="29" height="454" viewBox="0 0 29 454" fill="none" xmlns="http://www.w3.org/2000/svg">
<path fill="none" d="M26.9222 2.0193C21.8062 1.28666 13.9988 0.917593 5.93861 3.81203C2.71669 4.96903 2.15329 9.08531 1.60244 12.3508C0.492255 18.9319 8.66079 24.7169 13.7649 28.367C16.0605 30.0086 17.9525 32.0117 20.1321 33.4602C24.69 36.4893 21.0575 45.7991 19.9475 52.7256C18.8958 59.2888 16.6507 65.0917 15.0835 70.8233C13.4121 76.936 13.1583 83.2713 12.2356 89.8268C10.6676 100.967 11.3184 116.739 11.0402 129.359C10.9773 132.213 10.7676 133.653 10.6739 162.496C10.5803 191.34 10.5803 247.543 11.6969 276.496C12.9719 309.555 17.708 319.373 17.8026 330.182C17.8628 337.059 16.0647 343.195 14.1367 349.66C12.3869 355.528 11.107 361.385 9.63622 367.302C8.07972 373.564 7.06374 379.39 5.78026 385.67C4.5671 391.606 3.75863 397.755 3.11413 404.488C2.19404 414.1 2.46964 422.831 4.09827 429.414C5.45443 434.895 7.73473 438.697 9.81894 440.514C10.87 441.431 12.4433 441.611 13.8155 441.524C16.5175 441.352 19.0069 439.057 21.1866 436.402C23.2109 433.936 23.2026 430.612 22.6573 427.773C22.3765 426.311 21.0213 425.115 19.7323 424.368C17.2261 422.917 13.2436 423.518 9.20341 424.189C6.04013 424.715 3.92152 426.953 2.54439 429.583C0.0432391 434.359 6.2446 439.671 12.1426 444.592C15.3234 447.246 19.8847 444.607 22.6973 443.051C24.1001 442.275 25.3299 441.313 26.1592 440.118C27.8148 437.732 27.5379 434.336 26.9898 431.132C26.4572 428.02 24.4255 425.52 21.9567 423.595C19.345 421.558 15.4461 421.653 12.0574 421.923C9.11343 422.158 6.63922 424.19 4.3503 426.184C3.2235 427.166 2.60499 428.538 2.41046 429.908C1.56534 435.858 8.92688 440.367 14.5657 443.646C17.1215 445.133 18.0385 448.371 18.6741 451.637" stroke="#463448" stroke-width="3" stroke-linecap="round"/>
</svg>
