<svg preserveAspectRatio="none" width="100%" height="100%" overflow="visible" style="display: block;" viewBox="0 0 151.131 31.8871" fill="none" xmlns="http://www.w3.org/2000/svg">
<g id="Group 157626">
<path id="Vector" d="M98.3436 16.0083C98.3436 18.0794 98.3724 19.8054 98.4299 21.1861C98.4874 22.5381 98.6025 23.6168 98.7751 24.4223C98.9765 25.2277 99.2498 25.7887 99.5949 26.1051C99.9689 26.4215 100.458 26.5797 101.062 26.5797C101.666 26.5797 102.141 26.4215 102.486 26.1051C102.86 25.7887 103.133 25.2277 103.306 24.4223C103.507 23.6168 103.637 22.5381 103.694 21.1861C103.752 19.8054 103.78 18.0794 103.78 16.0083C103.78 13.9371 103.752 12.2255 103.694 10.8735C103.637 9.49277 103.507 8.39966 103.306 7.59421C103.133 6.78877 102.86 6.22783 102.486 5.91141C102.141 5.59498 101.666 5.43677 101.062 5.43677C100.458 5.43677 99.9689 5.59498 99.5949 5.91141C99.2498 6.22783 98.9765 6.78877 98.7751 7.59421C98.6025 8.39966 98.4874 9.49277 98.4299 10.8735C98.3724 12.2255 98.3436 13.9371 98.3436 16.0083ZM90.059 16.0083C90.059 13.1317 90.246 10.6866 90.62 8.67294C90.9939 6.63055 91.6124 4.97651 92.4754 3.71081C93.3383 2.41634 94.4746 1.48145 95.8841 0.906129C97.2937 0.302043 99.0196 4.83706e-07 101.062 4.83706e-07C103.104 4.83706e-07 104.83 0.302043 106.24 0.906129C107.649 1.48145 108.786 2.41634 109.649 3.71081C110.512 4.97651 111.13 6.63055 111.504 8.67294C111.878 10.6866 112.065 13.1317 112.065 16.0083C112.065 18.8849 111.878 21.3443 111.504 23.3867C111.13 25.4003 110.512 27.0544 109.649 28.3489C108.786 29.6146 107.649 30.5207 106.24 31.0672C104.83 31.6138 103.104 31.8871 101.062 31.8871C99.0196 31.8871 97.2937 31.6138 95.8841 31.0672C94.4746 30.5207 93.3383 29.6146 92.4754 28.3489C91.6124 27.0544 90.9939 25.4003 90.62 23.3867C90.246 21.3443 90.059 18.8849 90.059 16.0083Z" fill="#534755"/>
<path id="Vector_2" d="M137.41 16.0083C137.41 18.0794 137.438 19.8054 137.496 21.1861C137.553 22.5381 137.668 23.6168 137.841 24.4223C138.042 25.2277 138.316 25.7887 138.661 26.1051C139.035 26.4215 139.524 26.5797 140.128 26.5797C140.732 26.5797 141.207 26.4215 141.552 26.1051C141.926 25.7887 142.199 25.2277 142.372 24.4223C142.573 23.6168 142.703 22.5381 142.76 21.1861C142.818 19.8054 142.846 18.0794 142.846 16.0083C142.846 13.9371 142.818 12.2255 142.76 10.8735C142.703 9.49277 142.573 8.39966 142.372 7.59421C142.199 6.78877 141.926 6.22783 141.552 5.91141C141.207 5.59498 140.732 5.43677 140.128 5.43677C139.524 5.43677 139.035 5.59498 138.661 5.91141C138.316 6.22783 138.042 6.78877 137.841 7.59421C137.668 8.39966 137.553 9.49277 137.496 10.8735C137.438 12.2255 137.41 13.9371 137.41 16.0083ZM129.125 16.0083C129.125 13.1317 129.312 10.6866 129.686 8.67294C130.06 6.63055 130.678 4.97651 131.541 3.71081C132.404 2.41634 133.541 1.48145 134.95 0.906129C136.36 0.302043 138.086 4.83706e-07 140.128 4.83706e-07C142.17 4.83706e-07 143.896 0.302043 145.306 0.906129C146.715 1.48145 147.852 2.41634 148.715 3.71081C149.578 4.97651 150.196 6.63055 150.57 8.67294C150.944 10.6866 151.131 13.1317 151.131 16.0083C151.131 18.8849 150.944 21.3443 150.57 23.3867C150.196 25.4003 149.578 27.0544 148.715 28.3489C147.852 29.6146 146.715 30.5207 145.306 31.0672C143.896 31.6138 142.17 31.8871 140.128 31.8871C138.086 31.8871 136.36 31.6138 134.95 31.0672C133.541 30.5207 132.404 29.6146 131.541 28.3489C130.678 27.0544 130.06 25.4003 129.686 23.3867C129.312 21.3443 129.125 18.8849 129.125 16.0083Z" fill="#534755"/>
<path id="Vector_3" d="M67.9224 0.590836H79.5726C81.9026 0.590836 83.7149 1.02233 85.0094 1.8853C86.3038 2.71952 87.2675 3.85577 87.9004 5.29407C88.562 6.7036 88.9647 8.34326 89.1085 10.213C89.2523 12.0541 89.3243 13.9814 89.3243 15.995C89.3243 18.0086 89.2523 19.9503 89.1085 21.8201C88.9647 23.6611 88.562 25.3008 87.9004 26.7391C87.2675 28.1486 86.3038 29.2849 85.0094 30.1479C83.7149 30.9821 81.9026 31.3992 79.5726 31.3992H67.9224V0.590836ZM75.9481 25.6172H77.5446C78.3213 25.6172 78.9398 25.5165 79.4 25.3152C79.8603 25.085 80.2055 24.6248 80.4356 23.9344C80.6945 23.244 80.8527 22.266 80.9102 21.0003C80.9965 19.7346 81.0397 18.0662 81.0397 15.995C81.0397 13.9239 80.9965 12.2554 80.9102 10.9897C80.8527 9.72403 80.6945 8.74599 80.4356 8.0556C80.2055 7.36522 79.8603 6.91935 79.4 6.71798C78.9398 6.48786 78.3213 6.37279 77.5446 6.37279H75.9481V25.6172Z" fill="#534755"/>
<path id="Vector_4" d="M53.0502 16.0083C53.0502 18.0794 53.0789 19.8054 53.1365 21.1861C53.194 22.5381 53.3091 23.6168 53.4817 24.4223C53.6831 25.2277 53.9563 25.7887 54.3015 26.1051C54.6755 26.4215 55.1645 26.5797 55.7686 26.5797C56.3727 26.5797 56.8473 26.4215 57.1925 26.1051C57.5664 25.7887 57.8397 25.2277 58.0123 24.4223C58.2137 23.6168 58.3431 22.5381 58.4007 21.1861C58.4582 19.8054 58.487 18.0794 58.487 16.0083C58.487 13.9371 58.4582 12.2255 58.4007 10.8735C58.3431 9.49277 58.2137 8.39966 58.0123 7.59421C57.8397 6.78877 57.5664 6.22783 57.1925 5.91141C56.8473 5.59498 56.3727 5.43677 55.7686 5.43677C55.1645 5.43677 54.6755 5.59498 54.3015 5.91141C53.9563 6.22783 53.6831 6.78877 53.4817 7.59421C53.3091 8.39966 53.194 9.49277 53.1365 10.8735C53.0789 12.2255 53.0502 13.9371 53.0502 16.0083ZM44.7656 16.0083C44.7656 13.1317 44.9526 10.6866 45.3265 8.67294C45.7005 6.63055 46.319 4.97651 47.1819 3.71081C48.0449 2.41634 49.1812 1.48145 50.5907 0.906129C52.0002 0.302043 53.7262 4.83706e-07 55.7686 4.83706e-07C57.811 4.83706e-07 59.5369 0.302043 60.9465 0.906129C62.356 1.48145 63.4922 2.41634 64.3552 3.71081C65.2182 4.97651 65.8367 6.63055 66.2106 8.67294C66.5846 10.6866 66.7716 13.1317 66.7716 16.0083C66.7716 18.8849 66.5846 21.3443 66.2106 23.3867C65.8367 25.4003 65.2182 27.0544 64.3552 28.3489C63.4922 29.6146 62.356 30.5207 60.9465 31.0672C59.5369 31.6138 57.811 31.8871 55.7686 31.8871C53.7262 31.8871 52.0002 31.6138 50.5907 31.0672C49.1812 30.5207 48.0449 29.6146 47.1819 28.3489C46.319 27.0544 45.7005 25.4003 45.3265 23.3867C44.9526 21.3443 44.7656 18.8849 44.7656 16.0083Z" fill="#534755"/>
<path id="Vector_5" d="M30.8989 25.6172H33.1427C33.8906 25.6172 34.5522 25.3152 35.1275 24.7111C35.7028 24.0782 35.9905 23.1146 35.9905 21.8201C35.9905 20.6119 35.7028 19.6914 35.1275 19.0586C34.5522 18.4257 33.8906 18.1093 33.1427 18.1093H30.8989V25.6172ZM30.8989 12.6725H32.8406C33.6748 12.6725 34.3077 12.3705 34.7392 11.7664C35.1706 11.1336 35.3864 10.4 35.3864 9.56581C35.3864 8.70284 35.1706 7.95492 34.7392 7.32207C34.3077 6.68922 33.6748 6.37279 32.8406 6.37279H30.8989V12.6725ZM22.8732 0.590836H34.998C37.8746 0.590836 39.9889 1.2956 41.3409 2.70513C42.7217 4.0859 43.4121 5.9413 43.4121 8.27135C43.4121 9.07679 43.3114 9.86786 43.11 10.6445C42.9375 11.3925 42.6498 12.0828 42.2471 12.7157C41.8731 13.3198 41.3841 13.8376 40.78 14.269C40.1759 14.7005 39.4424 15.0026 38.5794 15.1752V15.2615C39.5862 15.3478 40.4492 15.621 41.1683 16.0813C41.8875 16.5128 42.4772 17.0593 42.9375 17.721C43.3977 18.3826 43.7285 19.1161 43.9299 19.9216C44.16 20.6982 44.2751 21.4893 44.2751 22.2947C44.2751 23.618 44.1025 24.8405 43.7573 25.9624C43.4121 27.0843 42.8655 28.0479 42.1176 28.8534C41.3985 29.6588 40.4492 30.2917 39.2698 30.7519C38.0904 31.1834 36.6665 31.3992 34.998 31.3992H22.8732V0.590836Z" fill="#534755"/>
<path id="Vector_6" d="M8.28459 16.0083C8.28459 18.0794 8.31336 19.8054 8.37089 21.1861C8.42843 22.5381 8.5435 23.6168 8.71609 24.4223C8.91745 25.2277 9.19072 25.7887 9.53591 26.1051C9.90987 26.4215 10.3989 26.5797 11.003 26.5797C11.6071 26.5797 12.0817 26.4215 12.4269 26.1051C12.8008 25.7887 13.0741 25.2277 13.2467 24.4223C13.4481 23.6168 13.5775 22.5381 13.6351 21.1861C13.6926 19.8054 13.7214 18.0794 13.7214 16.0083C13.7214 13.9371 13.6926 12.2255 13.6351 10.8735C13.5775 9.49277 13.4481 8.39966 13.2467 7.59421C13.0741 6.78877 12.8008 6.22783 12.4269 5.91141C12.0817 5.59498 11.6071 5.43677 11.003 5.43677C10.3989 5.43677 9.90987 5.59498 9.53591 5.91141C9.19072 6.22783 8.91745 6.78877 8.71609 7.59421C8.5435 8.39966 8.42843 9.49277 8.37089 10.8735C8.31336 12.2255 8.28459 13.9371 8.28459 16.0083ZM0 16.0083C0 13.1317 0.186983 10.6866 0.560941 8.67294C0.934898 6.63055 1.55336 4.97651 2.41634 3.71081C3.27932 2.41634 4.41557 1.48145 5.8251 0.906129C7.23463 0.302043 8.96059 4.83706e-07 11.003 4.83706e-07C13.0454 4.83706e-07 14.7713 0.302043 16.1808 0.906129C17.5904 1.48145 18.7266 2.41634 19.5896 3.71081C20.4526 4.97651 21.0711 6.63055 21.445 8.67294C21.819 10.6866 22.006 13.1317 22.006 16.0083C22.006 18.8849 21.819 21.3443 21.445 23.3867C21.0711 25.4003 20.4526 27.0544 19.5896 28.3489C18.7266 29.6146 17.5904 30.5207 16.1808 31.0672C14.7713 31.6138 13.0454 31.8871 11.003 31.8871C8.96059 31.8871 7.23463 31.6138 5.8251 31.0672C4.41557 30.5207 3.27932 29.6146 2.41634 28.3489C1.55336 27.0544 0.934898 25.4003 0.560941 23.3867C0.186983 21.3443 0 18.8849 0 16.0083Z" fill="#534755"/>
<path id="Vector_7" d="M112.641 25.398H117.753V31.4229H112.641V25.398Z" fill="#534755"/>
<path id="Vector_8" d="M119.506 0.661736H127.524V31.4404H119.506V0.661736Z" fill="#534755"/>
</g>
</svg>
