<svg preserveAspectRatio="none" width="100%" height="100%" overflow="visible" style="display: block;" viewBox="0 0 178.78 36.1604" fill="none" xmlns="http://www.w3.org/2000/svg">
<g id="Group 157598">
<path id="Vector" d="M162.828 15.463H164.639C165.944 15.463 166.906 15.0879 167.526 14.3376C168.146 13.5547 168.455 12.5435 168.455 11.3039C168.455 9.83591 168.146 8.79203 167.526 8.17224C166.939 7.55244 165.96 7.24254 164.59 7.24254H162.828V15.463ZM153.727 0.685718H167.966C169.695 0.685718 171.163 0.914064 172.37 1.37076C173.61 1.82745 174.604 2.47987 175.355 3.32802C176.138 4.14354 176.692 5.12217 177.018 6.26391C177.377 7.40564 177.557 8.64524 177.557 9.9827C177.557 12.3314 177.084 14.2234 176.138 15.6588C175.192 17.0941 173.675 17.9748 171.587 18.3011V18.3989C173.773 18.5946 175.273 19.3612 176.089 20.6987C176.904 22.0362 177.312 23.8792 177.312 26.228V29.2128C177.312 29.6695 177.312 30.1425 177.312 30.6318C177.312 31.1211 177.328 31.5941 177.361 32.0508C177.394 32.4749 177.443 32.8663 177.508 33.2252C177.573 33.584 177.655 33.8613 177.752 34.057C177.883 34.2527 178.013 34.4484 178.144 34.6442C178.274 34.8073 178.486 34.9704 178.78 35.1335V35.6228H169.092C168.863 35.1661 168.684 34.6279 168.553 34.0081C168.455 33.3883 168.374 32.7685 168.309 32.1487C168.276 31.5289 168.243 30.9417 168.211 30.3871C168.211 29.8 168.211 29.327 168.211 28.9681V26.6194C168.211 25.6408 168.162 24.8253 168.064 24.1728C167.966 23.5204 167.787 23.0148 167.526 22.656C167.297 22.2645 166.987 22.0035 166.596 21.8731C166.237 21.7099 165.781 21.6284 165.226 21.6284H162.828V35.6228H153.727V0.685718Z" fill="#534755"/>
<path id="Vector_2" d="M132.008 0.685718H152.706V8.1233H141.109V14.0929H151.972V21.2369H141.109V28.1852H153.146V35.6228H132.008V0.685718Z" fill="#534755"/>
<path id="Vector_3" d="M106.582 0.685718H116.76L122.632 22.2156H122.73V0.685718H131.244V35.6228H121.262L115.194 14.044H115.096V35.6228H106.582V0.685718Z" fill="#534755"/>
<path id="Vector_4" d="M93.8878 16.6367H105.631V35.6221H99.466L99.2703 32.5394H99.1724C98.8788 33.2897 98.4548 33.9095 97.9002 34.3988C97.3783 34.8882 96.7748 35.2633 96.0897 35.5243C95.4373 35.7526 94.7197 35.9157 93.9368 36.0136C93.1865 36.1114 92.4199 36.1604 91.637 36.1604C89.3209 36.1604 87.4941 35.7852 86.1566 35.035C84.8192 34.252 83.8079 33.094 83.1229 31.5608C82.4379 30.0276 81.9975 28.1356 81.8017 25.8848C81.6386 23.6339 81.5571 21.0569 81.5571 18.1536C81.5571 15.2177 81.7202 12.6243 82.0464 10.3735C82.4052 8.12263 83.0577 6.23061 84.0037 4.69742C84.9823 3.16424 86.3198 2.00619 88.016 1.22329C89.7123 0.407763 91.8979 0 94.5729 0C96.1713 0 97.6392 0.212037 98.9767 0.63611C100.347 1.06018 101.521 1.74522 102.5 2.69123C103.478 3.63724 104.245 4.86053 104.8 6.36109C105.354 7.82904 105.631 9.62319 105.631 11.7436H96.8237C96.8237 9.88416 96.6606 8.53039 96.3344 7.68224C96.0082 6.67099 95.3068 6.16537 94.2303 6.16537C93.4801 6.16537 92.8766 6.34478 92.4199 6.70362C91.9958 7.06245 91.6696 7.69855 91.4412 8.61194C91.2455 9.52533 91.115 10.7649 91.0498 12.3307C90.9846 13.8639 90.9519 15.8049 90.9519 18.1536C90.9519 20.5023 90.9846 22.4596 91.0498 24.0254C91.115 25.5586 91.2455 26.7818 91.4412 27.6952C91.6696 28.6086 91.9795 29.2447 92.3709 29.6036C92.795 29.9624 93.3496 30.1418 94.0346 30.1418C94.5239 30.1418 94.948 30.0439 95.3068 29.8482C95.6983 29.6525 96.0245 29.2937 96.2855 28.7717C96.5464 28.2172 96.7422 27.4669 96.8726 26.5209C97.0357 25.5422 97.1173 24.3026 97.1173 22.8021H93.8878V16.6367Z" fill="#534755"/>
<path id="Vector_5" d="M71.8416 0.685718H80.9428V35.6228H71.8416V0.685718Z" fill="#534755"/>
<path id="Vector_6" d="M61.4598 10.7649V9.93309C61.4598 8.88922 61.2478 8.00845 60.8237 7.29079C60.3996 6.54051 59.7472 6.16537 58.8665 6.16537C57.8878 6.16537 57.1702 6.49158 56.7135 7.144C56.2568 7.7638 56.0284 8.46515 56.0284 9.24805C56.0284 10.3898 56.3873 11.3032 57.1049 11.9882C57.8552 12.6406 58.7849 13.2115 59.894 13.7008C61.0031 14.1901 62.1938 14.6958 63.466 15.2177C64.7382 15.707 65.9289 16.3594 67.038 17.175C68.1471 17.9905 69.0605 19.067 69.7782 20.4044C70.5285 21.7093 70.9036 23.4219 70.9036 25.5422C70.9036 29.261 69.8434 31.9686 67.7231 33.6649C65.6027 35.3285 62.5363 36.1604 58.5239 36.1604C56.6319 36.1604 54.9519 35.9973 53.484 35.6711C52.0487 35.3775 50.8254 34.8555 49.8141 34.1053C48.8355 33.3224 48.0852 32.3111 47.5633 31.0715C47.0413 29.8319 46.7804 28.2987 46.7804 26.4719V25.2487H55.5881V26.0805C55.5881 27.5811 55.8653 28.6412 56.4199 29.261C56.9744 29.8482 57.6921 30.1418 58.5729 30.1418C59.5189 30.1418 60.2365 29.8156 60.7259 29.1632C61.2478 28.5108 61.5088 27.7115 61.5088 26.7655C61.5088 25.6238 61.1499 24.7267 60.4323 24.0743C59.7472 23.3893 58.8665 22.8184 57.79 22.3617C56.7461 21.8724 55.6044 21.3831 54.3648 20.8937C53.1252 20.4044 51.9671 19.7683 50.8906 18.9854C49.8468 18.2025 48.966 17.175 48.2483 15.9027C47.5633 14.6305 47.2208 12.9668 47.2208 10.9117C47.2208 7.35604 48.1668 4.64849 50.0588 2.7891C51.9508 0.929699 54.8215 0 58.6707 0C62.6505 0 65.5211 0.864457 67.2827 2.59337C69.0768 4.28966 69.9739 7.01351 69.9739 10.7649H61.4598Z" fill="#534755"/>
<path id="Vector_7" d="M24.9529 0.685718H45.6509V8.1233H34.0542V14.0929H44.917V21.2369H34.0542V28.1852H46.0913V35.6228H24.9529V0.685718Z" fill="#534755"/>
<path id="Vector_8" d="M5.55324e-06 0.685718H13.2115C15.8538 0.685718 17.9089 1.17503 19.3769 2.15366C20.8448 3.09967 21.9376 4.3882 22.6553 6.01925C23.4056 7.61768 23.8623 9.47708 24.0254 11.5974C24.1885 13.6852 24.27 15.8708 24.27 18.1543C24.27 20.4377 24.1885 22.6396 24.0254 24.76C23.8623 26.8478 23.4056 28.7072 22.6553 30.3382C21.9376 31.9366 20.8448 33.2252 19.3769 34.2038C17.9089 35.1498 15.8538 35.6228 13.2115 35.6228H5.55324e-06V0.685718ZM9.10126 29.066H10.9117C11.7925 29.066 12.4938 28.9518 13.0158 28.7235C13.5377 28.4625 13.9292 27.9406 14.1901 27.1577C14.4837 26.3748 14.6631 25.2656 14.7284 23.8303C14.8262 22.395 14.8752 20.503 14.8752 18.1543C14.8752 15.8055 14.8262 13.9135 14.7284 12.4782C14.6631 11.0429 14.4837 9.93377 14.1901 9.15087C13.9292 8.36796 13.5377 7.86234 13.0158 7.63399C12.4938 7.37302 11.7925 7.24254 10.9117 7.24254H9.10126V29.066Z" fill="#534755"/>
</g>
</svg>
