<svg preserveAspectRatio="none" width="100%" height="100%" overflow="visible" style="display: block;" viewBox="0 0 222.74 13.5119" fill="none" xmlns="http://www.w3.org/2000/svg">
<g id="Group 157623">
<path id="Vector" d="M210.234 0.2571H215.098L216.469 7.99121H216.505L217.877 0.2571H222.74V13.3118H219.559V3.58478H219.522L217.712 13.3118H215.262L213.452 3.58478H213.415V13.3118H210.234V0.2571Z" fill="#534755"/>
<path id="Vector_2" d="M204.064 6.78335C204.064 7.66098 204.077 8.39234 204.101 8.97742C204.125 9.55032 204.174 10.0074 204.247 10.3487C204.333 10.69 204.448 10.9277 204.595 11.0618C204.753 11.1959 204.96 11.2629 205.216 11.2629C205.472 11.2629 205.673 11.1959 205.82 11.0618C205.978 10.9277 206.094 10.69 206.167 10.3487C206.252 10.0074 206.307 9.55032 206.332 8.97742C206.356 8.39234 206.368 7.66098 206.368 6.78335C206.368 5.90572 206.356 5.18046 206.332 4.60756C206.307 4.02247 206.252 3.55928 206.167 3.21798C206.094 2.87668 205.978 2.63898 205.82 2.5049C205.673 2.37082 205.472 2.30378 205.216 2.30378C204.96 2.30378 204.753 2.37082 204.595 2.5049C204.448 2.63898 204.333 2.87668 204.247 3.21798C204.174 3.55928 204.125 4.02247 204.101 4.60756C204.077 5.18046 204.064 5.90572 204.064 6.78335ZM200.554 6.78335C200.554 5.56442 200.633 4.52833 200.792 3.67508C200.95 2.80963 201.212 2.10875 201.578 1.57242C201.943 1.0239 202.425 0.627749 203.022 0.383964C203.619 0.127988 204.351 0 205.216 0C206.082 0 206.813 0.127988 207.41 0.383964C208.008 0.627749 208.489 1.0239 208.855 1.57242C209.22 2.10875 209.482 2.80963 209.641 3.67508C209.799 4.52833 209.879 5.56442 209.879 6.78335C209.879 8.00228 209.799 9.04447 209.641 9.90991C209.482 10.7632 209.22 11.464 208.855 12.0126C208.489 12.5489 208.008 12.9329 207.41 13.1645C206.813 13.396 206.082 13.5118 205.216 13.5118C204.351 13.5118 203.619 13.396 203.022 13.1645C202.425 12.9329 201.943 12.5489 201.578 12.0126C201.212 11.464 200.95 10.7632 200.792 9.90991C200.633 9.04447 200.554 8.00228 200.554 6.78335Z" fill="#534755"/>
<path id="Vector_3" d="M197.061 4.22359C197.061 3.48005 196.987 2.97419 196.841 2.70603C196.695 2.43786 196.457 2.30378 196.128 2.30378C195.872 2.30378 195.665 2.37082 195.506 2.5049C195.36 2.63898 195.244 2.87668 195.159 3.21798C195.086 3.55928 195.037 4.02247 195.013 4.60756C194.988 5.18046 194.976 5.90572 194.976 6.78335C194.976 7.66098 194.988 8.39234 195.013 8.97742C195.037 9.55032 195.086 10.0074 195.159 10.3487C195.244 10.69 195.36 10.9277 195.506 11.0618C195.665 11.1959 195.872 11.2629 196.128 11.2629C196.335 11.2629 196.506 11.2142 196.64 11.1166C196.774 11.0069 196.878 10.8302 196.951 10.5864C197.024 10.3426 197.073 10.0196 197.097 9.61736C197.134 9.20293 197.152 8.68488 197.152 8.06323H200.443V9.03228C200.443 9.94647 200.321 10.6961 200.077 11.2812C199.834 11.8663 199.511 12.3295 199.108 12.6708C198.706 12.9999 198.243 13.2193 197.719 13.329C197.207 13.4509 196.677 13.5118 196.128 13.5118C195.177 13.5118 194.397 13.396 193.788 13.1645C193.178 12.9329 192.703 12.5489 192.362 12.0126C192.02 11.464 191.783 10.7632 191.649 9.90991C191.527 9.04447 191.466 8.00228 191.466 6.78335C191.466 5.54004 191.539 4.48566 191.685 3.62022C191.844 2.75478 192.106 2.0539 192.471 1.51757C192.837 0.981239 193.319 0.597277 193.916 0.36568C194.513 0.121893 195.251 0 196.128 0C196.896 0 197.548 0.0975147 198.085 0.292544C198.621 0.487573 199.054 0.767927 199.383 1.13361C199.724 1.4871 199.968 1.91982 200.114 2.43177C200.273 2.93153 200.352 3.49833 200.352 4.13217V4.95495H197.061V4.22359Z" fill="#534755"/>
<path id="Vector_4" d="M188.197 9.68411H191.269V13.3043H188.197V9.68411Z" fill="#534755"/>
<path id="Vector_5" d="M180.426 0.2571H183.827V10.5327H188.014V13.3118H180.426V0.2571Z" fill="#534755"/>
<path id="Vector_6" d="M176.608 0.2571H180.009V13.3118H176.608V0.2571Z" fill="#534755"/>
<path id="Vector_7" d="M171.572 2.92656L170.639 8.4666H172.541L171.608 2.92656H171.572ZM173.729 0.2571L176.911 13.3118H173.291L172.943 11.0264H170.237L169.89 13.3118H166.324L169.451 0.2571H173.729Z" fill="#534755"/>
<path id="Vector_8" d="M154.058 0.2571H158.921L160.292 7.99121H160.329L161.7 0.2571H166.564V13.3118H163.382V3.58478H163.346L161.536 13.3118H159.086L157.276 3.58478H157.239V13.3118H154.058V0.2571Z" fill="#534755"/>
<path id="Vector_9" d="M149.476 6.21655H153.864V13.3107H151.56L151.487 12.1588H151.451C151.341 12.4392 151.182 12.6708 150.975 12.8536C150.78 13.0365 150.555 13.1766 150.299 13.2742C150.055 13.3595 149.787 13.4204 149.494 13.457C149.214 13.4936 148.927 13.5118 148.635 13.5118C147.769 13.5118 147.087 13.3717 146.587 13.0913C146.087 12.7988 145.709 12.3661 145.453 11.7932C145.197 11.2203 145.033 10.5133 144.96 9.67221C144.899 8.83115 144.868 7.8682 144.868 6.78335C144.868 5.68631 144.929 4.71726 145.051 3.8762C145.185 3.03514 145.429 2.32816 145.782 1.75526C146.148 1.18236 146.648 0.749643 147.282 0.457099C147.916 0.152366 148.732 0 149.732 0C150.329 0 150.878 0.0792306 151.377 0.237692C151.889 0.396153 152.328 0.652128 152.694 1.00562C153.059 1.35911 153.346 1.81621 153.553 2.37691C153.76 2.92543 153.864 3.59585 153.864 4.38815H150.573C150.573 3.69336 150.512 3.1875 150.39 2.87058C150.268 2.49271 150.006 2.30378 149.604 2.30378C149.323 2.30378 149.098 2.37082 148.927 2.5049C148.769 2.63898 148.647 2.87668 148.562 3.21798C148.488 3.55928 148.44 4.02247 148.415 4.60756C148.391 5.18046 148.379 5.90572 148.379 6.78335C148.379 7.66098 148.391 8.39234 148.415 8.97742C148.44 9.55032 148.488 10.0074 148.562 10.3487C148.647 10.69 148.763 10.9277 148.909 11.0618C149.067 11.1959 149.275 11.2629 149.531 11.2629C149.714 11.2629 149.872 11.2264 150.006 11.1532C150.152 11.0801 150.274 10.946 150.372 10.751C150.469 10.5438 150.542 10.2634 150.591 9.90991C150.652 9.54423 150.683 9.08103 150.683 8.52032H149.476V6.21655Z" fill="#534755"/>
<path id="Vector_10" d="M141.743 3.54709L141.011 7.405C140.987 7.53909 140.956 7.69145 140.92 7.8621C140.896 8.03275 140.883 8.16074 140.883 8.24607C140.883 8.51423 140.987 8.64831 141.194 8.64831C141.353 8.64831 141.523 8.59346 141.706 8.48376C141.889 8.37405 142.06 8.2095 142.218 7.99009C142.389 7.75849 142.529 7.45986 142.639 7.09418C142.748 6.7285 142.803 6.28968 142.803 5.77773C142.803 5.11951 142.681 4.54052 142.437 4.04076C142.206 3.5288 141.871 3.10218 141.432 2.76088C141.005 2.40739 140.493 2.13922 139.896 1.95638C139.311 1.77354 138.671 1.68212 137.976 1.68212C137.208 1.68212 136.513 1.81011 135.892 2.06609C135.27 2.30987 134.74 2.66336 134.301 3.12656C133.862 3.57756 133.521 4.11389 133.277 4.73555C133.046 5.3572 132.93 6.0459 132.93 6.80163C132.93 7.59394 133.058 8.30701 133.314 8.94086C133.582 9.56251 133.954 10.0927 134.429 10.5316C134.905 10.9704 135.471 11.3056 136.13 11.5372C136.788 11.7688 137.507 11.8846 138.287 11.8846C138.982 11.8846 139.622 11.7932 140.207 11.6103C140.804 11.4153 141.334 11.1471 141.798 10.8058H143.809C143.151 11.72 142.334 12.4026 141.359 12.8536C140.396 13.2924 139.177 13.5118 137.702 13.5118C136.763 13.5118 135.88 13.3412 135.051 12.9999C134.234 12.6586 133.515 12.1832 132.893 11.5737C132.284 10.9643 131.802 10.2512 131.449 9.43452C131.095 8.60565 130.919 7.72193 130.919 6.78335C130.919 5.84477 131.095 4.96714 131.449 4.15046C131.802 3.32159 132.284 2.60242 132.893 1.99295C133.515 1.3713 134.234 0.883725 135.051 0.530234C135.88 0.176745 136.763 0 137.702 0C138.604 0 139.463 0.127988 140.28 0.383964C141.097 0.639939 141.816 1.00562 142.437 1.481C143.059 1.95638 143.553 2.53538 143.918 3.21798C144.296 3.90058 144.485 4.66241 144.485 5.50347C144.485 6.2714 144.333 6.96619 144.028 7.58784C143.723 8.19731 143.34 8.71535 142.876 9.14198C142.425 9.55642 141.926 9.87943 141.377 10.111C140.828 10.3304 140.31 10.4401 139.823 10.4401C139.543 10.4401 139.305 10.3731 139.11 10.239C138.915 10.0927 138.799 9.89162 138.762 9.63565H138.689C138.482 9.87943 138.208 10.0745 137.867 10.2207C137.537 10.367 137.166 10.4401 136.751 10.4401C136.373 10.4401 136.008 10.367 135.654 10.2207C135.313 10.0623 135.008 9.84287 134.74 9.56251C134.484 9.28216 134.277 8.95305 134.118 8.57518C133.972 8.18512 133.899 7.7524 133.899 7.27702C133.899 6.74069 133.984 6.22264 134.155 5.72288C134.338 5.22312 134.588 4.77821 134.904 4.38815C135.234 3.99809 135.624 3.68727 136.075 3.45567C136.538 3.22407 137.05 3.10827 137.611 3.10827C138.074 3.10827 138.494 3.19969 138.872 3.38253C139.262 3.55318 139.61 3.83354 139.914 4.22359L140.061 3.54709H141.743ZM136.13 6.98447C136.13 7.37453 136.245 7.71583 136.477 8.00837C136.721 8.28873 137.044 8.42891 137.446 8.42891C137.726 8.42891 137.976 8.38015 138.196 8.28263C138.427 8.17293 138.622 8.03275 138.781 7.8621C138.951 7.69145 139.079 7.49642 139.165 7.27702C139.262 7.04542 139.311 6.80773 139.311 6.56394C139.311 6.13732 139.177 5.78992 138.909 5.52176C138.653 5.25359 138.305 5.11951 137.867 5.11951C137.623 5.11951 137.391 5.17436 137.172 5.28407C136.964 5.39377 136.782 5.54004 136.623 5.72288C136.477 5.89353 136.355 6.09465 136.258 6.32625C136.172 6.54566 136.13 6.76507 136.13 6.98447Z" fill="#534755"/>
<path id="Vector_11" d="M125.002 8.17405L121.729 0.2571H125.404L126.684 4.80981H126.721L128.001 0.2571H131.731L128.403 8.17405V13.3118H125.002V8.17405Z" fill="#534755"/>
<path id="Vector_12" d="M113.541 0.2571H118.478C119.465 0.2571 120.233 0.43994 120.781 0.80562C121.33 1.15911 121.738 1.64059 122.006 2.25005C122.287 2.84733 122.457 3.54212 122.518 4.33442C122.579 5.11454 122.61 5.93122 122.61 6.78447C122.61 7.63772 122.579 8.4605 122.518 9.25281C122.457 10.0329 122.287 10.7277 122.006 11.3372C121.738 11.9345 121.33 12.4159 120.781 12.7816C120.233 13.1351 119.465 13.3118 118.478 13.3118H113.541V0.2571ZM116.942 10.8618H117.618C117.947 10.8618 118.209 10.8191 118.404 10.7338C118.599 10.6363 118.746 10.4413 118.843 10.1487C118.953 9.85618 119.02 9.44174 119.044 8.90541C119.081 8.36908 119.099 7.6621 119.099 6.78447C119.099 5.90684 119.081 5.19986 119.044 4.66353C119.02 4.12721 118.953 3.71277 118.843 3.42023C118.746 3.12768 118.599 2.93875 118.404 2.85342C118.209 2.75591 117.947 2.70715 117.618 2.70715H116.942V10.8618Z" fill="#534755"/>
<path id="Vector_13" d="M107.172 5.77886H107.848C108.336 5.77886 108.696 5.63868 108.927 5.35832C109.159 5.06578 109.275 4.68791 109.275 4.22472C109.275 3.6762 109.159 3.28614 108.927 3.05455C108.708 2.82295 108.342 2.70715 107.83 2.70715H107.172V5.77886ZM103.771 0.2571H109.092C109.738 0.2571 110.286 0.342426 110.737 0.513076C111.201 0.683726 111.572 0.927512 111.853 1.24443C112.145 1.54917 112.352 1.91485 112.474 2.34147C112.608 2.7681 112.675 3.23129 112.675 3.73105C112.675 4.60868 112.499 5.31566 112.145 5.85199C111.792 6.38832 111.225 6.71743 110.445 6.83933V6.87589C111.261 6.94903 111.822 7.23548 112.127 7.73524C112.432 8.235 112.584 8.9237 112.584 9.80133V10.9166C112.584 11.0873 112.584 11.264 112.584 11.4469C112.584 11.6297 112.59 11.8065 112.602 11.9771C112.614 12.1356 112.633 12.2819 112.657 12.4159C112.681 12.55 112.712 12.6536 112.749 12.7268C112.797 12.7999 112.846 12.873 112.895 12.9462C112.944 13.0071 113.023 13.0681 113.133 13.129V13.3118H109.512C109.427 13.1412 109.36 12.9401 109.311 12.7085C109.275 12.4769 109.244 12.2453 109.22 12.0137C109.208 11.7821 109.195 11.5627 109.183 11.3555C109.183 11.1361 109.183 10.9593 109.183 10.8252V9.9476C109.183 9.58192 109.165 9.27719 109.128 9.0334C109.092 8.78961 109.025 8.60068 108.927 8.4666C108.842 8.32033 108.726 8.22281 108.58 8.17405C108.446 8.11311 108.275 8.08263 108.068 8.08263H107.172V13.3118H103.771V0.2571Z" fill="#534755"/>
<path id="Vector_14" d="M98.6022 2.92656L97.6697 8.4666H99.5712L98.6387 2.92656H98.6022ZM100.76 0.2571L103.941 13.3118H100.321L99.9735 11.0264H97.2674L96.9201 13.3118H93.3547L96.4812 0.2571H100.76Z" fill="#534755"/>
<path id="Vector_15" d="M84.5743 0.2571H87.9751V5.0475H90.0595V0.2571H93.4603V13.3118H90.0595V7.93636H87.9751V13.3118H84.5743V0.2571Z" fill="#534755"/>
<path id="Vector_16" d="M78.0578 8.17405L74.785 0.2571H78.4601L79.74 4.80981H79.7766L81.0564 0.2571H84.7864L81.4587 8.17405V13.3118H78.0578V8.17405Z" fill="#534755"/>
<path id="Vector_17" d="M62.5572 0.2571H67.4207L68.792 7.99121H68.8285L70.1998 0.2571H75.0634V13.3118H71.882V3.58478H71.8454L70.0353 13.3118H67.5852L65.7751 3.58478H65.7386V13.3118H62.5572V0.2571Z" fill="#534755"/>
<path id="Vector_18" d="M49.7645 0.2571H54.628L55.9993 7.99121H56.0358L57.4071 0.2571H62.2707V13.3118H59.0893V3.58478H59.0527L57.2426 13.3118H54.7925L52.9824 3.58478H52.9459V13.3118H49.7645V0.2571Z" fill="#534755"/>
<path id="Vector_19" d="M41.475 0.2571H49.2091V3.03626H44.8757V5.2669H48.9348V7.93636H44.8757V10.5327H49.3736V13.3118H41.475V0.2571Z" fill="#534755"/>
<path id="Vector_20" d="M32.0402 0.2571H36.9768C37.9642 0.2571 38.7321 0.43994 39.2806 0.80562C39.8291 1.15911 40.2375 1.64059 40.5056 2.25005C40.786 2.84733 40.9567 3.54212 41.0176 4.33442C41.0785 5.11454 41.109 5.93122 41.109 6.78447C41.109 7.63772 41.0785 8.4605 41.0176 9.25281C40.9567 10.0329 40.786 10.7277 40.5056 11.3372C40.2375 11.9345 39.8291 12.4159 39.2806 12.7816C38.7321 13.1351 37.9642 13.3118 36.9768 13.3118H32.0402V0.2571ZM35.441 10.8618H36.1175C36.4466 10.8618 36.7087 10.8191 36.9037 10.7338C37.0987 10.6363 37.245 10.4413 37.3425 10.1487C37.4522 9.85618 37.5193 9.44174 37.5436 8.90541C37.5802 8.36908 37.5985 7.6621 37.5985 6.78447C37.5985 5.90684 37.5802 5.19986 37.5436 4.66353C37.5193 4.12721 37.4522 3.71277 37.3425 3.42023C37.245 3.12768 37.0987 2.93875 36.9037 2.85342C36.7087 2.75591 36.4466 2.70715 36.1175 2.70715H35.441V10.8618Z" fill="#534755"/>
<path id="Vector_21" d="M19.1189 0.2571H23.9825L25.3538 7.99121H25.3903L26.7616 0.2571H31.6251V13.3118H28.4437V3.58478H28.4072L26.5971 13.3118H24.147L22.3369 3.58478H22.3003V13.3118H19.1189V0.2571Z" fill="#534755"/>
<path id="Vector_22" d="M13.7474 2.92656L12.8149 8.4666H14.7164L13.784 2.92656H13.7474ZM15.9049 0.2571L19.0863 13.3118H15.4661L15.1187 11.0264H12.4127L12.0653 13.3118H8.49989L11.6265 0.2571H15.9049Z" fill="#534755"/>
<path id="Vector_23" d="M5.48518 4.02247V3.71164C5.48518 3.32159 5.40595 2.99247 5.24749 2.72431C5.08903 2.44396 4.84525 2.30378 4.51614 2.30378C4.15046 2.30378 3.88228 2.42567 3.71163 2.66946C3.54098 2.90106 3.45566 3.16313 3.45566 3.45567C3.45566 3.88229 3.58975 4.2236 3.85792 4.47957C4.13827 4.72336 4.48565 4.93667 4.90009 5.11951C5.31452 5.30235 5.75943 5.49128 6.23481 5.68631C6.7102 5.86915 7.15511 6.11294 7.56954 6.41767C7.98398 6.7224 8.32529 7.12465 8.59345 7.62441C8.87381 8.11198 9.01399 8.75192 9.01399 9.54423C9.01399 10.9338 8.61784 11.9455 7.82553 12.5794C7.03323 13.201 5.88742 13.5118 4.38813 13.5118C3.68115 13.5118 3.0534 13.4509 2.50488 13.329C1.96855 13.2193 1.51146 13.0243 1.13359 12.7439C0.767908 12.4514 0.487561 12.0735 0.292533 11.6103C0.0975037 11.1471 0 10.5742 0 9.89162V9.43452H3.29111V9.74535C3.29111 10.3061 3.39471 10.7022 3.60193 10.9338C3.80914 11.1532 4.0773 11.2629 4.40641 11.2629C4.7599 11.2629 5.02809 11.141 5.21093 10.8972C5.40596 10.6535 5.50346 10.3548 5.50346 10.0013C5.50346 9.5747 5.36939 9.23949 5.10123 8.99571C4.84525 8.73973 4.51613 8.52642 4.11388 8.35577C3.72382 8.17293 3.2972 7.99009 2.834 7.80725C2.37081 7.62441 1.93809 7.38672 1.53584 7.09418C1.14579 6.80163 0.816663 6.41767 0.548499 5.94229C0.292523 5.4669 0.16455 4.84525 0.16455 4.07732C0.16455 2.74869 0.518048 1.73698 1.22503 1.04219C1.93201 0.347395 3.00464 0 4.44298 0C5.93008 0 7.00274 0.323017 7.66096 0.969051C8.33137 1.60289 8.66659 2.6207 8.66659 4.02247H5.48518Z" fill="#534755"/>
</g>
</svg>
