<svg width="59" height="446" viewBox="0 0 59 446" fill="none" xmlns="http://www.w3.org/2000/svg">
<path d="M23.3728 1.5C28.083 6.21011 41.1981 24.4248 45.826 37.4457C53.1603 58.0811 46.6279 94.1786 45.17 106.633C43.8964 117.513 38.216 131.806 34.4236 141.538C30.0599 152.737 24.2132 164.32 20.9548 172.054C16.4474 182.752 11.8793 194.633 8.13111 205.574C4.35555 216.595 1.94778 236.969 1.50671 261.772C1.19289 279.419 11.9489 300.839 21.0455 318.517C32.8236 341.407 48.2282 372.554 52.9687 387.37C55.5939 395.575 55.9194 402.612 56.6763 410.954C57.956 425.056 53.7554 434.556 50.9172 444.397" stroke="url(#paint0_linear_2811_21657)" stroke-width="3" stroke-linecap="round"/>
<defs>
<linearGradient id="paint0_linear_2811_21657" x1="-95.8014" y1="-25.5391" x2="-95.8014" y2="879.903" gradientUnits="userSpaceOnUse">
<stop stop-color="white" stop-opacity="0"/>
<stop offset="0.221154" stop-color="white"/>
</linearGradient>
</defs>
</svg>
