<svg width="60" height="61" viewBox="0 0 60 61" fill="none" xmlns="http://www.w3.org/2000/svg">
<path d="M17.6587 11.528C12.7098 12.6956 8.33244 14.3919 5.68353 15.6042C1.52482 17.5075 1.51077 23.2957 1.50001 30.9946C1.4911 37.3696 5.6762 42.7792 8.58736 47.7278C11.8562 53.2843 17.9696 56.8566 22.6344 58.0811C28.5908 59.6446 33.3769 56.8599 37.3037 55.2921C41.29 53.7005 44.462 50.3223 48.1841 47.4548C51.9618 44.5444 54.0632 40.0967 56.2993 36.1353C58.4306 32.3595 57.9961 27.1481 57.1815 22.6507C56.3886 18.2732 53.6406 14.3347 49.2816 9.14611C46.2029 5.48148 41.3785 4.09524 36.6101 2.38137C28.511 -0.529636 24.2 4.45935 20.3103 7.36443C16.0275 10.5631 12.7364 14.5876 10.2107 18.3766C7.73769 22.0865 7.81599 27.0189 7.87751 34.0413C7.92091 38.996 11.1799 42.564 13.6796 46.5537C17.2364 52.2308 23.0598 55.5386 27.5948 58.1186C32.0078 60.6293 37.5264 56.2221 43.6711 52.542C48.2754 49.7844 51.5795 45.5922 54.3629 41.8402C56.9186 38.3953 58.2208 34.2761 58.156 27.6739C58.0983 21.7908 54.4125 18.1916 51.8193 14.2992C49.1201 10.248 44.211 7.27392 38.1827 5.32458C35.018 4.30121 32.184 3.93085 30.0757 4.13155C25.5566 4.56175 21.5749 8.65035 17.1479 11.6892C13.1028 14.466 10.6651 18.3732 8.88235 22.5656C7.12788 26.6915 9.54003 31.8829 11.1639 36.6207C12.5771 40.7438 16.5544 45.3927 20.4812 49.2627C23.7973 52.5309 28.7181 53.1207 34.6208 54.0694C38.6241 54.7129 42.809 53.3968 46.1824 51.831C51.2475 49.48 53.359 44.1433 55.0538 39.5838C56.6828 35.2011 56.0729 30.128 54.2376 23.8642C52.6988 18.6123 48.0453 15.5444 44.7603 12.2614C41.4649 8.96806 36.1741 7.61933 31.4624 6.79449C27.2218 6.0521 23.0838 8.13464 17.2925 10.2937C11.9721 12.2772 7.41911 15.4247 4.81562 19.7449C3.44276 22.0229 3.17002 26.0097 3.50452 30.7482C3.98077 37.4945 11.5062 43.5363 16.1993 47.8301C19.4528 50.8067 24.7646 52.359 29.9118 52.8395C32.3362 53.0658 34.7834 53.1781 37.0762 52.9754C42.6571 52.4822 47.333 44.6343 50.1693 40.9611C53.2975 36.91 53.0176 30.1625 51.6606 24.9593C50.5573 20.7292 45.1317 17.203 41.5089 13.9124C38.3845 11.0745 33.2657 11.1799 27.7482 10.7978C21.9185 10.394 17.5668 14.1073 15.5299 15.2527C11.2144 17.6796 10.3372 24.6329 9.37933 30.5153C8.57895 35.4305 12.0621 40.3376 14.9733 44.4063C16.2223 46.1519 18.5534 47.652 22.4307 49.3407C28.6833 52.0641 34.643 49.5566 36.9359 48.1981C41.0247 45.7754 43.6968 41.7976 45.688 36.6254C46.7005 33.9956 46.7382 31.4114 46.7383 29.168C46.7385 24.094 41.0251 20.6489 30.6743 15.3204C28.4182 14.159 27.4358 13.8337 25.9716 14.5217C22.1465 16.3188 19.4589 19.6536 17.5591 21.3383C14.0658 24.436 15.0974 30.9901 15.1536 35.3913C15.2113 39.9144 20.4792 42.4888 24.5338 44.2546C28.6736 46.0575 33.5835 45.2054 37.8469 43.8484C40.0448 43.1488 41.571 41.1201 43.2203 38.7212C45.6489 35.1889 45.8247 30.4891 45.622 27.1534C45.3057 21.9463 38.3818 18.1042 34.1575 16.1929C32.2006 15.3074 29.8552 15.3721 27.6118 15.0965C22.5035 14.4691 17.7518 20.7432 14.8058 25.4161C12.2393 29.4869 13.6325 34.3989 15.1813 38.3258C16.995 42.9242 23.4688 45.8895 28.8188 48.2006C32.0984 49.6174 35.7081 48.2062 38.4192 47.0551C45.3456 44.1145 47.8421 37.1924 49.8167 32.3474C51.2246 28.8929 49.6182 25.3191 48.734 23.2108C46.9833 19.0365 42.4013 16.4551 38.5084 13.5856C36.6867 12.2428 32.5914 12.4844 27.5653 12.9527C19.643 13.6908 16.5157 20.034 13.6441 24.1575C10.1991 29.1043 11.1778 35.5357 13.0838 41.1548C14.882 46.4557 19.7293 48.7592 24.1224 51.194C29.5282 54.19 35.9773 51.1434 39.8372 48.6893C43.4476 46.3938 44.7756 41.617 45.5926 36.9223C46.4691 31.8857 44.6411 25.8278 42.5984 21.8618C40.6443 18.0678 34.9773 17.7581 30.142 16.1923C28.9868 15.8182 27.8973 15.7113 26.6703 16.1377C21.2322 18.0273 19.1925 23.419 17.8887 28.2237C17.2989 30.3971 17.4077 32.7567 17.7422 35.1833C18.4912 40.6166 24.5518 43.1647 28.6978 44.4131C31.6159 45.2917 35.207 42.2363 38.4784 40.549C46.5477 36.3873 41.8015 19.7246 40.6478 17.819C39.4658 15.8667 36.6271 15.7606 33.9559 16.1818C26.0238 17.4327 24.0994 23.3261 22.8733 25.1446C19.8837 29.5785 25.8258 35.0843 27.7131 36.5014C28.6184 37.181 29.6005 37.5171 31.1534 36.9159C35.1709 35.3606 37.588 31.9533 38.4658 29.7761C39.2987 27.7104 38.5397 25.1399 37.2482 22.6242C36.6142 21.3893 35.5515 20.5112 33.8949 20.4615C22.9907 20.1344 14.1833 32.5769 11.649 36.8402C10.9244 38.0592 12.5066 40.2643 13.3884 41.6996C14.2703 43.1349 15.2069 43.9377 17.0274 44.4182C21.4154 45.5763 26.9338 43.1672 31.3547 39.6593C36.1882 35.824 37.3151 30.3891 37.118 26.1588C37.0124 23.8921 33.781 23.1473 31.7848 22.8324C29.5239 22.4757 27.6289 24.9401 26.0677 26.6248C24.4963 28.3204 23.6755 30.4787 23.3331 32.6357C23.1623 33.7112 23.3946 34.7927 23.9318 35.8793C24.469 36.9659 25.4056 38.0363 26.8247 38.6547C28.2438 39.273 30.117 39.4068 31.6841 38.9354C37.2667 37.256 38.2586 32.872 38.9344 30.8333C39.2812 29.7872 38.8048 28.5283 38.1253 27.4987C37.4458 26.4691 36.3651 25.6586 35.268 25.1735C33.1971 24.2578 29.1786 25.6106 24.1978 28.2263C19.9909 30.4355 18.6009 33.8419 18.1876 35.7962C17.977 36.7919 18.5809 37.8843 19.256 38.7033C22.0472 42.0897 27.4847 42.766 32.2224 42.1595C36.7086 41.5853 39.3889 35.3001 41.0877 29.7802C41.4762 28.5178 41.2945 27.395 40.9568 26.3655C40.6191 25.336 39.9436 24.3904 38.0686 23.8357C33.2957 22.4238 28.473 23.7645 25.6987 25.2472C24.4206 25.9302 23.4995 26.641 22.9455 27.5878C22.3915 28.5345 22.2564 29.7387 22.722 30.6266C23.6945 32.4811 26.2975 33.0013 28.118 33.2029C30.0708 33.4192 31.167 30.4171 31.7077 29.4527C31.7179 29.4345 31.1729 30.3653 31.3629 30.5757C31.5528 30.786 32.4894 30.2457 32.7049 30.5945C32.9205 30.9433 32.3866 32.1977 32.9027 32.7114C33.4189 33.2251 35.0014 32.96 35.6126 32.2838C36.2239 31.6076 35.8161 30.5282 35.0663 30.3729C34.3165 30.2176 33.2371 31.0191 32.3793 32.0617C31.5216 33.1044 30.9182 34.3639 31.1033 35.1466C31.2884 35.9292 32.2804 36.1968 33.3266 36.1996C34.3728 36.2023 35.4432 35.9322 36.5298 35.1201C38.9737 33.2937 40.0572 30.1748 40.4627 27.3515C40.6658 25.9371 40.6005 24.5282 40.0602 23.939" stroke="url(#paint0_linear_2811_21631)" stroke-width="3" stroke-linecap="round"/>
<defs>
<linearGradient id="paint0_linear_2811_21631" x1="29.8292" y1="-422.289" x2="29.8292" y2="475.806" gradientUnits="userSpaceOnUse">
<stop stop-color="white" stop-opacity="0"/>
<stop offset="0.221154" stop-color="white"/>
</linearGradient>
</defs>
</svg>
