<svg width="19" height="434" viewBox="0 0 19 434" fill="none" xmlns="http://www.w3.org/2000/svg">
<path d="M10.5607 1.5C8.97891 6.20477 6.14731 15.6769 5.16339 21.7758C3.74548 30.5648 2.66693 41.8436 2.01598 57.887C0.805586 87.7185 2.05744 111.505 2.40965 117.964C2.79959 125.115 3.29151 139.317 4.11831 149.568C4.36847 152.67 6.1801 167.074 9.10333 187.426C12.3058 209.723 12.6727 236.362 13.2665 248.725C14.1385 266.879 14.4082 280.271 14.7978 288.275C15.6629 306.05 15.1874 320.063 15.577 325.928C16.125 334.179 15.9665 340.599 16.3561 355.585C16.7055 369.024 16.4886 394.324 16.3592 408.004C16.2298 421.683 15.971 422.979 15.8376 424.87C15.7043 426.761 15.7043 429.208 15.7043 431.729" stroke="url(#paint0_linear_2820_23695)" stroke-width="3" stroke-linecap="round"/>
<defs>
<linearGradient id="paint0_linear_2820_23695" x1="-69.5473" y1="7.31987" x2="-69.5473" y2="902.368" gradientUnits="userSpaceOnUse">
<stop stop-color="white" stop-opacity="0"/>
<stop offset="0.221154" stop-color="white"/>
</linearGradient>
</defs>
</svg>
