<svg width="85" height="540" viewBox="0 0 85 540" fill="none" xmlns="http://www.w3.org/2000/svg">
<path fill="none" d="M37.9222 1.5C21.5415 8.89509 16.1093 16.8757 14.8511 21.2604C12.2202 30.4284 27.7963 40.3771 34.2459 53.8028C41.216 68.3121 40.6636 80.9686 35.4811 104.026C32.2096 118.581 23.5595 133.234 18.6568 144.719C11.2179 162.146 9.03456 178.71 6.259 194.209C2.61296 214.568 1.59389 227.417 1.5005 241.302C1.40558 255.416 14.8704 283.706 24.2396 305C31.7598 322.092 42.2225 349.597 54.6533 376.931C69.2982 409.133 71.8495 431.426 76.177 446.845C80.5939 462.582 80.1031 474.079 81.5643 484.966C82.3987 491.103 82.8633 506.25 82.4006 525.39C81.9378 532.718 81.0122 535.205 80.0586 537.767" stroke="currentColor" stroke-width="3" stroke-linecap="round"/>
</svg>
