<svg width="66" height="457" viewBox="0 0 66 457" fill="none" xmlns="http://www.w3.org/2000/svg">
<path fill="none" d="M59.694 1.5C54.9363 4.19315 42.0199 15.6466 29.122 30.137C14.5038 46.5602 8.6526 83.1594 3.42105 104.612C0.744926 115.586 1.18939 155.46 2.78265 183.078C3.88607 202.204 12.7975 214.021 20.5773 229.576C28.8348 246.086 37.0055 257.864 43.3431 271.1C49.3139 283.569 54.4359 295.562 60.1044 313.391C65.565 330.565 65.5767 373.855 60.4418 414.754C59.1397 425.125 54.4893 432.165 49.7705 440.014C43.7891 449.963 34.3093 454.593 27.8132 455.343C24.841 455.686 22.4521 454.251 19.8784 452.209" stroke="currentColor" stroke-width="3" stroke-linecap="round"/>
</svg>
