<svg width="34" height="460" viewBox="0 0 34 460" fill="none" xmlns="http://www.w3.org/2000/svg">
<path d="M31.8217 1.5C29.7937 4.00145 25.2095 12.5822 21.3791 22.0498C16.0042 35.3352 12.1276 47.0398 7.33673 62.6658C4.26874 72.6724 4.22701 101.929 5.91946 122.345C7.21171 137.934 9.37482 147.567 10.7034 156.969C12.1461 167.178 13.5 180.707 20.1458 213.187C22.9149 226.721 23.9474 236.61 25.0844 248.48C26.1155 259.244 26.9794 275.243 26.1203 286.381C24.8984 302.222 24.4872 322.685 24.1007 332.926C23.6293 345.418 22.4515 362.602 20.2818 372.093C17.9764 382.177 15.5637 391.165 12.6326 399.135C9.64074 407.271 5.10969 414.921 2.9324 422.884C0.610326 431.376 1.26785 439.677 3.78067 447.144C5.21989 451.42 8.33256 454.861 10.9742 457.764" stroke="url(#paint0_linear_2811_21651)" stroke-width="3" stroke-linecap="round"/>
<defs>
<linearGradient id="paint0_linear_2811_21651" x1="-163.258" y1="86.7656" x2="-163.258" y2="975.24" gradientUnits="userSpaceOnUse">
<stop stop-color="white" stop-opacity="0"/>
<stop offset="0.221154" stop-color="white"/>
</linearGradient>
</defs>
</svg>
