<svg width="49" height="458" viewBox="0 0 49 458" fill="none" xmlns="http://www.w3.org/2000/svg">
<path d="M7.53899 1.5C4.49179 13.5224 10.4233 21.9626 13.8306 31.0626C17.9375 42.031 21.5358 52.7836 25.4973 62.6554C29.0235 71.4428 32.0975 80.6124 37.2659 97.8551C41.6669 112.538 42.6996 132.868 44.4699 148.513C46.222 163.999 45.732 188.164 46.6189 201.516C47.5514 215.555 46.4952 232.82 45.86 247.292C45.4176 257.369 42.9702 270.645 35.7681 301.91C30.68 323.998 20.1332 358.094 14.7732 377.614C6.02512 409.473 4.05611 424.415 3.03443 432.769C2.77805 434.8 2.5255 436.801 2.3954 440.083C2.2653 443.366 2.2653 447.868 1.5 455.539" stroke="url(#paint0_linear_2811_21649)" stroke-width="3" stroke-linecap="round"/>
<defs>
<linearGradient id="paint0_linear_2811_21649" x1="136.43" y1="-473.5" x2="136.43" y2="414.974" gradientUnits="userSpaceOnUse">
<stop stop-color="white" stop-opacity="0"/>
<stop offset="0.221154" stop-color="white"/>
</linearGradient>
</defs>
</svg>
