<svg width="59" height="45" viewBox="0 0 59 45" fill="none" xmlns="http://www.w3.org/2000/svg">
<path d="M48.5978 11.4964C48.1721 9.95911 46.8808 8.88138 44.101 8.73161C27.7303 7.84956 16.3461 15.3584 13.0729 16.8594C10.1157 18.2155 10.9424 23.7498 12.2111 28.9978C12.9548 32.0741 16.0173 35.2766 18.8006 37.0174C23.8822 40.1957 29.4992 38.5426 33.5726 37.0561C38.9631 35.0889 41.5103 29.1411 43.1278 25.2441C43.9094 23.361 43.6778 21.347 43.0393 19.4474C42.4008 17.5479 41.1239 15.7413 39.612 15.4932C36.2488 14.9414 32.7272 20.7557 29.8395 25.7592C28.6055 27.8974 28.855 29.7321 30.8556 30.1542C36.7499 31.3979 42.8687 27.7708 46.9426 25.3771C51.8757 22.4786 54.6071 18.2281 55.2987 14.6327C55.6384 12.8668 55.2471 11.1194 53.8037 9.90873C50.3494 7.01144 43.9876 7.81222 39.1768 9.61503C30.4153 12.8983 36.4466 26.9351 37.8409 32.0486C38.4638 34.3331 40.3027 35.491 42.3978 35.4068C44.4929 35.3225 47.1433 33.8342 49.0362 31.4784C52.9637 26.5908 53.0696 20.5188 52.7431 16.3998C52.5856 14.412 51.772 12.7139 50.4699 11.5054C47.7333 8.96549 42.0078 8.98403 36.261 9.30326C31.9189 9.54446 27.6659 13.9078 23.7559 19.9313C20.3974 25.1053 23.067 30.7426 24.8916 33.9711C26.8726 37.4765 31.465 38.3059 35.3373 38.3061C39.3039 38.3063 43.1992 36.2481 46.8849 34.3647C50.97 32.2772 52.2293 26.9119 54.0603 23.4389C55.7707 20.1946 55.2596 16.4729 54.1753 13.1056C53.1033 9.77679 50.2625 7.32141 46.8995 5.47282C39.7523 1.54414 17.5226 8.08694 4.1841 15.2051C0.395384 17.227 1.43855 22.6551 2.40257 25.9904C4.85975 34.4916 17.3611 38.1831 23.9539 41.4245C27.0974 42.97 30.7538 42.7294 34.3026 41.9716C42.201 40.2852 47.9897 31.8835 53.1851 24.7006C57.734 18.4114 56.8665 10.5755 56.112 6.45328C55.7678 4.57217 53.8487 3.61824 52.2091 2.73966C44.4609 -1.41225 33.8938 5.96637 30.1893 8.74271C24.0132 13.3714 26.7502 22.7502 27.3907 27.1659C28.3667 33.8946 38.7972 34.409 46.1309 34.0905C50.2464 33.9117 53.0505 30.5033 54.9882 27.5736C57.13 24.3355 57.1589 19.6273 56.8355 15.2812C56.6871 13.2854 55.8655 11.7994 54.5624 11.0231C53.2592 10.2468 51.3191 10.2469 49.7818 10.9942C48.2445 11.7415 47.1688 13.236 45.8612 14.6464" stroke="url(#paint0_linear_2794_25572)" stroke-width="3" stroke-linecap="round"/>
<defs>
<linearGradient id="paint0_linear_2794_25572" x1="34.0074" y1="-438.195" x2="34.0074" y2="477.149" gradientUnits="userSpaceOnUse">
<stop stop-color="white" stop-opacity="0"/>
<stop offset="0.221154" stop-color="white"/>
</linearGradient>
</defs>
</svg>
