<svg width="52" height="50" viewBox="0 0 52 50" fill="none" xmlns="http://www.w3.org/2000/svg">
<path d="M15.0576 3.28528C14.6031 3.56177 13.3339 4.3256 12.5466 4.66929C11.4973 5.12733 10.9258 5.59871 10.2116 6.01398C9.60685 6.36558 9.05964 6.91367 8.61411 7.47579C8.2154 7.97884 7.96364 8.70798 7.67974 9.2886C7.36601 9.93022 7.01936 10.4283 6.72697 10.9708C6.35095 11.6684 5.963 12.3347 5.66069 12.9518C5.38725 13.51 5.05722 14.0909 4.55762 15.0531C4.15961 15.8196 3.88045 16.7472 3.60532 17.8246C3.43495 18.4917 3.33132 19.0907 3.25575 19.6895C3.17351 20.3412 3.16149 21.1272 3.09525 21.8845C2.9884 23.1062 3.02902 25.373 3.07556 26.8943C3.10556 27.8749 3.21518 28.9213 3.3276 29.8014C3.42735 30.5822 3.62675 31.2311 3.76665 31.8378C3.90826 32.452 4.18635 33.2553 4.43924 33.9498C4.72324 34.7297 5.01684 35.4115 5.25066 36.0196C5.52832 36.7417 5.98801 37.4301 6.33426 38.0659C6.75736 38.8429 7.2945 39.6146 7.86643 40.3186C8.29363 40.8445 8.75349 41.3551 9.43561 42.0378C10.065 42.6677 10.679 43.1685 11.2675 43.8318C11.9531 44.6047 12.4733 44.9449 13.4246 45.4773C14.365 46.0036 14.9955 46.1605 15.7776 46.3922C17.2889 46.8398 17.9585 47.1585 18.5383 47.3365C19.1465 47.5233 19.7337 47.8123 20.3418 48.1025C20.946 48.3908 21.5651 48.5233 22.3801 48.6866C23.5264 48.9163 25.2603 48.9243 26.6434 48.8417C27.3286 48.8007 28.1785 48.6642 29.0487 48.4684C30.1139 48.2287 31.3428 48.0491 32.0258 47.9172C32.957 47.7373 34.1934 47.4085 34.9503 47.1546C35.7336 46.8919 36.5985 46.3551 37.4356 45.9257C38.023 45.6243 38.6504 45.432 39.6314 44.9418C40.342 44.5866 40.9314 43.9794 41.5112 43.5359C42.1198 43.0704 42.6136 42.5839 43.5749 41.7271C44.2914 41.0884 45.0594 40.3243 45.8538 39.3896C46.3731 38.7785 46.8348 38.2263 47.3582 37.4922C48.155 36.3747 48.7084 35.0013 49.2327 33.2602C49.5077 32.3469 49.6873 31.5959 49.8553 31.0039C50.0242 30.4087 50.1819 29.7589 50.3972 28.9764C50.5918 28.2695 50.732 27.3096 50.826 26.0004C51.0762 22.5123 50.7883 21.8268 50.2944 20.6398C49.9702 19.8608 49.9559 19.2108 49.824 18.5995C49.6945 17.9992 49.4958 17.4284 49.2977 16.8712C49.0924 16.294 48.8286 15.6357 48.3949 14.7032C47.9389 13.7226 47.5831 13.1484 47.3185 12.5539C47.0299 11.9058 46.6966 11.3954 45.92 10.2983C45.3167 9.44614 44.4244 8.5878 43.7115 8.07181C42.9392 7.51283 42.2815 6.72758 41.5366 6.03859C41.0326 5.57234 40.284 5.19885 39.2083 4.63245C38.5353 4.27812 37.8144 3.98963 36.8178 3.5942C36.4405 3.44449 35.5193 3.04217 33.9585 2.43933C32.4276 1.84806 31.4084 1.78483 29.0112 1.63133C26.7653 1.48752 22.4196 1.39669 19.7859 1.42975C15.3247 1.48575 14.5095 2.19914 13.6887 2.72656C13.1353 3.08215 12.251 3.82821 11.3542 4.66118C10.6074 5.3548 10.2417 6.06847 9.79919 6.65698C9.31411 7.30203 8.72856 8.07213 8.21012 8.73605C7.74583 9.33063 7.38906 9.91245 7.06779 10.7723C6.61653 11.9801 6.29329 14.0337 5.67741 15.6668C5.0129 17.4288 4.57988 18.4341 4.33426 19.2576C4.13878 19.9129 4.09763 22.7177 4.15342 25.0927C4.17525 26.0219 4.63046 27.7522 4.87628 29.0408C5.05474 29.9763 5.26309 30.5974 5.41224 31.2332C5.62162 32.1258 5.91526 33.0226 6.11588 33.7366C6.3531 34.5809 6.51138 35.1527 6.79517 36.0035C7.01382 36.659 7.1546 37.2696 7.47746 38.1688C7.92783 39.423 8.50857 40.04 8.93864 40.5822C9.34182 41.0905 9.79823 41.5349 10.796 42.5615C11.4602 43.2449 12.4097 43.6455 13.352 44.0372C14.3986 44.4722 15.1471 44.6918 16.0445 44.9849C16.7448 45.2136 17.4502 45.4472 18.21 45.7334C19.541 46.2348 20.3688 46.4376 21.915 46.653C23.1665 46.8272 23.9682 46.8857 25.2733 46.8951C26.4541 46.9035 27.8416 46.4913 28.8965 46.2681C30.3616 45.9581 32.415 45.3343 33.8258 45.0437C34.9792 44.8061 35.4767 44.4454 36.5634 43.7322C37.9813 42.8015 38.5413 42.3481 39.1897 41.8348C40.1317 41.089 41.1176 40.4019 41.8034 39.8615C42.3482 39.4322 43.3504 38.6034 44.1576 37.8197C44.8344 37.1625 45.4399 36.2527 46.2792 35.0972C47.1738 33.8656 47.9529 32.8635 48.4269 31.7457C48.9308 30.5577 48.9271 29.7434 48.9325 26.5298C48.9357 24.6362 48.5381 22.2172 48.3593 20.9076C48.1921 19.6824 48.0229 18.5141 47.7328 17.4204C47.3719 16.0599 46.5933 14.6195 46.2426 13.9568C45.9608 13.4244 45.5942 12.6468 43.6246 9.70123C41.8638 7.06787 41.3122 6.47164 40.1457 5.28593C39.4841 4.61347 38.7308 4.24541 38.2027 3.99009C37.6588 3.72707 36.9628 3.39624 36.2651 3.14092C35.5354 2.87387 34.7438 2.69765 33.5276 2.42069C32.3125 2.14396 30.5511 2.08134 29.5999 1.91845C28.7639 1.77527 28.0249 1.75375 26.7098 1.69364C26.2059 1.6706 23.7671 1.58424 20.1926 1.61057C17.9873 1.62682 16.8398 2.13084 15.5517 2.84015C13.9309 3.73271 12.6021 4.44302 11.3283 5.33613C9.5924 6.5532 9.14439 7.13241 8.41056 8.02845C7.70768 8.88669 7.28 9.856 6.93974 10.539C6.64039 11.1399 6.48846 11.829 6.187 12.5754C5.73757 13.6881 5.00692 16.0033 4.57137 17.0843C4.04714 18.3855 3.84859 19.1193 3.42457 19.9601C3.08213 20.6391 2.84883 21.324 2.47124 22.296C2.19603 23.0045 2.11175 23.7351 2.03618 24.4379C1.93491 25.3796 2.09031 26.8412 2.31488 27.8181C2.53688 28.7839 2.75258 29.5584 3.0173 30.6781C3.19841 31.4441 3.54383 32.4088 4.63305 34.494C5.25103 35.677 6.06796 36.4109 6.48962 36.945C6.95459 37.5339 7.44856 38.2754 8.14893 39.1819C8.5814 39.7416 8.96254 40.2851 9.34607 40.8276C9.86947 41.5679 10.4944 42.5448 10.9161 43.1453C11.3989 43.833 11.9153 44.4714 12.5041 45.1449C12.9534 45.6588 13.6333 46.1716 14.4266 46.6499C14.8973 46.9337 17.046 47.4812 19.8872 48.2564C21.3186 48.6468 23.7554 48.6461 25.2969 48.5398C25.9459 48.495 26.7315 48.2536 27.6655 48.1753C29.3152 48.0371 29.9157 48.0199 31.0212 47.8356C33.2914 47.4571 34.2631 47.2125 34.964 46.901C35.8226 46.5193 36.3849 46.0717 37.0294 45.647C37.7517 45.1711 38.6457 44.6005 39.4841 44.0367C40.8151 43.1415 41.5099 42.7246 42.4104 41.8046C43.0608 41.1401 43.476 40.6192 44.244 39.4405C44.8006 38.5862 45.2515 38.0791 45.6816 37.4198C46.0948 36.7863 46.5466 36.0765 47.0045 35.2922C47.6788 34.137 48.2129 33.3119 48.9263 31.6854C49.373 30.6672 49.6823 29.4664 49.8179 28.8239C50.0029 27.9471 50.1414 26.6041 50.2323 25.6632C50.4527 23.3821 49.1619 21.6638 48.8791 21.0055C48.5774 20.3032 48.1947 19.399 47.8755 18.496C47.4031 17.1597 46.453 15.6929 46.0487 14.9222C45.634 14.1319 45.0362 13.212 44.602 12.5437C44.0141 11.6389 43.5088 10.8967 43.0934 10.1812C42.314 8.8383 42.0771 8.14178 41.7751 7.54829C41.4349 6.87965 40.8863 6.02627 40.3965 5.41523C39.9485 4.8564 39.2608 4.26959 37.3633 3.11481C35.8948 2.2211 34.769 2.30547 34.1021 2.18291C33.4274 2.05891 32.7478 1.92844 31.9244 1.73964C30.7536 1.4712 29.559 1.48649 28.8892 1.41092C28.1868 1.33166 27.0639 1.16531 25.6257 1.06387C23.4066 0.907374 21.7793 1.07275 21.1383 1.19393C18.7406 1.64721 17.9653 2.20364 16.683 3.33841C15.9919 3.94999 15.3273 4.53101 14.1628 5.5539C13.298 6.3135 12.1555 7.33328 11.1039 8.38986C10.0843 9.41428 9.44511 10.4214 8.89461 11.4813C8.50998 12.2219 8.24953 13.1817 8.06143 13.9265C7.75461 15.1414 7.59281 16.4752 7.42852 17.4349C7.12229 19.2237 6.92736 20.7233 6.81043 21.7939C6.6805 22.9836 6.55979 23.7533 6.44657 24.4308C6.302 25.296 6.21058 26.8812 6.46702 28.6359C6.7415 30.5142 7.17873 31.5979 7.53225 32.8292C7.81987 33.831 8.32133 35.2956 8.67012 36.1986C8.94796 36.918 9.26053 37.7548 9.64176 38.4603C10.0718 39.2561 10.5897 40.0202 11.39 41.0571C12.0255 41.8805 13.044 42.6211 14.9881 43.5872C16.7158 44.4457 18.6281 44.6071 19.8082 44.7601C21.9545 45.0384 25.1678 44.7383 25.7988 43.1604C27.293 43.0342 28.1085 42.706 28.7982 42.4997C29.9691 42.1495 30.8657 41.8745 31.455 41.6916C32.0502 41.5068 32.8802 40.9569 33.566 40.5977C34.1827 40.2747 34.808 39.7681 35.4068 39.5122C35.9708 39.2712 36.6203 39.0502 37.5713 38.6834C38.9272 38.1605 39.7136 37.7531 40.2757 37.3472C40.863 36.9232 41.5237 36.1389 42.0648 35.4996C42.9461 34.4584 44.359 33.3309 44.6861 32.839C45.4998 31.6155 45.0121 30.0621 45.0876 28.6779C45.176 27.0543 45.0696 25.4437 44.833 24.2173C44.3943 21.9437 43.836 21.1359 43.38 19.8013C42.9754 18.6171 42.6524 17.8763 42.2809 17.137C41.8039 16.1876 41.2472 15.1968 40.4829 13.7949C39.7752 12.4968 39.1632 10.9579 38.7197 10.1565C38.1548 9.13572 37.663 8.44404 36.9576 7.69104C36.1036 6.77942 35.1975 6.57671 34.4684 6.29684C33.1078 5.77459 32.2146 5.62886 31.4424 5.43689C30.3192 5.15765 27.1374 5.11301 25.1581 5.41826C23.8746 5.61621 22.6545 5.98714 21.1468 6.21199C18.9361 6.54171 16.9711 7.23862 15.9476 7.3975C14.8155 7.57324 13.3591 9.67921 12.3664 11.0666C11.9718 11.618 11.7154 12.132 11.096 13.5166C10.2132 15.4899 9.73601 15.9816 9.47633 16.643C9.08802 17.6321 9.10498 18.3078 9.08801 20.6627C9.07999 21.7764 9.23397 22.4047 9.34 23.0138C9.4629 23.7198 9.67632 25.3537 9.82102 26.5734C9.95699 27.7195 10.0249 28.5379 10.1278 29.2751C10.3022 30.5241 10.4929 31.9765 10.6187 32.6635C10.7573 33.4206 10.8737 34.3566 11.4284 35.9862C11.7401 36.902 12.1516 37.5232 12.4794 38.0281C12.8469 38.5944 13.3662 39.1672 13.8219 39.7295C14.339 40.3676 15.3094 40.7213 16.058 40.9464C17.1736 41.282 18.8314 41.134 20.308 40.9492C21.6523 40.7809 23.1352 40.8174 24.8124 40.7324C25.9321 40.6757 27.1518 40.4795 28.0301 40.3631C28.8771 40.2509 30.1017 40.0191 31.0302 39.744C31.89 39.4892 32.8624 38.795 33.5765 38.2571C34.0791 37.8786 34.5569 37.4939 35.3647 37.1403C36.1688 36.7884 37.1028 36.3692 37.8321 35.9455C38.5888 35.5058 39.1024 34.9847 39.7105 34.447C40.4169 33.8224 41.0998 32.8434 41.5958 32.2201C42.078 31.6141 42.3609 30.7581 42.6978 29.9965C42.8446 29.6647 42.9084 29.3381 42.9457 28.9999C43.0453 28.0962 42.0099 27.0853 41.4638 26.7412C40.8853 26.3765 40.8997 24.9882 40.7314 23.4385C40.6147 22.3637 40.5613 21.4916 40.3076 20.6103C40.0519 19.7218 39.5976 17.7213 39.4418 16.5045C39.3215 15.565 39.0186 14.7384 38.764 14.0926C38.2901 12.8905 37.1683 10.9945 36.7802 10.3815C36.3307 9.67145 35.7203 9.12663 35.0512 8.49443C34.2663 7.75286 33.0993 7.42012 32.2442 7.1808C31.5475 6.98583 29.6548 6.9325 28.4142 6.96905C27.4877 6.99634 26.7996 7.15549 26.1079 7.26302C25.2889 7.39034 24.1775 7.50775 23.2767 7.60547C22.1241 7.73049 21.2573 7.94462 20.6255 8.08536C19.6672 8.29882 18.7144 8.72963 17.9388 9.0421C16.6414 9.56472 16.0984 10.1952 15.5585 10.7961C14.8208 11.617 14.1823 12.7576 13.6783 13.5806C13.1645 14.4197 12.9846 15.1178 12.5515 16.0786C11.951 17.4109 11.5055 18.336 11.2283 19.2342C10.9796 20.0397 10.8854 20.9288 10.8568 21.5751C10.7985 22.8941 10.8836 24.8961 11.1264 25.9234C11.5381 27.6654 12.377 30.3888 12.7143 31.4406C13.0726 32.5581 13.4122 33.7588 13.6401 34.438C14.1233 35.8784 14.4992 37.1242 14.7327 37.6561C14.973 38.2033 15.3925 38.8924 16.0471 39.5574C16.8352 40.358 18.503 40.6735 19.4323 40.9603C20.3382 41.2399 21.2967 41.3245 22.077 41.3592C23.1185 41.4056 24.2083 40.9028 24.9849 40.7138C25.6329 40.5561 26.1544 40.3289 26.9244 40.0546C28.5737 39.467 29.1902 39.2362 29.8943 38.8995C30.7142 38.5074 31.8683 38.552 33.3417 38.3414C35.3673 38.0519 36.3068 37.0392 36.9803 36.596C37.7238 36.1067 38.3535 35.8221 38.9058 35.4175C39.6799 34.8503 40.5377 34.0749 41.0232 33.6186C41.539 33.1338 42.1567 32.6308 42.5324 31.9803C42.8655 31.4036 42.9439 30.7527 43.0379 28.3166C43.1245 26.0707 42.9629 25.3204 42.7554 24.6316C42.528 23.8767 42.196 22.8679 41.9036 21.8186C41.7068 21.1123 41.5875 20.5357 41.2958 19.5231C40.482 16.6983 40.1069 15.6191 39.3325 14.2138C38.9068 13.4414 38.3295 12.8599 37.167 11.6899C36.5603 11.0792 34.4242 9.98931 33.103 9.30707C32.3612 8.92406 31.4612 8.72323 28.3001 8.61609C26.5218 8.55582 25.566 8.83372 24.5914 8.91756C22.7411 9.07673 19.4388 9.91816 18.2425 10.5276C16.7773 11.274 16.2631 11.772 15.6338 12.4335C15.0002 13.0994 14.5241 13.8602 14.2123 14.4114C13.7154 15.2901 13.4303 16.158 13.227 16.789C13.0102 17.4617 12.6324 18.5841 12.3093 20.2711C12.1259 21.229 12.084 21.943 12.0876 24.3893C12.0893 25.5733 12.3968 26.2878 12.5841 26.9901C12.8136 27.8509 13.1067 28.7348 13.3596 29.616C13.5819 30.3909 13.8811 31.1867 14.1707 31.9148C14.4609 32.6443 15.0425 33.9342 15.5208 34.9004C15.8457 35.5566 16.2032 36.1805 16.5487 36.788C17.0067 37.5937 17.5109 38.2182 17.9967 38.6953C19.1013 39.7802 22.402 38.7606 23.186 38.4432C23.788 38.1995 24.5543 38.0653 26.1817 38.0175C29.1749 37.9295 29.9491 37.8019 30.6939 37.5579C32.0223 37.1228 34.1175 36.4854 35.5784 35.4249C36.3451 34.8683 36.8514 34.2723 37.5335 33.562C38.1769 32.892 38.8668 32.1608 39.2736 31.4342C39.6941 30.6832 40.0803 29.7623 40.3481 28.3767C40.6663 26.7305 39.8372 25.7133 39.0646 23.9396C38.7054 23.1149 38.5082 22.4962 38.3344 21.7319C38.0689 20.5647 37.7311 18.713 37.3912 17.2551C37.1961 16.4184 36.7716 15.7147 36.2612 15.095C35.2015 13.8084 34.3361 12.4928 33.7845 11.7226C33.2352 10.9556 32.4669 10.5021 31.6875 10.1812C30.6939 9.77207 29.9919 9.91943 28.2831 9.90943C27.4089 9.90432 26.6307 10.1128 25.6037 10.3617C24.3438 10.6671 23.5631 10.8864 22.8651 11.0362C22.1183 11.1963 20.4511 11.6475 19.2597 11.9316C18.673 12.0715 18.2112 12.5785 17.6392 13.1011C16.8697 13.804 16.2302 14.9495 15.6832 15.8381C15.0937 16.7955 14.9088 17.4358 14.5913 18.3715C14.3465 19.0927 14.1767 19.8234 14.0313 20.5947C13.8754 21.4222 13.866 22.0237 13.7721 22.7058C13.6277 23.7538 13.6962 24.7462 13.6399 26.2569C13.6067 27.1478 13.4146 27.9752 13.3014 28.7938C13.1968 29.5502 13.0183 30.4476 12.9334 31.0938C12.8478 31.7455 12.7353 32.4472 12.6597 33.1224C12.5436 34.1598 12.8494 36.0361 13.4139 37.0869C14.0209 38.2171 15.1587 38.3902 16.7693 38.9386C17.6691 39.245 18.6206 39.6019 19.4123 39.7511C20.5216 39.9601 21.5182 40.1418 25.2163 40.2963C26.5366 40.3514 27.4245 40.1364 29.1142 39.8033C30.1202 39.605 31.3005 38.9187 33.0949 38.2327C33.8943 37.9271 34.5601 37.4847 35.1598 37.0795C35.8733 36.5975 36.4307 36.0912 37.8069 34.8531C40.5835 32.3551 42.3649 30.3926 42.4955 30.1116C42.7769 29.5063 42.7871 28.1947 42.8414 24.7284C42.8808 22.2088 42.1905 21.0206 41.6562 19.9159C40.8528 18.2549 38.8859 17.0523 38.0487 16.4307C35.8308 14.7837 33.6447 14.1703 32.4101 13.7307C31.041 13.2431 29.2683 13.0455 27.2721 12.9507C25.9999 12.8904 24.1597 13.382 23.0769 13.9137C21.8152 14.5333 20.9848 15.3594 20.4588 15.833C18.4465 17.6448 17.0036 19.0547 16.283 19.8544C14.769 21.5347 14.2215 22.5466 13.8941 23.5724C13.5571 24.6281 13.6311 26.2505 13.7533 27.8823C13.9611 30.6577 16.036 32.7656 16.6635 33.5806C17.1936 34.2692 17.7563 34.7954 18.3641 35.394C18.851 35.8734 19.4385 36.2914 20.9225 37.1136C21.8263 37.6144 24.7383 37.7262 26.731 37.4082C29.5946 36.9513 31.7497 35.8189 32.8132 35.0672C33.6564 34.4711 34.2909 34.0203 34.899 33.3281C35.9364 32.1471 36.1213 31.1612 36.649 30.0341C37.2883 28.6687 37.0627 26.4013 36.6241 24.49C36.3429 23.2643 35.632 22.2452 34.6418 20.4454C33.4854 18.3435 32.1178 16.6582 31.5743 15.6757C30.9994 14.6367 30.3559 13.8186 29.9304 13.2981C29.5539 12.8374 28.3546 12.7831 24.4537 12.7262C23.2063 12.7079 22.6169 13.0528 19.686 15.1082C18.5456 15.9081 17.814 18.3618 17.1238 20.304C16.3216 22.5613 15.8878 23.4805 14.9502 26.4128C14.4943 27.8387 14.1349 28.6372 14.0783 29.2023C13.9911 30.0733 14.301 31.2463 15.0046 32.5711C16.4831 35.3553 18.0207 35.4196 19.639 36.2681C22.6372 37.8401 23.7645 37.6101 24.7614 37.6786C25.8617 37.7541 26.5489 37.4495 27.3626 37.3041C28.1293 37.1672 29.0209 36.8504 30.1171 36.4761C31.0917 36.1433 32.1555 35.2573 33.22 34.5539C33.9534 34.0693 35.2707 32.6031 36.2334 31.0036C36.678 30.2651 36.7405 29.0742 36.9775 27.5456C37.4936 24.217 36.9407 23.4685 36.5702 22.5883C35.6913 20.5004 34.9287 19.6724 34.0213 18.1038C33.4438 17.1057 32.9028 16.113 32.5343 15.3882C32.1161 14.5657 31.5652 13.4635 30.5281 12.6032C29.8397 12.0322 29.1978 11.7106 27.75 11.757C25.6987 11.8227 24.2421 12.4456 23.4276 12.6866C20.545 13.5394 19.4088 13.8029 18.3906 14.2229C17.7748 14.4769 17.2596 14.5996 16.9947 14.6832C15.2158 15.2441 15.4075 19.598 15.2141 20.431C15.0435 21.1657 14.9563 21.7886 14.9148 22.8733C14.8172 25.4234 15.006 27.8079 15.1749 28.9426C15.3169 29.8973 15.7348 31.1083 17.2898 33.6813C17.8646 34.6325 18.7489 35.2018 20.0448 35.9141C22.0636 37.0239 23.245 36.6012 24.097 36.4003C24.7735 36.2409 25.5205 36.1977 26.7014 35.9203C27.6332 35.7014 28.1884 35.3419 28.9302 34.9605C29.6428 34.5941 30.9213 34.3307 32.1456 33.859C33.1003 33.4912 33.8336 33.0468 34.4785 32.7143C35.1141 32.3867 35.9378 31.6143 36.5479 30.9154C37.1598 30.2144 37.2113 29.3953 37.414 28.8742C37.5217 28.5972 37.9427 28.6034 38.1104 28.3124C38.5142 27.6114 38.3547 26.6696 38.2505 25.9991C38.1569 25.3966 38.015 24.7643 37.839 23.9867C37.5994 22.9279 37.4631 22.0382 37.1858 21.2338C36.864 20.3004 36.4104 19.7114 36.1417 19.0983C35.7209 18.1385 34.8026 16.2354 34.1511 15.3156C33.4386 14.3096 31.5068 14.1734 30.6724 14.0136C30.0406 13.8926 27.484 14.5003 25.7914 14.8764C24.5558 15.1509 23.8639 15.5264 23.0248 15.9335C22.1483 16.3586 21.3572 16.8153 20.6784 17.3747C19.9704 17.9581 19.4163 18.9046 18.9334 19.7479C18.4416 20.6067 18.0746 21.2619 17.4027 23.0171C16.9412 24.2224 16.9049 25.1129 16.768 26.3512C16.6145 27.7382 16.6626 28.5065 16.6249 29.1663C16.589 29.7936 16.9032 30.7744 17.5634 32.2138C18.3419 33.9109 19.6062 34.7544 20.2829 35.1764C20.8372 35.522 23.0238 35.3174 25.3069 35.119C26.1801 35.0431 27.7681 34.8157 28.815 34.5902C29.4837 34.4462 30.1039 34.0909 30.6469 33.8449C31.2872 33.5549 32.1034 33.0538 32.8609 32.3941C33.499 31.8386 33.8058 31.2068 34.0127 30.6284C34.2111 30.0737 34.2555 29.3781 34.1979 27.894C34.1511 26.6895 34.0197 26.0161 33.8725 25.2162C33.7378 24.4839 33.5525 23.6935 33.298 22.7807C33.0782 21.9921 32.8358 21.3966 32.5527 20.6898C32.2433 19.9172 32.0432 19.381 31.7601 18.7123C31.5069 18.114 31.0652 17.4481 30.6 16.8088C30.2803 16.3696 29.8465 16.0484 29.5179 15.8223C28.8825 15.3849 27.835 15.6871 27.0259 15.9576C26.1126 16.263 25.244 16.8809 24.5665 17.1896C23.6472 17.6085 22.9562 18.0674 22.2294 18.4882C21.557 18.8775 21.0869 19.5993 20.7469 20.2349C20.3827 20.9158 20.0504 21.7442 19.7109 22.5377C18.996 24.2088 18.7109 25.1936 18.4945 25.8752C18.3159 26.4375 18.1732 27.0761 18.0976 27.7485C18.0129 28.5023 18.0777 29.5654 18.2176 30.2946C18.3907 31.1968 18.7495 31.8554 19.182 32.5048C20.1157 33.9068 21.0667 33.8128 22.7409 34.1722C26.1497 34.9039 26.914 34.1169 27.4931 33.9152C28.2357 33.6566 29.1936 33.5821 29.8392 33.3274C30.6473 33.0085 31.4163 32.2268 31.9893 31.4999C32.7484 30.5369 32.7474 29.738 32.8228 29.0672C32.8918 28.4528 32.4103 27.5537 32.1065 26.8516C31.8644 26.2918 31.6539 25.6458 31.3385 24.7495C30.8387 23.3294 30.7965 22.5186 30.6645 21.84C30.5206 21.0997 30.2688 20.3167 29.9388 19.5533C29.6002 18.7701 28.8984 18.1089 28.2949 17.7868C27.6165 17.4246 26.654 18.3909 25.9797 18.8326C25.4006 19.2119 24.6648 19.9839 23.876 20.5425C23.2727 20.9698 22.7771 21.5845 21.7879 22.997C21.1812 23.8633 20.7753 24.6386 20.4246 25.3411C20.1282 25.9349 20.131 28.4679 20.1868 30.0936C20.2095 30.7555 20.7635 31.4517 21.5583 32.0392C22.4499 32.6983 24.4679 32.9195 26.5735 33.0323C27.5762 33.086 28.1599 32.559 30.0692 31.4192C31.1141 30.7954 30.7289 29.5176 30.7831 28.4912C30.9049 26.1852 30.198 25.3023 29.9238 24.4713C29.7181 23.8482 29.5934 23.1167 29.4893 22.4247C29.3935 21.7885 29.2538 21.1545 29.0369 20.5402C28.9847 20.3921 28.896 20.267 28.7922 20.1436C28.6884 20.0202 28.5578 19.9081 28.2623 20.1735C27.3829 20.963 26.8355 21.9729 26.1273 22.6614C23.5335 25.1832 21.8618 26.3349 21.6282 27.1793C21.3921 28.0331 22.3073 28.9225 22.8689 29.5688C23.289 30.0522 23.5981 30.5587 24.0091 31.0177C24.3975 31.4514 25.6902 31.4772 27.4864 31.1817C27.9676 31.1025 28.2165 30.8383 28.4871 30.6881C29.0216 30.3913 29.1507 29.4117 29.4474 27.917C29.9405 25.4326 28.2743 22.7286 27.85 22.1238C27.6473 21.8349 27.2379 21.7072 26.784 21.6315C26.329 21.5557 25.9358 21.7235 25.6448 21.9096C24.9907 22.328 24.6927 23.03 24.2369 23.9548C23.9101 24.6176 23.7295 25.5855 23.6416 26.4622C23.4999 27.8754 24.8443 29.6618 25.782 30.3884C26.8249 31.1965 28.409 28.456 28.5585 28.1898C28.8561 27.6596 28.002 26.152 27.4352 25.2964C27.3509 25.169 27.1077 25.2559 26.9373 25.3576C26.5687 25.5775 26.3713 25.983 26.2436 26.3036C26.1085 26.643 26.4017 27.1418 26.6835 27.5479C26.7951 27.7087 26.9762 27.6607 27.0987 27.5949C27.3445 27.463 27.4733 27.1456 27.5799 26.8249C27.6863 26.5049 27.6038 26.1901 27.4721 25.927C27.3323 25.6475 27.0761 25.3803 26.8127 25.1165C26.5837 24.8871 26.2471 24.8317 25.9089 24.8312C25.1081 24.8299 24.5588 26.0435 24.1397 27.0025C23.9874 27.351 23.9865 27.7103 24.0415 28.0801C24.2312 29.3557 26.5697 29.7232 26.8798 29.7272C27.6243 29.7368 27.6693 28.2689 28.1186 25.684C28.6075 22.8709 28.4479 20.8896 28.09 20.1319C27.8997 19.7291 27.478 19.483 27.1235 19.2661C26.8205 19.0808 26.4845 19.0463 26.1232 19.1415C23.8301 19.746 21.7117 22.2905 21.2814 22.9996C20.6496 24.0406 20.6749 24.83 20.4915 26.1188C20.348 27.1276 20.7693 28.2495 21.3075 29.2385C22.4817 31.3956 24.9554 32.8256 25.9211 33.2324C27.2018 33.7718 29.6117 32.2155 31.71 32.0768C32.538 32.0221 33.014 30.8167 33.789 29.7728C34.0742 29.3886 34.4512 27.6653 35.022 24.5426C35.6293 21.2203 35.1517 18.9804 34.942 18.25C34.5611 16.9231 32.9401 15.3422 31.9012 14.3854C29.9865 12.622 29.3646 12.1179 28.2855 11.5798C25.4998 10.1907 22.6537 10.9001 21.6895 10.8339C20.0128 10.7189 18.3105 10.8133 15.2403 11.8921C12.4246 12.8814 7.05642 14.7705 4.1858 15.805C1.31519 16.8395 1.10506 16.9628 1.03062 17.1589C0.956182 17.3551 1.02379 17.6204 1.16502 17.9035C1.30624 18.1866 1.51904 18.4794 1.79435 18.8933" stroke="white" stroke-width="2" stroke-linecap="round"/>
</svg>
