<svg width="40" height="511" viewBox="0 0 40 511" fill="none" xmlns="http://www.w3.org/2000/svg">
<defs>
<linearGradient id="nespresso-2a-fade" x1="20" y1="1.5" x2="20" y2="509" gradientUnits="userSpaceOnUse">
<stop stop-color="currentColor" stop-opacity="0"/>
<stop offset="0.221154" stop-color="currentColor"/>
</linearGradient>
</defs>
<path fill="none" d="M19.9309 1.5C8.66841 21.9245 7.77949 29.4128 9.81305 44.739C10.8213 52.3375 17.6275 63.7629 23.7715 80.2749C33.331 105.966 34.4141 110.723 36.5791 120.775C39.46 134.152 35.4955 144.624 32.4788 159.538C29.4821 174.353 21.0104 189.371 17.8738 196.633C15.0207 203.239 11.6494 208.125 10.6809 213.195C9.40251 219.886 12.498 224.952 13.0865 229.702C13.4001 232.234 12.0634 235.18 10.5234 237.951C9.8274 239.203 8.83887 239.854 7.78806 239.376C1.42764 236.481 1.51534 224.578 1.5 216.945C1.49727 215.582 3.01781 214.95 4.21946 214.646C9.21466 213.384 14.001 218.123 18.1801 222.928C23.9769 229.593 18.2074 243.764 13.2521 256.103C10.5132 262.923 11.8984 271.035 14.01 276.687C16.5414 283.463 22.8066 288.142 27.2215 295.316C30.7673 301.079 32.6894 306.433 33.4496 320.488C34.1276 333.022 33.7081 356.586 32.9423 380.035C32.1764 403.485 30.6447 426.123 29.7827 439.477C28.3865 461.106 32.6981 466.107 35.1139 471C37.4119 475.655 36.9471 494.407 32.5919 508.964" stroke="url(#nespresso-2a-fade)" stroke-width="3" stroke-linecap="round"/>
</svg>
