<svg width="29" height="457" viewBox="0 0 29 457" fill="none" xmlns="http://www.w3.org/2000/svg">
<path d="M3.10368 1.5C3.10368 6.34088 2.60481 25.8713 1.74117 55.2589C0.898847 83.9208 2.31758 92.45 5.14479 106.771C9.63575 129.519 10.1562 136.715 15.3056 157.812C19.0013 172.953 23.7886 206.195 25.8189 222.521C27.7548 238.088 26.5759 250.566 24.4808 266.153C22.715 279.289 20.5314 290.327 18.5343 300.859C16.3263 312.503 13.0622 324.036 10.8001 334.971C6.77331 354.438 6.02573 362.64 6.06744 387.647C6.09077 401.635 8.78129 411.544 10.609 422.316C14.1707 434.573 17.6063 441.885 20.7442 449.982C21.5012 451.829 22.3552 453.323 23.2351 455.51" stroke="url(#paint0_linear_2811_21620)" stroke-width="3" stroke-linecap="round"/>
<defs>
<linearGradient id="paint0_linear_2811_21620" x1="117.019" y1="-597.648" x2="117.019" y2="317.696" gradientUnits="userSpaceOnUse">
<stop stop-color="white" stop-opacity="0"/>
<stop offset="0.221154" stop-color="white"/>
</linearGradient>
</defs>
</svg>
