<svg width="21" height="456" viewBox="0 0 21 456" fill="none" xmlns="http://www.w3.org/2000/svg">
<path d="M8.39733 1.5C8.83406 6.23716 8.26447 10.8255 7.10395 15.0888C5.98986 19.1816 4.03994 25.2678 2.73615 31.4645C1.2451 38.5511 1.24542 53.3249 1.98537 61.4819C2.49619 67.1129 4.3512 73.8035 7.38198 89.4842C9.12454 98.4999 10.4862 106.549 11.5019 113.062C12.3254 118.343 12.9189 122.957 13.2615 128.566C13.7834 137.109 14.0056 148.984 14.2745 173.196C14.3688 181.677 13.7315 187.341 13.4932 215.072C13.4426 220.968 13.1961 222.148 13.094 231.139C12.9919 240.13 12.9919 256.895 12.8009 267.406C12.5415 281.675 11.834 294.145 11.9009 309.506C11.9504 320.866 12.3733 334.055 12.6429 351.706C12.7837 360.919 12.9125 370.653 13.1468 379.858C13.8484 407.426 14.7254 412.273 14.9302 417.68C15.1155 422.574 15.6742 427.137 16.0776 432.073C16.3472 435.635 16.6189 438.907 16.8885 442.672C17.0243 445.232 17.1581 449.112 19.3233 453.921" stroke="url(#paint0_linear_2811_21637)" stroke-width="3" stroke-linecap="round"/>
<defs>
<linearGradient id="paint0_linear_2811_21637" x1="108.154" y1="-482.406" x2="108.154" y2="425.731" gradientUnits="userSpaceOnUse">
<stop stop-color="white" stop-opacity="0"/>
<stop offset="0.221154" stop-color="white"/>
</linearGradient>
</defs>
</svg>
