<svg width="64" height="63" viewBox="0 0 64 63" fill="none" xmlns="http://www.w3.org/2000/svg">
<path d="M15.2606 48.2898C15.4469 50.4134 16.6168 52.2436 17.9812 53.6244C23.7373 59.4496 36.6816 58.2911 46.6429 56.2352C57.1075 54.0754 60.7251 37.6734 62.241 27.7344C62.9873 22.8414 61.5613 18.3467 59.6378 14.4955C57.5935 10.4027 54.1236 7.03721 49.6798 4.14572C43.778 0.305494 36.183 1.22939 28.8677 3.24972C16.7927 6.58461 10.2463 15.3667 8.59163 20.5333C4.16847 34.3445 12.6507 43.2032 18.1123 51.0044C20.9292 55.0278 25.4914 56.8962 29.4411 58.1254C33.4904 59.3855 39.1352 56.6348 44.9983 52.7875C49.9567 49.5339 51.7301 39.3241 51.4572 26.5143C51.29 18.6609 45.9583 14.4544 41.6935 11.1492C38.0858 8.35334 31.0237 8.98931 22.9347 10.7541C13.3541 12.8444 7.45275 20.8898 2.88447 28.8056C0.651915 32.6742 1.63107 38.6389 2.30711 44.5021C3.37237 53.7408 14.9716 57.2239 23.2239 60.3788C27.6892 62.0859 33.0212 60.7941 37.7904 60.2442C42.547 59.6956 45.8701 55.5685 48.3243 51.7186C53.1052 44.2189 52.7125 32.4814 49.9699 23.6355C48.6164 19.2699 43.6419 17.0041 38.9193 15.7631C34.7541 14.6686 30.3757 16.1524 25.9783 18.3281C21.0715 20.7557 18.5089 25.9694 17.2679 31.685C15.7083 38.8679 17.6572 45.0952 19.8328 48.7745C22.2327 52.833 27.4742 54.3959 32.3786 55.0776C37.2381 55.753 41.6833 52.7529 45.0922 48.9095C48.1732 45.4359 49.0748 40.6374 49.2115 35.8277C49.3418 31.2421 46.6248 26.4847 43.769 21.6538C41.1052 17.1478 36.7474 14.9606 32.3474 14.2685C28.0016 13.5849 21.8852 18.1869 15.9653 24.5949C12.1746 28.6983 13.0351 34.0431 12.8919 38.4026C12.747 42.8109 15.7422 46.6134 19.2822 49.3422C22.7676 52.0288 28.0257 52.0873 32.5804 52.2346C36.807 52.3713 41.4675 46.1112 46.5193 40.3376C48.6988 37.8467 48.5966 35.11 48.1899 32.7548C47.3768 28.0465 44.2009 23.5184 41.177 19.3938C39.7842 17.494 37.6071 16.9021 34.5801 17.2914C31.5532 17.6807 27.4683 19.3032 24.9545 21.3559C22.4406 23.4086 21.6216 25.8424 21.3349 28.313C20.7695 33.1847 22.9492 37.6178 26.0795 41.4323C27.7404 43.4562 30.0211 45.2468 32.4876 45.0012C38.2862 44.4237 42.3373 37.3517 45.4758 32.2287C47.0179 29.7116 47.2622 26.7209 47.1313 24.3093C47.0004 21.8976 46.1813 19.9917 44.4801 19.2088C40.5947 17.4206 35.4027 20.8561 31.5513 24.2609C29.7215 25.8785 28.7894 27.9361 28.7676 29.8577C28.7459 31.7793 29.8276 33.6722 31.0608 35.4585C32.2941 37.2449 33.6462 38.8674 35.1539 38.4227C36.6617 37.9779 38.2842 35.4168 38.9836 32.7336C39.6829 30.0505 39.4099 27.3229 38.3137 25.373C37.2175 23.4232 35.3063 22.3337 32.5537 22.9894C29.8011 23.645 26.2648 26.0787 24.8462 28.279C23.4275 30.4792 24.2336 32.3721 25.5953 33.8881C26.957 35.404 28.8499 36.4857 30.6363 36.09C32.4227 35.6942 34.0452 33.7883 35.0162 31.6637C35.9873 29.5391 36.2577 27.2535 35.3062 25.9331C34.3548 24.6127 32.1732 24.3267 30.4409 25.3169C26.621 27.5006 25.965 33.3602 26.4978 37.5885C26.9909 41.5017 33.3102 42.12 36.7232 41.9332C39.8521 41.7619 38.5219 34.1241 38.1124 28.6327C37.9242 26.1103 36.8838 24.2307 35.5921 23.7819" stroke="url(#paint0_linear_2811_21643)" stroke-width="3" stroke-linecap="round"/>
<defs>
<linearGradient id="paint0_linear_2811_21643" x1="31.9714" y1="-398.547" x2="31.9714" y2="486.956" gradientUnits="userSpaceOnUse">
<stop stop-color="white" stop-opacity="0"/>
<stop offset="0.221154" stop-color="white"/>
</linearGradient>
</defs>
</svg>
