<svg width="52" height="56" viewBox="0 0 52 56" fill="none" xmlns="http://www.w3.org/2000/svg">
<path d="M32.2317 45.2986C34.9475 42.9824 38.3173 38.3499 39.797 34.9544C41.2768 31.559 40.7645 29.541 39.9955 27.6187C38.4746 23.8171 34.9025 20.8493 30.4484 18.8097C26.5154 17.0088 22.1449 17.2677 18.0735 17.3853C13.7793 17.5094 10.6577 21.538 8.74445 25.4417C4.66186 33.7718 8.32922 43.7402 13.4951 50.5927C15.9573 53.8587 20.7 54.1478 24.6076 53.8966C28.6588 53.6362 32.3203 49.8263 36.732 46.5314C47.3837 38.5762 44.9716 26.9196 44.8505 16.8417C44.7952 12.2414 41.4205 8.53661 38.2443 5.47922C32.5539 0.00165033 22.3283 1.38101 14.0367 2.62546C5.05239 3.97389 3.18942 15.7354 1.77361 24.5814C0.780285 30.7877 2.64408 36.2245 4.91055 39.628C9.52357 46.5552 18.0318 48.8606 25.7446 48.7511C35.2551 48.616 37.7553 34.6573 39.2891 26.4977C40.1817 21.7489 37.7687 16.7997 35.6067 12.5982C33.6823 8.8583 30.1234 6.83544 26.4358 5.68629C22.6576 4.5089 18.4034 6.79078 14.3393 10.0654C10.0173 13.5478 7.43103 17.6532 6.03052 21.3068C4.5741 25.1063 5.1126 29.2735 6.87499 33.056C7.74023 34.913 9.13766 36.3382 10.7826 37.3615C12.4274 38.3849 14.4286 38.8851 16.4601 38.6402C20.6518 38.1347 24.0554 34.8411 26.8297 31.6673C28.2071 30.0915 29.1037 28.2433 29.1141 26.4511C29.1244 24.659 28.1143 22.8912 26.5837 21.9793C25.0531 21.0674 23.0327 21.0649 21.2354 22.0642C19.4381 23.0636 17.9252 25.0648 17.0196 27.0963C16.114 29.1278 15.8614 31.1289 16.857 32.6601C17.8525 34.1913 20.1038 35.1919 22.4409 35.581C24.7781 35.9702 27.1328 35.7176 28.8461 34.5798C30.5594 33.4419 31.56 31.4263 31.6966 29.3789C31.8332 27.3316 31.0756 25.3136 30.0539 23.3913C29.0323 21.469 27.7695 19.7036 25.6085 19.5433C20.2712 19.1475 15.8011 23.9263 14.0092 27.5761C11.8261 32.0225 17.5126 36.8125 21.0928 39.8298C22.9097 41.361 24.7765 42.8326 26.8575 42.7181C31.5711 42.4585 35.2458 36.4144 38.0021 31.3166C40.3435 26.9861 38.2693 21.9479 35.6032 17.4986C34.2705 15.2746 32.6846 13.302 30.6437 12.3863C26.4353 10.4981 20.1105 13.9603 14.626 17.846C12.3068 19.4891 11.7536 21.4959 11.6134 23.7738C11.3037 28.8066 13.9754 35.8474 18.0207 42.1828C26.3751 55.2668 46.9754 33.4854 49.3761 30.3092C54.8479 23.0698 36.0498 14.8926 29.2844 10.2893" stroke="url(#paint0_linear_2811_21647)" stroke-width="3" stroke-linecap="round"/>
<defs>
<linearGradient id="paint0_linear_2811_21647" x1="26.3089" y1="-412.328" x2="26.3089" y2="476.146" gradientUnits="userSpaceOnUse">
<stop stop-color="white" stop-opacity="0"/>
<stop offset="0.221154" stop-color="white"/>
</linearGradient>
</defs>
</svg>
