<svg width="58" height="63" viewBox="0 0 58 63" fill="none" xmlns="http://www.w3.org/2000/svg">
<path d="M20.9839 54.4647C17.2905 54.4657 8.66575 53.4024 6.9161 52.4279C5.16645 51.4534 3.65752 49.9486 2.77241 48.3132C1.09142 45.2072 1.44965 40.6043 1.76991 35.943C2.26098 28.7956 10.0417 23.2208 17.3046 19.3897C29.6389 12.8834 41.3863 16.0089 44.6148 17.2964C50.9988 19.8424 52.1594 30.5875 52.7074 39.0053C53.1674 46.0714 45.9858 52.2622 39.3404 58.1013C37.8599 59.4022 36.1917 59.832 34.3397 59.7319C30.2286 59.5096 25.7483 55.7297 21.5089 51.1744C17.4913 46.8573 17.0148 38.4235 17.5486 29.7041C17.7712 26.0681 19.1499 24.1646 20.5539 22.9518C23.2173 20.6509 27.5608 20.8636 31.8633 21.8244C36.9176 22.9531 39.4331 28.1811 41.3709 31.4064C43.4064 34.7943 43.5415 39.387 43.1104 43.6928M20.9839 54.4647C23.9168 57.1767 28.5276 60.1405 32.7431 58.1401C39.3831 54.9893 46.3848 50.0523 47.9557 42.9164C48.7134 39.4744 49.3491 35.7921 47.9488 32.6745C46.5481 29.556 44.2138 26.8723 40.7025 24.5903C36.3967 21.792 31.7464 19.1001 28.7364 21.1837C24.9709 23.7904 17.9701 29.5074 18.8865 37.8963C19.433 42.8986 20.973 49.4523 25.3705 53.5007C27.1714 55.1586 29.0383 55.6832 30.9775 54.602C35.4262 52.1218 39.3197 48.9864 39.3196 45.6422C39.3194 41.9835 38.0562 38.2399 35.1591 35.7366C32.4438 33.3905 28.7444 30.1253 26.2026 31.9211C23.7311 33.6672 21.5862 36.6979 21.6942 40.3151C21.8073 44.1065 23.2685 48.924 27.4842 51.7012M20.9839 54.4647C14.2663 48.253 14.0163 33.4728 15.9064 23.5085C16.7086 19.2791 21.7523 15.8732 26.3783 12.3947C30.174 9.54051 34.9121 10.1944 39.3182 11.262C45.4815 12.7553 49.366 17.7319 52.0575 20.0967C57.2488 24.6578 56.2823 33.8744 54.7669 41.1175C53.2803 48.2227 45.221 54.3711 35.9434 60.0471C33.9666 61.2564 32.2285 61.2881 30.5477 60.9121C22.976 59.218 19.2949 49.702 16.5579 41.1932C11.8285 26.4903 24.9793 13.2104 29.7123 6.49209C31.0907 4.5355 33.1446 2.69778 34.9885 1.91293C36.8325 1.12807 38.5405 1.55508 39.9542 2.41558C42.7539 4.11976 43.9623 7.79858 44.6093 12.2487C46.2604 23.6051 38.8083 32.0459 35.5345 38.0921C32.046 44.5349 27.0526 50.1617 21.608 56.7449C20.2742 58.3576 19.214 59.8666 17.9125 60.2711C16.611 60.6756 15.1185 59.9447 14.1341 58.7101C12.0937 56.1511 12.0588 52.055 12.3727 47.8335C12.7575 42.6596 22.2378 35.7185 25.2495 32.6745" stroke="url(#paint0_linear_2811_21655)" stroke-width="3" stroke-linecap="round"/>
<defs>
<linearGradient id="paint0_linear_2811_21655" x1="32.5228" y1="-416.445" x2="32.5228" y2="488.997" gradientUnits="userSpaceOnUse">
<stop stop-color="white" stop-opacity="0"/>
<stop offset="0.221154" stop-color="white"/>
</linearGradient>
</defs>
</svg>
