<svg width="54" height="473" viewBox="0 0 54 473" fill="none" xmlns="http://www.w3.org/2000/svg">
<path fill="none" d="M17.5 1.5C13.6973 3.72553 8.24187 10.8524 5.53514 15.3107C1.47333 22.0009 0.842899 39.7071 2.04358 50.7661C3.22088 61.6099 11.9142 70.6433 19.1818 80.8683C25.5251 89.7928 36.031 100.589 40.0037 105.517C43.9693 110.437 48.7368 120.537 51.2871 128.642C52.9725 133.998 52.3067 141.793 51.7067 148.498C50.6334 160.492 45.3726 168.581 39.5195 179.57C34.2804 189.406 29.4706 197.373 26.8763 202.055C22.4844 209.98 19.8245 218.55 17.574 227.136C15.7315 234.165 13.9838 245.081 12.2157 255.827C11.6355 259.353 12.0367 271.716 13.0723 289.772C13.638 299.636 16.2369 309.744 18.1904 321.297C19.5125 329.115 21.4479 336.247 25.1147 351.385C27.0615 359.422 28.9051 365.366 30.2136 371.482C31.2011 376.097 32.1328 382.177 33.0442 387.627C33.9666 393.143 33.8456 399.236 34.4302 404.926C34.8843 409.346 35.5973 413.224 35.7953 421.907C36.1776 438.667 35.0859 443.954 34.3986 448.177C33.7988 451.862 33.3467 454.905 32.9455 458.272C32.5443 461.502 31.9462 464.669 31.4428 467.849C31.3421 468.646 31.2429 469.432 30.8402 471.427" stroke="currentColor" stroke-width="3" stroke-linecap="round"/>
</svg>
