<svg width="16" height="427" viewBox="0 0 16 427" fill="none" xmlns="http://www.w3.org/2000/svg">
<path d="M12.5826 1.5C11.6949 11.98 9.91962 20.0836 8.86413 31.7638C6.98686 52.5379 5.28463 64.7757 4.49054 94.4256C4.30443 101.375 3.65108 105.077 3.14514 120.5C2.63921 135.923 2.20393 162.95 1.89147 182.562C1.39775 213.549 1.39551 229.886 1.74773 242.021C2.64262 272.853 3.15923 280.623 3.4267 287.522C3.75298 295.939 4.74816 309.841 5.49641 322.175C5.93342 329.379 7.2656 340.201 7.88283 348.83C8.30759 354.768 9.2043 360.742 9.91137 371.77C10.5516 381.755 11.922 388.93 12.8965 396.18C13.5109 399.703 13.8711 403.076 13.9585 408.518C14.0459 412.388 14.2206 418.505 14.4007 424.808" stroke="white" stroke-width="3" stroke-linecap="round"/>
</svg>
