<svg width="39" height="59" viewBox="0 0 39 59" fill="none" xmlns="http://www.w3.org/2000/svg">
<path fill="none" d="M12.1088 22.9344C13.068 21.1907 15.0038 16.4747 16.4676 16.3104C19.5841 15.9606 22.512 19.9143 24.9224 24.9914C27.6472 30.7309 28.4662 37.6821 28.7466 42.4379C28.883 44.7517 28.4693 46.9241 27.6259 48.5747C26.7824 50.2254 25.3842 51.304 23.7294 51.253C20.1462 51.1424 16.888 46.3034 14.36 41.9338C13.2311 39.9824 12.3844 38.6376 12.6478 33.7463C13.3793 20.1647 17.4482 9.49649 20.8049 5.80888C22.3583 4.10241 23.9762 4.193 25.2481 5.26622C27.8868 7.49276 28.9736 15.4233 29.147 22.9344C29.2256 26.3387 27.726 28.716 26.4277 30.2994C23.9015 33.3803 20.9269 33.5055 18.5303 32.9624C17.3257 32.6895 16.4113 30.2466 16.1142 28.3133C15.8172 26.3799 16.2335 24.4742 17.0723 23.3563C17.9111 22.2384 19.1599 21.9661 20.8032 23.5709C24.8136 27.4874 26.9231 34.1491 27.1349 37.953C27.2432 39.8986 26.0925 41.7568 25.2146 43.2608C24.3367 44.7647 23.4442 45.8278 22.322 45.5068C19.684 44.7524 18.099 39.2733 17.2663 34.71C16.5109 30.5704 16.2687 26.2309 17.2442 22.25C17.6971 20.4018 19.0522 20.1723 20.179 20.1615C21.3059 20.1506 22.4159 20.6899 23.2652 22.0464C25.034 24.8712 25.2414 31.6229 24.5143 38.4486C23.2022 50.766 10.5914 51.4139 4.57819 53.7336C3.6427 54.0944 2.8995 51.7404 2.50568 49.5765C2.11186 47.4126 2.11186 44.5941 2.90369 41.93C7.06281 27.9365 16.4175 28.79 18.3229 29.2636C19.3001 29.5065 19.8934 32.2938 19.6645 34.8805C19.1261 40.9624 15.2681 44.9179 12.0023 46.9936C10.5644 47.9075 9.40497 47.3372 8.68893 46.1105C7.97289 44.8839 7.69271 42.711 7.97398 39.7352C9.71439 21.3212 19.2367 10.1464 21.6585 8.11526C22.8556 7.1113 24.2191 7.42469 24.938 9.76219C26.8354 15.9316 24.1228 29.0355 20.7933 41.1794M12.8848 49.4365C11.8611 48.6893 11.0219 46.7861 11.1833 43.4734C11.5906 35.1137 19.4777 21.0989 28.6621 6.23113C32.0427 0.758513 33.1529 0.282924 34.2498 3.52424C37.4398 12.9504 37.6492 26.1185 37.4437 34.8306C37.3507 38.7723 36.8273 41.6757 35.5203 44.4749C29.3811 57.6227 13.5908 54.7073 5.63567 48.8866C4.27535 47.8913 5.03085 42.7112 5.34105 39.5787C5.65124 36.4463 6.27163 33.8975 7.99743 31.7911C15.7446 22.3352 20.9245 25.2528 22.5258 27.1586C31.1626 37.4378 6.69856 49.8003 2.85079 51.9856C1.5266 52.7377 1.25509 49.7008 1.69475 47.3885C2.13442 45.0761 3.23644 42.797 4.45722 41.4867C5.678 40.1765 6.98415 39.9042 8.14265 40.4381C10.4192 41.4873 12.1056 45.5971 13.1556 47.503C13.3146 47.7917 12.9501 45.6129 13.2872 44.3575C13.6243 43.1022 14.7344 42.5576 16.2541 44.0753C20.0891 47.9051 22.0393 54.7823 22.1797 57.234C22.224 58.0074 20.9232 56.9813 20.2079 55.6102C17.1434 49.7364 18.2148 40.5128 18.8392 37.6092C19.0962 36.414 20.7124 38.7739 21.6332 38.6493C23.4401 38.4049 23.6809 31.9118 24.1665 28.1913" stroke="currentColor" stroke-width="3" stroke-linecap="round"/>
</svg>
