<svg width="23" height="429" viewBox="0 0 23 429" fill="none" xmlns="http://www.w3.org/2000/svg">
<path d="M8.29447 1.5C7.74843 5.29403 5.00172 22.5972 2.64798 37.2335C-0.481395 56.6929 3.5532 85.515 5.6561 96.5806C7.36655 105.581 7.90554 114.928 8.86429 129.697C10.1388 149.331 8.33017 166.733 7.3098 183.207C4.09754 235.067 7.78231 246.275 8.59766 256.998C9.61571 270.387 12.1418 281.246 13.6495 292.194C14.9053 301.312 16.5176 309.943 16.9314 329.151C17.4775 354.5 18.9759 365.911 20.0699 376.736C22.026 396.092 21.2731 424.784 21.0582 427.141" stroke="url(#paint0_linear_2811_21645)" stroke-width="3" stroke-linecap="round"/>
<defs>
<linearGradient id="paint0_linear_2811_21645" x1="-92.3802" y1="7.25781" x2="-92.3802" y2="892.761" gradientUnits="userSpaceOnUse">
<stop stop-color="white" stop-opacity="0"/>
<stop offset="0.221154" stop-color="white"/>
</linearGradient>
</defs>
</svg>
