<svg width="53" height="53" viewBox="0 0 53 53" fill="none" xmlns="http://www.w3.org/2000/svg">
<path d="M3.88025 37.7952C3.9362 43.0185 8.79639 46.251 12.5854 48.5539C16.3091 50.8173 20.8222 51.2624 26.5931 51.0677C32.1618 50.8798 36.6647 47.2151 41.4694 43.1269C46.2924 39.0231 47.6282 33.8719 49.7913 27.9433C51.5225 23.1986 50.88 17.5255 49.523 13.0763C48.3156 9.1176 42.8382 7.04407 39.1471 3.76238C35.6218 0.62804 29.8884 1.43727 25.0447 2.16646C19.7768 2.95953 14.6334 8.43276 9.64389 13.0367C6.35372 16.0726 4.93138 20.0612 4.64764 29.7049C4.47883 35.4425 7.61153 39.1176 10.1801 43.9831C11.4226 46.3368 13.0203 48.1836 15.1064 49.6675C20.083 53.2078 25.5732 50.2155 30.7453 48.4174C36.2098 46.5178 40.2372 43.4829 43.1565 39.0542C45.9314 34.8444 45.6622 28.7765 45.3955 22.5801C45.1211 16.2064 36.0307 12.131 30.7633 8.90456C25.5704 5.72374 19.2573 7.3226 14.8094 9.33974C10.8223 11.1479 8.87444 16.6237 6.75913 20.9168C5.46273 23.5478 4.25537 26.129 3.84602 28.8233C3.36046 32.019 4.50964 35.1828 6.1274 37.6784C9.06805 42.2147 15.0352 43.7055 21.186 45.7307C25.6437 47.1985 30.1749 45.0549 34.4363 43.2169C40.8528 40.4493 42.8863 34.5953 44.3035 29.9737C45.6528 25.5734 45.384 20.5166 46.565 15.3778C46.961 13.6548 47.3995 11.305 47.0605 11.2842C32.3876 10.3875 25.7137 39.6102 24.1148 41.3881C21.7261 44.0443 28.1534 33.3881 31.456 27.3526C33.8907 22.9034 34.5719 18.6952 34.6694 18.1175C36.05 9.92969 22.6304 33.3644 17.1889 40.7361C16.0125 42.3298 15.3851 43.3008 15.6097 42.6261C20.5547 27.7673 33.6214 10.8791 34.5257 8.82869C38.5101 -0.204546 13.5932 40.7702 13.0387 41.7846C6.38608 53.9535 27.4141 11.288 27.3121 11.1378C16.3944 -4.93618 1.7939 44.8184 2.44946 42.2948C3.91894 36.6382 9.40691 28.9875 12.5548 22.5711C13.1137 21.432 13.4583 20.2498 14.0951 18.8323C15.4897 15.7278 12.4415 25.6739 7.43041 40.9165C4.02804 51.2657 17.4114 20.9894 20.3126 15.4157C20.9775 14.1383 21.3282 13.0363 20.5727 12.7923C19.8171 12.5483 17.8925 13.1697 16.901 15.8094C15.9095 18.4492 15.9095 23.0884 17.5961 23.5389C23.5012 25.116 27.3911 15.0448 28.5578 16.4232C34.1073 22.9799 25.3182 33.0976 25.5149 35.5333C25.8696 39.9249 30.9798 28.0225 33.076 24.0633C33.6949 22.8943 34.8884 21.7525 35.0493 23.2387C35.6678 28.95 33.2195 35.1761 34.7379 34.9639C37.5477 34.5712 40.9264 26.7777 43.0238 24.7542C45.1211 22.7307 44.9217 24.9692 44.4646 27.6052C44.0074 30.2411 43.2985 33.2066 42.7095 31.4909C42.1204 29.7752 41.6727 23.2885 40.8014 21.1021C37.4456 12.682 25.0883 37.2066 24.7332 39.3686C24.4057 41.363 32.5554 33.8616 35.2396 32.3946C37.9237 30.9276 37.1389 32.8291 36.0271 34.7061C33.7553 38.5409 31.5118 41.085 30.3768 42.8142C28.3971 45.8304 42.2963 28.5366 43.1072 27.6057C43.7903 26.8215 41.4622 35.4867 38.6503 43.8621C36.4411 50.4423 49.1843 19.517 49.7802 15.8184C50.8826 8.97699 39.6387 27.6724 37.5346 27.8736C35.3157 28.0857 40.955 18.7705 41.7541 16.7625C42.2528 15.5094 36.4102 24.6157 33.63 26.8919C27.1986 32.1576 40.5836 11.7934 38.7004 14.4661C24.182 35.0705 23.7995 41.6436 21.7272 46.5914C21.2639 47.6976 20.4728 48.4445 20.1242 48.1575C13.6597 42.836 29.5979 22.9453 33.8382 15.1147C35.0083 12.9537 35.5999 10.7202 35.4985 9.66802C34.8495 2.93644 26.0141 20.9916 22.4702 24.513C17.1664 29.783 11.7869 35.1399 8.79218 38.5815C5.48283 42.3847 15.4281 26.363 18.6029 22.1425C21.7753 17.9253 25.0862 13.9122 27.2821 9.48302C27.79 8.45861 28.1235 7.48206 26.7498 8.75942C17.2106 17.6294 15.3032 23.5335 13.0456 27.7968C10.894 31.8601 10.3892 35.8457 10.4719 37.1336C10.7799 41.935 22.8714 32.0904 27.7581 29.1752C30.0142 27.8293 24.3456 39.1631 21.2473 46.4024C19.86 49.6438 29.6071 39.6974 32.3611 37.9076C33.1044 37.4244 31.5179 42.7163 32.0843 42.8906C42.5175 46.1011 40.1741 29.018 41.9338 22.7597C43.0388 18.8296 42.0731 14.8437 41.4612 11.9889C40.9546 9.62512 38.3945 8.5678 36.3539 7.614C29.7659 4.53476 19.5843 7.18724 15.2799 8.74013C10.1203 10.6016 6.33762 16.6343 3.94699 20.1537C1.38552 23.9245 1.41718 29.0656 1.5456 34.6751C1.64819 39.1563 6.8003 42.4456 10.9258 46.4414C14.0817 49.498 19.0937 50.4331 24.424 50.8145C30.8214 51.2722 36.8702 49.1616 41.6688 45.0842C48.2799 39.4665 46.2119 31.3041 45.9445 22.7289C45.8157 18.5975 43.0831 16.1611 41.3823 14.5954C37.5732 11.0888 31.8932 11.0497 28.8382 11.6794" stroke="url(#paint0_linear_2811_21635)" stroke-width="3" stroke-linecap="round"/>
<defs>
<linearGradient id="paint0_linear_2811_21635" x1="26.1699" y1="-421.5" x2="26.1699" y2="486.637" gradientUnits="userSpaceOnUse">
<stop stop-color="white" stop-opacity="0"/>
<stop offset="0.221154" stop-color="white"/>
</linearGradient>
</defs>
</svg>
