<svg width="60" height="72" viewBox="0 0 60 72" fill="none" xmlns="http://www.w3.org/2000/svg">
<path fill="none" d="M36.3768 16.344C38.1723 16.3469 40.0959 16.1044 41.4746 17.0547C43.0726 18.1562 44.7874 19.6254 45.4739 21.5116C46.072 23.1548 46.5674 25.6775 45.8461 28.4993C45.2804 30.7128 44.2973 32.5901 42.3017 33.8491C37.9299 36.6072 32.4557 39.2308 28.8544 37.1424C26.9731 36.0514 24.7785 34.7963 24.3981 32.9703C23.6093 29.1838 23.5414 23.4062 26.1218 20.7664C28.9399 17.8834 32.7309 15.9127 35.3248 15.7162L28.9477 24.6598M15.3915 27.1928C15.3895 25.8218 11.0862 23.9041 14.3434 19.8798C15.1289 18.9093 16.7351 18.4841 18.2026 18.3294C24.1929 17.6977 30.7982 23.2555 28.9477 24.6598M28.9477 24.6598C20.0842 31.3865 24.5872 41.0589 17.2317 51.5935C15.2324 54.4568 13.4861 57.6354 11.9715 59.1771C10.4568 60.7188 9.29341 60.5727 7.93866 59.993C4.9263 58.7039 2.78948 56.493 1.58104 54.3873C0.142646 51.8808 17.9752 41.7796 45.3114 29.0649C55.2872 24.4249 57.5542 23.9045 57.797 22.7142C58.4586 19.4705 50.392 16.0701 43.7272 12.9544C41.0845 11.719 39.8381 11.4163 35.8735 15.7731C24.3375 28.4508 16.4495 43.3371 13.3432 51.9024C11.0592 58.2003 11.3127 63.5407 12.3121 67.4654C12.7719 69.2713 15.3101 69.7611 17.6894 69.458C28.4167 68.0911 38.5467 52.4715 41.6385 42.2983C45.123 30.8334 19.6107 31.9078 12.0861 30.6946C8.59552 30.1318 12.2632 17.7563 16.1963 5.63284C20.7827 -8.5045 51.5953 17.9949 53.8177 20.0788C54.9517 21.1421 55.3423 22.9021 55.2038 24.2272C54.3592 32.3036 41.2693 37.48 38.376 39.6609C32.308 44.2348 26.9471 27.9275 25.6932 21.4847C23.4429 9.92281 51.1529 17.5501 54.4535 18.8879C56.8736 19.8688 56.5041 25.7233 55.5565 32.2352C54.2524 41.1965 40.4331 47.3187 35.5284 48.6565C34.401 48.964 33.3659 47.529 32.6596 45.4358C27.626 30.5169 31.5116 13.5648 33.9592 8.03497C34.6233 6.53452 35.8325 5.42184 36.9277 4.86404C38.0229 4.30623 39.1793 4.44941 40.6723 5.38631C44.2558 7.63519 47.3206 14.0327 49.6119 22.3311C51.7378 30.0306 49.7613 36.7596 47.9775 40.9181C46.5259 44.302 39.0214 44.1825 30.5549 43.8726C22.8745 43.5916 17.59 38.7466 14.9014 34.239C13.146 31.2961 14.9066 28.0257 16.5055 25.0229C21.1463 16.3072 29.9402 12.4748 32.7341 12.749C36.9406 13.1619 39.7582 17.3909 41.8717 20.0827C44.2218 23.0757 44.2963 27.8912 43.4637 32.8731C42.5363 38.4227 38.087 41.231 35.7142 42.611C33.361 43.9796 30.8608 44.5701 28.5108 44.5709C26.0903 44.5717 23.796 42.6666 21.6684 40.8319C16.9523 36.7648 17.5506 28.0743 19.0156 23.4252C20.8826 17.5 30.4212 14.7507 37.12 11.7026C39.7285 10.5157 41.1279 11.0508 42.8399 11.9906C44.5518 12.9304 46.6354 14.5121 47.0158 16.6578C43.279 25.5086 39.9036 29.1619 38.1496 31.6645C37.1239 33.1553 35.8229 35.0946 34.0402 38.4065L28.9477 24.6598" stroke="currentColor" stroke-width="3" stroke-linecap="round"/>
</svg>
