<svg width="51" height="431" viewBox="0 0 51 431" fill="none" xmlns="http://www.w3.org/2000/svg">
<path d="M20.2552 1.5C15.6179 10.4759 9.21649 24.8136 5.03731 39.5521C0.0793033 57.0374 1.39297 75.6867 2.68048 88.422C3.82711 99.7637 8.74567 109.785 20.2526 142.358C24.3357 153.917 26.5381 161.812 30.8065 172.9C36.4171 187.475 43.4828 210.885 45.9736 224.429C50.3583 248.271 48.895 259.653 48.9569 272.786C49.0198 286.127 46.0748 301.616 43.4661 311.551C38.0615 332.132 30.164 348.459 26.5195 356.643C20.5145 370.129 17.8689 379.614 16.2326 387.812C14.4842 396.571 13.7275 404.847 13.2396 415.681C12.9737 418.423 12.442 420.647 12.2748 422.859C12.1077 425.072 12.3212 427.207 12.5412 429.407" stroke="url(#paint0_linear_2811_21653)" stroke-width="3" stroke-linecap="round"/>
<defs>
<linearGradient id="paint0_linear_2811_21653" x1="60.9251" y1="-539.703" x2="60.9251" y2="365.739" gradientUnits="userSpaceOnUse">
<stop stop-color="white" stop-opacity="0"/>
<stop offset="0.221154" stop-color="white"/>
</linearGradient>
</defs>
</svg>
