<svg width="27" height="455" viewBox="0 0 27 455" fill="none" xmlns="http://www.w3.org/2000/svg">
<path d="M6.82198 1.5C7.35206 11.4565 19.4756 17.766 23.7449 25.5343C29.8733 36.6854 17.9002 49.358 11.8981 61.3191C1.24243 82.5538 1.93857 93.8111 1.5112 123.346C1.26312 140.49 5.1946 154.863 7.64884 174.503C9.42088 188.684 14.1904 211.142 15.8613 228.095C17.786 247.622 18.093 259.657 18.642 280.932C18.9777 293.939 20.5513 307.413 21.6453 317.369C22.8333 328.181 24.0913 343.465 24.6541 412.114C24.3811 426.286 23.8351 428.72 23.5538 434.3C23.2725 439.881 23.2725 448.534 23.2725 453.321" stroke="url(#paint0_linear_2811_21641)" stroke-width="3" stroke-linecap="round"/>
<defs>
<linearGradient id="paint0_linear_2811_21641" x1="99.1237" y1="-543.141" x2="99.1237" y2="342.363" gradientUnits="userSpaceOnUse">
<stop stop-color="white" stop-opacity="0"/>
<stop offset="0.221154" stop-color="white"/>
</linearGradient>
</defs>
</svg>
