<svg width="71" height="448" viewBox="0 0 71 448" fill="none" xmlns="http://www.w3.org/2000/svg">
<path d="M40.8827 1.5C37.2089 2.14052 28.9941 8.13814 16.9545 16.5823C8.96059 22.1889 5.18686 32.7755 2.17585 49.2436C-1.34184 68.4829 9.13202 81.1338 27.5407 104.065C43.3952 123.814 57.1969 147.487 61.4494 160.324C66.5907 175.843 68.5228 191.356 69.0035 200.494C69.8849 217.25 68.8005 245.054 68.1788 254.462C66.9673 272.793 57.7626 308.113 53.3532 322.062C49.4165 334.515 46.0799 343.922 40.221 359.224C36.121 369.932 32.3893 381.655 29.474 390.317C26.5306 399.061 24.8609 412.711 23.0624 423.716C21.683 432.157 23.5291 439.893 25.8447 446.474" stroke="url(#paint0_linear_2811_21618)" stroke-width="3" stroke-linecap="round"/>
<defs>
<linearGradient id="paint0_linear_2811_21618" x1="-137.579" y1="16.4765" x2="-137.579" y2="931.821" gradientUnits="userSpaceOnUse">
<stop stop-color="white" stop-opacity="0"/>
<stop offset="0.221154" stop-color="white"/>
</linearGradient>
</defs>
</svg>
