<svg width="19" height="449" viewBox="0 0 19 449" fill="none" xmlns="http://www.w3.org/2000/svg">
<path d="M17.4135 1.5C14.7903 8.36225 10.7308 20.6415 9.04675 29.8307C7.20573 39.8762 6.47787 45.8634 5.55688 56.1642C4.54751 67.4535 3.97877 80.9628 2.37716 115.295C1.07795 143.144 1.59568 192.26 1.63247 218.321C1.67696 249.834 2.54089 260.265 3.28914 274.172C3.72373 282.25 4.72893 293.505 5.17648 309.434C5.58186 323.861 6.67802 330.48 7.24619 347.172C7.64752 358.963 8.50111 373.806 8.6778 408.489C8.2313 422.931 7.87837 433.321 6.89981 439.595C6.45597 441.452 5.75012 443.724 5.02288 446.594" stroke="url(#paint0_linear_2820_23691)" stroke-width="3" stroke-linecap="round"/>
<defs>
<linearGradient id="paint0_linear_2820_23691" x1="-73.6465" y1="7.52096" x2="-73.6465" y2="933.496" gradientUnits="userSpaceOnUse">
<stop stop-color="white" stop-opacity="0"/>
<stop offset="0.221154" stop-color="white"/>
</linearGradient>
</defs>
</svg>
