<svg width="58" height="54" viewBox="0 0 58 54" fill="none" xmlns="http://www.w3.org/2000/svg">
<path fill="none" d="M10.4052 21.3553C8.80108 24.4413 11.1563 25.2074 17.9284 26.9916C24.7005 28.7757 34.3512 29.0823 40.549 28.1599C46.7468 27.2375 49.1993 25.0768 50.308 22.7301C51.4166 20.3835 51.1071 17.9163 50.2564 15.5045C49.4058 13.0928 48.0233 10.8113 45.1843 9.55193C42.3454 8.2926 38.0919 8.1246 34.2986 8.94888C30.5054 9.77316 27.3012 11.5948 24.6631 14.4271C22.025 17.2595 20.0501 21.0472 19.7991 23.9182C19.5481 26.7892 21.0809 28.6285 23.25 29.2665C25.4192 29.9046 28.1782 29.2856 30.6725 28.1944C33.1668 27.1032 35.3127 25.5586 37.0224 22.7909C38.7322 20.0232 39.9407 16.0792 37.2929 14.7387C34.645 13.3982 28.1041 14.7806 23.5923 17.1524C19.0805 19.5241 16.796 22.8432 16.6008 25.4727C16.4055 28.1022 18.3686 29.9416 20.9761 30.4249C23.5836 30.9081 26.776 29.9796 29.3314 27.8978C31.8867 25.8159 33.7084 22.6088 34.6469 19.2161C35.5853 15.8233 35.5853 12.3421 34.2883 10.1567C32.9913 7.9713 30.3974 7.18723 27.7051 7.4598C22.0906 8.02824 17.535 11.9945 13.7866 15.2731C10.0395 18.5507 8.20581 24.1972 7.12052 30.1347C6.61829 32.8824 6.75154 35.1761 8.50099 36.652C10.2504 38.1278 13.7494 38.738 16.8414 38.1371C22.8987 36.9599 26.3787 31.5381 28.5665 26.3392C31.1348 20.2361 30.375 13.4474 28.3553 8.5884C27.4312 6.36502 24.791 5.70142 22.0346 7.42059C14.7421 11.9688 12.1573 21.2553 12.6058 26.2454C12.7859 28.249 15.781 28.3498 20.0424 26.9573C30.8485 23.426 39.5773 15.3218 43.0851 8.10653C44.5546 5.08372 42.6311 2.36803 40.2985 1.70864C34.7648 0.144414 27.272 7.6509 21.0344 15.0176C18.4112 18.1156 17.6827 20.5449 17.819 22.7886C17.9553 25.0323 19.1815 27.1782 21.1028 28.5092C23.0241 29.8402 25.6034 30.2912 28.005 30.0593C30.4066 29.8273 32.5526 28.8988 33.9646 27.1839C35.3766 25.469 35.9898 22.9959 35.8414 20.1788C35.6929 17.3617 34.7644 14.2754 32.8977 12.6841C31.031 11.0927 28.2543 11.0898 25.6831 11.8458C20.5429 13.3573 16.9381 18.1305 15.2154 23.2259C14.367 25.7354 16.2606 28.6278 18.4885 30.3557C29.5636 38.9452 45.3239 32.5649 50.6548 29.6499C53.4299 28.1324 54.5059 23.9817 55.2955 20.9365C56.0851 17.8913 56.0851 15.4241 53.8021 13.5341C40.0635 2.16035 20.6632 10.2949 13.8049 13.3486C10.8411 14.6683 10.242 17.8173 10.3695 20.8055C10.6442 27.247 16.0162 33.5981 22.2454 38.9578C25.2077 41.5065 28.5778 42.6815 31.3554 42.4305C36.8682 41.9323 40.1538 35.2721 42.6093 29.1251C43.8802 25.9437 44.4518 22.3619 43.1766 20.3131C37.0022 10.3928 22.1564 18.9813 17.3034 21.3553C15.0244 22.4702 14.4223 25.4243 13.9455 27.9773C12.9993 33.044 16.7053 40.1855 22.6821 47.4934C25.2032 50.5759 27.5683 51.609 30.1167 51.6335C43.6699 51.7636 50.8979 35.8364 52.1383 31.4749C53.378 27.1158 46.5557 23.0213 40.6386 20.0528C35.7331 17.5919 30.3193 18.9261 25.4933 20.6215C15.7358 24.0493 8.77829 31.9131 2.18191 38.4112C0.568724 40.0004 2.14493 43.3394 3.53373 45.2206C4.92254 47.1017 7.06847 48.0214 9.46356 48.3404C20.5851 49.8218 29.4152 34.7706 34.5156 24.5169" stroke="currentColor" stroke-width="3" stroke-linecap="round"/>
</svg>
