<svg width="56" height="488" viewBox="0 0 56 488" fill="none" xmlns="http://www.w3.org/2000/svg">
<path fill="none" d="M32.5848 3.72025C29.6715 2.5527 26.8586 1.65935 24.3605 1.5062C22.045 1.36425 20.3747 3.68621 19.1253 5.65083C16.4127 9.91592 17.5693 15.6153 17.3085 21.0421C17.1675 23.977 18.3497 26.5331 19.7317 28.3553C21.1129 30.1766 23.7463 30.4842 26.1789 30.1604C32.8199 29.2766 35.9722 23.876 37.5776 22.4084C38.3634 21.6901 38.3157 20.3585 37.8808 19.1746C35.1778 11.8179 26.5525 7.15065 24.2011 5.45682C23.0964 4.6611 21.8525 4.49271 20.3538 5.03315C13.3298 7.56616 9.79093 13.3197 7.85529 19.3757C5.20417 27.6701 10.3244 34.4859 12.9295 43.1129C15.0575 50.1601 20.5158 56.6494 24.6227 64.0651C27.9963 70.1566 34.2923 82.0513 35.5015 90.3231C36.3071 95.8341 34.3461 103.849 30.0661 111.019C25.8685 118.051 17.7213 123.77 9.70199 132.054C3.99033 137.955 5.90222 144.84 7.44514 153.029C8.59276 159.12 15.8318 168.171 19.6779 176.159C23.2939 183.669 18.0667 190.319 15.5635 195.437C10.4128 205.97 4.84275 219.524 2.2274 242.019C-0.582055 266.184 5.44278 276.752 8.47598 282.751C14.6717 295.006 16.3953 299.937 18.9228 307.469C21.7384 315.86 22.2905 321.353 24.1171 327.341C26.2455 334.319 26.9688 339.024 27.5536 347.128C28.0288 353.715 28.4318 359.527 28.94 364.725C29.4454 369.894 32.2165 374.719 34.4242 378.927C36.5806 383.037 37.803 388.511 38.977 398.625C41.2089 417.854 37.0739 422.354 34.1999 426.884C30.7156 432.375 26.2334 441.004 24.0218 447.54C22.2342 452.823 22.5183 461.698 23.9704 468.168C24.2297 469.323 25.2779 470.064 26.4029 470.331C28.9643 470.936 33.7393 469.425 39.0258 468.251C42.5415 467.47 43.9343 464.276 45.0294 461.609C48.3776 453.458 42.6125 444.081 40.5559 441.803C36.9981 437.863 28.6952 441.726 23.0539 443.949C17.4245 446.168 13.4549 453.354 11.2362 460.225C8.35399 469.15 13.3933 475.079 16.4597 479.685C19.7478 484.625 29.8615 485.822 35.8391 485.674C42.1291 485.518 46.2097 480.538 49.7206 475.767C53.6925 470.369 49.3039 459.386 47.0932 454.607C45.0501 450.189 38.3478 449.149 31.3458 447.425C27.733 446.536 22.9108 448.987 18.2077 452.254C13.2477 455.699 14.444 465.746 15.6007 472.298C16.6808 478.418 22.137 481.504 28.4399 484.555C31.4051 485.99 34.7351 485.813 37.6801 485.633C43.1952 485.296 49.6797 477.891 53.0657 472.049C55.9763 467.027 53.8032 459.361 51.8949 454.368C49.2942 447.564 39.1261 444.424 29.8808 442.252C25.4406 441.209 21.6601 442.459 19.2002 443.43C13.568 445.653 8.90356 453.599 7.19465 459.894C5.39018 466.541 13.4984 475.364 17.8087 478.663C22.9906 482.628 30.7543 481.812 35.7639 480.654C41.7501 479.27 45.7002 475.54 48.7667 471.581C52.3231 466.991 48.703 457.918 45.6171 452.623C43.9807 449.815 40.3383 448.874 37.1109 448.793C33.7509 448.709 31.0676 451.339 28.9401 453.159C25.0008 456.529 24.5838 462.71 24.2051 468.19C26.3158 474.261 28.3614 477.327 29.7393 479.83C30.5389 481.321 31.5424 483.26 32.5764 485.258" stroke="#463448" stroke-width="3" stroke-linecap="round"/>
</svg>
